<?xml version="1.0" encoding="UTF-8"?>
<svg width="327px" height="282px" viewBox="0 0 327 282" version="1.1" xmlns="http://www.w3.org/2000/svg" xmlns:xlink="http://www.w3.org/1999/xlink">
    <title>hotelizer-full</title>
    <defs>
        <linearGradient x1="-6.36419125%" y1="-1.61313158%" x2="69.5937606%" y2="68.7661264%" id="linearGradient-1">
            <stop stop-color="#0000A9" offset="0%"></stop>
            <stop stop-color="#0098E3" offset="100%"></stop>
        </linearGradient>
    </defs>
    <g id="Square---moto" stroke="none" stroke-width="1" fill="none" fill-rule="evenodd">
        <g id="hotelizer" fill-rule="nonzero">
            <g id="Group" transform="translate(0.000000, 163.000000)" fill="#1D1D1B">
                <path d="M169.118143,41.352274 C169.118143,42.6305277 169.0424,44.1813219 168.928787,45.225421 L139.177126,45.225421 C140.438239,51.3403102 144.67982,54.0119755 149.947712,54.0119755 C153.61365,54.0119755 157.586345,52.5417919 160.563026,49.9852845 L167.17156,57.3016554 C162.437653,61.7928169 156.400974,63.7658571 149.337985,63.7658571 C136.465544,63.7658571 127.531714,54.9025306 127.531714,41.5864286 C127.531714,28.2703265 136.200445,19.407 148.72447,19.407 C161.252283,19.407 169.080272,28.1935545 169.080272,41.4328846 L169.118143,41.352274 L169.118143,41.352274 Z M139.218785,37.4061936 L157.813572,37.4061936 C156.783474,31.9093189 153.500036,28.888341 148.648728,28.888341 C143.305093,28.888341 140.248883,32.1434735 139.218785,37.4061936 L139.218785,37.4061936 Z" id="Shape"></path>
                <path d="M123.528222,32.2732532 L108.332387,32.2732532 L108.332387,47.3321639 C108.332387,52.469597 111.098778,54.346736 114.606996,54.346736 C117.296114,54.346736 120.178416,53.0433784 122.477302,51.6640232 L126.607571,60.3619406 C122.944807,62.812861 118.698628,64.69 112.736977,64.69 C102.370736,64.69 97.035,58.9065879 97.035,48.2137353 L97.035,10.1655714 L108.332387,10.1655714 L108.332387,22.427773 L123.528222,22.427773 L123.528222,32.3112519 L123.528222,32.2732532 Z" id="Path"></path>
                <path d="M11.0562237,26.5746346 C13.9942147,22.4337483 18.3388115,21.0022834 22.8384374,21.0022834 C32.1439663,21.0022834 38.814,27.5801139 38.814,37.2549743 L38.814,63.7658571 L27.7577763,63.7658571 L27.7577763,40.8547439 C27.7577763,34.8564072 24.7857545,31.5291149 19.7491984,31.5291149 C15.0227006,31.5291149 11.0562237,34.6645218 11.0562237,40.931498 L11.0562237,63.7658571 L0,63.7658571 L0,1.84828571 L11.0562237,1.84828571 L11.0562237,26.6130117 L11.0562237,26.5746346 Z" id="Path"></path>
                <path d="M91.4901429,42.5124741 C91.4901429,55.2108962 81.847661,64.69 68.810844,64.69 C55.7740271,64.69 46.2071429,55.2108962 46.2071429,42.5124741 C46.2071429,29.8102467 55.7740271,20.3311429 68.810844,20.3311429 C81.847661,20.3311429 91.4901429,29.8102467 91.4901429,42.5124741 Z M57.7206669,42.5124741 C57.7206669,49.3430607 62.4455208,54.0997367 68.810844,54.0997367 C75.1761672,54.0997367 79.9803987,49.3430607 79.9803987,42.5124741 C79.9803987,35.6818874 75.1761672,30.9214062 68.810844,30.9214062 C62.4455208,30.9214062 57.7206669,35.6818874 57.7206669,42.5124741 L57.7206669,42.5124741 Z" id="Shape"></path>
                <rect id="Rectangle" x="175.587143" y="3.69657143" width="11.0897143" height="60.0692857"></rect>
                <path d="M208.856286,7.39375454 C208.856286,11.5337967 205.648453,14.6263582 201.463143,14.6263582 C197.277833,14.6263582 194.07,11.5337967 194.07,7.39375454 C194.07,3.25371243 197.277833,0 201.463143,0 C205.648453,0 208.856286,3.25371243 208.856286,7.39375454 Z M195.753433,63.7658571 L195.753433,20.780786 L207.293098,20.780786 L207.293098,63.7658571 L195.753433,63.7658571 Z" id="Shape"></path>
                <polygon id="Path" points="249.98361 30.4040532 229.669201 53.764591 250.442714 53.764591 250.442714 63.7658571 214.401143 63.7658571 214.401143 55.6943912 235.17845 32.142405 215.129639 32.142405 215.129639 22.1794286 249.945668 22.1794286 249.945668 30.3657636"></polygon>
                <path d="M297.574,41.352274 C297.574,42.6305277 297.498257,44.1813219 297.422515,45.225421 L267.632983,45.225421 C268.894096,51.3403102 273.13189,54.0119755 278.403569,54.0119755 C282.031636,54.0119755 286.042202,52.5417919 289.018883,49.9852845 L295.627417,57.3016554 C290.889723,61.7928169 284.856832,63.7658571 277.793842,63.7658571 C264.921401,63.7658571 255.987571,54.9025306 255.987571,41.5864286 C255.987571,28.2703265 264.656302,19.407 277.180327,19.407 C289.70814,19.407 297.536129,28.1935545 297.536129,41.4328846 L297.574,41.352274 Z M267.670855,37.4061936 L286.269429,37.4061936 C285.239331,31.9093189 281.955893,28.888341 277.104585,28.888341 C271.757163,28.888341 268.70474,32.1434735 267.670855,37.4061936 Z" id="Shape"></path>
                <path d="M303.118857,34.9753896 C303.118857,24.8551962 310.845088,20.3311429 318.496198,20.3311429 C321.110421,20.3311429 323.950008,20.8291689 326.222429,22.0153073 L323.457963,31.8313626 C322.207192,31.2192848 321.035299,30.911345 319.85965,30.911345 C316.903625,30.911345 314.293158,32.7893974 314.293158,36.8534421 L314.293158,63.7658571 L303.118857,63.7658571 L303.118857,34.9753896 L303.118857,34.9753896 Z" id="Path"></path>
            </g>
            <g id="Group" transform="translate(125.000000, 0.000000)">
                <path d="M35.6985148,63.2174288 C44.0297457,68.3813632 51.0251475,75.6425798 55.9766836,84 L84.3925534,56.7308024 C89.2024822,52.1194996 89.2024822,44.6272649 84.3925534,39.9706644 L46.3615463,3.47433132 C44.0297457,1.23209664 40.8860631,0 37.6526958,0 L1,0 L1,0.181190682 L42.4579044,39.9706644 C47.2678332,44.5819672 47.2678332,52.0742019 42.4579044,56.7308024 L35.6985148,63.2174288 Z" id="Path" fill="url(#linearGradient-1)"></path>
                <path d="M46.6494812,132.583322 L84.3925534,96.5065072 C89.2024822,91.9089241 89.2024822,84.4508231 84.3925534,79.8081214 L46.3615463,43.4560831 C44.0297457,41.2272253 40.8860631,40 37.6526958,40 L1,40 L1,40.1804743 L42.4579044,79.8081214 C47.2678332,84.4057045 47.2678332,91.8638055 42.4579044,96.5065072 L1.14160732,135.998799 L37.888708,135.998799 C41.173998,136.043917 44.3176806,134.816692 46.6022787,132.583322 L46.6494812,132.583322 Z" id="Path" fill="#0000FF"></path>
                <path d="M72,68.6820505 L45.6833487,43.4862664 C43.3350059,41.2379431 40.1690215,40 36.9127162,40 L0,40 L0,40.1820505 L41.7520137,80.1557809 C46.596065,84.7935164 46.596065,92.3167518 41.7520137,97" id="Path" fill="#0000A9"></path>
            </g>
            <g id="Group" transform="translate(27.426901, 247.633094)" fill="#0D0D0D">
                <path d="M3.77511696,7.39090647 L8.74722222,21.7623381 L13.5782749,7.39090647 L16.0114327,7.39090647 L8.67669591,29.0036475 C8.1830117,30.3864101 7.58353801,31.3628345 6.87827485,31.9329209 C6.1730117,32.5009856 5.49125731,32.7880504 4.8330117,32.7880504 C4.50388889,32.7880504 4.16888889,32.7496403 3.8280117,32.6788849 C3.4871345,32.6040863 3.17564327,32.5090719 2.89353801,32.3857554 L2.89353801,29.9093165 C3.1521345,30.0791295 3.4048538,30.2368129 3.65169591,30.3823669 C3.89853801,30.5279209 4.18652047,30.6006978 4.51564327,30.6006978 C4.79774854,30.6006978 5.06222222,30.4915324 5.30906433,30.2732014 C5.55590643,30.0548705 5.77923977,29.7940863 5.97906433,29.4888273 C6.17888889,29.1876115 6.34932749,28.8722446 6.49038012,28.5447482 C6.63143275,28.2172518 6.73722222,27.9443381 6.80774854,27.7260072 L7.44248538,25.4699209 L0.989327485,7.38686331 L3.77511696,7.38686331 L3.77511696,7.39090647 Z" id="Shape"></path>
                <path d="M25.1093275,25.803482 C23.8868713,25.803482 22.8054678,25.5426978 21.865117,25.0211295 C20.9247661,24.4995612 20.1372222,23.8081799 19.5024854,22.9469856 C18.8677485,22.0857914 18.3858187,21.0972374 18.0566959,19.9813237 C17.7275731,18.8654101 17.5630117,17.7009784 17.5630117,16.4880288 C17.5630117,15.2730576 17.7275731,14.0964964 18.0566959,12.9583453 C18.3858187,11.8181727 18.8677485,10.8114245 19.5024854,9.93810072 C20.1372222,9.0627554 20.9247661,8.36126619 21.865117,7.82554676 C22.8035088,7.29184892 23.8868713,7.025 25.1093275,7.025 C26.3317836,7.025 27.4131871,7.29184892 28.353538,7.82554676 C29.2938889,8.36126619 30.0814327,9.0627554 30.7161696,9.93810072 C31.3509064,10.8114245 31.8328363,11.8181727 32.1619591,12.9583453 C32.4910819,14.0964964 32.6556433,15.2750791 32.6556433,16.4880288 C32.6556433,17.7009784 32.4910819,18.8654101 32.1619591,19.9813237 C31.8328363,21.0972374 31.3509064,22.0857914 30.7161696,22.9469856 C30.0814327,23.8102014 29.2938889,24.5015827 28.353538,25.0211295 C27.4131871,25.5406763 26.3317836,25.803482 25.1093275,25.803482 Z M25.1093275,23.5837842 C25.8616082,23.5837842 26.5492398,23.395777 27.1722222,23.0238058 C27.7932456,22.6477914 28.322193,22.1363309 28.7590643,21.4833597 C29.1959357,20.8303885 29.5348538,20.0783597 29.7816959,19.2212086 C30.028538,18.3640576 30.1519591,17.4523237 30.1519591,16.4860072 C30.1519591,15.5196906 30.028538,14.6039137 29.7816959,13.7366547 C29.5348538,12.8673741 29.1939766,12.1011942 28.7590643,11.4360935 C28.324152,10.7709928 27.7952047,10.2413381 27.1722222,9.84308633 C26.5492398,9.44483453 25.8616082,9.24671942 25.1093275,9.24671942 C24.3570468,9.24671942 23.6694152,9.44483453 23.0464327,9.84308633 C22.4234503,10.2413381 21.8945029,10.7709928 21.4595906,11.4360935 C21.0246784,12.1011942 20.6838012,12.8673741 20.4369591,13.7366547 C20.190117,14.6059353 20.0666959,15.5217122 20.0666959,16.4860072 C20.0666959,17.4503022 20.190117,18.3640576 20.4369591,19.2212086 C20.6838012,20.0783597 21.0246784,20.8324101 21.4595906,21.4833597 C21.8945029,22.1343094 22.4234503,22.6477914 23.0464327,23.0238058 C23.6694152,23.395777 24.3570468,23.5837842 25.1093275,23.5837842 Z" id="Shape"></path>
                <path d="M38.2977485,7.39090647 L38.2977485,20.0884676 C38.2977485,20.7192014 38.3976608,21.2528993 38.5974854,21.6895612 C38.7973099,22.126223 39.0559064,22.4860647 39.3732749,22.7630216 C39.6906433,23.042 40.049152,23.2482014 40.4488012,23.3816259 C40.8484503,23.5150504 41.2480994,23.5837842 41.6477485,23.5837842 C42.117924,23.5837842 42.605731,23.5049424 43.1111696,23.347259 C43.6166082,23.1895755 44.0926608,22.9651799 44.5393275,22.6720504 C44.9859942,22.382964 45.3973977,22.0433381 45.773538,21.6531727 C46.1496784,21.2670504 46.443538,20.8526259 46.655117,20.4179856 L46.655117,7.39292806 L49.1588012,7.39292806 L49.1588012,25.4759856 L46.655117,25.4759856 L46.655117,23.1835108 L46.5493275,23.1835108 C45.8910819,24.0568345 45.0859064,24.7118273 44.1338012,25.1484892 C43.1816959,25.5871727 42.1414327,25.803482 41.0130117,25.803482 C39.4614327,25.803482 38.2037135,25.4173597 37.2398538,24.6390504 C36.2759942,23.8627626 35.7940643,22.6720504 35.7940643,21.0729784 L35.7940643,7.39090647 L38.2977485,7.39090647 L38.2977485,7.39090647 Z" id="Shape"></path>
                <path d="M53.2493275,7.39090647 L55.7530117,7.39090647 L55.7530117,9.64497122 L55.823538,9.64497122 C56.2702047,8.82016547 56.8167836,8.18336691 57.4632749,7.73457554 C58.1097661,7.28578417 58.9266959,7.06341007 59.9140643,7.06341007 C60.3842398,7.06341007 60.819152,7.17055396 61.2188012,7.39090647 L61.2188012,9.97246763 C60.8896784,9.87543165 60.6428363,9.81478417 60.4782749,9.79052518 C60.3137135,9.76626619 60.1373977,9.75413669 59.9493275,9.75413669 C59.3380994,9.75413669 58.7738889,9.86128058 58.2566959,10.0816331 C57.7395029,10.2979424 57.2987135,10.5951151 56.9343275,10.9711295 C56.5699415,11.3471439 56.2819591,11.7817842 56.0703801,12.2790935 C55.8588012,12.7764029 55.7530117,13.3060576 55.7530117,13.8619928 L55.7530117,25.4699209 L53.2493275,25.4699209 L53.2493275,7.39090647 L53.2493275,7.39090647 Z" id="Shape"></path>
                <path d="M76.4152632,0.69542446 L76.4152632,9.68135971 L76.4857895,9.68135971 C77.2145614,8.71302158 78.055,8.03983453 79.0071053,7.66382014 C79.9592105,7.28578417 80.9759649,7.09979856 82.0573684,7.09979856 C83.6794737,7.09979856 84.9665789,7.49400719 85.9186842,8.28242446 C86.8707895,9.07084173 87.3468421,10.1907986 87.3468421,11.6483597 L87.3468421,25.4759856 L84.8431579,25.4032086 L84.8431579,12.1234317 C84.8431579,11.5654748 84.7373684,11.104554 84.5257895,10.7386475 C84.3142105,10.372741 84.0438596,10.0897194 83.7147368,9.88351799 C83.385614,9.67731655 83.0035965,9.53176259 82.5686842,9.44483453 C82.1337719,9.36194964 81.7047368,9.3194964 81.2815789,9.3194964 C80.7408772,9.3194964 80.1884211,9.44483453 79.6242105,9.70157554 C79.06,9.95629496 78.5369298,10.2898561 78.055,10.7002374 C77.5730702,11.1146619 77.1792982,11.5816475 76.8736842,12.1011942 C76.5680702,12.6227626 76.4152632,13.1402878 76.4152632,13.6497266 L76.4152632,25.4759856 L73.9115789,25.4759856 L73.9115789,0.69542446 L76.4152632,0.69542446 L76.4152632,0.69542446 Z" id="Shape"></path>
                <path d="M98.0688012,25.803482 C96.846345,25.803482 95.7649415,25.5426978 94.8245906,25.0211295 C93.8842398,24.4995612 93.0966959,23.8081799 92.4619591,22.9469856 C91.8272222,22.0857914 91.3452924,21.0972374 91.0161696,19.9813237 C90.6870468,18.8654101 90.5224854,17.7009784 90.5224854,16.4880288 C90.5224854,15.2730576 90.6870468,14.0964964 91.0161696,12.9583453 C91.3452924,11.8181727 91.8272222,10.8114245 92.4619591,9.93810072 C93.0966959,9.0627554 93.8842398,8.36126619 94.8245906,7.82554676 C95.7629825,7.29184892 96.846345,7.025 98.0688012,7.025 C99.2912573,7.025 100.372661,7.29184892 101.313012,7.82554676 C102.251404,8.36126619 103.040906,9.0627554 103.675643,9.93810072 C104.31038,10.8114245 104.79231,11.8181727 105.121433,12.9583453 C105.450556,14.0964964 105.615117,15.2750791 105.615117,16.4880288 C105.615117,17.7009784 105.450556,18.8654101 105.121433,19.9813237 C104.79231,21.0972374 104.31038,22.0857914 103.675643,22.9469856 C103.040906,23.8102014 102.251404,24.5015827 101.313012,25.0211295 C100.370702,25.5426978 99.2912573,25.803482 98.0688012,25.803482 Z M98.0688012,23.5837842 C98.8210819,23.5837842 99.5087135,23.395777 100.131696,23.0238058 C100.752719,22.6477914 101.281667,22.1363309 101.718538,21.4833597 C102.15345,20.8324101 102.494327,20.0783597 102.74117,19.2212086 C102.986053,18.3640576 103.111433,17.4523237 103.111433,16.4860072 C103.111433,15.5196906 102.986053,14.6039137 102.74117,13.7366547 C102.492368,12.8673741 102.151491,12.1011942 101.718538,11.4360935 C101.283626,10.7709928 100.754678,10.2413381 100.131696,9.84308633 C99.5087135,9.44483453 98.8210819,9.24671942 98.0688012,9.24671942 C97.3165205,9.24671942 96.6288889,9.44483453 96.0059064,9.84308633 C95.382924,10.2413381 94.8539766,10.7709928 94.4190643,11.4360935 C93.984152,12.1011942 93.6432749,12.8673741 93.3964327,13.7366547 C93.1495906,14.6059353 93.0261696,15.5217122 93.0261696,16.4860072 C93.0261696,17.4503022 93.1495906,18.3640576 93.3964327,19.2212086 C93.6432749,20.0783597 93.984152,20.8324101 94.4190643,21.4833597 C94.8539766,22.1343094 95.382924,22.6477914 96.0059064,23.0238058 C96.6269298,23.395777 97.3145614,23.5837842 98.0688012,23.5837842 Z" id="Shape"></path>
                <path d="M112.348421,2.40366187 L112.348421,7.39090647 L115.13617,7.39090647 L115.13617,9.61060432 L112.348421,9.61060432 L112.348421,21.5824173 C112.348421,22.334446 112.571754,22.8620791 113.02038,23.1653165 C113.467047,23.468554 113.994035,23.6201727 114.607222,23.6201727 C114.724766,23.6201727 114.854064,23.6141079 114.995117,23.6019784 C115.13617,23.5878273 115.312485,23.5231367 115.524064,23.4018417 L115.524064,25.5103525 C115.21845,25.5851511 114.877573,25.6498417 114.503392,25.7125108 C114.127251,25.7711367 113.727602,25.803482 113.304444,25.803482 C112.834269,25.803482 112.39348,25.7428345 111.982076,25.6215396 C111.570673,25.498223 111.206287,25.3061727 110.886959,25.0393237 C110.57155,24.7724748 110.316871,24.4207194 110.128801,23.9840576 C109.940731,23.5473957 109.846696,23.0157194 109.846696,22.3849856 L109.846696,9.6126259 L107.307749,9.6126259 L107.307749,7.39292806 L109.846696,7.39292806 L109.846696,2.40568345 L112.348421,2.40568345 L112.348421,2.40366187 Z" id="Shape"></path>
                <path d="M131.813684,19.8357698 C131.578596,20.6868561 131.249474,21.4732518 130.826316,22.2010216 C130.403158,22.9287914 129.891842,23.5615468 129.292368,24.0952446 C128.692895,24.6289424 128.007222,25.0474101 127.229474,25.3506475 C126.453684,25.6518633 125.607368,25.8055036 124.690526,25.8055036 C123.46807,25.8055036 122.386667,25.5447194 121.446316,25.0231511 C120.507924,24.5015827 119.718421,23.8102014 119.083684,22.9490072 C118.450906,22.0878129 117.968977,21.099259 117.639854,19.9833453 C117.308772,18.8674317 117.14617,17.703 117.14617,16.4900504 C117.14617,15.2750791 117.308772,14.098518 117.639854,12.9603669 C117.968977,11.8201942 118.450906,10.813446 119.083684,9.9401223 C119.718421,9.06477698 120.507924,8.36328777 121.446316,7.82756835 C122.386667,7.2938705 123.46807,7.02702158 124.690526,7.02702158 C125.912982,7.02702158 126.994386,7.2938705 127.934737,7.82756835 C128.873129,8.36328777 129.662632,9.06477698 130.297368,9.9401223 C130.930146,10.813446 131.412076,11.8201942 131.741199,12.9603669 C132.070322,14.098518 132.234883,15.2771007 132.234883,16.4900504 L132.234883,16.9610791 L119.645936,16.9610791 C119.692953,17.8788777 119.84576,18.7400719 120.104357,19.548705 C120.362953,20.3553165 120.709708,21.0568058 121.14462,21.6471079 C121.579532,22.2374101 122.094766,22.7064173 122.696199,23.0581727 C123.295673,23.4079065 123.959795,23.5837842 124.688567,23.5837842 C125.746462,23.5837842 126.675058,23.2401151 127.474357,22.5568201 C128.273655,21.869482 128.873129,20.9638129 129.272778,19.8337482 L131.813684,19.8337482 L131.813684,19.8357698 Z M129.556842,14.7393597 C129.415789,13.9731799 129.202251,13.2575396 128.922105,12.5883957 C128.638041,11.9172302 128.293246,11.337036 127.881842,10.8457914 C127.470439,10.3545468 126.994386,9.96640288 126.453684,9.67933813 C125.912982,9.3902518 125.325263,9.24874101 124.690526,9.24874101 C124.055789,9.24874101 123.46807,9.3902518 122.927368,9.67933813 C122.388626,9.96842446 121.906696,10.3545468 121.483538,10.8457914 C121.06038,11.337036 120.701871,11.9172302 120.408012,12.5883957 C120.114152,13.2575396 119.906491,13.9752014 119.790906,14.7393597 L129.556842,14.7393597 Z" id="Shape"></path>
                <polygon id="Shape" points="137.739854 1.38680576 137.739854 25.4759856 135.23617 25.4759856 135.23617 1.38680576 137.739854 1.38680576"></polygon>
                <path d="M158.933012,25.803482 C157.708596,25.803482 156.629152,25.5426978 155.688801,25.0211295 C154.74845,24.4995612 153.958947,23.8081799 153.324211,22.9469856 C152.693392,22.0857914 152.211462,21.0972374 151.882339,19.9813237 C151.549298,18.8654101 151.388655,17.7009784 151.388655,16.4880288 C151.388655,15.2730576 151.549298,14.0964964 151.882339,12.9583453 C152.211462,11.8181727 152.693392,10.8114245 153.324211,9.93810072 C153.958947,9.0627554 154.74845,8.36126619 155.688801,7.82554676 C156.629152,7.29184892 157.708596,7.025 158.933012,7.025 C160.153509,7.025 161.236871,7.29184892 162.177222,7.82554676 C163.115614,8.36126619 163.903158,9.0627554 164.537895,9.93810072 C165.172632,10.8114245 165.654561,11.8181727 165.983684,12.9583453 C166.312807,14.0964964 166.477368,15.2750791 166.477368,16.4880288 C166.477368,17.7009784 166.312807,18.8654101 165.983684,19.9813237 C165.654561,21.0972374 165.172632,22.0857914 164.537895,22.9469856 C163.903158,23.8102014 163.113655,24.5015827 162.177222,25.0211295 C161.236871,25.5426978 160.153509,25.803482 158.933012,25.803482 Z M158.933012,23.5837842 C159.683333,23.5837842 160.370965,23.395777 160.995906,23.0238058 C161.618889,22.6477914 162.147836,22.1363309 162.584708,21.4833597 C163.017661,20.8324101 163.358538,20.0783597 163.60538,19.2212086 C163.850263,18.3640576 163.975643,17.4523237 163.975643,16.4860072 C163.975643,15.5196906 163.850263,14.6039137 163.60538,13.7366547 C163.356579,12.8673741 163.015702,12.1011942 162.584708,11.4360935 C162.147836,10.7709928 161.620848,10.2413381 160.995906,9.84308633 C160.370965,9.44483453 159.683333,9.24671942 158.933012,9.24671942 C158.178772,9.24671942 157.49114,9.44483453 156.870117,9.84308633 C156.247135,10.2413381 155.718187,10.7709928 155.281316,11.4360935 C154.844444,12.1011942 154.505526,12.8673741 154.260643,13.7366547 C154.011842,14.6059353 153.89038,15.5217122 153.89038,16.4860072 C153.89038,17.4503022 154.011842,18.3640576 154.260643,19.2212086 C154.505526,20.0783597 154.846404,20.8324101 155.281316,21.4833597 C155.716228,22.1343094 156.245175,22.6477914 156.870117,23.0238058 C157.49114,23.395777 158.178772,23.5837842 158.933012,23.5837842 Z" id="Shape"></path>
                <path d="M169.756842,7.39090647 L172.258567,7.39090647 L172.258567,9.64497122 L172.331053,9.64497122 C172.77576,8.82016547 173.322339,8.18336691 173.96883,7.73457554 C174.615322,7.28578417 175.434211,7.06341007 176.421579,7.06341007 C176.887836,7.06341007 177.324708,7.17055396 177.726316,7.39090647 L177.726316,9.97246763 C177.393275,9.87543165 177.148392,9.81478417 176.98383,9.79052518 C176.819269,9.76626619 176.642953,9.75413669 176.454883,9.75413669 C175.843655,9.75413669 175.279444,9.86128058 174.760292,10.0816331 C174.243099,10.2979424 173.804269,10.5951151 173.439883,10.9711295 C173.075497,11.3471439 172.785556,11.7817842 172.575936,12.2790935 C172.366316,12.7764029 172.258567,13.3060576 172.258567,13.8619928 L172.258567,25.4699209 L169.756842,25.4699209 L169.756842,7.39090647 L169.756842,7.39090647 Z" id="Shape"></path>
                <path d="M186.046462,25.803482 C184.825965,25.803482 183.766111,25.5426978 182.874737,25.0211295 C181.979444,24.4995612 181.233041,23.8081799 180.635526,22.9469856 C180.034094,22.0857914 179.587427,21.0972374 179.291608,19.9813237 C179.001667,18.8654101 178.850819,17.7009784 178.850819,16.4880288 C178.850819,15.2730576 178.999708,14.0964964 179.291608,12.9583453 C179.585468,11.8181727 180.034094,10.8114245 180.635526,9.93810072 C181.233041,9.0627554 181.979444,8.36126619 182.874737,7.82554676 C183.766111,7.29184892 184.825965,7.025 186.046462,7.025 C187.082807,7.025 188.009444,7.2473741 188.832251,7.69818705 C189.655058,8.149 190.336813,8.79590647 190.879474,9.64497122 L190.879474,7.39090647 L193.381199,7.39090647 L193.381199,25.473964 C193.381199,26.6626547 193.181374,27.7118561 192.783684,28.6215683 C192.382076,29.5312806 191.845292,30.2954388 191.177251,30.9160647 C190.507251,31.5346691 189.749094,32.0016547 188.904737,32.315 C188.058421,32.6303669 187.198392,32.7880504 186.330526,32.7880504 C185.531228,32.7880504 184.765234,32.6829281 184.038421,32.4787482 C183.30769,32.2725468 182.645526,31.9511151 182.044094,31.5144532 C181.446579,31.0757698 180.923509,30.5258993 180.474883,29.858777 C180.026257,29.1916547 179.699094,28.3951511 179.487515,27.4753309 L182.204737,27.4753309 C182.557368,28.6397626 183.068684,29.4463741 183.738684,29.8951655 C184.408684,30.3419353 185.256959,30.5663309 186.295263,30.5663309 C186.881023,30.5663309 187.451111,30.4511007 188.005526,30.2226619 C188.556023,29.9901799 189.045789,29.6707698 189.466988,29.2563453 C189.892105,28.8439424 190.232982,28.3466331 190.491579,27.7644173 C190.748216,27.1822014 190.877515,26.5393381 190.877515,25.8358273 L190.877515,23.2158561 C190.360322,23.9921439 189.684444,24.6168129 188.849883,25.0898633 C188.017281,25.5649353 187.082807,25.803482 186.046462,25.803482 Z M186.046462,23.5837842 C186.800702,23.5837842 187.470702,23.395777 188.058421,23.0238058 C188.644181,22.6477914 189.145702,22.1363309 189.555146,21.4833597 C189.968509,20.8324101 190.278041,20.0783597 190.493538,19.2212086 C190.703158,18.3640576 190.806988,17.4523237 190.806988,16.4860072 C190.806988,15.5196906 190.703158,14.6039137 190.493538,13.7366547 C190.28,12.8673741 189.968509,12.1011942 189.555146,11.4360935 C189.145702,10.7709928 188.644181,10.2413381 188.058421,9.84308633 C187.468743,9.44483453 186.798743,9.24671942 186.046462,9.24671942 C185.29614,9.24671942 184.630058,9.44483453 184.056053,9.84308633 C183.478129,10.2413381 182.992281,10.7709928 182.590673,11.4360935 C182.192982,12.1011942 181.887368,12.8673741 181.675789,13.7366547 C181.462251,14.6059353 181.358421,15.5217122 181.358421,16.4860072 C181.358421,17.4503022 181.462251,18.3640576 181.675789,19.2212086 C181.885409,20.0783597 182.192982,20.8324101 182.590673,21.4833597 C182.992281,22.1343094 183.478129,22.6477914 184.056053,23.0238058 C184.630058,23.395777 185.29614,23.5837842 186.046462,23.5837842 Z" id="Shape"></path>
                <path d="M197.158275,12.7400144 C197.158275,11.8646691 197.350263,11.080295 197.740117,10.372741 C198.126053,9.66923022 198.631491,9.06882014 199.254474,8.57151079 C199.877456,8.07420144 200.570965,7.69818705 201.335,7.44346763 C202.097076,7.1887482 202.868947,7.06341007 203.642778,7.06341007 C204.465585,7.06341007 205.272719,7.18470504 206.060263,7.42729496 C206.843889,7.66786331 207.545234,8.03376978 208.156462,8.51692806 C208.76769,9.00210791 209.261374,9.59847482 209.637515,10.3019856 C210.013655,11.0054964 210.199766,11.8181727 210.199766,12.7400144 L210.199766,22.0554676 C210.199766,22.3465755 210.307515,22.6316187 210.517135,22.9085755 C210.730673,23.1895755 210.975556,23.3270432 211.25962,23.3270432 C211.424181,23.3270432 211.576988,23.2906547 211.718041,23.2178777 C211.859094,23.1451007 212.023655,23.0622158 212.211725,22.9631583 L212.211725,25.4395971 C211.906111,25.5346115 211.610292,25.6215396 211.328187,25.692295 C211.048041,25.7670935 210.669942,25.803482 210.199766,25.803482 C208.695205,25.803482 207.946842,24.8209928 207.946842,22.8560144 C207.147544,23.8748921 206.175848,24.6208561 205.035673,25.0918849 C203.895497,25.5649353 202.763158,25.803482 201.634737,25.803482 C200.952982,25.803482 200.306491,25.6781439 199.695263,25.4214029 C199.084035,25.168705 198.535497,24.8088633 198.057485,24.3479424 C197.575556,23.8890432 197.193538,23.3614101 196.909474,22.7670647 C196.625409,22.1727194 196.484357,21.5237914 196.484357,20.818259 C196.484357,19.7043669 196.764503,18.7885899 197.315,18.0729496 C197.865497,17.3573094 198.562924,16.7649856 199.395526,16.2899137 C200.228129,15.8148417 201.129298,15.4408489 202.093158,15.1598489 C203.057018,14.8828921 203.956228,14.6261511 204.790789,14.3977122 C205.625351,14.1672518 206.316901,13.9307266 206.871316,13.6861151 C207.421813,13.4455468 207.698041,13.1301799 207.698041,12.7400144 C207.698041,12.2790935 207.617719,11.8303022 207.453158,11.3936403 C207.288596,10.9569784 207.039795,10.5748993 206.710673,10.2474029 C206.38155,9.91990647 205.964269,9.6591223 205.45883,9.46505036 C204.953392,9.27097842 204.35,9.17192086 203.640819,9.17192086 C203.123626,9.17192086 202.622105,9.26289209 202.144094,9.44483453 C201.662164,9.62879856 201.237047,9.87745324 200.87462,10.1907986 C200.510234,10.5061655 200.216374,10.8842014 199.991082,11.3208633 C199.769708,11.7575252 199.658041,12.2305755 199.658041,12.7400144 L197.158275,12.7400144 L197.158275,12.7400144 Z M207.7,15.614705 C207.065263,15.9058129 206.262047,16.176705 205.286433,16.433446 C204.310819,16.6861439 203.36655,16.9893813 202.447749,17.3411367 C201.528947,17.6928921 200.741404,18.1376403 200.083158,18.6693165 C199.424912,19.205036 199.095789,19.8943957 199.095789,20.7434604 C199.095789,21.6653022 199.424912,22.382964 200.083158,22.8903813 C200.741404,23.3977986 201.517193,23.652518 202.412485,23.652518 C202.882661,23.652518 203.388099,23.5817626 203.926842,23.4362086 C204.465585,23.2906547 204.986696,23.0723237 205.48038,22.7812158 C205.974064,22.4901079 206.414854,22.126223 206.800789,21.6895612 C207.190643,21.2528993 207.49038,20.7434604 207.7,20.1612446 L207.7,15.614705 Z" id="Shape"></path>
                <path d="M214.785936,7.39090647 L217.291579,7.39090647 L217.291579,9.68135971 L217.360146,9.68135971 C217.644211,9.24671942 217.987047,8.86464029 218.400409,8.53714388 C218.809854,8.20964748 219.25848,7.93673381 219.740409,7.71840288 C220.222339,7.50007194 220.72386,7.33834532 221.241053,7.22715827 C221.758246,7.11799281 222.261725,7.06543165 222.755409,7.06543165 C224.354006,7.06543165 225.613684,7.49602878 226.528567,8.35722302 C227.447368,9.21841727 227.905789,10.3383741 227.905789,11.7211367 L227.905789,25.4780072 L225.400146,25.4780072 L225.400146,12.3781511 C225.400146,11.9435108 225.30807,11.5290863 225.12,11.142964 C224.928012,10.7568417 224.694883,10.4273237 224.412778,10.1604748 C224.132632,9.8936259 223.815263,9.68338129 223.460673,9.52569784 C223.108041,9.36801439 222.778918,9.28917266 222.473304,9.28917266 C221.956111,9.28917266 221.417368,9.39227338 220.851199,9.59645324 C220.288947,9.80467626 219.763918,10.0755683 219.281988,10.4151942 C218.800058,10.7568417 218.37886,11.1550935 218.016433,11.618036 C217.648129,12.0789568 217.407164,12.5762662 217.293538,13.1079424 L217.293538,25.4800288 L214.787895,25.4800288 L214.787895,7.39090647 L214.785936,7.39090647 Z" id="Shape"></path>
                <path d="M234.639094,1.38680576 L234.639094,4.37268345 L232.137368,4.37268345 L232.137368,1.38680576 L234.639094,1.38680576 Z M234.639094,7.39090647 L234.639094,25.473964 L232.137368,25.473964 L232.137368,7.39090647 L234.639094,7.39090647 Z" id="Shape"></path>
                <polygon id="Shape" points="251.001199 7.39090647 251.001199 9.61464748 240.73962 23.1835108 240.915936 23.2562878 251.285263 23.2562878 251.320526 25.4759856 237.603158 25.4759856 237.567895 23.2198993 247.723684 9.64699281 247.547368 9.61060432 238.202632 9.61060432 238.202632 7.39090647 251.001199 7.39090647"></polygon>
                <path d="M268.560292,19.8357698 C268.327164,20.6868561 267.998041,21.4732518 267.572924,22.2010216 C267.151725,22.9287914 266.63845,23.5615468 266.038977,24.0952446 C265.441462,24.6289424 264.75383,25.0474101 263.976082,25.3506475 C263.202251,25.6518633 262.353977,25.8055036 261.439094,25.8055036 C260.214678,25.8055036 259.135234,25.5447194 258.194883,25.0231511 C257.254532,24.5015827 256.465029,23.8102014 255.830292,22.9490072 C255.199474,22.0878129 254.717544,21.099259 254.388421,19.9833453 C254.05538,18.8674317 253.894737,17.703 253.894737,16.4900504 C253.894737,15.2750791 254.05538,14.098518 254.388421,12.9603669 C254.717544,11.8201942 255.199474,10.813446 255.830292,9.9401223 C256.465029,9.06477698 257.254532,8.36328777 258.194883,7.82756835 C259.135234,7.2938705 260.214678,7.02702158 261.439094,7.02702158 C262.659591,7.02702158 263.742953,7.2938705 264.683304,7.82756835 C265.621696,8.36328777 266.40924,9.06477698 267.043977,9.9401223 C267.678713,10.813446 268.160643,11.8201942 268.489766,12.9603669 C268.818889,14.098518 268.98345,15.2771007 268.98345,16.4900504 L268.98345,16.9610791 L256.394503,16.9610791 C256.439561,17.8788777 256.594327,18.7400719 256.852924,19.548705 C257.109561,20.3553165 257.458275,21.0568058 257.893187,21.6471079 C258.32614,22.2374101 258.841374,22.7064173 259.442807,23.0581727 C260.04424,23.4079065 260.706404,23.5837842 261.437135,23.5837842 C262.49307,23.5837842 263.423626,23.2401151 264.222924,22.5568201 C265.022222,21.869482 265.619737,20.9638129 266.021345,19.8337482 L268.560292,19.8337482 L268.560292,19.8357698 Z M266.307368,14.7393597 C266.166316,13.9731799 265.950819,13.2575396 265.672632,12.5883957 C265.388567,11.9172302 265.041813,11.337036 264.632368,10.8457914 C264.219006,10.3545468 263.744912,9.96640288 263.204211,9.67933813 C262.66155,9.3902518 262.075789,9.24874101 261.441053,9.24874101 C260.806316,9.24874101 260.216637,9.3902518 259.677895,9.67933813 C259.139152,9.96842446 258.657222,10.3545468 258.232105,10.8457914 C257.810906,11.337036 257.452398,11.9172302 257.156579,12.5883957 C256.862719,13.2575396 256.655058,13.9752014 256.541433,14.7393597 L266.307368,14.7393597 Z" id="Shape"></path>
                <path d="M271.980819,7.39090647 L274.486462,7.39090647 L274.486462,9.64497122 L274.555029,9.64497122 C275.003655,8.82016547 275.550234,8.18336691 276.196725,7.73457554 C276.843216,7.28578417 277.658187,7.06341007 278.645556,7.06341007 C279.115731,7.06341007 279.552602,7.17055396 279.950292,7.39090647 L279.950292,9.97246763 C279.62117,9.87543165 279.372368,9.81478417 279.211725,9.79052518 C279.047164,9.76626619 278.86693,9.75413669 278.680819,9.75413669 C278.069591,9.75413669 277.50538,9.86128058 276.990146,10.0816331 C276.472953,10.2979424 276.034123,10.5951151 275.665819,10.9711295 C275.301433,11.3491655 275.015409,11.7817842 274.805789,12.2790935 C274.592251,12.7764029 274.488421,13.3060576 274.488421,13.8619928 L274.488421,25.4699209 L271.982778,25.4699209 L271.982778,7.39090647 L271.980819,7.39090647 Z" id="Shape"></path>
            </g>
        </g>
    </g>
</svg>