<svg xmlns="http://www.w3.org/2000/svg" xmlns:xlink="http://www.w3.org/1999/xlink" width="175.387" height="326.044" viewBox="0 0 175.387 326.044"><defs><style>.a,.ak,.al,.am,.b,.y{fill:none;}.a,.b{stroke:#cbe9ff;}.a,.b,.y{stroke-miterlimit:10;}.a{stroke-width:4.38px;}.b{stroke-width:4.04px;}.c{fill:#cbe9ff;}.d{fill:url(#a);}.e{fill:#274bf0;}.f{fill:#ea9d7d;}.g{fill:url(#b);}.h{fill:url(#c);}.i{fill:#cf7653;}.j{fill:#b76349;}.k{fill:url(#d);}.l{fill:#b4603f;}.m{fill:#4f2b23;}.n{fill:#b23031;}.o{fill:#1c1c57;}.p{fill:#161546;}.q{opacity:0.161;fill:url(#e);}.r,.z{fill:#cc7a5e;}.s{fill:url(#f);}.t{opacity:0.136;fill:url(#g);}.u{fill:url(#h);}.v{fill:#00c0b7;}.w{fill:#4c2323;}.ag,.w{opacity:0.047;}.x{fill:url(#i);}.y{stroke:#274bf0;stroke-width:6.04px;}.z{opacity:0.278;}.aa{opacity:0.238;fill:url(#j);}.ab{opacity:0.072;fill:url(#k);}.ac{fill:url(#l);}.ad{opacity:0.281;fill:url(#m);}.ae{fill:#1f2b36;}.af{opacity:0.069;fill:url(#n);}.ag,.ah{fill:#161643;}.ai{fill:#c5e7fe;}.aj{fill:#fff;}.ak,.al,.am{stroke:#fff;stroke-linecap:round;stroke-linejoin:round;}.ak{stroke-width:0.5px;}.ak,.al{opacity:0.45;}.al{stroke-width:0.4px;}.am{stroke-width:0.67px;}.an{fill:#2960f5;}.ao{fill:url(#o);}.ap{fill:#ff7b33;}.aq{fill:#d3a094;}</style><linearGradient id="a" x1="0.498" y1="1" x2="0.498" gradientUnits="objectBoundingBox"><stop offset="0" stop-color="#fff"/><stop offset="1" stop-color="#cbe9ff"/></linearGradient><linearGradient id="b" x1="-3.581" y1="8.84" x2="-3.215" y2="9.216" gradientUnits="objectBoundingBox"><stop offset="0" stop-color="#bc5a32" stop-opacity="0"/><stop offset="0.99" stop-color="#bc5a32"/></linearGradient><linearGradient id="c" x1="-2.309" y1="17.372" x2="-2.425" y2="17.839" xlink:href="#b"/><linearGradient id="d" x1="-14.696" y1="46.11" x2="-14.625" y2="47.173" gradientUnits="objectBoundingBox"><stop offset="0" stop-color="#cc7a5e" stop-opacity="0"/><stop offset="0.92" stop-color="#aa5f4b"/></linearGradient><linearGradient id="e" x1="-0.352" y1="-1.495" x2="-0.342" y2="-0.616" gradientUnits="objectBoundingBox"><stop offset="0" stop-color="#341413" stop-opacity="0"/><stop offset="1" stop-color="#240f0e"/></linearGradient><linearGradient id="f" x1="-0.984" y1="1.562" x2="-1.197" y2="1.9" xlink:href="#d"/><linearGradient id="g" x1="-0.225" y1="1.358" x2="-0.234" y2="0.875" xlink:href="#d"/><linearGradient id="h" x1="-8.656" y1="2.358" x2="-9.202" y2="3.248" xlink:href="#d"/><linearGradient id="i" x1="-0.217" y1="1.083" x2="-0.703" y2="1.157" gradientUnits="objectBoundingBox"><stop offset="0" stop-color="#161643" stop-opacity="0"/><stop offset="1" stop-color="#1a8cff"/></linearGradient><linearGradient id="j" x1="-1.428" y1="1.201" x2="-1.261" y2="1.625" xlink:href="#d"/><linearGradient id="k" x1="-2.323" y1="0.323" x2="-1.432" y2="0.354" xlink:href="#d"/><linearGradient id="l" x1="-3.809" y1="-13.116" x2="-3.75" y2="-13.823" gradientUnits="objectBoundingBox"><stop offset="0.01" stop-color="#cc7a5e" stop-opacity="0"/><stop offset="0.92" stop-color="#aa5f4b"/></linearGradient><linearGradient id="m" x1="-4.155" y1="-12.72" x2="-4.28" y2="-12.105" xlink:href="#l"/><linearGradient id="n" x1="-1.174" y1="2.092" x2="-0.68" y2="1.943" gradientUnits="objectBoundingBox"><stop offset="0" stop-color="#161643" stop-opacity="0"/><stop offset="1" stop-color="#2960f5"/></linearGradient><linearGradient id="o" x1="-6.179" y1="-34.839" x2="-6.155" y2="-34.483" xlink:href="#d"/></defs><g transform="translate(-432.846 -300.133)"><line class="a" y2="9.201" transform="translate(499.143 348.93)"/><line class="a" y2="9.201" transform="translate(502.067 348.93)"/><line class="a" y2="9.201" transform="translate(504.817 348.93)"/><rect class="a" width="19.893" height="25.239" transform="translate(471.106 362.143)"/><line class="b" x2="2.355" y2="15.58" transform="translate(501.02 302.852)"/><line class="b" x2="2.938" y2="15.58" transform="translate(506.284 302.852)"/><path class="c" d="M100.313,559.586a2.123,2.123,0,0,0,.753-1.863,8.914,8.914,0,0,0-1.028-2.571c-1.414-3.112-.815-6.755,0-10.055a40.45,40.45,0,0,0,1.418-6.933,9.651,9.651,0,0,0-1.2-5.7,11.831,11.831,0,0,0-2.461-3.377c-.651-.589-3.006-1.52-2,.362,2.234,4.159,3,7.72,1.539,12.125-.791,2.412-2.07,4.671-2.847,7.044-.878,2.692-.941,5.968-1.38,8.767a4.549,4.549,0,0,0-.034,1.8C93.7,561.535,98.928,560.879,100.313,559.586Z" transform="translate(382.387 -161.326)"/><path class="c" d="M101.273,530.874A4.24,4.24,0,0,0,98.6,526.9a4.342,4.342,0,0,0-1.756-8.2,4.3,4.3,0,0,0-7.281-2.823c.965-2.712-6.345-5.944-8.115-1.742a5.212,5.212,0,0,0-3.947-1.559,4.86,4.86,0,0,0-3.73,1.978c-.328.483-1.6,4-.386,4.169-1.882-.261-3.927-.405-5.539.594s-2.316,3.58-.859,4.791a3.816,3.816,0,0,0-3.131,6.692c-.7,1.814,1.1,3.8,3.02,4.062s3.8-.646,5.529-1.525a6.171,6.171,0,0,0,6.977.709c1.877-1.08,3.648-3.261,5.689-2.538,1.279.449,1.93,1.882,2.977,2.707a3.79,3.79,0,0,0,5.592-1.636,4.3,4.3,0,0,0,6.755.878A3.787,3.787,0,0,0,101.273,530.874Z" transform="translate(398.189 -152.931)"/><path class="c" d="M101.257,625.177a.84.84,0,0,0,.087-.965c-.482-1.018-2.958-.482-3.807-.391-2.007.27-3.754.241-5.631,1.144a10.407,10.407,0,0,0-3.488,1.988.936.936,0,0,0-.318.849c.13.4.661.482,1.076.444,2.075-.053,4.231.2,6.075-.936a11.857,11.857,0,0,1,1.9-1.168C98.458,625.621,100.171,626.451,101.257,625.177Z" transform="translate(384.932 -210.627)"/><path class="c" d="M100.838,634.118c-1.283-2.07-5.274-2.263-7.758-2.677-9.312-1.554-19.84-2.673-29.094-.565a3.48,3.48,0,0,0-2.094,1.042,2.475,2.475,0,0,0,.835,3.324,7.253,7.253,0,0,0,3.657.965,2.56,2.56,0,0,0-1.79,3.141,4.17,4.17,0,0,0,2.8,2.707,12.223,12.223,0,0,0,4.019.434A53.746,53.746,0,0,0,83.1,641.64a2.808,2.808,0,0,0,1.631-.782c.386-.483.333-1.346-.241-1.563C86.846,639.879,104.356,639.821,100.838,634.118Z" transform="translate(398.677 -213.794)"/><path class="d" d="M125.369,762.5c-.159-3.17-1.182-6.354-.449-9.307a1.99,1.99,0,0,0-.338-2.017,1.554,1.554,0,0,0-1.447-.193,8.6,8.6,0,0,0-1.385.68,6.793,6.793,0,0,1-7.4-.883c-1.2,2.635-1.177,5.061-1.414,7.855-.212,2.514-1.713,4.4-1.139,6.972.328,1.477.854,3.025.386,4.463-.425,1.307-1.578,2.214-2.528,3.208-2.282,2.384-5.389,7.527-2.084,10.181a11.251,11.251,0,0,0,4.6,1.852,30.962,30.962,0,0,0,7.3,1.009,12.193,12.193,0,0,0,6.977-2.055c5.24-3.763-1.351-9.543-1.9-13.992a15,15,0,0,1,.647-4.8,11.9,11.9,0,0,0,.169-2.977Z" transform="translate(375.594 -276.445)"/><path class="c" d="M184.171,625.276a.642.642,0,0,0-.212-.651,1.644,1.644,0,0,0-.651-.319,4.232,4.232,0,0,0-2.895.039c-1.53.67-1.607,2.581-1.742,4.029a8.549,8.549,0,0,1-.772,3.759c-.285.482-.709.965-.54,1.481.207.642,1.2.666,1.689.2a3.759,3.759,0,0,0,.811-1.834c.724-2.576,2.364-4.42,4.087-6.393A.964.964,0,0,0,184.171,625.276Z" transform="translate(338.754 -210.873)"/><path class="c" d="M148.889,641.81a15.883,15.883,0,0,0,8.844,1.727,15.994,15.994,0,0,1-6.166,1.525c-.83.048-1.447.758-.482,1.008,4.859,1.26,10.161.087,11.971-2.7,2.552,2.282,7.387,3.344,12.236,2.442,1.057-.2.888-1.1-.265-1.11-2.929-.029-6.378-.3-8.164-1.563,4.173,1.028,8.984.328,11.9-1.93.483-.376-.328-.994-1.11-.815a28.287,28.287,0,0,1-8.579,1.023c3.99-.565,7.093-2.412,7.72-4.878.15-.564-1.283-1.057-1.8-.429-1.645,1.983-4.622,3.377-8.173,3.947,1.79-1.071,2.755-2.523,2.5-4.111-.116-.733-1.9-.733-2.017,0-.232,1.447-.729,3.739-4.149,3.484-3.194-.241-3.377-2.413-3.45-3.86-.029-.608-1.626-.763-1.9-.145a3.515,3.515,0,0,0,1.086,4.241,15.024,15.024,0,0,1-6.784-2.938c-.458-.4-1.887-.3-1.761.27.482,2.1,2.687,3.73,5.79,4.482a23.353,23.353,0,0,1-6.311-.579C148.889,640.682,148.262,641.449,148.889,641.81Z" transform="translate(353.598 -216.546)"/><line class="b" x2="105.621" transform="translate(459.353 412.792)"/><line class="b" x2="105.621" transform="translate(459.353 408.141)"/><path class="b" d="M89.51,696.063l9.08-5.433" transform="translate(384.197 -245.316)"/><path class="b" d="M93.16,698.543l10.195-5.7" transform="translate(382.308 -246.462)"/><path class="b" d="M114.083,706.54a10.647,10.647,0,0,0-4.386,1.978c-1.206,1.081-1.862,2.957-1.052,4.342.482.864,1.447,1.375,2.07,2.157,1.211,1.515,1.008,3.715.483,5.582s-1.356,3.729-1.177,5.66,1.877,3.918,3.773,3.5" transform="translate(374.479 -253.552)"/><ellipse class="b" cx="5.828" cy="2.803" rx="5.828" ry="2.803" transform="translate(489.117 472.405)"/><line class="b" x1="2.765" y2="13.452" transform="translate(486.83 476.81)"/><line class="b" x2="1.592" y2="13.645" transform="translate(499.978 476.712)"/><rect class="e" width="39.265" height="108.868" rx="15.1" transform="translate(453.489 347.617) rotate(10.93)"/><path class="f" d="M132.535,455.66l-5.973,19.507-1.751,4.54s2.548,3.267,8.6,4.54a30,30,0,0,0,8.762.8c1.51-.159,3.344-.482,2.412-3.266a15.077,15.077,0,0,1-.878-6.755l2.152-11.705Z" transform="translate(365.929 -123.718)"/><path class="g" d="M137.827,466.184a21.194,21.194,0,0,0,7.483,6.538,19.122,19.122,0,0,0,4.777,1.669l1.751-9.713-13.138-9-.714,1.356-.564,2.22s-1.447,4.14.4,6.928Z" transform="translate(359.681 -123.73)"/><path class="f" d="M160.6,414.958s2.311,3.744,2.707,5.5a15.892,15.892,0,0,1,.482,3.9,85.868,85.868,0,0,1-.637,10.668c-.8,4.54-2.943,7.237-5.5,8.043s-7.165-.878-10.267-2.47c-2.63-1.351-4.145-2.784-4.54-4.458-.4-1.751-1.2-3.98-1.2-3.98l.169-5.163,6.132-13.056Z" transform="translate(357.214 -102.126)"/><path class="h" d="M146.113,433.21s4.617-5.172,7.565-6.272a29.43,29.43,0,0,1,11.145-2.07l-.873-2.789-14.093-.719-5.578,8.6Z" transform="translate(355.853 -105.968)"/><ellipse class="f" cx="4.222" cy="4.54" rx="4.222" ry="4.54" transform="translate(492.886 324.613)"/><path class="i" d="M125.458,481.662h-.077a.435.435,0,0,1-.241-.4l3.744-11.469c.714-2.388,2.866-10.431,2.866-10.431a.429.429,0,0,1,.4-.236.434.434,0,0,1,.241.4l-2.866,10.431c-.637,2.152-3.744,11.387-3.744,11.387C125.7,481.585,125.618,481.662,125.458,481.662Z" transform="translate(365.758 -125.515)"/><path class="j" d="M133.047,449.582a4.862,4.862,0,1,1,4.617-4.859A4.779,4.779,0,0,1,133.047,449.582Zm0-9.076a4.242,4.242,0,1,0,0-.024Z" transform="translate(364.055 -115.546)"/><ellipse class="k" cx="1.911" cy="1.993" rx="1.911" ry="1.993" transform="translate(495.438 327.161)"/><path class="f" d="M145.531,443.94l-1.351,1.2-.56,4.458.241,1.274a4.152,4.152,0,0,0,2.07-3.1A11.58,11.58,0,0,0,145.531,443.94Z" transform="translate(356.194 -117.651)"/><path class="j" d="M155.7,465.519a12.5,12.5,0,0,1-3.184-.56,21.082,21.082,0,0,1-7.966-4.376,4.668,4.668,0,0,1-1.592-3.5c0-.159,0-.4.159-.4s.241.159.318.318a5,5,0,0,0,1.515,3.107,20.551,20.551,0,0,0,7.643,4.217c2.47.56,2.948.719,4.777.56a6.208,6.208,0,0,0,2.789-.878c.241-.159.482-.237.318,0a6.383,6.383,0,0,1-3.025,1.447,15.02,15.02,0,0,1-1.751.082Z" transform="translate(356.54 -124.244)"/><path class="l" d="M160.19,434.931a.482.482,0,0,1-.318-.077.618.618,0,0,1-.159-.8,4.6,4.6,0,0,1,4.217-1.751.6.6,0,1,1-.077,1.192,3.25,3.25,0,0,0-3.107,1.274A1.934,1.934,0,0,1,160.19,434.931Zm11.782-1.669a.482.482,0,0,1-.318-.082,2.127,2.127,0,0,0-1.669-.159.58.58,0,1,1-.319-1.115,3.275,3.275,0,0,1,2.625.319.618.618,0,0,1,.159.8A.564.564,0,0,1,171.972,433.261Z" transform="translate(347.908 -111.351)"/><circle class="m" cx="1.115" cy="1.115" r="1.115" transform="translate(509.927 325.175)"/><circle class="m" cx="1.115" cy="1.115" r="1.115" transform="translate(518.13 324.537)"/><path class="l" d="M175.683,448.165a.589.589,0,0,1-.56-.483.511.511,0,0,1,.482-.637s.873-.159.965-.878a12.84,12.84,0,0,0-1.037-3.739.556.556,0,0,1,1.037-.4,13.82,13.82,0,0,1,1.115,4.3,2.07,2.07,0,0,1-1.843,1.8.487.487,0,0,1-.15.029Z" transform="translate(339.899 -116.479)"/><path class="n" d="M139.64,411.838a12.786,12.786,0,0,1-1.751,5.418c-1.6,2.548-1.833,2.548-1.674,3.421s2.548,5.655,8.043,7.648a12.981,12.981,0,0,0,9.476,0s.159-.8.236-1.274a1.419,1.419,0,0,1,.719,1.351,32.873,32.873,0,0,1-.241,4.777,5.336,5.336,0,0,1-5.254,5.018c-2.548.241-7.006-.873-11.145-3.267-2.075-1.192-4.222-4.058-4.463-5.172-.482-2.47.241-7.72.241-7.72s-.318-2.789-3.821-2.548a4.319,4.319,0,0,0-3.5,2.707s-1.751-6.928-2.311-8.521c-.878-2.707.56-4.3,1.833-5.336a4.183,4.183,0,0,1,2.548-.873,6.047,6.047,0,0,1,3.821-6.05c2.147-1.037,3.9-.8,5.655-.878s3.421-.318,4.854-.318c3.5.159,4.54,2.152,4.54,2.152s-.043-1.7,2.745,1.959c2.784,3.58,6.571,6.639,2.668,7.754-2.707.878-6.929,1.2-13.215-.236Z" transform="translate(366.389 -95.028)"/><path class="f" d="M165.02,461.836h0a4.858,4.858,0,0,1-4.617-3.5.58.58,0,1,1,1.115-.318,3.662,3.662,0,0,0,3.5,2.625.6.6,0,0,1,.555.56.569.569,0,0,1-.555.637Z" transform="translate(347.522 -124.715)"/><path class="o" d="M84.551,649s-7.609,62.241-13.741,80.305c-6.581,19.459-27.347,73.714-27.347,73.714a2.721,2.721,0,0,0,1.573,3.377l23.222,9.737a2.591,2.591,0,0,0,3.286-1.177l26.508-51.505c6.451-12.361,8-17.707,14.528-31.53,5.4-11.628,8.767-52.688,12.578-63.746Z" transform="translate(408.098 -223.774)"/><path class="p" d="M143.174,663.1,87.35,669.734c4.849,11.773,28.221,67.37,35.9,83.47l32.037,68.441a2.576,2.576,0,0,0,2.813,1.448l26.5-5.076a2.369,2.369,0,0,0,1.809-3.02l-18.841-61.382-15.845-59.056C147.772,680.194,144.771,668.441,143.174,663.1Z" transform="translate(385.315 -231.07)"/><path class="q" d="M110.421,693.914l17.072-2.625-2.008-25.639-44.071-.4L77,704.428S99.492,695.429,110.421,693.914Z" transform="translate(408.232 -232.184)"/><path class="f" d="M129.1,540.938s5.973,12.265,12.742,23.159c6.846,11.146,11.623,15.049,16.081,17.755,5.177,3.107,12.66,3.107,24.047,2.789s34.8-2.548,34.8-2.548a37.643,37.643,0,0,0,10.832-.878c.637-.159-.159-1.2.637-1.592s3.58-7.643,1.988-8.12c-1.669.318-4.936-.319-5.732-.319-.8-.082-.319-1.356,0-2.707.555-2.413,1.274-4.222.077-5.259-.8-.637-1.93,1.515-3.421,3.821a7.721,7.721,0,0,1-2.311,2.075,9.883,9.883,0,0,0-1.669,1.447s-.878.482-3.348.077c-2.547-.4-28.028-5.655-31.69-6.687-4.854-1.274-11.387-7.72-13.616-11.228-3.98-6.21-11.782-19.825-11.782-19.825Z" transform="translate(363.708 -163.689)"/><path class="r" d="M241.295,629.894c0,.159-.159.236-.318.236-.318,0-32.568,2.47-43.158,2.789-9.317.237-14.412-2.388-17.2-4.54a16.794,16.794,0,0,1-2.866-2.629.381.381,0,0,1,.159-.483.386.386,0,0,1,.482.159,22.587,22.587,0,0,0,4.14,3.348c4.695,3.025,10.909,3.58,15.285,3.421,10.513-.318,42.763-2.707,43.081-2.784a.343.343,0,0,1,.318.319.247.247,0,0,1,.077.159Z" transform="translate(338.545 -211.476)"/><path class="s" d="M199.444,580.672a72.673,72.673,0,0,0-16.081,6.929c-7.237,4.54-9.4,10.272-9.4,10.272s-5.1-4.053-6.451-5.573l-5.573-6.05,20.626-21.5a33.856,33.856,0,0,0,6.446,8.916C192.356,576.85,195.622,579.321,199.444,580.672Z" transform="translate(346.713 -180.172)"/><path class="t" d="M179.362,600.109c-2.548-1.93-8.916-12.419-8.916-12.419L156.83,593.1s2.866,3.9,8.357,10.909c5.336,6.847,13.461,8.12,16.327,8.6,5.307.965,35.193-1.192,44.268-2.306,7.807-.637,5.5.965,11.227.077C235.08,608.934,230.4,606,230.4,606l-5.737-.965-26.831.318c-1.515-.077-6.05.4-8.839-.965-3.344-1.192-7.565-2.784-9.65-4.3Z" transform="translate(349.358 -192.044)"/><path class="u" d="M319.556,616.343a4.6,4.6,0,0,1-.159,4.777c1.834,1.515,1.592.319,2.866-.241,1.833-.873,3.667-4.777,3.03-6.446a2.992,2.992,0,0,0-3.03-1.674s-.637,2.63-2.229,3.344c-1.669.719-.483.241-.483.241Z" transform="translate(265.359 -205.011)"/><path class="r" d="M320.694,611.71a6.516,6.516,0,0,1-1.751,2.866,6.052,6.052,0,0,1-2.707,1.033.359.359,0,1,1,.077-.714,6.307,6.307,0,0,0,2.229-.878,8.352,8.352,0,0,0,1.833-3.421c0-.159.077.319.237.4a.308.308,0,0,1,.241.4C320.853,611.469,320.772,611.551,320.694,611.71Z" transform="translate(267.029 -203.882)"/><path class="v" d="M132.7,550.016s-8.839-15.44-12.106-26.194c-3.266-10.832-15.551-24.51-3.049-31.516,12.583-7.011,31.135,9.167,36.471,17.133l12.921,19.714-34.257,20.863Z" transform="translate(372.532 -141.793)"/><path class="w" d="M188.707,569.937c.077.159,0,.241-.159.318l-33.6,20.7a.482.482,0,1,1-.483-.8l33.6-20.7c.236-.159.318,0,.482.159A.425.425,0,0,1,188.707,569.937Z" transform="translate(350.763 -182.577)"/><path class="r" d="M330.891,611.922a22.14,22.14,0,0,1-5.018-.483L325,612c.082.077.082.077.159.077a51.759,51.759,0,0,0,5.578.241l.159-.4Z" transform="translate(262.328 -204.335)"/><path class="r" d="M278.747,603.365a.811.811,0,0,1-.714-.318,1.471,1.471,0,0,1-.159-1.351c.077-.241.159-.56.236-.878a20.713,20.713,0,0,0,.8-4.618c-.077-.637-.159-.878-.4-.965a25.613,25.613,0,0,0-2.07,3.1,9.036,9.036,0,0,1-2.948,2.871,14.888,14.888,0,0,0-1.274.965c-1.115.965-3.025.965-8.12-.082s-30.1-6.929-30.339-7.005l.159-.8c.241.077,25.244,5.891,30.339,7.006,4.7.965,6.61,1.037,7.406.241a8.436,8.436,0,0,1,1.351-1.037,8.43,8.43,0,0,0,2.707-2.63c1.993-3.262,2.388-3.58,2.866-3.5.965.159,1.037,1.2,1.115,1.674a18.539,18.539,0,0,1-.8,4.936,4.974,4.974,0,0,1-.236.8A8.092,8.092,0,0,0,278.747,603.365Z" transform="translate(309.546 -195.46)"/><path class="v" d="M81.151,574.637a3.506,3.506,0,0,1-.159.878v.077a1.6,1.6,0,0,1-.082.4v.077h64.417s-6.272-40.606-8.521-49.846c-2.625-10.75-7.126-31.955-27.984-36.413-3.445-.347-8.574-.685-11.681,1.226-.159.4,1.756,2.412,1.515,2.63-1.356,1.115-6.05,6.528-9.872,27.473-1.674,9.394-7.647,53.508-7.647,53.508Z" transform="translate(388.647 -141.252)"/><path class="x" d="M112.176,501.87S125.715,511.664,125,536.9c-.241,9,0,13.3-.878,24.843-.965,12.5-1.274,20.7-1.274,20.7H86.7L77.78,542.08Z" transform="translate(390.267 -147.632)"/><path class="y" d="M82.939,500.282s18.064-6.272,29.224,1.37-6.784,92.835-38.343,79.263" transform="translate(392.316 -145.558)"/><path class="f" d="M77.142,534.38s-4.535,10.514-7.879,19.907c-4.463,12.26-5.1,16.163-5.418,21.818-.4,6.61,1.115,12.979,4.781,23.729C72.288,610.661,81.2,632.4,81.2,632.4a22.922,22.922,0,0,0,4.063,10.132c3.58,5.018,4.376,5.259,5.013,5.79.482.4,1.274-.637,1.274-.637s1.515,1.674,2.552,1.356c1.033-.241.159-1.515.159-1.515s1.3.835,1.853.439.217-3.377-.579-4.9-1.447-5.79-1.674-6.687c-.159-.8,1.814,1.592,2.769,2.707s2.089.8.965-1.447-1.833-4.222-2.229-4.777-1.447-1.93-2.229-2.789l-.786-.863s-.714-.637-1.033-3.185S88.533,597.6,88.456,593.7c-.159-5.018,2.866-16.4,4.3-20.385,3.107-8.685,8.6-26.276,8.6-26.276Z" transform="translate(397.511 -164.456)"/><path class="z" d="M80.414,655.668c-.159,0-.236-.082-.318-.241-.077-.318-11.942-30.4-15.29-40.452-2.943-8.835-2.388-14.957-1.669-18.393a127.543,127.543,0,0,1,4.458-15.922c.159-.159.318-.082.483,0,.159.159.082.318,0,.483-.4,1.351-3.025,9.65-4.3,16.163-1.037,5.254.318,13.3,1.669,17.437,3.348,10.031,15.213,40.128,15.29,40.369.082.159,0,.4-.159.4-.077.159-.077.159-.159.159Z" transform="translate(398.141 -188.36)"/><path class="aa" d="M88.921,614.446s-3.585-3.262-10.036-8.839-14.808-5.172-14.808-5.172-.241-7.807,4.458-18.156c1.115-1.834,3.585,1.274,3.585,1.274l22.614,9.476c0-.318-1.447,4.3-2.948,8.521C90.195,605.93,90.513,606.408,88.921,614.446Z" transform="translate(397.359 -188.946)"/><path class="ab" d="M107.313,589.384l7.961-24.206-10.509-4.058a54.928,54.928,0,0,0-6.272,13.852c-6.929,5.177-5.018,9.794-4.14,14.253-1.2,3.344-.56,8.125-1.037,10.991-.637,3.58.719,19.507,2.07,28.187,1.119,6.61,5.1,15.6,10.75,18.233,1.037.483,5.5,7.643,7.237,6.369.56.8-1.351-4.217-2.707-6.369a20.266,20.266,0,0,0-3.184-3.821l-1.047-3.59-2.784-31.69C103.41,601.885,106.517,591.772,107.313,589.384Z" transform="translate(382.311 -178.295)"/><path class="r" d="M120.664,765.479c-1.2.082-1.785-1.274-1.867-1.351l-.275-.429-2.47-4.907a.357.357,0,0,1,.637-.319l2.548,5.1c.241.4.941,1.332,1.655,1.173a3.146,3.146,0,0,0,.482-.294,1.326,1.326,0,0,0-.1-1c-.1-.159.1-.2.333-.2.159-.077.241.082.4.241a1.654,1.654,0,0,1,0,1.274c-.058.343-.483.772-1.356.714Z" transform="translate(370.475 -280.339)"/><path class="r" d="M123.677,745.56a1.763,1.763,0,0,1-.333-.184l-2.707-6.485c-.082-.159,0-.4.159-.4.159-.082.4,0,.4.159l2.712,6.272c.42.4.531.318.8.193a.642.642,0,0,0,.318-.318c.236-.483.135-.734-.545-3-.618-2.055-2.084-8.072-2.084-8.313a.43.43,0,0,1,.241-.4.342.342,0,0,1,.4.077c2.07,2.789,3.426,3.744,3.744,3.744.077-.082.236-.319,0-.965-.4-1.038-2.311-4.7-2.948-5.891a6.614,6.614,0,0,0-2.63-2.895c-.077-.077-.159-.077-.159-.159l-1.192-3.821a.3.3,0,0,1,.236-.4.3.3,0,0,1,.4.236l1.192,3.662a7.72,7.72,0,0,1,2.789,3.107c1.115,2.07,2.548,5.018,2.948,5.973.4,1.033.159,1.447-.159,1.67a.67.67,0,0,1-.482.159c-.637-.077-1.93-1.114-3.344-2.866.318,1.752,1.751,6.852,1.751,6.852.8,2.229.844,2.847.526,3.643-.241.482-.965.893-2.026.318Z" transform="translate(368.509 -261.953)"/><path class="ac" d="M106.655,713.686s-3.421,1.033-3.5.714c-.318-1.114-3.184-1.351-5.968-.159-3.107,1.356-3.9,2.229-3.9,2.229l.555,2.311,12.979-3.662-.159-1.447Z" transform="translate(382.246 -257.128)"/><path class="ad" d="M110.258,729.055s-2.866.8-2.784,1.114c.077,1.2-1.274,3.107-4.3,3.508-3.662.965-4.458-.56-4.458-.56l-.637-2.47L109.939,727l.318,2.07Z" transform="translate(379.762 -264.139)"/><path class="ae" d="M107.4,716.763l.8,3.981a1.447,1.447,0,0,1-.965,1.51L95.289,725.6a1.361,1.361,0,0,1-1.674-.965l-.878-3.58a1.447,1.447,0,0,1,.965-1.674l12.424-3.58c.714-.318,1.192.159,1.274.965Z" transform="translate(382.543 -258.294)"/><path class="ae" d="M103.322,715.823c-1.115-.482-5.573,1.115-6.755,1.51-1.115.482-1.674,1.447-.965,3.821s1.037,4.3,1.833,4.94c1.115.8,2.866.237,4.854-.4,1.993-.555,3.662-1.356,3.662-2.47s-.965-4.376-1.192-5.65c-.318-1.2-.56-1.356-1.447-1.751Z" transform="translate(381.207 -258.308)"/><path class="v" d="M101.467,548.073s5.973-17.2,7.17-28.665,2.548-23.333-11.469-28.027c-13.934-4.617-21.5,10.508-25.321,19.589-3.9,9.076-8.757,22.677-8.757,22.677Z" transform="translate(397.869 -141.76)"/><path class="af" d="M114.787,496.59s.318,11.145-7.006,25A48.394,48.394,0,0,1,88.67,541.341l25.958,9.872s5.177-16.245,6.528-24.607,1.592-16.168-.555-22.194c-2.152-5.973-5.79-7.8-5.79-7.8Z" transform="translate(384.632 -144.898)"/><path class="ag" d="M101.443,594.279c.159,0,.236-.159.318-.319a.482.482,0,0,0-.241-.637L63.539,579.067a.482.482,0,0,0-.4.878L101.125,594.2A.588.588,0,0,0,101.443,594.279Z" transform="translate(397.975 -187.566)"/><path class="ag" d="M142.86,552.888c.077-.237,6.61-20.781,7.643-34.4.965-12.743-4.7-18.156-4.936-18.335l-.8-.637c-.241,0,.077.318.236.555h0c.082.082,5.814,5.973,4.859,18.4-1.032,13.51-7.565,33.774-7.565,34l.56.4Z" transform="translate(356.877 -146.417)"/><path class="r" d="M318.665,624.741a.294.294,0,0,1-.236-.077.3.3,0,0,1,0-.482c.077-.082,1.447-1.515,0-4.381a.381.381,0,0,1,.159-.483.386.386,0,0,1,.483.159c1.592,3.344-.082,5.1-.159,5.177a.3.3,0,0,1-.241.077Z" transform="translate(265.792 -208.395)"/><path class="f" d="M327.783,613.723c-.241,1.51,2.388,1.829,3.744,1.829s2.707-.236,2.625-1.67c-.077-1.356-2.547-1.274-3.262-1.274C330.172,612.686,328.02,612.368,327.783,613.723Z" transform="translate(260.895 -204.941)"/><path class="r" d="M331.008,615.781a5.736,5.736,0,0,1-3.585-1.037,1.177,1.177,0,0,1-.318-1.114h0c.159-1.447,1.993-1.351,3.025-1.351h.4c.873,0,3.58-.082,3.58,1.592a1.559,1.559,0,0,1-.4,1.192,3.473,3.473,0,0,1-2.548.719Zm-3.266-2.152a.966.966,0,0,0,.159.637c.555.637,2.229.878,3.266.8a2.912,2.912,0,0,0,2.07-.555.965.965,0,0,0,.236-.719c0-.714-1.033-.965-2.943-.965h-.483c-1.037,0-2.152,0-2.311.8Z" transform="translate(261.255 -204.767)"/><path class="f" d="M326.472,620.119c-.159,1.192,2.388,1.592,3.821,1.669,1.515,0,2.948-.077,2.866-1.51s-1.51-1.447-2.943-1.447c-1.447-.082-3.585.077-3.744,1.274Z" transform="translate(261.569 -208.152)"/><path class="r" d="M330.189,621.8h-.319c-1.114,0-3.184-.237-3.9-1.115a1.2,1.2,0,0,1-.318-.873l.318.077-.318-.077c.241-1.593,2.948-1.593,4.145-1.593h.159c1.351,0,3.025,0,3.185,1.752a1.651,1.651,0,0,1-.4,1.274A4.014,4.014,0,0,1,330.189,621.8Zm0-3.025h-.319c-.8,0-3.344,0-3.426,1.037a.434.434,0,0,0,.159.4c.482.56,2.075.878,3.426.878.965,0,1.93,0,2.311-.4a1.052,1.052,0,0,0,.237-.8C332.418,618.924,331.7,618.775,330.189,618.775Z" transform="translate(261.993 -207.844)"/><path class="f" d="M326.307,625.58c-.077,1.037,1.448,1.515,3.189,1.515s2.388-.319,2.388-1.448c0-.719-1.592-1.115-2.707-1.037-1.037.082-2.789,0-2.871.965Z" transform="translate(261.653 -211.148)"/><path class="r" d="M329,627.185a4.3,4.3,0,0,1-2.948-.878,1.667,1.667,0,0,1-.4-1.032c.082-1.037,1.356-1.037,2.548-1.115a3.347,3.347,0,0,0,.878,0c1.115.236,1.93-.082,2.548.483a.81.81,0,0,1,.318.714c0,1.592-1.351,1.751-2.707,1.751a.285.285,0,0,1-.236.082Zm.318-2.47h-.4a1.926,1.926,0,0,0-.637.082c-.8.077-1.93.077-1.993.555h0a.864.864,0,0,0,.159.483,4.046,4.046,0,0,0,2.63.637c1.93,0,2.07-.482,2.07-1.115,0,0,0-.077-.159-.237a3.351,3.351,0,0,0-1.669-.4Zm-3.348.637" transform="translate(261.991 -210.919)"/><path class="f" d="M326.146,630.549c-.082.878,1.192,1.274,2.63,1.2,1.447,0,1.93-.318,1.93-1.2,0-.637-1.274-.878-2.234-.8C327.579,629.912,326.223,629.83,326.146,630.549Z" transform="translate(261.737 -213.804)"/><path class="r" d="M325.807,631.165a1.2,1.2,0,0,1-.319-.878c.077-.965,1.192-.965,2.147-1.038h.482a3.065,3.065,0,0,1,2.229.56.965.965,0,0,1,.319.637c0,1.356-1.115,1.515-2.311,1.515a3.6,3.6,0,0,1-2.548-.8Zm2.707-1.279h-.8c-.637,0-1.515.082-1.515.4h0a.444.444,0,0,0,.159.4,2.856,2.856,0,0,0,2.075.483c1.51,0,1.669-.242,1.448-.878C329.787,629.887,329.073,629.887,328.513,629.887Zm-2.707.4" transform="translate(262.076 -213.541)"/><path class="ah" d="M16.356,0h0A16.356,16.356,0,0,1,32.713,16.356v.111H0v-.125A16.356,16.356,0,0,1,16.356,0Z" transform="translate(489.049 302.221) rotate(-3.66)"/><rect class="ah" width="25.75" height="6.861" rx="3.43" transform="translate(507.025 310.78) rotate(-3.66)"/><rect class="ai" width="14.118" height="30.204" rx="2" transform="translate(596.007 389.704) rotate(30)"/><rect class="aj" width="11.864" height="27.391" rx="2" transform="translate(596.059 391.382) rotate(30)"/><ellipse class="v" cx="5.467" cy="4.468" rx="5.467" ry="4.468" transform="matrix(0.524, -0.852, 0.852, 0.524, 587.506, 407.865)"/><ellipse class="ak" cx="4" cy="3.266" rx="4" ry="3.266" transform="matrix(0.524, -0.852, 0.852, 0.524, 585.58, 409.935)"/><ellipse class="al" cx="5.317" cy="4.342" rx="5.317" ry="4.342" transform="matrix(0.524, -0.852, 0.852, 0.524, 583.973, 410.493)"/><path class="am" d="M840.12,517.55l.391,3.4,5.775-3.252" transform="translate(-247.501 -113.507)"/><g transform="translate(595.406 394.764)"><path class="an" d="M849.558,500a.356.356,0,0,0,.112.053.212.212,0,0,0,.092,0h.224v.257a.81.81,0,0,1-.388.079.7.7,0,0,1-.362-.119.66.66,0,0,1-.23-.224.9.9,0,0,1-.085-.3,1.221,1.221,0,0,1,.046-.342,1.431,1.431,0,0,1,.164-.356,1.73,1.73,0,0,1,.481-.52,1.178,1.178,0,0,1,.27-.145.856.856,0,0,1,.948.171.746.746,0,0,1,.092.138.619.619,0,0,1,.066.309l-.23.1H850.7a.052.052,0,0,1-.053,0h0a.183.183,0,0,1,0-.046v-.052a.283.283,0,0,0,0-.066l-.046-.059a.378.378,0,0,0-.079-.066.424.424,0,0,0-.217-.066.557.557,0,0,0-.244.06.86.86,0,0,0-.243.171,1.555,1.555,0,0,0-.224.283.966.966,0,0,0-.106.237.534.534,0,0,0-.039.2.316.316,0,0,0,.04.158A.25.25,0,0,0,849.558,500Z" transform="translate(-848.92 -498.317)"/><path class="an" d="M851.7,500.074a.6.6,0,0,1,.257-.059.528.528,0,0,1,.2.059.265.265,0,0,1,.105.118.313.313,0,0,1,.039.158.719.719,0,0,1-.046.2,1.551,1.551,0,0,1-.138.224l-.619.823-.335-.211.619-.816a.359.359,0,0,0,.059-.092.165.165,0,0,0,0-.072.052.052,0,0,0,0-.053v-.033a.184.184,0,0,0-.086,0,.313.313,0,0,0-.112,0,.522.522,0,0,0-.132.072,1.037,1.037,0,0,0-.138.112l-.52.658-.329-.2,1.415-1.856.336.2Z" transform="translate(-849.469 -498.585)"/><path class="an" d="M853.526,502.852a.909.909,0,0,1-.191.053.483.483,0,0,1-.171,0,.394.394,0,0,1-.151,0,.582.582,0,0,1-.158-.072.457.457,0,0,1-.158-.158.5.5,0,0,1-.072-.2.723.723,0,0,1,0-.237,1.018,1.018,0,0,1,.112-.263,1.478,1.478,0,0,1,.151-.2,1.012,1.012,0,0,1,.178-.158.993.993,0,0,1,.2-.112.8.8,0,0,1,.2-.059.613.613,0,0,1,.395.079.528.528,0,0,1,.138.132.441.441,0,0,1,.066.151.457.457,0,0,1,0,.164.42.42,0,0,1-.059.138.487.487,0,0,1-.132.151.37.37,0,0,1-.191.079.658.658,0,0,1-.263,0,1.677,1.677,0,0,1-.362-.125.376.376,0,0,0-.079.23.21.21,0,0,0,.1.158l.079.033h.3v.039Zm.165-1.086a.21.21,0,0,0-.2,0,.621.621,0,0,0-.23.165.917.917,0,0,0,.191.059.3.3,0,0,0,.132,0,.2.2,0,0,0,.086,0l.053-.059a.112.112,0,0,0,0-.079.078.078,0,0,0-.02-.086Z" transform="translate(-850.182 -499.381)"/><path class="an" d="M855.138,502.3h.052a.138.138,0,0,0,.151,0l.763-.408a.247.247,0,0,1,.112,0,.291.291,0,0,1,.105.039l.3.184-.98.487a.45.45,0,0,1-.178.046.191.191,0,0,1,0,.086.315.315,0,0,1,0,.112l-.217,1.1-.316-.191h-.046v-.039a.087.087,0,0,1,0-.04v-.046l.178-.829a.135.135,0,0,0,0-.072.313.313,0,0,0-.066-.066l-.079-.046-.592.776-.349-.217,1.376-1.81.349.217Z" transform="translate(-850.647 -499.36)"/><path class="an" d="M857.409,503.4l-.98,1.316-.329-.2.98-1.316Zm.29-.336a.271.271,0,0,1-.072.079.289.289,0,0,1-.184.059.186.186,0,0,1-.086,0,.213.213,0,0,1-.066-.066.189.189,0,0,1,0-.085.285.285,0,0,1,0-.105.351.351,0,0,1,.118-.184l.086-.053h.185a.188.188,0,0,1,.059.066.227.227,0,0,1,.033.092.292.292,0,0,1,0,.105.323.323,0,0,1-.04.1Z" transform="translate(-851.373 -499.819)"/><path class="an" d="M858.048,504.368a.7.7,0,0,1,.3-.086.486.486,0,0,1,.237.059.335.335,0,0,1,.105.112.44.44,0,0,1,0,.165.531.531,0,0,1-.046.2.894.894,0,0,1-.138.224l-.619.816-.329-.2.619-.823a.443.443,0,0,0,.059-.092.119.119,0,0,0,0-.066.052.052,0,0,0,0-.046v-.04a.209.209,0,0,0-.092,0,.389.389,0,0,0-.125.033.622.622,0,0,0-.145.079,1.387,1.387,0,0,0-.145.132l-.48.658-.336-.211.981-1.316.171.105a.151.151,0,0,1,.066.079.157.157,0,0,1,0,.118Z" transform="translate(-851.648 -500.246)"/></g><g transform="translate(584.012 410.475)"><rect class="an" width="10.591" height="3.228" rx="1.1" transform="matrix(0.852, 0.524, -0.524, 0.852, 1.69, 0)"/><path class="aj" d="M822.5,537.861l.608-1.612.284.174-.275.651-.241.545h0c.116-.145.246-.3.386-.483l.482-.531.285.174-.28.666c-.077.188-.155.352-.237.521h0c.116-.15.246-.3.377-.483l.458-.531.271.164-1.187,1.254-.29-.178.28-.68c.068-.159.13-.3.217-.482h0c-.125.149-.227.27-.343.4l-.483.55Z" transform="translate(-820.938 -535.115)"/><path class="aj" d="M825.757,539.972a.256.256,0,0,0,.121.347.651.651,0,0,0,.261.1l-.1.246a.883.883,0,0,1-.347-.13.536.536,0,0,1-.13-.811.579.579,0,0,1,.777-.294c.275.169.217.482.058.757a.9.9,0,0,1-.087.121Zm.449-.029c.048-.077.1-.227,0-.3s-.232.029-.294.111Z" transform="translate(-822.454 -536.734)"/><path class="aj" d="M828,539.25l.265.164-.936,1.515-.266-.159Z" transform="translate(-823.299 -536.667)"/><path class="aj" d="M828.864,542.428a.572.572,0,0,1-.265-.1.55.55,0,0,1-.125-.815.588.588,0,0,1,.835-.255.576.576,0,0,1,.173.169l-.188.212a.357.357,0,0,0-.13-.121c-.14-.087-.3,0-.41.15a.3.3,0,0,0,.058.439.485.485,0,0,0,.169.063Z" transform="translate(-823.964 -537.664)"/><path class="aj" d="M830.972,543.059a.565.565,0,0,1-.791.28.55.55,0,0,1-.111-.811.565.565,0,0,1,.8-.275.555.555,0,0,1,.106.806Zm-.622-.371c-.111.178-.13.352,0,.42s.246,0,.362-.208.145-.347,0-.42-.26.034-.362.188Z" transform="translate(-824.789 -538.185)"/><path class="aj" d="M832.127,543.438c.082-.13.145-.246.2-.338l.227.135-.077.149h0a.342.342,0,0,1,.362,0,.285.285,0,0,1,.126.318h0a.661.661,0,0,1,.188-.063.321.321,0,0,1,.193.053c.169.1.2.318,0,.627l-.376.618-.261-.159.352-.569c.092-.149.106-.265,0-.318a.165.165,0,0,0-.188.039.318.318,0,0,0-.063.077l-.376.613-.261-.159.362-.584c.082-.135.1-.246,0-.3a.168.168,0,0,0-.2.039.394.394,0,0,0-.058.077l-.376.608-.26-.159Z" transform="translate(-825.669 -538.658)"/><path class="aj" d="M835.465,545.924a.256.256,0,0,0,.116.347.76.76,0,0,0,.266.1l-.1.241a.764.764,0,0,1-.347-.126.531.531,0,0,1-.13-.81c.164-.266.483-.482.772-.294s.222.482.063.757c-.034.053-.072.1-.087.121Zm.449-.029c.048-.082.1-.232,0-.3s-.236.024-.294.111Z" transform="translate(-827.477 -539.804)"/><path class="aj" d="M836.88,546.649a.2.2,0,0,1,.275-.1.2.2,0,0,1,.039.289c-.073.111-.183.155-.275.1a.2.2,0,0,1-.039-.289Zm.241-.266.555-.994.28.169-.637.965Z" transform="translate(-828.358 -539.843)"/></g><g transform="translate(446.003 584.192)"><path class="ao" d="M47.625,984.549c6.368,2.974,9.679,3.229,9.679,3.229l4.248-11.807L45.393,969,41.16,980.024a19.881,19.881,0,0,0,6.465,4.521Z" transform="translate(-34.287 -969)"/><path class="ap" d="M110.442,1029.8c-.124-1.3-2.349-2.349-4.079-3.214-5.132-2.536-16.568-9.705-16.568-9.705l-.225-.524v15.665a1.824,1.824,0,0,0,1.824,1.824l17.257-.026c1.049,0,1.873-.558,1.79-1.607C110.442,1031.474,110.505,1030.609,110.442,1029.8Z" transform="translate(-64.562 -998.62)"/><path class="ah" d="M110.358,1052.58l-20.748.086v2.026a1.648,1.648,0,0,0,1.652,1.648l17.489-.052c1.053,0,1.794-.554,1.731-1.607C110.467,1054.558,110.358,1052.58,110.358,1052.58Z" transform="translate(-64.588 -1021.273)"/><rect class="aq" width="20.812" height="0.805" transform="translate(25.008 31.06)"/><path class="ap" d="M54.273,1015.156c1.618,0,2.918-1.371,4.266-2.277l.191-.135c-3.712-4.667-7.72-10.076-7.72-10.076l-.03-.944a1.674,1.674,0,0,0-1.195-1.528l-19.759-5.48a1.7,1.7,0,0,0-2.071,1.049l-2.588,5.424a35.265,35.265,0,0,0-2.51,6.919,2.1,2.1,0,0,0,1.521,2.386l22.954,8.949C49.28,1017.5,48.572,1015.13,54.273,1015.156Z" transform="translate(-22.812 -985.039)"/><path class="ah" d="M51.047,1035.808l-27.659-10.7-.551,1.91a2.177,2.177,0,0,0,1.581,2.412h0l24.685,9.739C52.576,1039.153,49.748,1036.524,51.047,1035.808Z" transform="translate(-22.807 -1004.092)"/><path class="aq" d="M52.537,1035.113,24.4,1024.1l-.292.749,26.569,10.4a3.035,3.035,0,0,0,1.858-.139Z" transform="translate(-23.623 -1003.46)"/><path class="ah" d="M87.425,1020.643a.836.836,0,0,0,.828,1.453l4.495-2.547a.06.06,0,0,0,.079-.037l-1.008-1.322-4.413,2.453Zm2.918,3.4a.841.841,0,0,0,.907,1.416l4.09-2.648-1.008-1.322Zm3.236,3.259a.85.85,0,0,0,.989,1.382l3.334-2.412-1.008-1.326Z" transform="translate(-62.956 -999.765)"/></g><g transform="matrix(0.799, -0.602, 0.602, 0.799, 539.536, 598.161)"><path class="ao" d="M6.465,15.549c6.368,2.974,9.679,3.229,9.679,3.229L20.392,6.971,4.233,0,0,11.024a19.88,19.88,0,0,0,6.465,4.521Z" transform="translate(6.873 0)"/><path class="ap" d="M20.872,13.444c-.124-1.3-2.349-2.349-4.079-3.214C11.661,7.694.225.524.225.524L0,0V15.665a1.824,1.824,0,0,0,1.824,1.824l17.257-.026c1.049,0,1.873-.558,1.79-1.607C20.872,15.114,20.935,14.249,20.872,13.444Z" transform="translate(25.008 17.74)"/><path class="ah" d="M20.748,0,0,.086V2.113A1.648,1.648,0,0,0,1.652,3.761l17.489-.052c1.053,0,1.794-.555,1.731-1.607C20.857,1.978,20.748,0,20.748,0Z" transform="translate(25.022 31.307)"/><rect class="aq" width="20.812" height="0.805" transform="translate(25.008 31.06)"/><path class="ap" d="M31.46,20.51c1.618,0,2.918-1.371,4.266-2.277l.191-.135C32.205,13.43,28.2,8.021,28.2,8.021l-.03-.944a1.674,1.674,0,0,0-1.195-1.528L7.213.069A1.7,1.7,0,0,0,5.142,1.118L2.554,6.541A35.265,35.265,0,0,0,.044,13.46a2.1,2.1,0,0,0,1.521,2.386l22.954,8.949C26.467,22.855,25.759,20.483,31.46,20.51Z" transform="translate(0 9.608)"/><path class="ah" d="M28.241,10.7.582,0,.031,1.91A2.177,2.177,0,0,0,1.612,4.323h0L26.3,14.062C29.769,14.043,26.941,11.413,28.241,10.7Z" transform="translate(0 21.018)"/><path class="aq" d="M28.427,11.013.292,0,0,.749l26.569,10.4a3.037,3.037,0,0,0,1.858-.139Z" transform="translate(0.487 20.64)"/><path class="ah" d="M.423,2.453A.836.836,0,0,0,1.25,3.907L5.745,1.36a.06.06,0,0,0,.079-.037L4.816,0,.4,2.453Zm2.918,3.4a.841.841,0,1,0,.907,1.416l4.09-2.648L7.33,3.3ZM6.577,9.114A.85.85,0,0,0,7.566,10.5L10.9,8.083,9.892,6.757Z" transform="translate(24.045 18.425)"/></g><path class="ah" d="M16.708,0h23.28A16.708,16.708,0,0,1,56.7,16.708V21.49A16.708,16.708,0,0,1,39.989,38.2H16.708A16.708,16.708,0,0,1,0,21.49V16.708A16.708,16.708,0,0,1,16.708,0Z" transform="translate(547.272 332.863)"/><path class="ah" d="M322.285,521.534v-.048h0l-.048.068a1.9,1.9,0,0,0-.092.2,4.533,4.533,0,0,0-.179.482c-.111.333-.222.68-.309,1.052a20.739,20.739,0,0,0-.444,2.306,32.185,32.185,0,0,0-.27,4.97c.034.849.058,1.713.15,2.572s.193,1.732.319,2.61.314,1.737.482,2.625.415,1.742.632,2.625l-.12.068c-.579-.69-1.182-1.385-1.761-2.1s-1.138-1.447-1.66-2.219-1.071-1.534-1.553-2.345-.965-1.631-1.447-2.475a39.268,39.268,0,0,1-2.355-5.4,28.775,28.775,0,0,1-.859-2.972c-.125-.511-.222-1.047-.318-1.6-.039-.285-.087-.55-.111-.859,0-.154-.034-.289-.043-.482v-.265q0-.072,0-.145v-.217Z" transform="translate(268.902 -157.004)"/><g transform="translate(553.887 345.734)"><path class="aj" d="M260.97,494.265a3.84,3.84,0,0,0,.687-.061,2.92,2.92,0,0,0,.513-.154,1.587,1.587,0,0,0,.349-.205l.261-.2a2,2,0,0,1,.21-.154.405.405,0,0,1,.215-.061.43.43,0,0,1,.195.041.3.3,0,0,1,.108.087l.825.984a4.567,4.567,0,0,1-1.615,1.24,5.125,5.125,0,0,1-2.127.415,4.219,4.219,0,0,1-1.753-.349,3.747,3.747,0,0,1-1.287-.953,4.234,4.234,0,0,1-.8-1.445,5.807,5.807,0,0,1-.267-1.8,6.765,6.765,0,0,1,.2-1.7,6.491,6.491,0,0,1,.569-1.492,5.563,5.563,0,0,1,.882-1.241A5.351,5.351,0,0,1,262.1,485.5a4.72,4.72,0,0,1,1.071.108,3.75,3.75,0,0,1,.871.308,3.336,3.336,0,0,1,1.24,1.071l-.825.948a.948.948,0,0,1-.205.174.482.482,0,0,1-.3.082.451.451,0,0,1-.215-.056,1.862,1.862,0,0,1-.21-.138l-.22-.164a1.923,1.923,0,0,0-.313-.184,2.305,2.305,0,0,0-.415-.133,2.2,2.2,0,0,0-.579-.062,2.794,2.794,0,0,0-1.24.277,3.008,3.008,0,0,0-.994.8,3.911,3.911,0,0,0-.651,1.266,5.3,5.3,0,0,0-.236,1.65,4.032,4.032,0,0,0,.159,1.189,2.761,2.761,0,0,0,.441.887,1.887,1.887,0,0,0,.666.554,1.908,1.908,0,0,0,.825.19Z" transform="translate(-256.479 -485.309)"/><path class="aj" d="M276.173,489.47a3.374,3.374,0,0,1,1.071-.825,2.688,2.688,0,0,1,1.164-.267,1.963,1.963,0,0,1,.851.19,1.671,1.671,0,0,1,.641.538,2.246,2.246,0,0,1,.364.887,3.688,3.688,0,0,1,0,1.21l-.5,4.726h-2.219l.559-4.721a2.143,2.143,0,0,0,0-.513.814.814,0,0,0-.077-.333.348.348,0,0,0-.179-.185.657.657,0,0,0-.282-.051.86.86,0,0,0-.461.133,1.763,1.763,0,0,0-.472.374,3.388,3.388,0,0,0-.415.589,3.879,3.879,0,0,0-.323.769l-.482,3.937H273.2l1.322-10.718h2.225Z" transform="translate(-264.629 -485.169)"/><path class="aj" d="M295.006,497.585a8.706,8.706,0,0,1-.774.666,3.832,3.832,0,0,1-.774.466,3.536,3.536,0,0,1-.825.272,5.223,5.223,0,0,1-.979.082,3.146,3.146,0,0,1-1.21-.226,2.644,2.644,0,0,1-.948-.636,2.8,2.8,0,0,1-.615-.989,3.619,3.619,0,0,1-.251-1.292,4.973,4.973,0,0,1,.133-1.164,4.892,4.892,0,0,1,.379-1.066,4.619,4.619,0,0,1,.615-.912,4.1,4.1,0,0,1,.83-.723,3.747,3.747,0,0,1,2.117-.636,2.963,2.963,0,0,1,1.056.169,2.522,2.522,0,0,1,.779.451,1.829,1.829,0,0,1,.477.62,1.573,1.573,0,0,1,.169.682,2.1,2.1,0,0,1-.215.933,1.885,1.885,0,0,1-.7.748,4.715,4.715,0,0,1-1.338.559,13.524,13.524,0,0,1-2.117.359,1.651,1.651,0,0,0,.333,1.107,1.2,1.2,0,0,0,.943.354,2.43,2.43,0,0,0,.513-.051,1.616,1.616,0,0,0,.374-.128,2.049,2.049,0,0,0,.292-.164l.246-.164a1.3,1.3,0,0,1,.251-.128.7.7,0,0,1,.292-.051.4.4,0,0,1,.205.051.819.819,0,0,1,.149.149Zm-2.45-4.659a1.276,1.276,0,0,0-.969.441,2.7,2.7,0,0,0-.615,1.2,9.373,9.373,0,0,0,1.117-.226,2.878,2.878,0,0,0,.666-.267.774.774,0,0,0,.318-.3.657.657,0,0,0,.082-.343.513.513,0,0,0-.143-.349A.574.574,0,0,0,292.556,492.926Z" transform="translate(-272.15 -488.199)"/><path class="aj" d="M305.676,490.015h.343a.882.882,0,0,0,.764-.343l2.481-3.46a1.081,1.081,0,0,1,.461-.369,1.6,1.6,0,0,1,.6-.1h2.025l-3.291,4.27a2.27,2.27,0,0,1-.713.61,1.219,1.219,0,0,1,.41.272,1.578,1.578,0,0,1,.323.451l2.2,4.844h-2.05a1.8,1.8,0,0,1-.333-.031.767.767,0,0,1-.236-.087.688.688,0,0,1-.164-.133,2.083,2.083,0,0,1-.113-.179l-1.62-3.68a.512.512,0,0,0-.261-.287,1.192,1.192,0,0,0-.482-.082h-.554l-.554,4.47H302.6l1.271-10.441h2.317Z" transform="translate(-278.959 -485.426)"/><path class="aj" d="M323.865,488.477l-.887,7.443H320.79l.882-7.443Zm.415-2.05a1.143,1.143,0,0,1-.113.512,1.461,1.461,0,0,1-.707.687,1.245,1.245,0,0,1-.513.1,1.174,1.174,0,0,1-.477-.1,1.354,1.354,0,0,1-.415-.282,1.536,1.536,0,0,1-.287-.415,1.256,1.256,0,0,1,0-1,1.5,1.5,0,0,1,.3-.415,1.427,1.427,0,0,1,.41-.282,1.216,1.216,0,0,1,.482-.1,1.286,1.286,0,0,1,.513.1,1.237,1.237,0,0,1,.41.277,1.488,1.488,0,0,1,.3.415,1.276,1.276,0,0,1,.113.482Z" transform="translate(-287.826 -485.13)"/><path class="aj" d="M330.629,492.8a3.65,3.65,0,0,1,1.179-1.061,2.773,2.773,0,0,1,1.322-.338,1.921,1.921,0,0,1,.825.185,1.682,1.682,0,0,1,.651.543,2.244,2.244,0,0,1,.364.887,3.686,3.686,0,0,1,0,1.21l-.554,4.721h-2.2l.554-4.721a2.451,2.451,0,0,0,0-.513.8.8,0,0,0-.072-.328.405.405,0,0,0-.185-.174.632.632,0,0,0-.272-.056.964.964,0,0,0-.513.154,1.9,1.9,0,0,0-.513.415,3.244,3.244,0,0,0-.436.666,3.948,3.948,0,0,0-.318.861l-.415,3.685H327.82l.892-7.443h1.148a.845.845,0,0,1,.538.159.656.656,0,0,1,.19.513Z" transform="translate(-291.252 -488.185)"/></g></g></svg>