<svg xmlns="http://www.w3.org/2000/svg" xmlns:xlink="http://www.w3.org/1999/xlink" width="264.619" height="364.451" viewBox="0 0 264.619 364.451"><defs><style>.a{fill:#ea9d7d;}.b{fill:url(#a);}.c{fill:url(#b);}.d{fill:url(#c);}.e{fill:#cf7653;}.f{fill:url(#d);}.g{fill:#b76349;}.h{fill:#7a3e2b;}.i{fill:#b4603f;}.j{fill:#4f2b23;}.k{fill:url(#e);}.l{fill:#161643;}.m{fill:#e79a7a;}.n{fill:url(#f);}.o{fill:url(#g);}.p{fill:url(#h);}.q{fill:url(#i);}.r{fill:#ba6858;}.s{fill:#c12f4f;}.t{fill:#ad203a;}.u{opacity:0.24;fill:url(#j);}.v{fill:#fffdf3;}.w{fill:url(#k);}.x{fill:url(#l);}.y{fill:#e89976;}.z{fill:url(#m);}.aa{fill:#cc7a5e;}.ab{fill:#c5e7fe;}.ac{fill:#ff7b33;}.ad{fill:url(#n);}.ae{fill:#c26419;}.af{fill:#e48674;}.ag{fill:url(#o);}.ah{fill:#71a1bf;}.ai{fill:#94cbed;}.aj{fill:url(#p);}.ak{fill:url(#q);}.al{fill:url(#r);}.am,.ar{fill:none;stroke-linecap:round;stroke-linejoin:round;}.am{stroke:#cbe9ff;stroke-width:3.49px;}.an{fill:#ff945c;}.ao{fill:#cbe9ff;}.ap{fill:#00c0b7;}.aq{fill:#2960f5;}.ar{stroke:#161643;stroke-width:1.43px;}.as{fill:#fff;}</style><linearGradient id="a" x1="-3.663" y1="8.456" x2="-3.297" y2="8.832" gradientUnits="objectBoundingBox"><stop offset="0" stop-color="#bc5a32" stop-opacity="0"/><stop offset="0.99" stop-color="#bc5a32"/></linearGradient><linearGradient id="b" x1="-3.68" y1="14.295" x2="-4.125" y2="14.919" xlink:href="#a"/><linearGradient id="c" x1="-1.189" y1="6.48" x2="-1.398" y2="6.948" gradientUnits="objectBoundingBox"><stop offset="0.02" stop-color="#4f211e"/><stop offset="0.99" stop-color="#743529"/></linearGradient><linearGradient id="d" x1="-15.008" y1="44.366" x2="-14.938" y2="45.432" gradientUnits="objectBoundingBox"><stop offset="0" stop-color="#cc7a5e" stop-opacity="0"/><stop offset="0.92" stop-color="#aa5f4b"/></linearGradient><linearGradient id="e" x1="-0.648" y1="3.531" x2="-1.211" y2="3.891" xlink:href="#c"/><linearGradient id="f" x1="-1.651" y1="-2.155" x2="-1.161" y2="-2.219" xlink:href="#d"/><linearGradient id="g" x1="-2.736" y1="-9" x2="-2.658" y2="-8.174" xlink:href="#d"/><linearGradient id="h" x1="3.951" y1="1.384" x2="3.708" y2="2.011" xlink:href="#d"/><linearGradient id="i" x1="2.32" y1="0.298" x2="2.667" y2="0.293" xlink:href="#d"/><linearGradient id="j" x1="-0.202" y1="-1.467" x2="-0.176" y2="-0.481" gradientUnits="objectBoundingBox"><stop offset="0" stop-color="#7f0026" stop-opacity="0"/><stop offset="1" stop-color="#7f0026"/></linearGradient><linearGradient id="k" x1="-11.489" y1="-38.938" x2="-11.603" y2="-39.913" gradientUnits="objectBoundingBox"><stop offset="0" stop-color="#db405b"/><stop offset="0.92" stop-color="#99203a"/></linearGradient><linearGradient id="l" x1="-4.968" y1="-37.167" x2="-5.071" y2="-38.014" xlink:href="#k"/><linearGradient id="m" x1="-12.884" y1="-16.001" x2="-13.365" y2="-16.858" gradientUnits="objectBoundingBox"><stop offset="0" stop-color="#cc7a5e" stop-opacity="0"/><stop offset="1" stop-color="#aa5f4b"/></linearGradient><linearGradient id="n" x1="-3.552" y1="-5.406" x2="-4.376" y2="-6.004" gradientUnits="objectBoundingBox"><stop offset="0" stop-color="#5b1219" stop-opacity="0"/><stop offset="1" stop-color="#5b1219"/></linearGradient><linearGradient id="o" x1="-0.291" y1="1.037" x2="-1.149" y2="1.155" xlink:href="#n"/><linearGradient id="p" x1="-0.53" y1="1.177" x2="-0.717" y2="1.976" gradientUnits="objectBoundingBox"><stop offset="0" stop-color="#323671" stop-opacity="0"/><stop offset="1" stop-color="#323671"/></linearGradient><linearGradient id="q" x1="17.083" y1="-1.974" x2="16.932" y2="-2.994" xlink:href="#k"/><linearGradient id="r" x1="36.938" y1="9.253" x2="36.849" y2="8.491" xlink:href="#k"/></defs><g transform="translate(-1188.416 -479.982)"><path class="a" d="M1373.547,466.72l-5.808,18.96-1.7,4.414s2.475,3.174,8.355,4.41a29.456,29.456,0,0,0,8.518.776c1.47-.158,3.246-.479,2.317-3.174a14.742,14.742,0,0,1-.847-6.578l2.087-11.376Z" transform="translate(-15.616 70.374)"/><path class="b" d="M1378.8,476.937a20.559,20.559,0,0,0,7.287,6.344,18.565,18.565,0,0,0,4.644,1.628l1.7-9.442-12.693-8.747-.7,1.317-.541,2.164C1378.43,470.277,1377.022,474.227,1378.8,476.937Z" transform="translate(-21.801 70.374)"/><path class="a" d="M1404.348,432.087a87.335,87.335,0,0,1-.929,14.244c-.852,4.644-3.174,6.966-5.65,7.737s-6.655-.771-9.676-2.322c-2.552-1.312-4.022-2.705-4.41-4.333-.388-1.7-1.163-3.869-1.163-3.869l.158-5.032,5.956-12.693Z" transform="translate(-24.206 91.693)"/><path class="c" d="M1393.19,440.889s3.1-5.109,5.746-6.655a34.951,34.951,0,0,1,8.206-2.873l-13.564-4.252Z" transform="translate(-29.767 91.021)"/><path class="d" d="M1367.17,418.362a20.11,20.11,0,0,0-5.884,10.682c-2.475,12,7.661,15.168,7.661,15.168s2.322-9.207,4.414-10.533c2.011.929,3.945.479,4.41-3.016.541-3.95.479-6.737,1.087-7.182.848-.618,2.164.158,7.182,1.628s8.36,1.7,8.9.771c.479-.306-1.393-3.557-3.95-6.885a15.86,15.86,0,0,0-11.218-5.745c-4.026-.307-7.742.311-12.616,5.109Z" transform="translate(-12.935 98.279)"/><ellipse class="a" cx="4.103" cy="4.41" rx="4.103" ry="4.41" transform="translate(1352.511 529.975)"/><path class="e" d="M1366.661,492.007h-.081a.421.421,0,0,1-.23-.388l3.639-11.146c.694-2.317,2.786-10.136,2.786-10.136a.318.318,0,0,1,.618.153l-2.786,10.141c-.618,2.088-3.639,11.065-3.639,11.065a.282.282,0,0,1-.307.311Z" transform="translate(-15.777 68.615)"/><ellipse class="f" cx="1.858" cy="1.934" rx="1.858" ry="1.934" transform="translate(1354.987 532.451)"/><path class="g" d="M1376.791,458.65a3.529,3.529,0,0,1-2.628,1.24,4.116,4.116,0,0,1,0-8.206,3.83,3.83,0,0,1,3.4,2.245.407.407,0,0,0,.388-.077.479.479,0,0,0,.153-.479,4.539,4.539,0,0,0-3.869-2.394,4.6,4.6,0,0,0-4.491,4.721,4.649,4.649,0,0,0,4.491,4.721,4.127,4.127,0,0,0,2.71-.929Z" transform="translate(-17.548 78.578)"/><path class="g" d="M1396.2,476.439a12.238,12.238,0,0,1-3.1-.541,20.44,20.44,0,0,1-7.737-4.256,4.523,4.523,0,0,1-1.547-3.4c0-.153,0-.388.153-.388s.235.153.311.311a4.83,4.83,0,0,0,1.47,3.016,19.878,19.878,0,0,0,7.431,4.1c2.394.541,2.873.694,4.644.541a5.415,5.415,0,0,0,2.552-.776c.311-.23.388-.23.235,0a5,5,0,0,1-2.71,1.317A13.919,13.919,0,0,1,1396.2,476.439Z" transform="translate(-24.879 69.786)"/><path class="h" d="M1401.184,446.644a.608.608,0,0,1-.158-.776,4.515,4.515,0,0,1,4.1-1.7.584.584,0,0,1-.077,1.163,3.279,3.279,0,0,0-3.021,1.24C1401.8,446.874,1401.261,446.721,1401.184,446.644Zm11.529-1.393a.479.479,0,0,1-.306-.077,1.915,1.915,0,0,0-1.24-.311.594.594,0,1,1-.235-1.163,2.542,2.542,0,0,1,2.169.546.575.575,0,0,1,.077.771.541.541,0,0,1-.479.235Z" transform="translate(-33.811 82.403)"/><path class="e" d="M1405.4,471.23h0a4.735,4.735,0,0,1-4.491-3.4.565.565,0,1,1,1.082-.311,3.567,3.567,0,0,0,3.409,2.557.579.579,0,0,1,.541.541.551.551,0,0,1-.541.618Z" transform="translate(-33.771 70.198)"/><path class="i" d="M1414.826,462.874h-.153a.5.5,0,1,1,.077-1.005.651.651,0,0,0,.694-.479,1.958,1.958,0,0,0-.383-1.393.494.494,0,1,1,.771-.618,3.081,3.081,0,0,1,.623,2.322,1.642,1.642,0,0,1-1.628,1.159Z" transform="translate(-40.721 74.298)"/><circle class="j" cx="1.082" cy="1.082" r="1.082" transform="translate(1368.996 530.828)"/><path class="j" d="M1405.917,454.051c-.153,0-.694.077-.776-.077-.077-.235.388-.541.622-.7a3.107,3.107,0,0,1,1.623-.306.388.388,0,1,1,0,.771,3.5,3.5,0,0,0-1.316.235A.24.24,0,0,1,1405.917,454.051Z" transform="translate(-35.992 77.548)"/><circle class="j" cx="1.082" cy="1.082" r="1.082" transform="translate(1377.049 530.205)"/><path class="j" d="M1422.73,452.81c-.153,0-.694.077-.771-.077-.082-.235.383-.541.618-.7a3.065,3.065,0,0,1,1.623-.306.388.388,0,1,1,0,.771h0a3.466,3.466,0,0,0-1.312.235.254.254,0,0,1-.158.077Z" transform="translate(-44.757 78.195)"/><path class="k" d="M1338.856,410.563s-1.393-3.409-6.191-3.715c-4.338-.311-7.431.541-10.217,5.185-1.781,2.94-4.721,4.022-8.671,5.032a8.649,8.649,0,0,0-6.655,9.365c.479,5.65,0,8.666-3.016,11.218s-6.736,12.851,4.18,19.582c9.829,6.114,20.588,1.47,23.757-6.966,3.1-8.139-.848-12.381-3.481-17.955-2.322-4.874-.618-10.533.694-11.917,1.551-1.781,2.394-1.393,2.394-1.393Z" transform="translate(18.3 101.61)"/><path class="l" d="M1362.919,423.975l-1.858-1.24s-1.01-1.623,2.873-6.191c3.557-4.18,5.8-4.18,6.267-3.715l1.781,1.628s-6.736,4.256-9.054,9.518Z" transform="translate(-12.959 98.569)"/><path class="m" d="M1299.564,835.04c2.3-9.255,26.333-64.636,29.527-74.743l32.045-81.092-46.677-5.324s-7.852,72.488-8.8,77.439c-.8,4.352-10.146,26.889-13.243,42.507-4.2,20.77-9.135,40.007-9.681,42.133C1283,843.749,1294.642,846.78,1299.564,835.04Z" transform="translate(27.806 -37.6)"/><path class="n" d="M1305.3,877.545c.613-3.352,12.448-31.849,28.334-70.382l16.652-47.8c.3-9.47-12.06,2.6-12.7,1.36l-6,.718S1318.56,763,1317.7,767.108c-.891,4.414-.479,39.126-6,52.829-5.377,13.722-20.554,55.386-17.208,62.932,1.972,4.587,17.294,13.028,17.93,1.259-5.453-3.423-7.45-4.352-7.119-6.574Z" transform="translate(21.925 -80.249)"/><path class="o" d="M1340.09,791.947c8.575,1.288,19.759,6.377,19.759,6.377a63.1,63.1,0,0,0,4.151-9.81c.685-2.571,7.977-19.424,7.977-19.424l-36.182,1.029-2.106,20.559A50.9,50.9,0,0,0,1340.09,791.947Z" transform="translate(1.247 -87.224)"/><path class="m" d="M1428.472,776.32c-3.351-15.6-21.406-70.3-21.406-70.3l-15.455,40.429s12.233,33.419,13.885,37.632c.742,1.733,6.033,20.109,10.959,32.778q5.266,13.43,10.332,26.937c1.01,2.676,2.145,5.338,3.035,8.053,1.135,3.471,2.035,6.65,5.942,7.977l.479.144a8.522,8.522,0,0,0,8.709-2.873c3.672-4.639.369-10.576-1.058-15.489-1.5-5.152-2.81-10.351-4.094-15.556-2.94-11.9-5.65-23.858-8.292-35.823Q1429.966,783.277,1428.472,776.32Z" transform="translate(-28.943 -54.352)"/><path class="p" d="M1416.524,809.026c7.6-3.452,9.217-7.273,9.217-7.273l-8.925-30.963-26.386,9.394,13.641,34.276c1.594-.632,6.133-2.614,12.448-5.434Z" transform="translate(-28.329 -88.11)"/><path class="q" d="M1451.891,877.876c-2.121-3.462-7.536-23.973-13.2-50.713-2.049-9.7-4.18-18.735-6.957-30.408-1.01-3.83-8.111-27.975-10.984-34.841-3.533-6.306-10.246,3.06-11.6,2.437l-.167-.038v.072c.479,1.072-9.528,8.944-7.632,12.784,1.915,3.988,18.165,40.414,22.125,54.663s13.98,51.642,21.167,55.621c2.973,1.743,7.426-2.212,14.105-5.2C1461.768,881.122,1452.9,879.073,1451.891,877.876Z" transform="translate(-33.9 -82.341)"/><path class="r" d="M1316.382,886.872l-.742-.316c.125-.373,15.513-39.83,24.935-61.763,3.39-7.871,5.961-14.747,8-20.281l2.236-5.975,10.141-25.486.742.316c-.1.225-7.7,19.151-10.141,25.491l-2.222,5.923c-2.035,5.535-4.606,12.405-8,20.277C1331.895,847.042,1316.511,886.422,1316.382,886.872Z" transform="translate(10.653 -89.289)"/><path class="s" d="M1292.65,727.064s11.065,25.2,43.263,26.735c32.2,1.436,54.486-17.629,54.486-17.629a92.407,92.407,0,0,0-10.141-25.548c-7.584-12.9-10.911-35.373-10.911-35.373l-53.792.235s-.713,20.712-9.284,32.2-13.621,19.4-13.621,19.4Z" transform="translate(22.636 -38.313)"/><path class="t" d="M1287.9,730.394a2.4,2.4,0,0,1,0-2.485c3.352-3.9,12.228-17.744,17.878-28.981,6.272-13.6,6.89-23.188,6.89-23.188h6.037a115.135,115.135,0,0,1-10.054,37.5c-5.415,11.491-11.065,22-13.08,25.313a.881.881,0,0,1-1.47.12l-6.191-8.283Z" transform="translate(25.292 -38.569)"/><path class="t" d="M1325.417,747.09a2.433,2.433,0,0,0,.541,2.724l4.491,2.954,4.409,2.37c.546.235,1.24-.12,1.475-.958a361.664,361.664,0,0,0,10.055-39.261c4.491-22.594,3.562-38.921,3.562-38.921h-4.644a155.8,155.8,0,0,1-8.824,41.88C1331.689,731.242,1327.122,742.714,1325.417,747.09Z" transform="translate(5.654 -38.705)"/><path class="t" d="M1383.268,675.485s-1.47,40.7-2.873,52.882l-3.557,28.153c-.082.828.306,1.776.847,1.915l6.66.354a29.12,29.12,0,0,1,3.251,0c.541,0,.929-.594,1.082-1.436.077-6.622-.076-30.757-.076-44.36,0-16.92-.929-37.384-.929-37.384l-4.414-.12Zm11.381,0,2.164,57.378c.7,12.185,1.781,19.989,2.169,23.3.153.958.694,1.657,1.393,1.436l9.288-2.011c.771-.12,1.312-1.436.929-2.724-1.915-6.507-7.354-25.787-8.982-41.654-2.087-19.52-3.327-35.962-3.327-35.962l-3.634.235Zm8.048,0a303.52,303.52,0,0,0,7.182,46.136c4.18,17.035,7.043,25.907,8.283,29.34.388.958,1.235,1.436,1.915.958l7.737-5.09a2.842,2.842,0,0,0,.546-3.548,197.44,197.44,0,0,1-13.406-32.294,290.772,290.772,0,0,1-8.67-35.607l-3.634.115Zm10.533-.235s5.65,22.714,13.081,34.659c5.961,9.466,12.386,19.151,14.785,22.714a2.438,2.438,0,0,1-.158,2.6l-4.1,4.5a.894.894,0,0,1-1.475-.24,220.628,220.628,0,0,1-15.244-28.981c-6.5-15.5-9.676-35.253-9.676-35.253Z" transform="translate(-21.239 -38.313)"/><path class="u" d="M1316.565,707.1s17.337,7.924,26.779,4.97c25.7-8.283,54.256,3.308,54.256,3.308s-6.813-11.711-9.753-19.151a202.319,202.319,0,0,1-6.191-20.468l-53.792.12s-1.781,13.013-6.037,21.545a70.959,70.959,0,0,1-5.267,9.7Z" transform="translate(10.174 -38.579)"/><path class="m" d="M1300.287,1015.424c1.12-2.279,2.226-4.568,3.352-6.851a43.286,43.286,0,0,1-6.837-5.779,5.709,5.709,0,0,1-.958-1.168c-.617-1.317-.172-3.2-.388-4.635a9.037,9.037,0,0,0-2.394-4.2,7.181,7.181,0,0,0-4.146-2.485,7.279,7.279,0,0,0-6.018,2.317c-1.58,1.57-2.394,3.519-3.538,5.377s-2.456,3.423-3.51,5.267-3.486,6.3-.512,7.6l24.121,6.282Q1299.88,1016.286,1300.287,1015.424Z" transform="translate(32.403 -202.491)"/><path class="v" d="M1292.927,1021.2l-15.3-8.992,2.643-4.18,14.6,9.207Z" transform="translate(30.464 -211.764)"/><path class="t" d="M1294.86,1046.411l-25.663-6.971-.546,2.336a1.915,1.915,0,0,0,1.436,2.394l22.857,6.176C1293.572,1049.03,1294.214,1047.723,1294.86,1046.411Z" transform="translate(35.182 -228.134)"/><path class="v" d="M1297.54,1038.833l-24.466-6.612a1.915,1.915,0,0,0-2.394,1.436l-.579,2.169,25.481,6.928Q1296.558,1040.8,1297.54,1038.833Z" transform="translate(34.389 -224.334)"/><path class="w" d="M1313.925,1027.487l4.821-9.6a.781.781,0,0,0-.048-.733l-6.6-5.855c-.153-.043-.378-.1-.512.1l-7.139,13.473Z" transform="translate(16.486 -213.442)"/><path class="m" d="M1338.989,1030.588c-1.771-.479-3.524-1.13-5.267-1.738-.838-.3-1.685-.6-2.533-.91-.579,3.074-3.591,6.153-4.309,9.193l19.151-.125s.852.082,1.087-2.164S1344.174,1032.058,1338.989,1030.588Z" transform="translate(4.795 -222.14)"/><path class="t" d="M1323.27,1055.47q-.608,2.169-1.36,4.309l22.695.034a1.886,1.886,0,0,0,1.915-2.011v-2.245Z" transform="translate(7.385 -236.49)"/><path class="v" d="M1346.033,1046.849l-20.277-.029c-.335,1.436-.7,2.873-1.106,4.309l23.46.072v-2.245a2.078,2.078,0,0,0-2.078-2.107Z" transform="translate(5.957 -231.981)"/><path class="x" d="M1345.452,1036.2l.929-6.114c.077-.311-.153-.479-.388-.622l-7.737-3.17c-.479-.158-.7,0-.7.383l-1.546,9.442Z" transform="translate(0.036 -221.251)"/><path class="y" d="M1509.9,533.879a3.983,3.983,0,0,0,1.345-4.869,4.835,4.835,0,0,0-4.462-2.681c-2.648.048-4.1,2-5.879,3.624-3.83,3.5-7.795,6.813-11.778,10.107l7.182,9.1L1510,534.065c-1.915-1.58-3.874-3.131-5.746-4.678-.436-.436-.9-.876-1.369-1.317-.206.22-.479.479-.756.761" transform="translate(-79.772 39.307)"/><path class="z" d="M1501.957,539.744c5.429,4.9,3.6,7.383,3.6,7.383l-7.383,8.1-6.78-9.3,7.953-6.674a2.624,2.624,0,0,1,2.614.479Z" transform="translate(-80.95 32.67)"/><path class="aa" d="M1531.1,513.809l1.436-2.2,2.777-4.706c.713-1.178,3.083-14.335,3.083-14.335l-6.7-.115-5.176,7.416-.838,6.732Z" transform="translate(-98.823 56.965)"/><path class="ab" d="M1532.45,474.956l2.978-.522a1.048,1.048,0,0,1,1.178,1.341l-5.535,17.907a1.111,1.111,0,0,1-.924.737l-5.267.33,6.7-19.065a1.1,1.1,0,0,1,.848-.728Z" transform="translate(-98.405 66.362)"/><path class="y" d="M1526.337,506.772c-2.509-1.408-3.232-.929-3.232-.929l.292-1.436c.282-1.513.479-4.97.479-4.97a9.11,9.11,0,0,0,2.672-4.309,2.552,2.552,0,0,0-.58-2.188s-3.983,3.136-4.745,4.553-1.8,3.184-1.561,5.1a45.9,45.9,0,0,1,.292,5.267c0,2.03-.723,4.051,0,6.033a4.1,4.1,0,0,0,3.16,2.719,4.39,4.39,0,0,0,3.438-1.312c1.015-.958,2.48-2.624,2.26-4.1C1528.588,509.535,1527.879,507.639,1526.337,506.772Z" transform="translate(-95.669 56.709)"/><path class="a" d="M1539.9,489.35c.163-1.187,1.968-1.1,2.7-.876s3.079.326,2.844,1.6-1.039,1.685-2.624,1.489S1539.783,490.3,1539.9,489.35Z" transform="translate(-106.232 59.107)"/><path class="aa" d="M1543.533,491.554a6.357,6.357,0,0,1-1.245,0c-1.661-.187-3.352-1.3-3.208-2.648h0a1.8,1.8,0,0,1,.651-1.015,3.623,3.623,0,0,1,2.547-.235c.163.057.316.043.479.1.795.134,2,.378,2.394,1.034a1.359,1.359,0,0,1,.287,1.092,1.827,1.827,0,0,1-1.915,1.676Zm-3.658-2.514c-.082.632,1.049,1.585,2.547,1.714,1.661.187,2.063-.33,2.2-1.125.057-.163-.029-.23-.038-.306-.287-.436-1.322-.622-1.954-.7a2.015,2.015,0,0,0-.56-.086C1541.594,488.437,1540,488.164,1539.876,489.04Z" transform="translate(-105.803 59.526)"/><path class="a" d="M1536.859,503.4c-.22-1.14,1.5-1.743,2.193-1.824.7,0,3.409-.809,3.653.565s-.857,1.915-2.356,2.394C1538.745,504.8,1537.046,504.311,1536.859,503.4Z" transform="translate(-104.639 52.333)"/><path class="aa" d="M1539.678,504.619c-1.614.2-3.385-.287-3.605-1.436h0a1.593,1.593,0,0,1,.321-1.206,3.352,3.352,0,0,1,2.289-1.063l.536-.062c.924-.115,2.3-.359,2.988.182a1.24,1.24,0,0,1,.479.795c.282,1.68-1.12,2.322-2.7,2.825-.091-.067-.168-.057-.321-.038Zm-2.844-1.6c.153.608,1.532,1.063,2.983.809,1.652-.517,2.221-.958,2.1-1.973a.4.4,0,0,0-.192-.287,3.811,3.811,0,0,0-2.418,0l-.613.077a3.026,3.026,0,0,0-1.7.752,1.024,1.024,0,0,0-.153.642Z" transform="translate(-104.231 52.666)"/><path class="a" d="M1536.52,510.137c-.2-.991,1.3-1.484,1.915-1.637.613-.077,2.638-.713,2.873.354.215,1.144-.407,1.767-1.781,2.011C1538.148,511.338,1536.688,510.893,1536.52,510.137Z" transform="translate(-104.463 48.734)"/><path class="aa" d="M1538.6,511.178a3.744,3.744,0,0,1-2.227-.354,1.437,1.437,0,0,1-.651-.852,1.259,1.259,0,0,1,.2-.958,3.256,3.256,0,0,1,2.049-1.106l.383-.048a3.2,3.2,0,0,1,2.427.1,1.236,1.236,0,0,1,.479.718c.292,1.757-1.053,2.236-2.035,2.509C1538.975,511.044,1538.831,511.14,1538.6,511.178Zm.756-2.743c-.307.038-2.394.263-2.844.958a.588.588,0,0,0-.105.4h0c0,.153.191.287.278.354a2.931,2.931,0,0,0,2.207.2c1.436-.335,1.676-.828,1.522-1.59-.1-.484-.675-.383-1.058-.335Z" transform="translate(-104.045 49.033)"/><path class="a" d="M1537.135,496.6c0-1.173,1.982-1.647,2.834-1.676s3.792-.23,3.72,1.106-1.192,1.7-2.959,1.915C1538.9,498.248,1537.025,497.621,1537.135,496.6Z" transform="translate(-104.791 55.691)"/><path class="aa" d="M1540.189,497.814a4.375,4.375,0,0,1-3.289-.766,1.341,1.341,0,0,1-.445-1.116c.043-1.566,2.394-2.006,3.26-2.035l.383-.048c1.322,0,2.8-.029,3.433.675a.986.986,0,0,1,.268.9c-.167,1.815-1.771,2.088-3.308,2.279A.537.537,0,0,1,1540.189,497.814Zm-.91-3.007c-.847.105-2.04.56-2.107,1.274h0a.45.45,0,0,0,.211.44,3.615,3.615,0,0,0,2.873.508c1.915-.235,2.576-.627,2.691-1.575a.321.321,0,0,0-.115-.3c-.45-.479-2.078-.45-2.873-.431l-.689.081Zm-2.5,1.245" transform="translate(-104.436 56.234)"/><path class="ac" d="M1412.134,512.58s17.117,24.9,20.305,24.447c3.486-.847,12.2-5.942,14.421-7.388a1,1,0,0,1,1.393.235l10.4,14.229a1.072,1.072,0,0,1-.038,1.3c-2.183,2.523-12.31,12.726-22.5,18.472-11.3,6.416-17.514,4.659-28.727-3.466C1397.21,552.042,1412.134,512.58,1412.134,512.58Z" transform="translate(-35.315 46.473)"/><path class="ad" d="M1442.467,540.41l12.147,17.945a141.379,141.379,0,0,1-16.351,12.046,19.97,19.97,0,0,1-26-2.921c-10.586-12.985,6.7-42.641,6.7-42.641s13.54,18.194,15.762,18.62C1435.778,543.671,1442.467,540.41,1442.467,540.41Z" transform="translate(-37.921 40.082)"/><path class="ae" d="M1490.282,547.958l11.079,15.364a.866.866,0,0,1-.259,1.221l-4.414,3.3-12.448-17.064,4.855-3.16a.862.862,0,0,1,1.192.335Z" transform="translate(-77.223 28.269)"/><path class="af" d="M1350.68,575.372h48.76c-.311-3.792-.618-6.89-.852-8.671a17.477,17.477,0,0,0-.388-2.011h-45.662Z" transform="translate(-7.61 19.311)"/><path class="af" d="M1342.76,618.217h53.868l-.7-10.217h-51.312C1344.077,611.352,1343.454,614.813,1342.76,618.217Z" transform="translate(-3.482 -3.262)"/><path class="af" d="M1374.384,500.67c-2.71.077-11.223.23-15.944,20.588h40.7c-4.879-10.912-15.8-20.588-24.768-20.588Z" transform="translate(-11.655 52.679)"/><path class="af" d="M1334.35,662.188h59.13l-.694-12h-56.267Z" transform="translate(0.901 -25.252)"/><path class="ae" d="M1338.88,594.665h56.267l-.623-9.983h-53.863C1340.115,588.163,1339.5,591.649,1338.88,594.665Zm3.792-20.2H1394l-.771-10.055h-48.774Zm5.573-30.805c-.622,2.633-1.163,5.573-1.628,8.9q-.139.58-.23,1.163h45.662a50.81,50.81,0,0,0-3.093-9.983l-40.7-.081Z" transform="translate(-1.46 30.273)"/><path class="ag" d="M1359.489,501.031s9.446-1.7,18.965,8.36c4.256,5.573,7.737,33.2,8.139,49.377.311,16.279-12.535,24.456-20.664,25.155-5.032.479-32.2.388-32.2.388l2.787-21.44C1336.5,544.917,1359.489,501.031,1359.489,501.031Z" transform="translate(1.224 52.548)"/><path class="ah" d="M1363.047,545.594s3.251-20.818,2.873-32.275c-.388-10.911-7.354-15.168-15.015-15.245-11.07-.235-15.943,6.89-21.134,17.026s-7.182,27.865-7.182,27.865l37.23-23.3-3.251,25.376Z" transform="translate(7.031 54.035)"/><path class="ai" d="M1298.96,582.78l-6.5,42.339c-1.005,9.442-1.47,22.982,27.554,26.238,26.079,2.94,30.958-4.955,32.816-19.118S1357,588.123,1357,588.123Z" transform="translate(22.905 9.882)"/><path class="ah" d="M1384.111,592.64l-4.1,44.048c-1.546,12.233-5.267,19.817-22.058,20.109,22.91,1.781,27.478-5.956,29.259-19.424,1.776-14.162,4.18-44.115,4.18-44.115Z" transform="translate(-11.4 4.743)"/><path class="aj" d="M1314.452,613.875c9.576-3.016,16.954-8.666,21.44-11.453,7.972-4.879,15.867-14.244,15.867-14.244l-43.263-4.1-9.988,12.381-2.629,18.5C1295.938,614.88,1303.234,617.437,1314.452,613.875Z" transform="translate(20.952 9.205)"/><path class="ac" d="M1328.436,502.083c-10.533-4.309-19.209,4.108-28.5,15.7-6.622,8.139-15.58,20.947-17.643,26.884-1.867,5.3-2.873,11.28,2.03,15.992,4.759,4.592,15.676,1.35,23.111-2.495,5.511-2.786,9.1-7.608,16.877-17.873,8.508-11.012,12.065-16.389,12.046-22.192C1336.752,511.1,1334.521,504.582,1328.436,502.083Z" transform="translate(28.835 52.541)"/><path class="a" d="M1235.382,686.806a9.243,9.243,0,0,1,.833-1.23c1.092-1.374,2.475-2.485,3.648-3.792,2.3-2.542,3.007-6.569,3.83-9.83l6.459-33.97s3.315-11.8,6.778-10.938c3.519.874,10.5,3.31,12.405,8.734.556,1.569-1.888,8.349-2.172,8.907-1.642,3.069-3.83,12.3-7.871,20.588l-10.859,22.642a11.487,11.487,0,0,0-.44,2.207c-.2,1.532-.522,4.065-1.915,5.745-1.379,1.618-1.992.919-1.992.919l-1.049.876a1.09,1.09,0,0,1-1.623-.129s-.349.9-1.834.958c-1.087-.062-1.24-.709-1.082-1.312s-.2.914-1.24.546c-3.48-.771,1.5-6.516,0-8.187-.445.646.039,1.489-.392,2.14a1.082,1.082,0,0,1-1.479.167,2.125,2.125,0,0,1-.766-1.436,5.587,5.587,0,0,1,.761-3.605Z" transform="translate(52.905 -20.511)"/><path class="ac" d="M1242.555,665.7l4.074-23.374s8.411-23.113,10.911-25.085c3.465,2.04,6.367,17.456,8.272,22.881.556,1.569-1.888,8.349-2.172,8.907-1.642,3.069-7.871,20.588-7.871,20.588s-6.309-.635-8.768-2.391C1244.2,665.306,1242.062,667.657,1242.555,665.7Z" transform="translate(56.428 -24.856)"/><path class="ae" d="M1263.933,686.886,1240.4,676.874l2.02-5.774,24.255,10.485Z" transform="translate(49.869 -36.15)"/><path class="m" d="M1503.234,1009.724c-.34-2.518-.7-5.032-1.049-7.55a43.423,43.423,0,0,1-8.891-.986,5.51,5.51,0,0,1-1.469-.421c-1.245-.747-1.915-2.562-2.906-3.629a9.3,9.3,0,0,0-4.309-2.164,7.182,7.182,0,0,0-4.826.254,7.3,7.3,0,0,0-3.7,5.267c-.436,2.174,0,4.256.062,6.44.086,2.1-.129,4.209,0,6.32s.618,7.182,3.83,6.593l23.528-8.24C1503.421,1010.983,1503.334,1010.356,1503.234,1009.724Z" transform="translate(-72.872 -204.8)"/><path class="v" d="M1493.389,1026.157l-17.715,1.068-.134-4.946,17.236-.479Z" transform="translate(-72.689 -218.94)"/><path class="t" d="M1510.719,1035.94l-28.679,9.743.847,2.246a1.886,1.886,0,0,0,2.528,1.178l25.912-8.728C1511.107,1038.937,1510.906,1037.405,1510.719,1035.94Z" transform="translate(-76.077 -226.31)"/><path class="v" d="M1505.946,1029.73l-24,8.139a1.886,1.886,0,0,0-1.178,2.528l.728,2.126,25.936-8.23C1507.243,1032.866,1506.138,1031.181,1505.946,1029.73Z" transform="translate(-75.34 -223.074)"/><path class="ak" d="M1518.472,1017.184l-1.355-10.662a.785.785,0,0,0-.445-.584l-8.747-1.178c-.148.048-.364.124-.364.369l1.585,15.163Z" transform="translate(-89.378 -210.058)"/><path class="m" d="M1537.019,1003.25c-1.752.575-3.552,1.029-5.338,1.494-.862.22-2.973.857-3.83,1.068,1.235,2.873,1.695,6.7,2.8,9.624l15.8-10.782s.747-.407-.311-2.394S1542.152,1001.579,1537.019,1003.25Z" transform="translate(-99.954 -208.233)"/><path class="t" d="M1540.57,1023.566c.479,1.436.89,2.873,1.264,4.309l16.92-11.29a1.915,1.915,0,0,0,.479-2.753l-1.254-1.863Z" transform="translate(-106.583 -213.817)"/><path class="v" d="M1549.863,1006.61l-17.323,11.041c.527,1.384,1.5,3.021,1.953,4.424l19.521-13.033-1.25-1.862a2.083,2.083,0,0,0-2.9-.57Z" transform="translate(-102.398 -210.837)"/><path class="al" d="M1544.491,1008.278l-2.653-5.607c-.11-.3-.388-.3-.666-.3l-8.2,1.685c-.479.129-.579.388-.364.709l3.983,8.7,7.881-5.2Z" transform="translate(-102.38 -208.814)"/><path class="am" d="M1114.28,874.528c.421-.867,64.885-136.138,64.885-136.138" transform="translate(115.605 -71.224)"/><path class="an" d="M1113.918,796.432l-43.9,91.372a15.946,15.946,0,0,1-1.01,1.8,16.729,16.729,0,0,1-21.234,6.013l-10.672-5.132a16.719,16.719,0,0,1-8.618-20.21,15.63,15.63,0,0,1,.814-2.03l43.9-91.367a16.714,16.714,0,0,1,22.24-7.809l10.672,5.128a16.709,16.709,0,0,1,7.809,22.24Z" transform="translate(160.747 -86.361)"/><rect class="ao" width="2.968" height="120.491" transform="matrix(0.903, 0.431, -0.431, 0.903, 1259.756, 684.378)"/><path class="ap" d="M1454.049,772.709c-13.693,2.222-27.248,8.618-35.335,20.3-7.723,11.132-7.258,24-5.027,36.833a4.779,4.779,0,0,0,1.322,2.978c1.312,1.053,3.246.445,4.788-.263,11.491-5.324,22.187-12.927,27.736-24.658a1.53,1.53,0,0,0-.541-2.059l-8.666-4.2a45.58,45.58,0,0,1,9.054.771,1.532,1.532,0,0,0,1.853-1.853,33.819,33.819,0,0,1,6.526-25.634C1456.625,773.739,1455.184,772.523,1454.049,772.709Z" transform="translate(-39.707 -89.1)"/><path class="ap" d="M1456.833,846.533c-2.068,21.143-32.318,24.586-31.083,48.836l.823.139c1.589.268,4.587-.9,6.224-1.475a70.474,70.474,0,0,0,9.1-4.371c6.488-3.529,4.39-5.056,3.893-12.52l4.036,2.676a1.517,1.517,0,0,0,2.063-.541,69.667,69.667,0,0,0,7.958-32.744C1459.844,844.565,1457.02,844.637,1456.833,846.533Z" transform="translate(-46.718 -126.834)"/><path class="ap" d="M1472.4,939.233l-12.6-3.878a1.522,1.522,0,0,0-1.7.694l-3.62,6.128v-4.6a1.51,1.51,0,0,0-1.508-1.5c-10.485,1.388-19.63,10.366-23.8,20.167-.512,1.207,1.547,2.418,2.5,2.418,19.592,4.788,31.327-8.752,40.725-16.518C1473.494,941.229,1473.929,939.707,1472.4,939.233Z" transform="translate(-48.479 -173.857)"/><path class="ap" d="M1356.9,928.225c-3.61-2.47-8.225-4.912-12.583-5.521a21.664,21.664,0,0,0-6.9.149c-1.005.182-5.592,2.394-6.171,2.159,4.788,2.044,9.126,5.865,10.667,10.935,1.656,5.444,4.52,10.1,10.016,12.228,4.587,1.776,10.332,1.293,12.745-3.562C1367.815,938.3,1361.715,931.524,1356.9,928.225Z" transform="translate(2.517 -167.182)"/><path class="ap" d="M1341.473,815.72c-1.025-.479-2.777.34-2.212,1.7a60.807,60.807,0,0,1,4.008,14.589c.134.958.038,3.055.526,3.83.594.958,2.169,1.106,3.289,1.384a78.131,78.131,0,0,0,8.934,1.475l-8.752,2.6a6.7,6.7,0,0,0-2.8,1.336c-3.509,3.351,2.245,12.52,4.438,15.221,3.548,4.371,9.035,7.876,14.842,6.382,5.913-1.523,8.709-7.847,8.9-13.492C1373.269,832.741,1355.8,822.069,1341.473,815.72Z" transform="translate(-1.601 -111.457)"/><rect class="aq" width="56.238" height="10.744" transform="translate(1347.566 795.218)"/><path class="aq" d="M1360.07,1027v10.964a28.2,28.2,0,0,0,28.119,28.119h0a28.2,28.2,0,0,0,28.119-28.119V1027Z" transform="translate(-12.504 -221.65)"/><path class="ar" d="M1427.264,830.14c-11.831,26.266-17.485,54.72-12.927,83.165" transform="translate(-39.969 -119.044)"/><path class="ar" d="M1417.782,955.93a72.164,72.164,0,0,1,18-48.75" transform="translate(-42.581 -159.198)"/><path class="ar" d="M1417.48,982.255a49.425,49.425,0,0,1,19.712-21.545" transform="translate(-42.427 -187.1)"/><path class="ar" d="M1378.12,944.81a81.393,81.393,0,0,1,17.533,30.2" transform="translate(-21.912 -178.811)"/><path class="ar" d="M1379.67,876c8.024,14.933,13.133,35,17.136,54.165" transform="translate(-22.72 -142.947)"/><rect class="ao" width="56.238" height="2.475" transform="translate(1347.566 800.59)"/><g transform="translate(841.783 147.119)"><path class="l" d="M16.708,0h23.28A16.708,16.708,0,0,1,56.7,16.708V21.49A16.708,16.708,0,0,1,39.989,38.2H16.708A16.708,16.708,0,0,1,0,21.49V16.708A16.708,16.708,0,0,1,16.708,0Z" transform="translate(547.272 332.863)"/><path class="l" d="M322.285,521.534v-.048h0l-.048.068a1.9,1.9,0,0,0-.092.2,4.533,4.533,0,0,0-.179.482c-.111.333-.222.68-.309,1.052a20.739,20.739,0,0,0-.444,2.306,32.185,32.185,0,0,0-.27,4.97c.034.849.058,1.713.15,2.572s.193,1.732.319,2.61.314,1.737.482,2.625.415,1.742.632,2.625l-.12.068c-.579-.69-1.182-1.385-1.761-2.1s-1.138-1.447-1.66-2.219-1.071-1.534-1.553-2.345-.965-1.631-1.447-2.475a39.268,39.268,0,0,1-2.355-5.4,28.775,28.775,0,0,1-.859-2.972c-.125-.511-.222-1.047-.318-1.6-.039-.285-.087-.55-.111-.859,0-.154-.034-.289-.043-.482v-.265q0-.072,0-.145v-.217Z" transform="translate(268.902 -157.004)"/><g transform="translate(553.887 345.734)"><path class="as" d="M260.97,494.265a3.84,3.84,0,0,0,.687-.061,2.92,2.92,0,0,0,.513-.154,1.587,1.587,0,0,0,.349-.205l.261-.2a2,2,0,0,1,.21-.154.405.405,0,0,1,.215-.061.43.43,0,0,1,.195.041.3.3,0,0,1,.108.087l.825.984a4.567,4.567,0,0,1-1.615,1.24,5.125,5.125,0,0,1-2.127.415,4.219,4.219,0,0,1-1.753-.349,3.747,3.747,0,0,1-1.287-.953,4.234,4.234,0,0,1-.8-1.445,5.807,5.807,0,0,1-.267-1.8,6.765,6.765,0,0,1,.2-1.7,6.491,6.491,0,0,1,.569-1.492,5.563,5.563,0,0,1,.882-1.241A5.351,5.351,0,0,1,262.1,485.5a4.72,4.72,0,0,1,1.071.108,3.75,3.75,0,0,1,.871.308,3.336,3.336,0,0,1,1.24,1.071l-.825.948a.948.948,0,0,1-.205.174.482.482,0,0,1-.3.082.451.451,0,0,1-.215-.056,1.862,1.862,0,0,1-.21-.138l-.22-.164a1.923,1.923,0,0,0-.313-.184,2.305,2.305,0,0,0-.415-.133,2.2,2.2,0,0,0-.579-.062,2.794,2.794,0,0,0-1.24.277,3.008,3.008,0,0,0-.994.8,3.911,3.911,0,0,0-.651,1.266,5.3,5.3,0,0,0-.236,1.65,4.032,4.032,0,0,0,.159,1.189,2.761,2.761,0,0,0,.441.887,1.887,1.887,0,0,0,.666.554,1.908,1.908,0,0,0,.825.19Z" transform="translate(-256.479 -485.309)"/><path class="as" d="M276.173,489.47a3.374,3.374,0,0,1,1.071-.825,2.688,2.688,0,0,1,1.164-.267,1.963,1.963,0,0,1,.851.19,1.671,1.671,0,0,1,.641.538,2.246,2.246,0,0,1,.364.887,3.688,3.688,0,0,1,0,1.21l-.5,4.726h-2.219l.559-4.721a2.143,2.143,0,0,0,0-.513.814.814,0,0,0-.077-.333.348.348,0,0,0-.179-.185.657.657,0,0,0-.282-.051.86.86,0,0,0-.461.133,1.763,1.763,0,0,0-.472.374,3.388,3.388,0,0,0-.415.589,3.879,3.879,0,0,0-.323.769l-.482,3.937H273.2l1.322-10.718h2.225Z" transform="translate(-264.629 -485.169)"/><path class="as" d="M295.006,497.585a8.706,8.706,0,0,1-.774.666,3.832,3.832,0,0,1-.774.466,3.536,3.536,0,0,1-.825.272,5.223,5.223,0,0,1-.979.082,3.146,3.146,0,0,1-1.21-.226,2.644,2.644,0,0,1-.948-.636,2.8,2.8,0,0,1-.615-.989,3.619,3.619,0,0,1-.251-1.292,4.973,4.973,0,0,1,.133-1.164,4.892,4.892,0,0,1,.379-1.066,4.619,4.619,0,0,1,.615-.912,4.1,4.1,0,0,1,.83-.723,3.747,3.747,0,0,1,2.117-.636,2.963,2.963,0,0,1,1.056.169,2.522,2.522,0,0,1,.779.451,1.829,1.829,0,0,1,.477.62,1.573,1.573,0,0,1,.169.682,2.1,2.1,0,0,1-.215.933,1.885,1.885,0,0,1-.7.748,4.715,4.715,0,0,1-1.338.559,13.524,13.524,0,0,1-2.117.359,1.651,1.651,0,0,0,.333,1.107,1.2,1.2,0,0,0,.943.354,2.43,2.43,0,0,0,.513-.051,1.616,1.616,0,0,0,.374-.128,2.049,2.049,0,0,0,.292-.164l.246-.164a1.3,1.3,0,0,1,.251-.128.7.7,0,0,1,.292-.051.4.4,0,0,1,.205.051.819.819,0,0,1,.149.149Zm-2.45-4.659a1.276,1.276,0,0,0-.969.441,2.7,2.7,0,0,0-.615,1.2,9.373,9.373,0,0,0,1.117-.226,2.878,2.878,0,0,0,.666-.267.774.774,0,0,0,.318-.3.657.657,0,0,0,.082-.343.513.513,0,0,0-.143-.349A.574.574,0,0,0,292.556,492.926Z" transform="translate(-272.15 -488.199)"/><path class="as" d="M305.676,490.015h.343a.882.882,0,0,0,.764-.343l2.481-3.46a1.081,1.081,0,0,1,.461-.369,1.6,1.6,0,0,1,.6-.1h2.025l-3.291,4.27a2.27,2.27,0,0,1-.713.61,1.219,1.219,0,0,1,.41.272,1.578,1.578,0,0,1,.323.451l2.2,4.844h-2.05a1.8,1.8,0,0,1-.333-.031.767.767,0,0,1-.236-.087.688.688,0,0,1-.164-.133,2.083,2.083,0,0,1-.113-.179l-1.62-3.68a.512.512,0,0,0-.261-.287,1.192,1.192,0,0,0-.482-.082h-.554l-.554,4.47H302.6l1.271-10.441h2.317Z" transform="translate(-278.959 -485.426)"/><path class="as" d="M323.865,488.477l-.887,7.443H320.79l.882-7.443Zm.415-2.05a1.143,1.143,0,0,1-.113.512,1.461,1.461,0,0,1-.707.687,1.245,1.245,0,0,1-.513.1,1.174,1.174,0,0,1-.477-.1,1.354,1.354,0,0,1-.415-.282,1.536,1.536,0,0,1-.287-.415,1.256,1.256,0,0,1,0-1,1.5,1.5,0,0,1,.3-.415,1.427,1.427,0,0,1,.41-.282,1.216,1.216,0,0,1,.482-.1,1.286,1.286,0,0,1,.513.1,1.237,1.237,0,0,1,.41.277,1.488,1.488,0,0,1,.3.415,1.276,1.276,0,0,1,.113.482Z" transform="translate(-287.826 -485.13)"/><path class="as" d="M330.629,492.8a3.65,3.65,0,0,1,1.179-1.061,2.773,2.773,0,0,1,1.322-.338,1.921,1.921,0,0,1,.825.185,1.682,1.682,0,0,1,.651.543,2.244,2.244,0,0,1,.364.887,3.686,3.686,0,0,1,0,1.21l-.554,4.721h-2.2l.554-4.721a2.451,2.451,0,0,0,0-.513.8.8,0,0,0-.072-.328.405.405,0,0,0-.185-.174.632.632,0,0,0-.272-.056.964.964,0,0,0-.513.154,1.9,1.9,0,0,0-.513.415,3.244,3.244,0,0,0-.436.666,3.948,3.948,0,0,0-.318.861l-.415,3.685H327.82l.892-7.443h1.148a.845.845,0,0,1,.538.159.656.656,0,0,1,.19.513Z" transform="translate(-291.252 -488.185)"/></g></g></g></svg>