<svg xmlns="http://www.w3.org/2000/svg" width="82.18" height="24.11" viewBox="0 0 82.18 24.11"><defs><style>.a{fill:#19194b;}.b{fill:#385bf8;}</style></defs><g transform="translate(-1.101 0.787)"><g transform="translate(1.102 -0.787)"><path class="a" d="M-234.9-98.042c0,5.475,3.772,9.693,9.614,9.693a10.427,10.427,0,0,0,6.575-2.305,1.018,1.018,0,0,0,.157-1.519l-.524-.707a.949.949,0,0,0-1.519-.183,7.791,7.791,0,0,1-4.558,1.624c-4.008,0-6.261-3.17-6.261-6.654,0-3.432,2.174-6.392,6.235-6.392a7.743,7.743,0,0,1,4.192,1.31c.629.393,1.126.341,1.493-.262l.472-.76a1.018,1.018,0,0,0-.21-1.519,10.378,10.378,0,0,0-6.078-1.86A9.278,9.278,0,0,0-234.9-98.042Zm19.045,8.278a.983.983,0,0,0,1.1,1.1h1.126a.973.973,0,0,0,1.1-1.1v-5.108c0-2.541,1.519-4.427,3.851-4.427,1.677,0,2.1,1.1,2.1,2.724v6.811a.973.973,0,0,0,1.1,1.1h1.126a.983.983,0,0,0,1.1-1.1v-7.492c0-3.537-1.7-5.082-4.663-5.082a5.259,5.259,0,0,0-4.637,2.7h-.052a7.582,7.582,0,0,0,.079-1.126v-5.4a.983.983,0,0,0-1.1-1.1h-1.126a.994.994,0,0,0-1.1,1.1Zm14.88-5.58a6.846,6.846,0,0,0,7.178,6.995,8.444,8.444,0,0,0,4.532-1.336,1,1,0,0,0,.367-1.467l-.314-.524c-.341-.6-.812-.681-1.467-.367a5.523,5.523,0,0,1-2.882.865,3.84,3.84,0,0,1-4.008-3.668h8.147a1.158,1.158,0,0,0,1.153-1.126c0-3.668-2.122-6.366-5.921-6.366C-198.2-102.339-200.973-99.457-200.973-95.344Zm3.484-1.519a3.255,3.255,0,0,1,3.222-2.96,2.718,2.718,0,0,1,2.7,2.96Zm11.631,7.1a.983.983,0,0,0,1.1,1.1h1.126a.973.973,0,0,0,1.1-1.1v-4.742h1.729l3.117,5.082a1.328,1.328,0,0,0,1.284.76h1.415c.891,0,1.179-.55.734-1.31L-178.182-96v-.052l3.327-4.663c.5-.707.21-1.31-.681-1.31h-1.257a1.369,1.369,0,0,0-1.31.734l-2.777,3.982h-1.65v-8.855a.983.983,0,0,0-1.1-1.1h-1.126a.994.994,0,0,0-1.1,1.1Zm13.963,0a.965.965,0,0,0,1.074,1.1h1.153a.965.965,0,0,0,1.074-1.1v-11.16a.975.975,0,0,0-1.074-1.1h-1.153a.975.975,0,0,0-1.074,1.1Zm6.6,0a.965.965,0,0,0,1.074,1.1h1.153a.965.965,0,0,0,1.074-1.1v-5.161c0-2.41,1.493-4.375,3.851-4.375,1.677,0,2.1,1.1,2.1,2.724v6.811a.983.983,0,0,0,1.1,1.1h1.126a.973.973,0,0,0,1.1-1.1v-7.492c0-3.537-1.7-5.082-4.663-5.082a5.211,5.211,0,0,0-4.742,2.829h-.052a4.272,4.272,0,0,0,.052-.6v-.812a.975.975,0,0,0-1.074-1.1h-1.022a.975.975,0,0,0-1.074,1.1Z" transform="translate(234.898 112.459)"/><g transform="translate(60.121)"><g transform="translate(0 0)"><path class="b" d="M91.006,203.28a1,1,0,0,1,0,1.382l-.771.771a1,1,0,0,1-1.382,0l-3.375-3.4a1,1,0,0,1,0-1.382l.771-.771a1,1,0,0,1,1.382,0Z" transform="translate(-85.2 -197.129)"/><path class="b" d="M170.525,125.479a1,1,0,0,1,1.382,0l.771.771a1,1,0,0,1,0,1.382l-5.846,5.82a1,1,0,0,1-1.382,0l-.771-.771a1,1,0,0,1,0-1.382Z" transform="translate(-161.769 -125.2)"/></g></g></g></g></svg>