<?xml version="1.0" encoding="UTF-8"?>
<svg xmlns="http://www.w3.org/2000/svg" width="25" height="24" viewBox="0 0 25 24" fill="none">
  <g id="HOst Icon 2 1">
    <path id="Vector" d="M3 21V9L11 3L16.375 7.05C15.9583 7.1 15.5667 7.19583 15.2 7.3375C14.8333 7.47917 14.4833 7.66667 14.15 7.9L11 5.5L5 10V19H9V21H3ZM11 21V19.1C11 18.75 11.0875 18.4208 11.2625 18.1125C11.4375 17.8042 11.675 17.5583 11.975 17.375C12.7417 16.925 13.5458 16.5833 14.3875 16.35C15.2292 16.1167 16.1 16 17 16C17.9 16 18.7708 16.1167 19.6125 16.35C20.4542 16.5833 21.2583 16.925 22.025 17.375C22.325 17.5583 22.5625 17.8042 22.7375 18.1125C22.9125 18.4208 23 18.75 23 19.1V21H11ZM17 15C16.1667 15 15.4583 14.7083 14.875 14.125C14.2917 13.5417 14 12.8333 14 12C14 11.1667 14.2917 10.4583 14.875 9.875C15.4583 9.29167 16.1667 9 17 9C17.8333 9 18.5417 9.29167 19.125 9.875C19.7083 10.4583 20 11.1667 20 12C20 12.8333 19.7083 13.5417 19.125 14.125C18.5417 14.7083 17.8333 15 17 15Z" fill="#161643"></path>
  </g>
</svg>
