<?xml version="1.0" encoding="utf-8"?>
<!-- Generator: Adobe Illustrator 22.1.0, SVG Export Plug-In . SVG Version: 6.00 Build 0)  -->
<svg version="1.1" id="Layer_1" xmlns="http://www.w3.org/2000/svg" xmlns:xlink="http://www.w3.org/1999/xlink" x="0px" y="0px"
	 viewBox="0 0 285 35" style="enable-background:new 0 0 285 35;" xml:space="preserve">
<style type="text/css">
	.st0{fill:#FF5E3C;}
	.st1{fill:#000000;}
</style>
<g>
	<path class="st0" d="M16.1,34.9c-6.8,0-13-1.6-15.4-9.2l6.8-1.8C9,28,12.7,28,16.2,28c2.5,0,7.6,0,7.6-3.9c0-2.5-2.2-3.3-4.2-3.3
		h-7V15h7c1.6,0,3-0.7,3-2.7c0-3.3-4.6-3.7-6.9-3.7c-3.1,0-6.9,0.7-8.1,4.3L1,11.2c2-6.9,8.6-9.5,14.8-9.5s14.4,2.4,14.4,10.6
		c0,2-1,3.9-2.4,5.1c2.2,1.3,3.7,3.9,3.7,6.6C31.5,32.7,22.5,34.9,16.1,34.9"/>
	<path class="st0" d="M51.1,19.3c-2.4,0-8.1,0.7-8.1,4.2c0,3.7,5.5,4.5,8.1,4.5s8.4-1.1,8.4-4.7C59.5,19.5,53.5,19.3,51.1,19.3
		 M51.1,34.9c-9.8,0-16.2-5.2-16.2-16.1c0-10.7,6.3-17,16.2-17c5.7,0,12.7,1.7,14.4,8.4L58.6,12c-0.8-3.3-4.9-3.4-7.5-3.4
		c-4.3,0-8.2,1.7-8.7,6.8c2.8-1.5,5.9-2.3,9-2.3c6.1,0,15.5,1.8,15.5,10.1C66.9,32.3,58,34.9,51.1,34.9"/>
	<path class="st0" d="M85.8,34.9c-7.1,0-12.7-1.3-15-9.4l7-1.8c1.2,3.8,4.6,4.4,8,4.4c3,0,7.9-0.5,7.9-4.7c0-4.1-4.8-4.6-7.7-4.6
		c-2.8,0-5.9,0.9-8.3,2.3l-6.3-1.4l1.7-17.4h25.2v6.9h-19l-0.6,4.7c2.5-1.2,5.6-1.7,8.3-1.7c6.7,0,14.1,2.7,14.1,11.1
		C101.2,32.3,92.7,34.9,85.8,34.9"/>
	<path class="st1" d="M126,34.4h-8L103.3,2.2h8.6l6.7,15.4c1.2,2.7,2.4,5.3,3.4,8c1.1-2.7,2.2-5.3,3.4-8L132,2.2h8.6L126,34.4z"/>
</g>
<rect x="143.9" y="2.2" class="st1" width="7.5" height="32.2"/>
<polygon class="st1" points="156.8,34.4 156.8,2.2 164.3,2.2 164.3,27.5 182.5,27.5 182.5,34.4 "/>
<polygon class="st1" points="186.4,34.4 186.4,2.2 193.9,2.2 193.9,27.5 212.1,27.5 212.1,34.4 "/>
<g>
	<path class="st1" d="M268,35c-7.4,0-14.5-1.1-16.6-9.9l7.1-1.9c1.1,4,4.3,5.1,10.3,5.1c4.7,0,7.6-1.1,7.6-3.6
		c0-5.5-24.2,0.6-24.2-12.7c0-8,8.3-10.3,15.1-10.3c7.2,0,13.7,1.3,16.3,9.4l-7.2,1.9c-1.1-3.4-4.5-4.6-9.2-4.6
		c-3.1,0-7.2,0.6-7.2,3.4c0,5.8,24-0.6,24,12.8C284.1,33.7,275.2,35,268,35"/>
</g>
<rect x="216.8" y="27.6" class="st1" width="30.2" height="6.5"/>
<polygon class="st1" points="244.9,23.2 231.9,9.4 218.9,23.2 214.6,18.7 231.9,0.2 249.1,18.7 "/>
</svg>
