<svg xmlns="http://www.w3.org/2000/svg" viewBox="0 0 280.19 48"><title>Amenitiz-Logo-Black</title><g id="Layer_2" data-name="Layer 2"><g id="Layer_1-2" data-name="Layer 1"><g id="Amenitiz-Logo-Black"><path fill="#1d1d1d" d="M129.47,8.3H111.72V21H129V27.3H111.72V40h17.75v6.28H105V2h24.43Z"></path><path fill="#1d1d1d" d="M138.25,46.29V.67a.66.66,0,0,1,1.14-.46l31.14,32.58V2h6.69V47.33a.67.67,0,0,1-1.15.46L144.93,15.3v31Z"></path><path fill="#1d1d1d" d="M194.51,2V46.29h-6.68V2Z"></path><path fill="#1d1d1d" d="M217.36,8.3v38h-6.68V8.3H200.5V2h27V8.3Z"></path><path fill="#1d1d1d" d="M240.16,2V46.29h-6.68V2Z"></path><path fill="#1d1d1d" d="M258.45,40H279.7v6.28H247.47l21.74-38H251V2h29.16Z"></path><path fill="#1d1d1d" d="M96.42,46.29H89.83V17.75L71.86,39h-.13L54.57,18.57V46.29H47.91V.75A.66.66,0,0,1,49.1.34L71.86,29.4,95.24.29a.66.66,0,0,1,1.18.42Z"></path><path fill="#1d1d1d" d="M22.5.56a.66.66,0,0,0-1.21,0L0,46.29H7.2L21.79,14.21l6.57,15.05H16.92l-2.78,6.28H31.08l4.65,10.75H43Z"></path></g></g></g></svg>