<svg width="155" height="35" viewBox="0 0 155 35" fill="none" xmlns="http://www.w3.org/2000/svg">
<path d="M61.6104 10.7948L60.7079 15.3125C60.6604 15.5978 60.3279 15.788 60.0428 15.7405C59.3303 15.5503 58.5228 15.4076 57.7152 15.4076C55.6726 15.4076 54.4376 16.4063 54.4376 18.6413V27.7717C54.4376 28.1046 54.1526 28.3424 53.8676 28.3424H49.3073C48.9748 28.3424 48.7373 28.0571 48.7373 27.7717V10.9375C48.7373 10.6046 49.0223 10.3668 49.3073 10.3668H53.63C53.9626 10.3668 54.2001 10.6522 54.2001 10.9375V12.4117C55.2451 10.6522 56.9077 9.84375 59.0928 9.84375C59.7578 9.84375 60.5179 9.93886 61.2304 10.1291C61.5154 10.2242 61.7054 10.5095 61.6104 10.7948Z" fill="#0D3151"/>
<path d="M80.2787 19.3546C80.2787 19.7351 80.2787 20.2106 80.2312 20.591C80.1837 20.8764 79.9462 21.1141 79.6612 21.1141H68.0231C68.4981 23.0639 69.8757 24.0149 71.8708 24.0149C73.0583 24.0149 74.3409 23.587 75.4335 22.731C75.671 22.5408 75.956 22.5883 76.146 22.7785L79.0436 25.4416C79.2811 25.6793 79.2811 26.0598 79.0436 26.2976C77.191 27.9144 74.6259 28.8179 71.5858 28.8179C65.933 28.8179 62.1328 25.0611 62.1328 19.4497C62.1328 13.7908 65.8855 9.84375 71.3483 9.84375C76.621 9.84375 80.2787 13.6957 80.2787 19.3546ZM68.0231 17.2147H74.5784C74.1034 15.4076 73.0108 14.4565 71.3483 14.4565C69.5432 14.4565 68.4506 15.4552 68.0231 17.2147Z" fill="#0D3151"/>
<path d="M99.8019 16.5489V27.7717C99.8019 28.1046 99.5169 28.3899 99.1844 28.3899H94.6717C94.3392 28.3899 94.0541 28.1046 94.0541 27.7717V18.5462C94.0541 16.4062 93.0091 15.2174 91.204 15.2174C89.5889 15.2174 88.3064 16.3111 88.3064 18.6413V27.7242C88.3064 28.0571 88.0214 28.3424 87.6888 28.3424H83.1761C82.8436 28.3424 82.5586 28.0571 82.5586 27.7242V10.9375C82.5586 10.6046 82.8436 10.3193 83.1761 10.3193H87.4513C87.7838 10.3193 88.0689 10.6046 88.0689 10.9375V12.6019C89.2089 10.6997 91.014 9.84375 93.4366 9.84375C96.9993 9.84375 99.8019 12.3641 99.8019 16.5489Z" fill="#0D3151"/>
<path d="M123.126 28.3423H118.566C118.233 28.3423 117.948 28.057 117.948 27.7241V2.52031C117.948 2.18743 118.233 1.9021 118.566 1.9021H123.126C123.459 1.9021 123.744 2.18743 123.744 2.52031V27.7241C123.696 28.057 123.459 28.3423 123.126 28.3423Z" fill="#0D3151"/>
<path d="M133.434 4.89803C133.434 6.80021 131.914 8.32195 130.014 8.32195C128.066 8.32195 126.594 6.84776 126.594 4.89803C126.594 2.94831 128.066 1.47412 130.014 1.47412C131.962 1.47412 133.434 2.94831 133.434 4.89803Z" fill="#0D3151"/>
<path d="M155 19.3546C155 24.7758 150.868 28.8179 145.262 28.8179C139.657 28.8179 135.524 24.7758 135.524 19.3546C135.524 13.9334 139.657 9.89128 145.262 9.89128C150.868 9.84373 155 13.8859 155 19.3546ZM141.225 19.3546C141.225 21.875 142.935 23.6345 145.215 23.6345C147.543 23.6345 149.253 21.875 149.253 19.3546C149.253 16.8342 147.543 15.0747 145.215 15.0747C142.935 15.0747 141.225 16.8342 141.225 19.3546Z" fill="#0D3151"/>
<path d="M114.385 22.9211C114.243 22.5882 113.863 22.4931 113.578 22.6357C112.77 23.0637 111.868 23.4442 111.012 23.4442C109.587 23.4442 108.447 22.7309 108.447 20.686V15.455H114.005C114.338 15.455 114.575 15.1697 114.575 14.8844V10.9374C114.575 10.6045 114.29 10.3667 114.005 10.3667H108.447V5.70639C108.447 5.37351 108.162 5.13574 107.877 5.13574H103.317C102.985 5.13574 102.747 5.42107 102.747 5.70639V10.3667V15.455V21.4469C102.747 25.9645 104.932 28.8178 109.73 28.8178C112.39 28.8178 114.1 28.1045 115.668 27.1059C115.905 26.9632 116 26.6303 115.905 26.3925L114.385 22.9211Z" fill="#0D3151"/>
<path d="M127.164 10.9374V15.455V27.7716C127.164 28.1045 127.402 28.3422 127.734 28.3422H132.294C132.627 28.3422 132.864 28.1045 132.864 27.7716V10.9374C132.864 10.6045 132.627 10.3667 132.294 10.3667H127.782C127.449 10.3667 127.164 10.6045 127.164 10.9374Z" fill="#0D3151"/>
<path d="M37.1943 17.0722C37.8118 24.5382 34.0592 31.1958 28.1689 34.6673C26.8388 35.4757 25.0812 34.6673 24.7487 33.1455L22.3736 21.3045C22.2311 20.5912 22.4211 19.8303 22.9436 19.3072C24.1787 18.0232 24.8437 16.2637 24.5587 14.314C24.2262 11.6034 21.9936 9.41591 19.2859 9.13059C15.6283 8.7026 12.5406 11.5559 12.5406 15.1224C12.5406 16.7393 13.1581 18.2135 14.2032 19.3072C14.7257 19.8303 14.9157 20.5912 14.7732 21.3045L12.3981 33.1455C12.1131 34.6673 10.3555 35.4757 9.02544 34.6673C3.65768 31.4336 0 25.4417 0 18.6415C0 7.94173 9.02544 -0.66561 19.9035 0.0477048C29.0239 0.665911 36.4343 7.94173 37.1943 17.0722Z" fill="url(#paint0_linear)"/>
<defs>
<linearGradient id="paint0_linear" x1="0" y1="17.4962" x2="37.2527" y2="17.4962" gradientUnits="userSpaceOnUse">
<stop stop-color="#A9CF3A"/>
<stop offset="0.0515359" stop-color="#A7CF40"/>
<stop offset="0.1291" stop-color="#A2CE52"/>
<stop offset="0.2231" stop-color="#99CD6F"/>
<stop offset="0.3298" stop-color="#8BCB92"/>
<stop offset="0.4466" stop-color="#78CABB"/>
<stop offset="0.5633" stop-color="#59C9E7"/>
<stop offset="1" stop-color="#1D9ED9"/>
</linearGradient>
</defs>
</svg>
