<?xml version="1.0" encoding="UTF-8"?>
<svg xmlns="http://www.w3.org/2000/svg" width="100" height="42" viewBox="0 0 100 42" fill="none">
  <g id="Guesty logo">
    <path id="Vector" d="M31.8156 11.5233C31.8156 11.0736 31.5908 10.6802 31.2535 10.3991L16.8634 0.337269C16.6386 0.112424 16.3013 0 16.0202 0H15.9078C15.5705 0.0562113 15.2895 0.168635 15.0646 0.337269L0.562113 10.3991C0.224845 10.6802 0 11.0736 0 11.5233V30.3541C0 31.0849 0.618324 31.7032 1.34907 31.7032H22.9904C23.7212 31.7032 24.3395 31.0849 24.3395 30.3541V15.2895C24.3957 14.8398 24.1709 14.3901 23.7774 14.1653L16.8634 9.27487C16.6386 9.05002 16.3013 8.9376 16.0202 8.9376H15.9078C15.5705 8.99381 15.2895 9.10623 15.0646 9.27487L8.03822 14.1653C7.70095 14.4463 7.47611 14.8398 7.47611 15.2895V22.9342C7.47611 23.665 8.09443 24.2833 8.82518 24.2833C9.55593 24.2833 10.1742 23.665 10.1742 22.9342V15.964L15.9078 11.9168L21.6414 15.964V29.0613H2.69814V12.1979L15.9078 2.9792L29.1175 12.2541V30.4665C29.1175 31.1973 29.7358 31.8156 30.4665 31.8156C31.1973 31.8156 31.8156 31.1973 31.8156 30.4665V11.5233Z" fill="#3B9DFF"></path>
    <path id="Vector_2" d="M51.0397 19.112H47.4984C47.2736 19.112 47.1049 19.1682 46.9925 19.3368C46.8801 19.5055 46.8239 19.6741 46.8239 19.899V20.2362C46.8239 20.4611 46.8801 20.6297 46.9925 20.7983C47.1049 20.967 47.3298 21.0794 47.5546 21.0232H49.6344V24.3397C49.4096 24.3959 49.0723 24.4521 48.7351 24.4521C48.2854 24.5083 47.7795 24.5083 47.2736 24.5083C45.6996 24.5083 44.5754 24.0586 43.9571 23.1592C43.2826 22.035 42.9453 20.7421 43.0015 19.4493C42.8891 18.1002 43.2826 16.8073 44.0133 15.7393C44.6878 14.9524 45.8121 14.5027 47.4422 14.5027C47.9481 14.5027 48.454 14.5589 48.9599 14.6713C49.3534 14.7837 49.7469 14.9524 50.1403 15.121C50.2528 15.2334 50.4214 15.2896 50.59 15.2896C50.8149 15.2896 50.9835 15.1772 51.0959 14.9524C51.2084 14.7837 51.3208 14.6151 51.4332 14.4465C51.5456 14.2778 51.5456 14.053 51.5456 13.8843C51.5456 13.4909 51.1521 13.266 50.8711 13.0974C50.3652 12.8725 49.8593 12.7039 49.3534 12.5915C48.7351 12.4791 48.1167 12.4229 47.4422 12.4229C42.9453 12.4229 40.6406 14.7837 40.6406 19.5055C40.6406 21.7539 41.2027 23.4965 42.327 24.6207C43.6198 25.8011 45.3624 26.4195 47.1611 26.307C48.2854 26.307 49.3534 26.2508 50.4776 25.9698C51.4894 25.7449 51.9391 25.2952 51.9391 24.6769V19.7865C51.9391 19.5617 51.8829 19.3368 51.7143 19.1682C51.5456 18.9996 51.3208 18.9434 51.0397 18.9434" fill="#10275B"></path>
    <path id="Vector_3" d="M62.5071 23.3832V16.6941C62.5071 16.3568 62.3385 16.0195 61.4391 16.0195H61.3829C60.4835 16.0195 60.3149 16.413 60.3149 16.6941V23.4956C60.0338 23.8329 59.6966 24.114 59.3031 24.3388C58.9096 24.5637 58.5161 24.6761 58.0664 24.6761C57.5605 24.7323 57.1109 24.5637 56.7174 24.2826C56.4363 24.0015 56.2677 23.6081 56.2677 23.1584V16.6941C56.2677 16.3568 56.099 16.0195 55.1997 16.0195H55.0872C54.1879 16.0195 54.0192 16.413 54.0192 16.6941V23.2146C53.963 24.114 54.3003 25.0133 54.9748 25.6317C55.7056 26.25 56.6049 26.531 57.5605 26.531C58.1789 26.531 58.7972 26.4186 59.3593 26.1376C59.809 25.9127 60.2025 25.6879 60.5397 25.3506C60.596 25.5755 60.6522 25.7441 60.7084 25.9689C60.8208 26.25 61.1019 26.4186 61.3829 26.4186C61.664 26.4186 61.8888 26.3624 62.1699 26.3062C62.6758 26.1938 62.732 25.8565 62.732 25.6879C62.732 25.463 62.6758 25.2382 62.6196 25.0133C62.5071 24.5074 62.5071 23.9453 62.5071 23.3832Z" fill="#10275B"></path>
    <path id="Vector_4" d="M69.3647 17.8178C70.77 17.8178 71.4445 18.6047 71.5008 20.2349H66.779C67.0039 18.6047 67.847 17.8178 69.3647 17.8178ZM69.3647 15.9066C67.9594 15.7942 66.6104 16.3001 65.6548 17.3119C64.7554 18.4361 64.3057 19.8414 64.4181 21.3029C64.0247 23.8324 65.7672 26.1371 68.2967 26.5305C68.7464 26.5868 69.1961 26.5868 69.6458 26.5305C70.2641 26.5305 70.8824 26.4743 71.5008 26.3057C72.0067 26.1933 72.5126 26.0246 72.9623 25.7998C73.2433 25.6312 73.5806 25.4063 73.5806 25.0128C73.5806 24.8442 73.5244 24.6756 73.4119 24.5631C73.2995 24.3945 73.1871 24.2259 73.0747 24.1135C72.906 23.8324 72.5688 23.7762 72.2877 23.8886L72.1191 23.9448C71.7818 24.1135 71.3883 24.2821 70.9949 24.3945C70.5452 24.5069 70.0955 24.5631 69.6458 24.5631C68.915 24.6194 68.1843 24.3945 67.566 23.9448C67.1163 23.4389 66.8352 22.8206 66.779 22.0898H72.906C73.0747 22.0898 73.2433 21.9774 73.3557 21.865C73.4682 21.7526 73.5806 21.6402 73.693 21.4715C73.8054 21.3591 73.8616 21.1905 73.8616 21.0218C73.9741 19.6728 73.5244 18.2675 72.7374 17.1995C71.8942 16.2439 70.6576 15.7942 69.4209 15.8504" fill="#10275B"></path>
    <path id="Vector_5" d="M81.0568 20.8543C80.3822 20.517 79.7077 20.2359 79.0332 20.0673C78.6397 20.0111 78.2462 19.8424 77.9652 19.5614C77.7403 19.3365 77.6279 18.9993 77.6279 18.7182C77.6279 18.4372 77.7965 18.2123 78.0214 18.0999C78.3586 17.9313 78.7521 17.8188 79.1456 17.8188C79.4267 17.8188 79.6515 17.8751 79.9326 17.9313C80.1574 17.9875 80.326 18.0437 80.5509 18.1561C80.8319 18.3247 80.8882 18.3247 80.9444 18.3247C81.113 18.3247 81.3378 18.2123 81.4503 18.0437C81.5627 17.8751 81.6751 17.7064 81.7875 17.5378C81.8437 17.3692 81.9 17.2005 81.9 17.0319C81.9 16.6384 81.5065 16.4698 81.3378 16.4136C81.0006 16.2449 80.6633 16.1325 80.2698 16.0763C79.8201 16.0201 79.3704 15.9639 78.9208 15.9639C78.3024 15.9639 77.6841 16.0763 77.0658 16.3573C76.5599 16.5822 76.1102 16.9757 75.7729 17.4254C75.4357 17.8751 75.267 18.4372 75.3232 18.9993C75.3232 19.449 75.3794 19.9549 75.6043 20.3484C75.8291 20.798 76.1664 21.1353 76.6161 21.3602C77.1782 21.6974 77.7403 21.9223 78.3586 22.0909C78.7521 22.2033 79.1456 22.3158 79.4829 22.4844C79.7077 22.5968 79.8763 22.7092 79.9888 22.9341C80.1012 23.1027 80.1574 23.2713 80.1574 23.4962C80.1574 24.0583 79.9888 24.7328 78.4711 24.7328C78.0776 24.7328 77.6841 24.6766 77.3468 24.5642C77.0096 24.4518 76.7285 24.2831 76.4475 24.1145C76.2226 23.8897 75.8853 23.9459 75.6605 24.1707C75.6043 24.2269 75.6043 24.2269 75.6043 24.2831C75.4919 24.3956 75.3794 24.5642 75.267 24.7328C75.1546 24.9015 75.1546 25.0139 75.0984 25.1825C75.0984 25.5198 75.4357 25.7446 75.6605 25.9133C76.054 26.1381 76.4475 26.3068 76.8971 26.4192C77.4593 26.5878 78.0214 26.644 78.5273 26.644C79.2018 26.644 79.8201 26.5316 80.4385 26.2505C81.0006 26.0257 81.4503 25.6322 81.8437 25.1263C82.181 24.6204 82.4059 24.0583 82.3496 23.44C82.3496 22.9341 82.2372 22.372 82.0124 21.9223C81.8437 21.4164 81.4503 21.0229 81.0568 20.8543Z" fill="#10275B"></path>
    <path id="Vector_6" d="M88.9264 24.5636C88.814 24.5636 88.7015 24.5636 88.5891 24.6198C88.4205 24.6198 88.1956 24.6198 88.027 24.6198C87.8022 24.6198 87.6335 24.5636 87.4649 24.395C87.2963 24.1139 87.1838 23.8329 87.24 23.4956V17.9307H88.6453C88.8702 17.9307 89.095 17.8745 89.2074 17.7059C89.3199 17.5372 89.3761 17.3124 89.3761 17.0875V16.8627C89.3761 16.6378 89.3199 16.4692 89.2074 16.3006C89.095 16.1319 88.8702 16.0195 88.6453 16.0757H87.24V14.3894C87.24 14.1645 87.1276 13.9959 86.959 13.8835C86.7903 13.7711 86.5655 13.7148 86.3407 13.7148H86.172C85.3851 13.7148 85.2726 14.1645 85.2726 14.3894L85.0478 16.1319H84.2608C84.036 16.1319 83.8674 16.1881 83.7549 16.3568C83.6425 16.5254 83.5863 16.694 83.5863 16.9189V17.1437C83.5863 17.3686 83.6425 17.5372 83.7549 17.7621C83.8674 17.9307 84.0922 18.0431 84.2608 17.9869H84.9916V23.7205C84.8792 24.5636 85.2164 25.4068 85.891 25.9689C86.4531 26.3624 87.1276 26.5872 87.8584 26.5872C88.3081 26.5872 89.6009 26.5872 89.6009 25.7441C89.6009 25.5192 89.5447 25.2944 89.4885 25.1257C89.3199 24.6198 89.095 24.5636 88.9264 24.5636Z" fill="#10275B"></path>
    <path id="Vector_7" d="M99.1006 16.0195H99.0444C98.8196 16.0195 98.1451 16.0195 97.9764 16.4692L95.9528 21.5844C95.8966 21.7531 95.7842 21.9779 95.728 22.259L95.5593 22.7649C95.3907 22.3152 95.2783 21.8655 95.1659 21.5844L93.086 16.4692C92.8612 16.0195 92.2429 16.0195 92.018 16.0195H91.8494C91.5683 16.0195 91.3435 16.0195 91.0624 16.132C90.8376 16.1882 90.6689 16.413 90.6689 16.6379C90.6689 16.6941 90.6689 16.7503 90.6689 16.8065V16.9189L94.154 25.6317L92.5239 29.3416C92.4677 29.454 92.4115 29.6227 92.4115 29.7351C92.4115 30.0161 92.5801 30.2972 93.3109 30.2972H93.5919C94.2103 30.2972 94.6037 30.1286 94.7724 29.7351L99.9438 16.9189C100 16.8065 100 16.6941 100 16.5816C100 16.1882 99.6628 16.0195 98.932 16.0195" fill="#10275B"></path>
  </g>
</svg>
