<?xml version="1.0" encoding="UTF-8"?>
<svg xmlns="http://www.w3.org/2000/svg" width="100" height="24" viewBox="0 0 100 24" fill="none">
  <g id="avantio-logo-color 1" clip-path="url(#clip0_770_6601)">
    <g id="Clip path group">
      <mask id="mask0_770_6601" style="mask-type:luminance" maskUnits="userSpaceOnUse" x="0" y="0" width="100" height="24">
        <g id="clip0_332_4091">
          <path id="Vector" d="M100 0.524414H0V23.462H100V0.524414Z" fill="white"></path>
        </g>
      </mask>
      <g mask="url(#mask0_770_6601)">
        <g id="Group">
          <path id="Vector_2" d="M32.7285 19.3631H28.5283L23.7903 5.71289H27.7554L30.6788 15.0334H30.7124L33.6358 5.71289H37.3656L32.7285 19.3631Z" fill="#F15F41"></path>
          <path id="Vector_3" d="M47.2778 12.687C46.6393 13.2489 45.2953 13.2489 44.1528 13.4802C42.9767 13.6785 41.9351 14.1082 41.9351 15.4964C41.9351 16.8515 43.0103 17.248 44.2536 17.248C47.2106 17.248 47.3114 14.9345 47.3114 14.1082V12.687H47.2778ZM38.5749 9.91067C38.8101 6.40725 41.9687 5.34961 45.0265 5.34961C47.7819 5.34961 51.0749 5.94453 51.0749 9.21663V16.3227C51.0749 17.5786 51.2093 18.8015 51.5453 19.3634H47.7146C47.5802 18.9337 47.4794 18.504 47.4458 18.0413C46.2361 19.2972 44.4888 19.7269 42.8087 19.7269C40.1877 19.7269 38.138 18.4379 38.138 15.6286C38.138 12.5548 40.4902 11.7946 42.8087 11.4972C45.1609 11.1667 47.2778 11.2328 47.2778 9.71237C47.2778 8.09289 46.1689 7.86148 44.8249 7.86148C43.3799 7.86148 42.4727 8.42339 42.3383 9.91067H38.5749Z" fill="#F15F41"></path>
          <path id="Vector_4" d="M54.2006 5.714H57.796V7.59791H57.8632C58.7704 6.17672 60.3834 5.31738 62.0634 5.31738C66.0957 5.31738 67.104 7.56486 67.104 10.9361V19.3642H63.3404V11.6632C63.3404 9.41575 62.6683 8.32506 60.921 8.32506C58.8712 8.32506 57.9976 9.4488 57.9976 12.2251V19.3642H54.2342L54.2006 5.714Z" fill="#F15F41"></path>
          <path id="Vector_5" d="M74.764 5.71359H77.52V8.22547H74.764V14.968C74.764 16.2239 75.0667 16.5544 76.3433 16.5544C76.7467 16.5544 77.1167 16.5213 77.52 16.4552V19.3638C76.7807 19.4629 76.0413 19.496 75.302 19.496C72.9833 19.496 70.9673 18.9672 70.9673 16.2569V8.22547H68.682V5.71359H70.9673V1.61523H74.7307L74.764 5.71359Z" fill="#F15F41"></path>
          <path id="Vector_6" d="M83.4341 5.71289H79.6707V19.33H83.4341V5.71289Z" fill="#F15F41"></path>
          <path id="Vector_7" d="M92.8767 16.8845C95.464 16.8845 96.2367 14.7031 96.2367 12.5217C96.2367 10.3734 95.464 8.15899 92.8767 8.15899C90.2894 8.15899 89.55 10.3404 89.55 12.5217C89.55 14.7362 90.3227 16.8845 92.8767 16.8845ZM92.8767 5.34961C97.2114 5.34961 100 8.19204 100 12.5548C100 16.9176 97.2114 19.7269 92.8767 19.7269C88.542 19.7269 85.7867 16.8845 85.7867 12.5548C85.7867 8.22509 88.5754 5.34961 92.8767 5.34961Z" fill="#F15F41"></path>
          <path id="Vector_8" d="M83.4341 0.524414H79.6707V3.59818H83.4341V0.524414Z" fill="#F15F41"></path>
          <path id="Vector_9" d="M11.1565 15.4971C11.1565 16.8853 12.2318 17.2489 13.475 17.2489C16.432 17.2489 16.5328 14.9352 16.5328 14.109V12.7208C15.8944 13.2827 14.5839 13.2827 13.4078 13.5141C12.1982 13.7124 11.1565 14.1421 11.1565 15.4971ZM16.9024 19.3642C16.768 18.9345 16.6672 18.5048 16.6336 18.0421C15.4576 19.265 13.6766 19.7277 12.0301 19.7277C9.44275 19.7277 7.35942 18.4387 7.35942 15.6624C7.35942 12.5886 9.67795 11.8615 12.0301 11.531C14.3487 11.2005 16.4992 11.2666 16.4992 9.74619C16.4992 8.12671 15.3904 7.8953 14.0462 7.8953C12.6014 7.8953 11.6941 8.45721 11.5597 9.94448H7.79622C8.03149 6.44108 11.1565 5.38344 14.2479 5.38344C16.9696 5.38344 20.2626 5.97836 20.2626 9.25045V16.3234C20.2626 17.5463 20.397 18.8023 20.7331 19.3311L16.9024 19.3642ZM19.5906 3.92918C18.2801 2.60713 16.6672 1.61559 14.9199 0.987618C11.6605 -0.16918 7.62822 1.02067 4.43603 4.09444C0.739793 7.59786 -0.805907 12.3573 0.437373 16.2243C0.8406 17.4472 1.54625 18.5709 2.48711 19.4964C5.61211 22.6032 11.6605 24.1896 16.4992 23.1981C19.4898 22.6032 21.674 21.0497 22.6148 18.8684C24.7654 13.8446 23.5557 7.86226 19.5906 3.92918Z" fill="#F15F41"></path>
        </g>
      </g>
    </g>
  </g>
  <defs>
    <clipPath id="clip0_770_6601">
      <rect width="100" height="22.9508" fill="white" transform="translate(0 0.524414)"></rect>
    </clipPath>
  </defs>
</svg>
