<?xml version="1.0" encoding="UTF-8"?>
<svg xmlns="http://www.w3.org/2000/svg" width="120" height="20" viewBox="0 0 120 20" fill="none">
  <g id="booking-logo">
    <path id="Trazado 25439" fill-rule="evenodd" clip-rule="evenodd" d="M90.7809 7.62998C90.7809 7.891 90.7809 8.15121 90.7809 8.41223C90.7809 8.50267 90.7626 8.53916 90.6626 8.53837C90.1604 8.53361 89.6583 8.54948 89.1553 8.53202C88.8974 8.53907 88.6452 8.45567 88.4423 8.29629C88.2395 8.1369 88.0987 7.91157 88.0446 7.65934C88.0074 7.55959 87.9456 7.47089 87.8648 7.40152C87.7841 7.33215 87.6871 7.28438 87.5829 7.26266C87.0499 7.08568 86.4765 7.07002 85.9347 7.21765C85.3929 7.36528 84.9067 7.66963 84.5372 8.09251C84.2353 8.45992 84.0239 8.89308 83.92 9.35711C83.7951 9.86415 83.7818 10.3923 83.8811 10.9049C83.9527 11.3441 84.1311 11.759 84.4004 12.1132C84.6697 12.4674 85.0217 12.7502 85.4257 12.9367C86.0557 13.238 86.7637 13.3362 87.4519 13.2176C88.4321 13.0127 89.3247 12.5094 90.0073 11.7768C90.0597 11.7165 90.0866 11.7054 90.1319 11.7824C90.5322 12.4499 90.9345 13.1163 91.3386 13.7816C91.3862 13.861 91.364 13.9157 91.3045 13.9831C90.9258 14.4 90.4873 14.7583 90.0034 15.0462C89.4775 15.3701 88.9049 15.611 88.3056 15.7602C87.4805 15.9642 86.6243 16.0105 85.7819 15.8967C84.8894 15.7942 84.0325 15.4877 83.2773 15.001C82.2936 14.3724 81.5444 13.4373 81.1456 12.3401C80.8751 11.6128 80.7495 10.8395 80.7759 10.064C80.7818 8.88857 81.1626 7.74569 81.8629 6.80166C82.5632 5.85763 83.5465 5.16171 84.6697 4.81517C85.2844 4.62039 85.9235 4.51355 86.5682 4.49783C87.4405 4.46353 88.3098 4.61861 89.1164 4.95242C89.7261 5.17005 90.2385 5.5975 90.5619 6.15831C90.7098 6.43499 90.7838 6.74513 90.7769 7.05877C90.7769 7.24679 90.7769 7.43561 90.7769 7.62363L90.7809 7.62998Z" fill="#4BA0DC"></path>
    <path id="Trazado 25441" fill-rule="evenodd" clip-rule="evenodd" d="M78.4537 15.8392C78.2126 15.8406 77.9737 15.7942 77.7506 15.7026C77.5276 15.6111 77.3249 15.4763 77.1543 15.3059C76.9837 15.1356 76.8485 14.9331 76.7565 14.7103C76.6646 14.4874 76.6178 14.2485 76.6187 14.0074C76.6178 13.6439 76.7248 13.2883 76.9261 12.9856C77.1274 12.6829 77.414 12.4467 77.7496 12.307C78.0852 12.1673 78.4547 12.1304 78.8113 12.2008C79.1679 12.2713 79.4956 12.446 79.7529 12.7028C80.0102 12.9596 80.1854 13.287 80.2565 13.6435C80.3276 14 80.2913 14.3696 80.1522 14.7055C80.013 15.0413 79.7774 15.3283 79.4751 15.5301C79.1727 15.732 78.8173 15.8396 78.4537 15.8392Z" fill="#4BA0DC"></path>
    <path id="Trazado 25442" fill-rule="evenodd" clip-rule="evenodd" d="M75.3819 15.1705C75.3618 15.0861 75.3564 14.9989 75.366 14.9127C75.366 11.5806 75.366 8.24694 75.366 4.91169C75.366 4.71177 75.366 4.71256 75.1621 4.71256H73.7872C73.8277 4.67289 73.8785 4.69035 73.9245 4.69035C74.3728 4.69035 74.8218 4.69035 75.2732 4.69035C75.37 4.69035 75.4057 4.70859 75.4057 4.8149C75.4014 8.19987 75.3993 11.5848 75.3993 14.9698C75.3953 15.0364 75.3898 15.1039 75.3819 15.1705Z" fill="#9696B9"></path>
    <path id="Trazado 25443" fill-rule="evenodd" clip-rule="evenodd" d="M104.276 4.76855V15.693C104.248 15.6373 104.238 15.5739 104.248 15.5121C104.248 14.1952 104.248 12.8779 104.248 11.5604C104.248 11.4978 104.248 11.4351 104.244 11.3724C104.244 10.0692 104.244 8.76599 104.244 7.46278C104.244 6.6324 104.244 5.80202 104.244 4.97165C104.242 4.90501 104.214 4.82806 104.276 4.76855Z" fill="#9696B9"></path>
    <g id="Grupo 12386">
      <path id="Trazado 25437" fill-rule="evenodd" clip-rule="evenodd" d="M46.5412 15.7225C45.5471 15.6995 44.5824 15.7527 43.6184 15.694C43.3665 15.6821 43.1215 15.6069 42.9063 15.4753C42.6911 15.3437 42.5126 15.16 42.3872 14.9411C42.077 14.4429 41.8263 13.9097 41.5486 13.394C41.2051 12.7546 40.8639 12.1136 40.5307 11.4686C40.4913 11.386 40.4306 11.3154 40.3549 11.2639C40.2793 11.2125 40.1912 11.1821 40.0999 11.1758C39.9614 11.1569 39.8217 11.1484 39.6819 11.1504C39.4597 11.156 39.4875 11.1155 39.4875 11.3385C39.4875 12.6369 39.4875 13.9354 39.4875 15.2338C39.4875 15.3544 39.4827 15.4718 39.4875 15.5956C39.4922 15.6852 39.47 15.7217 39.3693 15.7209C38.3892 15.7172 37.4092 15.7172 36.4291 15.7209C36.3379 15.7209 36.3117 15.6948 36.3149 15.6075C36.3212 15.4679 36.3149 15.3274 36.3149 15.1878C36.3149 10.351 36.3149 5.51395 36.3149 0.676619C36.3149 0.460828 36.2926 0.487801 36.4973 0.490181C37.0717 0.496528 37.6461 0.469555 38.2197 0.510809C38.4953 0.499162 38.7663 0.584332 38.9857 0.751553C39.2051 0.918774 39.359 1.1575 39.4208 1.42634C39.4662 1.6189 39.4869 1.81642 39.4827 2.01421C39.4827 4.08062 39.4827 6.14678 39.4827 8.21267C39.4827 8.40862 39.4827 8.411 39.6858 8.40862C39.85 8.40862 40.0143 8.40307 40.1777 8.39117C40.3029 8.38696 40.4251 8.35142 40.5331 8.2878C40.641 8.22419 40.7313 8.13453 40.7957 8.02702C41.4788 6.9552 42.1738 5.89052 42.8584 4.82188C42.8752 4.78843 42.9014 4.76066 42.9339 4.74203C42.9663 4.72341 43.0035 4.71476 43.0409 4.71716C44.1606 4.72033 45.2805 4.72033 46.4007 4.71716C46.423 4.71716 46.446 4.71716 46.492 4.72112C46.4031 4.8552 46.3254 4.97421 46.246 5.09242C45.3469 6.42736 44.4478 7.76204 43.5486 9.09646C43.4071 9.30935 43.2452 9.50808 43.0655 9.68989C43.0298 9.72559 42.9917 9.75335 43.0449 9.80571C43.4172 10.2291 43.7162 10.7118 43.9295 11.2337C44.6276 12.6205 45.4527 13.9311 46.2532 15.2584L46.5412 15.7225Z" fill="#273B7D"></path>
      <path id="Trazado 25436" fill-rule="evenodd" clip-rule="evenodd" d="M49.1664 0.0211201C49.3883 0.0768958 49.6035 0.156702 49.8082 0.259125C50.1294 0.445563 50.3864 0.72501 50.5455 1.06058C50.7045 1.39615 50.758 1.77206 50.699 2.13868C50.6399 2.5053 50.4711 2.8454 50.2148 3.11408C49.9584 3.38275 49.6266 3.56737 49.2632 3.64356C49.027 3.69123 48.7838 3.69191 48.5474 3.64559C48.311 3.59926 48.086 3.50682 47.8854 3.37355C47.6847 3.24028 47.5122 3.06879 47.3778 2.86887C47.2434 2.66895 47.1497 2.44452 47.1021 2.20839C47.0544 1.97226 47.0537 1.72904 47.1 1.49264C47.1464 1.25624 47.2388 1.03129 47.3721 0.830611C47.5053 0.629936 47.6768 0.457473 47.8768 0.323073C48.0767 0.188672 48.3011 0.0949628 48.5372 0.0472984C48.565 0.041745 48.5959 0.0472986 48.6166 0.0195312L49.1664 0.0211201Z" fill="#273B7D"></path>
      <path id="Trazado 25440" fill-rule="evenodd" clip-rule="evenodd" d="M47.4424 10.2185C47.4424 8.42817 47.4424 6.6381 47.4424 4.8483C47.4424 4.78483 47.4202 4.71264 47.5361 4.71581C48.1097 4.73168 48.6848 4.68963 49.2576 4.73802C49.6 4.74622 49.9262 4.88551 50.1689 5.12716C50.4116 5.36882 50.5522 5.6944 50.5619 6.03674C50.5758 6.17594 50.5827 6.31574 50.5825 6.45563C50.5825 9.49099 50.5825 12.5264 50.5825 15.5617C50.5825 15.6879 50.5555 15.7204 50.4239 15.7204C49.4829 15.714 48.542 15.714 47.6011 15.7204C47.4678 15.7204 47.4424 15.6815 47.4424 15.5617C47.4461 13.7809 47.4461 11.9993 47.4424 10.2185Z" fill="#273B7D"></path>
      <path id="Trazado 25438" fill-rule="evenodd" clip-rule="evenodd" d="M55.4616 5.96147C55.6441 5.7909 55.8051 5.61082 55.9908 5.4577C56.7242 4.84969 57.6399 4.50451 58.5922 4.47712C59.2576 4.43182 59.9253 4.52307 60.5541 4.74527C61.0269 4.9188 61.4514 5.20269 61.7924 5.57332C62.1334 5.94396 62.3809 6.39063 62.5145 6.87621C62.6856 7.43466 62.7699 8.0161 62.7644 8.60016C62.7644 9.62359 62.7644 10.647 62.7644 11.6704C62.7644 12.9588 62.7681 14.2475 62.7755 15.5364C62.7755 15.7451 62.7969 15.7189 62.5875 15.7165C62.052 15.7102 61.5157 15.7364 60.9809 15.6975C60.799 15.6992 60.6185 15.6641 60.4505 15.5942C60.2824 15.5243 60.1303 15.4211 60.0031 15.2909C59.876 15.1607 59.7766 15.0061 59.7108 14.8364C59.645 14.6667 59.6143 14.4855 59.6204 14.3036C59.5855 13.4928 59.6092 12.682 59.6069 11.8712C59.6069 10.9588 59.6069 10.0464 59.6069 9.13409C59.6091 8.85912 59.5774 8.58493 59.5124 8.31773C59.4641 8.0513 59.3202 7.81171 59.1076 7.64399C58.895 7.47627 58.6285 7.39197 58.3581 7.40696C57.7278 7.37673 57.1077 7.57523 56.612 7.96591C56.1164 8.35659 55.7786 8.91315 55.6607 9.53314C55.5729 9.88418 55.5284 10.2447 55.5282 10.6065C55.5251 12.2525 55.5251 13.8987 55.5282 15.5452C55.5282 15.68 55.5021 15.7229 55.3569 15.7221C54.4154 15.7147 53.474 15.7147 52.5326 15.7221C52.4096 15.7221 52.3842 15.6872 52.3842 15.5698C52.3842 12.3694 52.3842 9.16952 52.3842 5.9702C52.3842 5.5886 52.3842 5.20779 52.3794 4.82619C52.3794 4.76827 52.3667 4.71274 52.4588 4.71591C53.0181 4.73178 53.579 4.68339 54.1375 4.7421C54.4495 4.7491 54.7493 4.86499 54.9849 5.06972C55.2204 5.27444 55.377 5.5551 55.4275 5.8631C55.4368 5.89656 55.4482 5.92941 55.4616 5.96147Z" fill="#273B7D"></path>
      <path id="Trazado 25435" fill-rule="evenodd" clip-rule="evenodd" d="M103.484 4.76904C103.505 4.74286 103.536 4.74762 103.563 4.74841C104.089 4.75714 104.616 4.71826 105.139 4.77538C105.417 4.78609 105.683 4.88733 105.898 5.06364C106.113 5.23996 106.264 5.4817 106.329 5.752C106.345 5.82657 106.372 5.89956 106.388 5.97414C106.405 6.04871 106.425 6.10187 106.512 6.00746C106.797 5.67888 107.123 5.38872 107.482 5.14429C107.976 4.8212 108.535 4.61198 109.119 4.53182C109.526 4.47859 109.938 4.48554 110.343 4.55245C110.828 4.61465 111.291 4.79568 111.69 5.0795C112.089 5.36333 112.412 5.74118 112.631 6.17962C112.747 6.40334 112.757 6.4089 112.907 6.21135C113.323 5.65968 113.866 5.21746 114.49 4.92295C114.911 4.72566 115.36 4.59454 115.821 4.53421C116.242 4.47876 116.67 4.48383 117.09 4.54928C117.666 4.60048 118.214 4.81672 118.67 5.17206C119.126 5.52739 119.47 6.00671 119.66 6.55249C119.827 7.02315 119.933 7.51313 119.977 8.01067C119.977 8.03447 119.977 8.05907 120 8.07493V15.7228C119.474 15.7228 118.947 15.7316 118.421 15.7165C118.212 15.7277 118.003 15.6928 117.809 15.6143C117.615 15.5357 117.44 15.4154 117.298 15.2619C117.093 15.0156 116.984 14.7039 116.989 14.3837C116.982 12.7232 116.983 11.0627 116.981 9.40221C116.991 8.99262 116.954 8.58328 116.871 8.18204C116.837 7.94181 116.718 7.72187 116.535 7.5627C116.352 7.40352 116.117 7.31581 115.875 7.31569C115.468 7.29221 115.064 7.38402 114.707 7.58053C114.351 7.77704 114.057 8.07026 113.86 8.42639C113.597 8.86018 113.417 9.33899 113.328 9.83855C113.25 10.2159 113.214 10.6006 113.22 10.9857C113.22 12.5114 113.22 14.0362 113.22 15.5618C113.22 15.699 113.18 15.7252 113.052 15.7244C112.153 15.7191 111.254 15.7191 110.354 15.7244C110.236 15.7244 110.19 15.7078 110.191 15.5705C110.196 13.4708 110.196 11.371 110.191 9.27131C110.208 8.84763 110.137 8.42502 109.984 8.02971C109.881 7.78109 109.698 7.57438 109.463 7.44306C109.228 7.31175 108.956 7.26351 108.691 7.30617C108.398 7.3302 108.115 7.42147 107.864 7.57285C107.613 7.72423 107.4 7.93163 107.242 8.17886C106.926 8.62409 106.705 9.12926 106.592 9.66322C106.481 10.1613 106.428 10.6706 106.434 11.1809C106.434 12.6438 106.434 14.106 106.438 15.5689C106.438 15.6982 106.405 15.7276 106.28 15.7276C105.381 15.7218 104.483 15.7218 103.586 15.7276C103.466 15.7276 103.421 15.707 103.422 15.5689C103.428 14.2202 103.422 12.866 103.426 11.5141C103.417 11.4665 103.423 11.4174 103.442 11.3729C103.45 11.3821 103.455 11.393 103.458 11.4046C103.462 11.4163 103.462 11.4284 103.46 11.4403C103.46 12.8245 103.46 14.2089 103.46 15.5935C103.46 15.6126 103.491 15.5935 103.472 15.5935C103.467 15.5935 103.466 15.5935 103.465 15.5864C103.463 15.5436 103.463 15.5007 103.465 15.4579C103.465 11.9507 103.465 8.44358 103.465 4.93643C103.458 4.87991 103.464 4.82254 103.484 4.76904Z" fill="#4BA0DC"></path>
      <path id="Trazado 25444" d="M8.60866 7.83755C8.50156 7.78043 8.39762 7.71696 8.28338 7.65032C8.36272 7.58288 8.42618 7.52497 8.49283 7.46943C8.74175 7.27092 8.96696 7.04437 9.164 6.79429C9.72299 6.05122 9.99078 5.12931 9.91689 4.20241C9.90318 3.56909 9.71914 2.95116 9.38409 2.41355C9.04905 1.87594 8.57537 1.4385 8.01285 1.14721C7.18375 0.704534 6.25516 0.481401 5.31545 0.499047C4.07068 0.486353 2.82512 0.491113 1.57956 0.499047C1.33978 0.497866 1.10297 0.552098 0.887603 0.657512C0.672234 0.762925 0.484131 0.916669 0.337967 1.10675C0.175325 1.32716 0.0602388 1.57894 0 1.84616V15.6648C0.0531546 15.6648 0.106307 15.6648 0.158668 15.6648C1.88659 15.6648 3.61451 15.6648 5.34243 15.6648C6.08595 15.6712 6.82538 15.5541 7.53049 15.3181C8.56303 15.0084 9.43844 14.3163 9.97798 13.3831C10.503 12.4418 10.6574 11.3383 10.4111 10.289C10.318 9.76982 10.1071 9.27891 9.79459 8.85395C9.48213 8.42899 9.07644 8.08129 8.60866 7.83755ZM2.92826 5.19648C2.92826 4.78156 2.91795 4.36663 2.92826 3.95171C2.91309 3.82769 2.92543 3.70184 2.96441 3.58313C3.00339 3.46442 3.06805 3.35575 3.15379 3.26486C3.23953 3.17397 3.34424 3.10309 3.46048 3.05726C3.57672 3.01143 3.70163 2.99177 3.82633 2.99969C4.40757 2.95061 4.99226 2.95965 5.57171 3.02666C5.90287 3.06132 6.21324 3.20466 6.45435 3.4343C6.69547 3.66394 6.85377 3.96695 6.90454 4.29603C6.97737 4.59466 6.98254 4.90578 6.91968 5.20667C6.85681 5.50755 6.72749 5.79057 6.54118 6.03505C6.38771 6.22568 6.19156 6.37756 5.96859 6.47844C5.74561 6.57932 5.50204 6.62636 5.25754 6.61579C4.51972 6.62531 3.78111 6.61578 3.0433 6.62054C2.94016 6.62054 2.91636 6.58961 2.91794 6.49123C2.93143 6.0652 2.92826 5.63044 2.92826 5.19648ZM7.08383 12.4001C6.91012 12.6181 6.68827 12.7928 6.43569 12.9106C6.18311 13.0285 5.90666 13.0862 5.62803 13.0792C4.76407 13.0967 3.90012 13.0792 3.03616 13.0864C2.94175 13.0864 2.92588 13.0554 2.92667 12.9713C2.92667 12.4501 2.92667 11.9281 2.92667 11.4068C2.92667 10.9094 2.91715 10.412 2.92667 9.91533C2.9142 9.78599 2.93117 9.65551 2.97631 9.53367C3.02146 9.41182 3.0936 9.30178 3.18733 9.21179C3.28106 9.12179 3.39395 9.05419 3.51753 9.01404C3.64112 8.97389 3.77218 8.96225 3.90091 8.97998C4.44673 8.97998 4.99256 8.96966 5.53759 8.97998C5.86992 8.96542 6.20017 9.03926 6.49466 9.19396C6.78915 9.34866 7.03734 9.57869 7.21394 9.8606C7.43176 10.2538 7.53503 10.7001 7.51203 11.149C7.48903 11.5978 7.34069 12.0313 7.08383 12.4001Z" fill="#273B7D"></path>
      <path id="Trazado 25445" d="M74.4529 4.69755C74.1054 4.70469 73.7579 4.69755 73.4104 4.69755C73.271 4.68882 73.131 4.69253 72.9923 4.70866C72.7318 4.70278 72.4758 4.77721 72.2591 4.92184C72.0424 5.06647 71.8754 5.27428 71.7809 5.51708C71.5706 5.32146 71.3391 5.15009 71.0906 5.00616C70.1589 4.49992 69.0849 4.31874 68.0386 4.49128C67.1855 4.58052 66.3762 4.91355 65.7073 5.45056C65.0385 5.98758 64.5385 6.70584 64.267 7.5195C63.7434 8.91224 63.6904 10.4382 64.1163 11.8639C64.3739 12.8461 64.9279 13.7251 65.703 14.3812C66.6584 15.1783 67.8875 15.5703 69.1279 15.4736C69.9538 15.4607 70.7516 15.172 71.3945 14.6533C71.4112 14.6398 71.4278 14.6152 71.4627 14.6335C71.4759 14.8282 71.4708 15.0236 71.4476 15.2174C71.4297 15.5745 71.3127 15.9195 71.1097 16.2138C70.9066 16.5081 70.6256 16.74 70.2981 16.8834C69.5375 17.1896 68.7033 17.2641 67.9005 17.0976C67.4516 17.0132 67.0089 16.8982 66.5757 16.7533C66.4672 16.7093 66.3511 16.6876 66.2341 16.6897C66.1171 16.6918 66.0017 16.7176 65.8949 16.7655C65.7882 16.8134 65.6922 16.8824 65.6129 16.9684C65.5335 17.0544 65.4724 17.1556 65.4332 17.2658C65.4094 17.3134 65.3856 17.361 65.3666 17.4102C65.1802 17.8791 64.9961 18.3487 64.8049 18.816C64.7652 18.9128 64.7851 18.9525 64.8763 19.0017C65.6807 19.4295 66.5499 19.7222 67.4491 19.868C67.7086 19.9124 67.9696 19.9473 68.2298 19.9815H69.4198C69.4389 19.9521 69.4706 19.9585 69.4992 19.9569C69.8787 19.9291 70.2551 19.8683 70.6241 19.7752C71.598 19.5606 72.4948 19.0841 73.2176 18.3971C74.0752 17.5397 74.5682 16.3839 74.5933 15.1714C74.5893 15.1135 74.5933 15.0555 74.5933 14.9976V4.92048C74.5912 4.89169 74.5912 4.86279 74.5933 4.834C74.602 4.73007 74.5679 4.69517 74.4529 4.69755ZM71.2929 11.441C71.1658 11.8243 70.9191 12.1567 70.5891 12.3895C70.2591 12.6222 69.8632 12.743 69.4595 12.7342C68.9706 12.7707 68.4844 12.6356 68.0845 12.352C67.6846 12.0684 67.3963 11.6542 67.2691 11.1808C66.9559 10.2997 66.9708 9.33534 67.3111 8.46438C67.4408 8.09427 67.6844 7.77474 68.0069 7.55168C68.3295 7.32861 68.7144 7.21347 69.1064 7.22278C69.556 7.18872 70.0067 7.27067 70.4155 7.46079C70.6746 7.6017 70.8984 7.79946 71.0702 8.03922C71.2419 8.27899 71.3571 8.55453 71.4072 8.84519C71.4909 9.21821 71.5303 9.59981 71.5246 9.98206C71.5309 10.4775 71.4525 10.9704 71.2929 11.4394V11.441Z" fill="#273B7D"></path>
      <path id="Trazado 25446" d="M102.189 8.71739C102.017 7.99095 101.698 7.30762 101.251 6.71013C100.804 6.11264 100.238 5.61383 99.5895 5.24489C98.8795 4.85209 98.0964 4.60908 97.2887 4.53087C96.7373 4.47125 96.1806 4.48058 95.6314 4.55863C95.0422 4.63962 94.4693 4.81256 93.9337 5.07114C93.0283 5.49756 92.2633 6.17317 91.7282 7.01882C91.1268 7.96917 90.8211 9.07668 90.8499 10.201C90.851 10.4854 90.8677 10.7696 90.8999 11.0522C90.9796 11.6753 91.1605 12.2812 91.4354 12.846C91.8361 13.6761 92.4492 14.3855 93.2125 14.9024C94.039 15.4598 94.9955 15.794 95.9892 15.8726C96.9749 15.9714 97.9699 15.8355 98.8929 15.4759C99.7893 15.1314 100.575 14.5498 101.167 13.7932C101.59 13.2557 101.907 12.6423 102.1 11.986C102.223 11.5568 102.303 11.1164 102.338 10.6714C102.392 10.0162 102.341 9.35674 102.189 8.71739ZM99.261 10.1065C99.2985 10.8415 99.0948 11.5686 98.6811 12.1772C98.3425 12.6597 97.8366 12.999 97.2618 13.1292C96.679 13.2799 96.0624 13.2307 95.5108 12.9896C94.9592 12.7415 94.5173 12.3001 94.2685 11.7488C94.021 11.2296 93.9058 10.6573 93.9329 10.0827C93.9261 9.66924 94.0026 9.25859 94.1577 8.87521C94.3128 8.49183 94.5433 8.14354 94.8357 7.85104C95.1041 7.59436 95.427 7.40178 95.7804 7.28774C96.1338 7.17369 96.5084 7.14115 96.8762 7.19256C97.3764 7.23483 97.8525 7.42628 98.2428 7.74212C98.633 8.05796 98.9195 8.48366 99.0651 8.96412C99.2074 9.32771 99.2748 9.71627 99.2634 10.1065H99.261Z" fill="#4BA0DC"></path>
      <path id="Trazado 25447" d="M32.1593 5.10608C31.4401 4.74957 30.6573 4.53904 29.8562 4.48661C29.0552 4.43419 28.2516 4.54091 27.492 4.80064C26.7173 5.03201 26.0073 5.44102 25.4186 5.99511C24.8298 6.54919 24.3784 7.23306 24.1005 7.99229C23.6758 9.08765 23.5793 10.283 23.8228 11.4323C24.0588 12.7521 24.7862 13.9334 25.8585 14.7382C26.8913 15.5068 28.1502 15.9106 29.4373 15.8861C29.9344 15.8916 30.4302 15.8362 30.9138 15.7211C31.7118 15.5542 32.4607 15.2059 33.1026 14.7032C33.7445 14.2005 34.2622 13.5569 34.6156 12.8222C35.218 11.5946 35.3758 10.196 35.0622 8.86498C34.9108 8.05322 34.5687 7.28906 34.064 6.63552C33.5593 5.98197 32.9064 5.45775 32.1593 5.10608ZM32.1173 10.2081C32.1461 10.952 31.9156 11.6829 31.4651 12.2756C31.2094 12.5984 30.8774 12.8527 30.4991 13.0155C30.1208 13.1783 29.708 13.2447 29.2977 13.2086C28.6994 13.1788 28.13 12.942 27.6869 12.5389C27.2438 12.1357 26.9545 11.5912 26.8685 10.9983C26.6529 10.1013 26.7973 9.15545 27.2707 8.36358C27.5259 7.93478 27.9052 7.59354 28.3585 7.38501C28.8118 7.17648 29.3178 7.11049 29.8094 7.19577C30.3337 7.25873 30.8253 7.48362 31.2158 7.83912C31.6063 8.19462 31.8762 8.66304 31.988 9.17915C32.084 9.51337 32.1282 9.86053 32.1173 10.2081Z" fill="#273B7D"></path>
      <path id="Trazado 25448" d="M19.8798 5.11835C18.5679 4.46188 17.0627 4.30265 15.6425 4.6701C14.8176 4.84415 14.0468 5.21433 13.3953 5.7493C12.7438 6.28428 12.2307 6.96832 11.8995 7.74355C11.4284 8.81328 11.28 9.99731 11.4726 11.1502C11.6359 12.415 12.2453 13.58 13.191 14.4355C14.275 15.4021 15.686 15.9205 17.138 15.8857C17.7127 15.8929 18.2854 15.8178 18.8389 15.6628C19.6081 15.4673 20.3235 15.1015 20.9323 14.5925C21.5412 14.0835 22.0279 13.4442 22.3566 12.7218C22.9046 11.5444 23.0512 10.2198 22.7739 8.95103C22.6323 8.12762 22.2957 7.35006 21.7922 6.6833C21.2887 6.01655 20.633 5.47995 19.8798 5.11835ZM19.4038 11.911C19.2108 12.2836 18.9232 12.5989 18.57 12.8253C18.2167 13.0517 17.8102 13.1813 17.391 13.201C16.7409 13.2682 16.0895 13.0862 15.5683 12.6919C15.0471 12.2976 14.6948 11.7203 14.5826 11.0764C14.5588 10.9733 14.5421 10.8686 14.5246 10.7646C14.4938 10.5737 14.4813 10.3803 14.4874 10.1871C14.4572 9.42431 14.7006 8.67587 15.1736 8.07676C15.4708 7.72954 15.8545 7.46697 16.2857 7.31563C16.717 7.16428 17.1806 7.12952 17.6296 7.21487C18.0786 7.30021 18.4971 7.50263 18.8428 7.80164C19.1885 8.10066 19.449 8.48566 19.5981 8.91771C19.7853 9.40105 19.8645 9.91943 19.8304 10.4366C19.7963 10.9538 19.6496 11.4573 19.4006 11.9118L19.4038 11.911Z" fill="#273B7D"></path>
    </g>
  </g>
</svg>
