<?xml version="1.0" encoding="UTF-8"?>
<svg xmlns="http://www.w3.org/2000/svg" width="100" height="24" viewBox="0 0 100 24" fill="none">
  <g id="Logo hostaway" clip-path="url(#clip0_770_6545)">
    <path id="Vector" fill-rule="evenodd" clip-rule="evenodd" d="M97.284 5.92352C96.7408 6.39191 96.5639 7.2021 96.2987 8.05026C96.1471 8.54397 95.9576 9.05034 95.806 9.55671C95.4775 10.6201 95.2122 11.7594 94.8712 12.6709C94.5806 13.4431 94.05 14.2533 93.5953 14.9622C93.1531 15.6331 92.6099 16.38 91.8014 16.6079C90.8161 16.8864 90.3992 16.2914 90.4624 15.3673C90.5255 14.4938 90.8035 13.595 91.0435 12.7595C91.7383 10.3289 92.6605 8.01229 93.3805 5.68299C91.9278 5.10067 90.6645 5.60704 90.1339 6.63243C89.856 7.16412 89.7044 7.84772 89.477 8.49334C88.9338 10.0504 88.4033 11.6961 88.0748 13.4304C87.999 13.8102 87.999 14.228 87.8979 14.5824C87.7337 15.1521 86.9758 16.0256 86.5589 16.3167C86.2178 16.5446 85.523 16.8737 84.9924 16.6459C84.5756 16.456 84.4619 15.8483 84.525 15.304C84.6008 14.4685 84.8914 13.6077 85.1188 12.7975C85.8009 10.3796 86.6852 7.96165 87.3926 5.74629C86.3189 5.29056 85.0177 5.53108 84.4998 6.1767C83.2997 4.64494 80.7731 5.63236 79.573 6.4552C77.7666 7.69581 76.377 9.63266 75.379 11.81C74.8232 13.0253 74.3684 14.3419 74.3179 15.8104C74.2673 17.2282 74.8484 18.5321 76.5791 18.4941C77.8171 18.4688 78.9035 17.5193 79.6867 16.8357C80.5963 16.0382 81.3037 15.1014 81.9859 14.2026C81.6069 16.4813 81.9732 18.4688 84.2345 18.4814C85.9273 18.4941 87.0137 17.0889 87.8474 16.1395C87.9611 17.2408 88.4159 18.165 89.477 18.3928C91.5235 18.8486 93.1026 17.051 93.9237 15.9243C93.1279 18.0763 92.0288 21.3044 90.2855 22.2792C89.9318 22.4691 89.4644 22.6716 89.0475 22.4564C88.6054 21.545 89.8686 20.5196 89.6286 19.5195C89.5276 19.1144 89.0728 18.9498 88.5043 18.8739C87.7842 19.6967 86.4831 21.9121 87.4179 23.14C87.7337 23.5704 88.378 23.7856 89.1486 23.811C91.0561 23.8616 92.6731 22.8109 93.7721 21.6589C94.9722 20.4183 95.7302 18.722 96.3745 16.975C97.7893 13.1519 98.762 9.22757 100.038 5.70831C99.0273 5.23992 97.9283 5.36651 97.284 5.92352ZM83.2365 9.25289C82.9965 9.99978 82.8323 10.7973 82.5417 11.5442C82.3522 12.0506 81.9227 12.5696 81.5943 13.0127C80.8995 13.9621 80.3057 14.785 79.3456 15.5065C78.6761 16.0002 77.2739 16.7218 77.2739 15.1647C77.2739 14.228 77.615 13.3545 77.8803 12.6202C78.6256 10.5948 79.9394 8.25281 81.4174 7.2021C82.0238 6.75903 83.2744 6.21468 84.0071 7.05019C83.7418 7.77176 83.4765 8.50599 83.2365 9.25289ZM75.5053 5.12599C75.3916 4.89812 75.0632 4.77153 74.7221 4.77153C74.0905 4.80951 73.4967 5.08801 73.0546 5.54374C73.2441 7.8224 72.6251 10.4555 71.8924 12.3164C71.3365 13.7216 70.6797 15.1521 69.7196 16.1015C69.4417 16.38 68.8732 16.8484 68.4563 16.7345C67.8752 16.5826 67.8752 15.0002 67.9005 14.4432C68.0521 11.253 69.0879 8.87311 69.7701 6.54382C68.5447 6.05011 67.3952 6.55648 66.9657 7.31603C66.6246 7.92367 66.3972 8.84779 66.1698 9.70862C65.9424 10.5694 65.8161 11.5442 65.5634 12.3417C65.4371 12.7342 65.1845 13.1772 64.9697 13.595C64.4012 14.7343 63.6433 16.1648 62.6074 16.6205C61.0157 17.3295 61.6852 14.6837 61.9252 13.7975C62.759 10.7087 63.9465 8.17686 64.995 5.50576C63.6938 5.05003 62.5316 5.40449 61.9252 6.18936C61.5336 6.70839 61.3441 7.39198 61.0788 8.08824C60.4599 9.77191 59.803 11.5442 59.3861 13.4304C59.2976 13.8355 59.3103 14.3039 59.1966 14.6963C59.0955 15.0128 58.7418 15.4686 58.4765 15.785C58.2112 16.1142 57.8828 16.38 57.5038 16.5699C57.2133 16.7092 56.7459 16.8357 56.3921 16.7218C55.3184 16.4053 56.1016 13.9748 56.3921 12.9874C57.0869 10.5315 58.0091 8.12622 58.7039 5.78427C57.6175 5.32854 56.3669 5.59438 55.811 6.21468C55.3942 5.72097 54.8636 5.41715 53.9035 5.40449C52.6276 5.37917 51.3896 6.10075 50.5559 6.77168C48.762 8.18951 47.2966 10.215 46.3366 12.6329C46.046 13.3671 45.8312 14.1267 45.7176 14.9115C45.6797 15.0002 45.6291 15.0761 45.5912 15.1521C45.2122 15.7471 44.8206 16.2154 44.2269 16.5066C43.9237 16.6585 43.4563 16.8611 42.9889 16.6459C42.0541 16.2281 42.7489 14.1393 43.0268 13.1266C43.6205 10.8859 44.5175 8.55663 45.1617 6.59446H46.6397C46.9682 6.60711 47.2587 6.35393 47.2714 6.01213C47.284 5.68299 47.0314 5.39183 46.6903 5.37917C46.6776 5.37917 46.6524 5.37917 46.6397 5.37917H45.5533C46.0965 3.74614 46.665 2.15108 47.1703 0.480062C45.9197 -0.11492 44.5933 0.302833 44.0374 1.18898C43.8606 1.46748 43.7848 1.87257 43.6458 2.25235C43.3047 3.26509 42.9131 4.42973 42.5594 5.37917H41.0561C40.7277 5.36651 40.4371 5.6197 40.4245 5.9615C40.4118 6.29063 40.6645 6.5818 41.0056 6.59446C41.0182 6.59446 41.0435 6.59446 41.0561 6.59446H42.1552C41.6246 8.24015 40.9929 9.89851 40.4876 11.7974C39.8307 14.2659 39.0096 18.1396 41.8772 18.4435C43.5574 18.6207 44.8333 17.456 45.6418 16.3294C45.6797 16.9623 45.8439 17.5193 46.185 17.9118C47.0187 18.8992 48.4967 18.5194 49.381 18.0384C50.9854 17.1775 52.2739 15.6331 53.2592 14.3039C52.994 16.2914 53.1456 18.0763 54.7878 18.4435C56.9606 18.9372 58.1228 17.2788 59.1208 16.2028C59.0703 17.6206 60.2704 18.8992 61.8873 18.4308C63.5043 17.9624 64.4518 15.8357 65.2981 14.5318C65.1592 16.2028 65.4624 17.7472 66.5867 18.2789C68.1658 19.0384 69.7701 17.7472 70.6544 16.8357C71.4881 15.9749 72.2082 14.9115 72.9156 13.6456C73.8378 11.962 74.7979 9.84787 75.2906 7.58187C75.4169 6.93625 75.7075 5.5564 75.5053 5.12599ZM54.1814 10.4808C54.0551 10.8606 54.0298 11.3037 53.8656 11.6708C53.6761 12.1265 53.2087 12.6709 52.8929 13.1013C52.1728 14.0887 51.5791 14.785 50.619 15.5572C50.2653 15.8357 49.5958 16.38 49.0273 16.1901C48.6862 16.0762 48.5725 15.4939 48.6104 14.9495C48.661 14.1647 48.9136 13.3671 49.1915 12.6456C49.899 10.7973 51.0738 8.7212 52.3497 7.58187C52.9813 7.01221 54.4214 6.10075 55.3057 7.12614C54.952 8.25281 54.5478 9.31618 54.1814 10.4808ZM36.0662 8.1642C35.7378 7.21476 36.1673 6.20202 36.8494 5.92352C37.1021 5.80958 37.9232 5.84756 37.8348 5.26524C37.7843 4.92344 37.1021 4.94876 36.6094 5.01206C35.144 5.2146 33.3755 6.01213 33.2618 7.78442C33.2491 8.0376 33.3502 8.31611 33.2997 8.58195C33.2618 8.79716 33.0218 9.08832 32.8575 9.32884C32.1122 10.3922 31.329 11.3163 29.9141 11.4429C30.571 9.45543 30.6468 7.31603 29.5983 6.26532C28.3856 5.03737 26.1117 5.31588 24.7221 6.06277C22.3977 7.30337 20.6418 9.7466 19.9722 12.8861C19.8712 13.3671 19.9217 13.9115 19.7701 14.4938C19.6564 14.9116 19.2522 15.4939 18.9237 15.8736C18.5447 16.3167 18.1405 16.6205 17.6731 16.7471C16.3846 17.1269 16.1572 16.0509 16.4098 14.8356C16.5614 14.114 16.7762 13.3671 16.9657 12.7215C18.1784 8.59461 19.5427 4.68292 20.806 0.619313C19.9849 0.0623085 18.81 0.264856 18.1658 0.707928C17.4583 1.18898 17.2309 2.10044 16.9025 3.11318C16.3593 4.79685 15.6898 7.01221 15.1845 8.41738C13.6054 8.43004 12.0137 8.4427 10.422 8.43004C10.6746 7.61985 10.9273 6.82232 11.1673 6.02479C11.5463 4.96142 11.9379 3.88539 12.279 2.80935C12.4684 2.23969 12.7716 1.30291 12.519 0.783883C12.2032 0.112945 11.1799 0.252196 10.4346 0.315492C7.37748 0.581336 4.93939 1.72066 3.19608 3.54359C2.47602 4.29048 1.75596 5.22726 1.62963 6.50584C1.617 6.64509 1.617 6.77168 1.617 6.91094C1.70543 7.77176 2.47602 8.41738 3.33504 8.32877C3.56243 8.30345 3.77718 8.24015 3.96667 8.12622C3.96667 8.12622 3.96667 8.12622 3.9793 8.12622C4.47198 7.84772 4.76253 7.31603 4.76253 6.75903C4.76253 6.64509 4.7499 6.53116 4.72463 6.42989C4.6741 6.11341 4.6741 5.78427 4.73726 5.46779C5.01518 3.974 6.40477 2.74606 7.50381 2.17639C7.90806 1.96119 8.64075 1.65737 9.0071 1.84726C9.48714 2.08778 8.81761 3.49295 8.66601 3.92336C7.92069 6.03745 6.84691 10.2909 6.20265 12.405C5.46996 14.2912 4.52251 16.342 3.19608 17.0889C2.84237 17.2915 2.37496 17.4814 1.95808 17.2662C1.51594 16.3547 2.7792 15.3293 2.53918 14.3292C2.43812 13.9241 1.98335 13.7596 1.41488 13.6963C0.694818 14.5191 -0.606345 16.7345 0.328471 17.9624C0.644287 18.3928 1.28855 18.608 2.05914 18.6334C3.96667 18.684 5.58365 17.6333 6.69532 16.4813C7.89542 15.2407 8.64075 13.5444 9.29765 11.7974C9.37344 11.5822 9.44924 11.367 9.52503 11.1518H9.53767C9.56293 11.0758 9.57557 11.0125 9.60083 10.9366C9.72716 10.5948 9.84085 10.253 9.95455 9.91117C9.97981 9.82255 10.0177 9.7466 10.0556 9.65798C11.66 9.65798 13.2643 9.65798 14.856 9.64532C14.3633 11.0885 13.9844 12.5569 13.7191 14.0634C13.3148 16.4053 13.6433 18.608 16.1193 18.5447C17.9384 18.4941 19.0374 16.975 19.9217 15.7597C20.2628 17.2788 21.2229 18.5068 23.2062 18.5321C24.0526 18.5447 24.7853 18.165 25.4295 17.7852C27.3371 16.6332 28.714 14.5951 29.5983 12.4303C31.6322 12.3671 32.6933 11.0885 33.7039 9.73394C34.3608 11.3163 35.6367 12.2531 35.5609 14.19C35.5104 15.3799 34.803 16.5066 34.1713 16.9877C33.2491 17.6966 31.19 17.4307 31.3163 15.9243C31.3921 15.0635 31.948 14.9242 32.0996 14.2533C32.2006 13.8608 32.0743 13.4937 31.7964 13.3292C31.0132 12.8734 30.2678 13.6077 30.0152 13.9748C29.472 14.7723 29.3078 16.0762 29.712 16.8864C30.3689 18.2029 32.1627 18.6966 33.9313 18.3422C35.3841 18.051 36.7484 17.2662 37.6327 16.2534C38.6938 15.0002 38.9591 13.2532 38.3527 11.7341C37.7969 10.3796 36.5084 9.45543 36.0662 8.1642ZM27.5266 11.1518C27.6276 11.3923 27.9813 11.6708 27.994 11.9113C28.0192 12.2278 27.5644 13.1519 27.4381 13.4431C26.8444 14.8103 25.8717 16.2281 24.6463 16.6712C23.0293 17.2662 22.4482 15.7091 22.6251 14.1014C22.7893 12.5443 23.2441 11.3796 23.8126 10.0884C24.3305 8.91109 25.0758 7.77176 25.859 7.15146C26.1749 6.91094 26.6928 6.61977 27.1097 6.60711C27.8045 6.59446 28.0319 6.94891 28.2845 7.40464C27.5897 8.22749 27.0718 10.0251 27.5266 11.1518Z" fill="#FF6A0A"></path>
  </g>
  <defs>
    <clipPath id="clip0_770_6545">
      <rect width="100" height="23.5714" fill="white" transform="translate(0 0.213867)"></rect>
    </clipPath>
  </defs>
</svg>
