<svg xmlns="http://www.w3.org/2000/svg" width="17.326" height="8.486" viewBox="0 0 17.326 8.486"><defs><style>.a{fill:#161643;}</style></defs><g transform="translate(-62.107 -647.516)"><g transform="translate(62.107 647.516)"><g transform="translate(0 0)"><path class="a" d="M.26,163.7l4.332-3.536a.735.735,0,0,1,.768-.1.706.706,0,0,1,.416.641v2.122H16.6a.715.715,0,0,1,.722.707v1.414a.715.715,0,0,1-.722.707H5.775v2.122a.707.707,0,0,1-.416.641.746.746,0,0,1-.306.066.723.723,0,0,1-.462-.164L.26,164.789a.7.7,0,0,1,0-1.086Z" transform="translate(0 -160.002)"/></g></g></g></svg>