<svg xmlns="http://www.w3.org/2000/svg" xmlns:xlink="http://www.w3.org/1999/xlink" width="334.653" height="341.62" viewBox="0 0 334.653 341.62"><defs><style>.a{isolation:isolate;}.b{fill:#a8e4ef;}.c{fill:#cbe9ff;}.d{fill:#00c0b7;}.e{fill:#161643;}.f{fill:#fff;}.g{fill:url(#a);}.h{fill:#e48674;}.i{fill:#2960f5;}.j{fill:url(#b);}.k{fill:#161546;}.l{fill:#85533c;}.m{fill:url(#c);}.n{fill:#1c1c57;}.o{fill:url(#d);}.p{fill:#283749;}.q{fill:#445a6b;}.r{fill:#ea9d7d;}.s{fill:#b23031;}.t{fill:#b4603f;}.u{fill:#4f2b23;}</style><linearGradient id="a" x1="0.5" x2="0.5" y2="1" gradientUnits="objectBoundingBox"><stop offset="0" stop-color="#cbe9ff"/><stop offset="1" stop-color="#80bce8"/></linearGradient><linearGradient id="b" x1="0.233" y1="0.694" x2="0.679" y2="0.214" gradientUnits="objectBoundingBox"><stop offset="0" stop-color="#184994" stop-opacity="0.569"/><stop offset="0.1" stop-color="#1854a6" stop-opacity="0.471"/><stop offset="0.33" stop-color="#196dcd" stop-opacity="0.271"/><stop offset="0.57" stop-color="#1a7ee9" stop-opacity="0.122"/><stop offset="0.79" stop-color="#1a88f9" stop-opacity="0.031"/><stop offset="1" stop-color="#1a8cff" stop-opacity="0"/></linearGradient><linearGradient id="c" x1="71.364" y1="1.014" x2="72.456" y2="1.885" gradientUnits="objectBoundingBox"><stop offset="0.01" stop-color="#ff7a00"/><stop offset="0.98" stop-color="#ffb600"/></linearGradient><linearGradient id="d" x1="1.151" y1="0.832" x2="-0.098" y2="0.376" gradientUnits="objectBoundingBox"><stop offset="0" stop-color="#1a8cff" stop-opacity="0"/><stop offset="0.23" stop-color="#1a84f3" stop-opacity="0.071"/><stop offset="0.49" stop-color="#196dce" stop-opacity="0.259"/><stop offset="0.75" stop-color="#184791" stop-opacity="0.588"/><stop offset="1" stop-color="#161643"/></linearGradient></defs><g class="a" transform="translate(-105.962 -153.445)"><g transform="translate(105.962 153.445)"><rect class="b" width="283.885" height="19.795" rx="9.897" transform="translate(39.302 110.814)"/><path class="c" d="M673.432,650.592H409.341a10.871,10.871,0,0,1,0-21.742H673.432a10.871,10.871,0,0,1,0,21.742Zm-264.091-19.8a8.928,8.928,0,1,0,0,17.856H673.432a8.928,8.928,0,1,0,0-17.856Z" transform="translate(-360.144 -519.008)"/><path class="c" d="M909.144,671.61v200.1H894.09V671.61" transform="translate(-615.014 -540.997)"/><path class="d" d="M959.509,755.639c-13.888,2.254-27.64,8.744-35.839,20.586-7.83,11.294-7.364,24.346-5.1,37.359a4.748,4.748,0,0,0,1.341,3.021c1.331,1.069,3.293.452,4.858-.267,11.658-5.4,22.5-13.115,28.13-25.007a1.552,1.552,0,0,0-.544-2.094l-8.792-4.26a46.222,46.222,0,0,1,9.181.787,1.555,1.555,0,0,0,1.88-1.88,34.4,34.4,0,0,1,6.621-26C962.122,756.684,960.66,755.45,959.509,755.639Z" transform="translate(-626.859 -584.198)"/><path class="d" d="M962.136,829.451c-2.1,21.446-32.779,24.934-31.525,49.547l.836.141c1.613.272,4.654-.918,6.315-1.5a71.5,71.5,0,0,0,9.229-4.435c6.582-3.575,4.454-5.125,3.944-12.693l4.1,2.711a1.536,1.536,0,0,0,2.089-.549,70.646,70.646,0,0,0,8.068-33.226C965.187,827.46,962.325,827.542,962.136,829.451Z" transform="translate(-633.775 -621.413)"/><path class="d" d="M862.152,911.195c-3.658-2.5-8.34-4.979-12.761-5.6a22.114,22.114,0,0,0-7,.151c-1.02.185-5.674,2.429-6.261,2.191,4.858,2.069,9.258,5.946,10.823,11.095,1.681,5.518,4.586,10.24,10.157,12.4,4.654,1.8,10.478,1.317,12.926-3.609C873.222,921.42,867.034,914.542,862.152,911.195Z" transform="translate(-585.208 -661.217)"/><path class="d" d="M846.426,798.652c-1.044-.461-2.817.345-2.244,1.724a61.618,61.618,0,0,1,4.061,14.8c.141.972.039,3.1.534,3.886.6.972,2.2,1.122,3.337,1.4a79.129,79.129,0,0,0,9.059,1.5l-8.879,2.647a6.749,6.749,0,0,0-2.842,1.36c-3.555,3.4,2.278,12.7,4.5,15.437,3.6,4.43,9.161,7.986,15.058,6.47,6.014-1.516,8.846-7.962,9.025-13.659C878.656,815.916,860.945,805.069,846.426,798.652Z" transform="translate(-589.292 -606.26)"/><rect class="e" width="43.499" height="10.895" transform="translate(264.921 284.646)"/><path class="e" d="M865,1009.85v11.119a28.606,28.606,0,0,0,28.519,28.523h0c15.69,0,14.981-12.838,14.981-28.523V1009.85Z" transform="translate(-600.054 -714.935)"/><path class="e" d="M918.147,897.237a1.078,1.078,0,0,1-1.064-.9c-4.372-27.241.053-55.828,13.178-84.963a1.073,1.073,0,1,1,1.943.884C919.26,841,914.883,869.175,919.192,895.994a1.069,1.069,0,0,1-.889,1.229Z" transform="translate(-625.999 -612.489)"/><path class="e" d="M921.505,939.44a1.078,1.078,0,0,1-1.074-1.059A74.292,74.292,0,0,1,938.963,888.2a1.075,1.075,0,0,1,1.608,1.428A72.139,72.139,0,0,0,922.6,938.342a1.068,1.068,0,0,1-1.054,1.093Z" transform="translate(-628.556 -652.19)"/><path class="e" d="M921.2,965.392a1,1,0,0,1-.452-.1,1.068,1.068,0,0,1-.52-1.428,51.3,51.3,0,0,1,20.4-22.316,1.075,1.075,0,1,1,1.078,1.861,49.113,49.113,0,0,0-19.556,21.373A1.079,1.079,0,0,1,921.2,965.392Z" transform="translate(-628.404 -679.735)"/><path class="e" d="M899.639,958.291a1.073,1.073,0,0,1-1.025-.748,81.769,81.769,0,0,0-17.555-30.233,1.076,1.076,0,1,1,1.584-1.457,83.908,83.908,0,0,1,18.021,31.035,1.068,1.068,0,0,1-1.025,1.4Z" transform="translate(-608.167 -671.561)"/><path class="e" d="M900.752,913.694a1.074,1.074,0,0,1-1.049-.86c-3.585-17.142-8.787-38.861-17.278-54.648a1.078,1.078,0,1,1,1.9-1.015c8.617,16.03,13.868,37.938,17.487,55.226a1.073,1.073,0,0,1-.831,1.273,1.209,1.209,0,0,1-.228.024Z" transform="translate(-608.935 -636.101)"/><rect class="c" width="43.499" height="2.511" transform="translate(264.921 290.092)"/><path class="c" d="M465.292,671.61v200.1h-13.9V671.61" transform="translate(-387.358 -540.997)"/><path class="f" d="M590.056,584.947H568.95l6.932-43.737h21.106Z" transform="translate(-447.812 -473.939)"/><path class="b" d="M589.648,584.885H566.39l7.286-45.865h23.258Zm-20.771-2.128h18.944l6.6-41.61H575.478Z" transform="translate(-446.496 -472.813)"/><rect class="g" width="86.047" height="62.395" rx="5" transform="translate(96.563 28.221)"/><path class="e" d="M597.238,523.173H523.831a7.131,7.131,0,0,1-7.121-7.121V466.3a7.131,7.131,0,0,1,7.121-7.121h73.407a7.126,7.126,0,0,1,7.116,7.121v49.751a7.126,7.126,0,0,1-7.116,7.121Zm-73.407-62.4a5.528,5.528,0,0,0-5.523,5.523v49.751a5.528,5.528,0,0,0,5.523,5.523h73.407a5.528,5.528,0,0,0,5.523-5.523V466.3a5.528,5.528,0,0,0-5.523-5.523Z" transform="translate(-420.948 -431.756)"/><rect class="f" width="82.268" height="10.866" rx="5.433" transform="translate(100.187 108.429)"/><path class="b" d="M601.569,636.733h-71.5a6.461,6.461,0,0,1-6.456-6.456v-.112a6.465,6.465,0,0,1,6.456-6.456h71.5a6.465,6.465,0,0,1,6.456,6.456v.1A6.461,6.461,0,0,1,601.569,636.733Zm-71.5-10.866a4.314,4.314,0,0,0-4.323,4.3v.1a4.313,4.313,0,0,0,4.309,4.309h71.518a4.313,4.313,0,0,0,4.309-4.309v-.1a4.313,4.313,0,0,0-4.309-4.309Z" transform="translate(-424.496 -516.365)"/><g transform="translate(145.688 63.854)"><rect class="f" width="33.216" height="4.882" rx="2.441"/><rect class="f" width="15.802" height="4.882" rx="2.441" transform="translate(0 7.23)"/><rect class="f" width="15.802" height="4.882" rx="2.441" transform="translate(17.414 7.23)"/></g><rect class="d" width="15.802" height="4.882" rx="2.441" transform="translate(131.261 82.441)"/><path class="h" d="M764.422,547.081l20.4,43.747.364.782a6.164,6.164,0,0,1-7.563,8.447L727.99,583.269a4.231,4.231,0,0,1,2.39-8.107l50.776,12.819-7.2,9.229L745.58,558.165a10.977,10.977,0,1,1,17.76-12.907A11.7,11.7,0,0,1,764.422,547.081Z" transform="translate(-528.136 -473.694)"/><path class="i" d="M753.1,545.628c.354.733.733,1.457,1.117,2.142q4.343,7.772,9.429,15.126c2.521,3.638,5.183,9.715,8.579,12.421,6.062,4.8,16.516-.486,20.348-6.286.938-1.423,2.827-4.008,2.535-5.829a5.585,5.585,0,0,0-1.277-2.691q-4.11-5.576-8.229-11.138c-5.785-7.874-12.586-16.375-22.223-18.051-4.245-.748-9.346.408-11.284,4.255C750.517,538.711,751.546,542.344,753.1,545.628Z" transform="translate(-541.588 -468.744)"/><path class="j" d="M753.221,551.358c.355.733.733,1.457,1.117,2.142q4.343,7.772,9.428,15.126c2.521,3.638,5.183,9.715,8.579,12.421,6.062,4.8,16.516-.486,20.348-6.286.938-1.423,2.827-4.007,2.536-5.829a5.584,5.584,0,0,0-1.278-2.691l-1.943-2.643c-1.943-2.613-3.784-6.062-6.315-8.073a79.454,79.454,0,0,0-7.6-5.562,59.524,59.524,0,0,0-17.157-7.15,12.643,12.643,0,0,0-5.445-.408c-1.525.311-3.439,1.4-3.857,3.036C751.176,547.239,752.478,549.765,753.221,551.358Z" transform="translate(-541.709 -474.474)"/><path class="h" d="M627.61,554.9l-25.7,40.177-.486.743a5.683,5.683,0,0,1-5.552,2.565l-34.124-4.678a4.231,4.231,0,0,1,.665-8.423l34.426.534-6.028,3.308,19.1-43.718a10.071,10.071,0,0,1,18.459,8.059A10.886,10.886,0,0,1,627.61,554.9Z" transform="translate(-442.222 -472.992)"/><path class="h" d="M698.133,852.5l2.38,86.921a5.081,5.081,0,0,1-10.113.816l-11.581-86.183A9.715,9.715,0,1,1,698.05,851.5C698.094,851.815,698.118,852.165,698.133,852.5Z" transform="translate(-504.224 -628.889)"/><path class="h" d="M695.57,1045.464c.583-2.22,1.384-3.852,4.095-4.994,5.343-2.244,11.1,2.065,11.376,7.937.126,2.788.486,10.648.612,13.441.233,5.066-4.309,6.524-9.841,5.78-6.373-.86-5.543-7.194-6.072-12.066C695.366,1052.264,694.749,1048.543,695.57,1045.464Z" transform="translate(-512.717 -730.37)"/><path class="e" d="M677.619,1077.8a3.842,3.842,0,0,1-3.823,3.886l-44.359.224a2.8,2.8,0,0,1-2.817-2.788h0a2.8,2.8,0,0,1,1.778-2.623l30.515-12.8,16.3,6.315a2.429,2.429,0,0,1,2.38,2.521Z" transform="translate(-477.469 -742.622)"/><path class="i" d="M626.62,1096.29h51v2.516a2.2,2.2,0,0,1-2.2,2.2h-46.6a2.2,2.2,0,0,1-2.2-2.2Z" transform="translate(-477.469 -759.386)"/><path class="h" d="M781.1,852.713l14.607,100.969a5.076,5.076,0,0,1-9.963,1.9l-23.656-99.22a9.687,9.687,0,1,1,18.847-4.488C781,852.135,781.057,852.437,781.1,852.713Z" transform="translate(-546.996 -629.87)"/><path class="h" d="M808.572,1049.705a36.728,36.728,0,0,1-1.545-5.906c-.369-2.2-2.016-6.932-.933-8.88.9-1.627,3.017-.486,4.7-1.268,3.92-1.831,6.446-6.762,9.676-3.93,3.628,3.187,3.318,12.45,6.742,20.164,1.457,3.337-1.219,7.835-4.741,9.351a9.329,9.329,0,0,1-8.112-.617,13.407,13.407,0,0,1-5.47-6.223C808.33,1051.163,809.082,1051,808.572,1049.705Z" transform="translate(-569.576 -724.712)"/><path class="k" d="M770.078,830.366c-3.4-14.762-10.031-38.86-12.848-53.744-2.982-15.724-2.395-25.833-2.395-42.144,0-14.4,4.255-28.752-1.418-42.479-4.454-10.784-16.516-20.577-29.043-19.1-8.744,1.02-15.879,8.156-18.891,16.409-3.264,8.943-1.681,18.245-1.219,27.426.515,10.3,7.947,41.619,10.516,51.6,7.69,29.85,26.056,84.356,28.208,91.735,5.076,0,25.536-4.109,30.52-6.8C777.864,850.914,771.763,837.721,770.078,830.366Z" transform="translate(-516.99 -541.581)"/><path class="h" d="M557.1,632.725a23.218,23.218,0,0,0-1.564-2.283c-.486-.636-.831-1.457-1.758-1.486a1.583,1.583,0,0,0-1.307.622c-.292.384-.413.918-.821,1.176a1.263,1.263,0,0,1-1.2-.024,6.759,6.759,0,0,1-1.02-.734,5.345,5.345,0,0,0-2.516-1.02,2.086,2.086,0,0,0-2.045.544,5.012,5.012,0,0,0-1.511,4.071,6.927,6.927,0,0,0,2.992,4.823,9.132,9.132,0,0,0,8.258,1.04c2.745-.972,4.9-3.493,2.846-6.252C557.347,633.08,557.259,632.914,557.1,632.725Z" transform="translate(-434.64 -519.045)"/><path class="h" d="M737.094,510.648a8.064,8.064,0,0,1-8.063-8.064V481.8a8.063,8.063,0,0,1,16.127,0v20.781A8.064,8.064,0,0,1,737.094,510.648Z" transform="translate(-530.133 -439.243)"/><path class="h" d="M696.174,446.985c.063,2.4.18,4.76-1.161,7.131a4.922,4.922,0,0,0-.913,2.166c-.019.792.777,1.642,1.5,1.312.112,1.564.486,3.036.685,4.6.423,3.138,1.219,6.708,4.012,8.214s11.789-.656,14.534-2.375c4.731-2.968,8.136-4.828,9.783-10.162,1.146-3.706,1.005-6.689,1.53-11.882.364-3.614-2.035-8.122-4.056-11.143-2.856-4.26-4.216-5.115-8.69-5.7s-8.656-.743-12.265,3.774a22.947,22.947,0,0,0-4.857,10.6A21.259,21.259,0,0,0,696.174,446.985Z" transform="translate(-512.17 -416.156)"/><ellipse class="h" cx="5.756" cy="4.051" rx="5.756" ry="4.051" transform="matrix(0.236, -0.972, 0.972, 0.236, 205.442, 41.634)"/><path class="e" d="M707.07,465.763a.51.51,0,0,1-.233-.053,2.875,2.875,0,0,0-1.836-.257,4.761,4.761,0,0,1-3.226-.646.539.539,0,1,1,.486-.947,3.774,3.774,0,0,0,2.6.525,3.95,3.95,0,0,1,2.429.359.534.534,0,0,1-.229,1.02Z" transform="translate(-515.925 -434.108)"/><path class="l" d="M695.8,479.977h0a3.96,3.96,0,0,1-2.852-.821,1.763,1.763,0,0,1-.617-1.457c.092-.835,1.7-2.429,1.719-2.429a3.082,3.082,0,0,0,.889-2.03,8.478,8.478,0,0,1,.554-2.06.534.534,0,1,1,.972.423,7.638,7.638,0,0,0-.486,1.812,4.075,4.075,0,0,1-1.2,2.633,7.352,7.352,0,0,0-1.394,1.792.709.709,0,0,0,.272.544,2.981,2.981,0,0,0,2.128.544.539.539,0,1,1,0,1.074Z" transform="translate(-511.261 -437.728)"/><path class="e" d="M705.13,474a1.53,1.53,0,0,1,1.992.8" transform="translate(-517.842 -439.314)"/><path class="e" d="M706.557,474.748a.544.544,0,0,1-.524-.418.681.681,0,0,0-.408-.384,1.02,1.02,0,0,0-.806-.058.543.543,0,0,1-.486-.972,2.055,2.055,0,0,1,1.754.029,1.715,1.715,0,0,1,1.01,1.127.53.53,0,0,1-.4.641A.518.518,0,0,1,706.557,474.748Z" transform="translate(-517.277 -438.726)"/><path class="e" d="M706.281,475.607c.388.369.8-.189.865-.554s-.228-1.234-.8-.937a.607.607,0,0,0-.282.364,1.2,1.2,0,0,0,.19,1.1A.106.106,0,0,0,706.281,475.607Z" transform="translate(-518.293 -439.405)"/><path class="e" d="M706.264,475.71a.647.647,0,0,1-.447-.194l-.039-.034a1.457,1.457,0,0,1-.248-1.375.879.879,0,0,1,.413-.515.69.69,0,0,1,.758.044,1.3,1.3,0,0,1,.423,1.18,1.146,1.146,0,0,1-.665.86A.546.546,0,0,1,706.264,475.71Zm.034-1.676a.239.239,0,0,0-.112.029.418.418,0,0,0-.155.219.938.938,0,0,0,.131.831l-.165.209.185-.189c.063.058.092.049.112.039a.685.685,0,0,0,.306-.452.782.782,0,0,0-.214-.656A.154.154,0,0,0,706.3,474.034Z" transform="translate(-518.01 -439.119)"/><path class="e" d="M714.14,424.839a23.084,23.084,0,0,0-15.52-1.564,23.69,23.69,0,0,0-10.546,6.048c-1.555,1.491-1.982,1.982-3.959,2.56-1.078.321-1.943-.427-2.623.753-1.117,1.9,1.37,3.935,2.735,4.969a11.6,11.6,0,0,0,12.192,1.243,12.278,12.278,0,0,0,2.774-1.836,7.774,7.774,0,0,1,2.244-1.3c-.738,3.318-2.807,10.638,3.26,9.715a21.345,21.345,0,0,1,3.565-.563,5.423,5.423,0,0,1,4.94,6.49c-.447,1.72-1.724,3.075-2.8,4.493-3.23,4.289-.428,9.472,4.857,7.432,4.566-1.763,6.917-7.257,8.214-11.576a40.042,40.042,0,0,0,1.943-8.627,10.478,10.478,0,0,0-1.307-5.261c-.253-.486-2.915-3.308-2.881-3.4.69-3.5-2.152-6.737-5.207-8.578C715.4,425.48,714.777,425.145,714.14,424.839Z" transform="translate(-505.542 -412.939)"/><path class="e" d="M767.552,405.515c-4.066-3.371-10.079-3.964-14.135-.253a8.449,8.449,0,0,0-2.463,8.583c.787,5.3,5.484,11.109,10.167,13.378,5.188,2.511,10.371-.253,11.537-5.776S771.972,409.172,767.552,405.515Z" transform="translate(-541.262 -402.723)"/><path class="m" d="M760.394,437.963,750.83,427l-2.05,1.7,9.229,11.07Z" transform="translate(-540.289 -415.207)"/><path class="f" d="M697.46,472.017c0-2.851,1.822-5.227,3.959-5.227s3.964,2.375,3.964,5.227-1.744,5.232-3.964,5.232C699.281,477.248,697.46,474.868,697.46,472.017Zm.792,0c0,2.458,1.428,4.44,3.167,4.44s3.172-1.982,3.172-4.44-1.428-4.435-3.172-4.435S698.252,469.559,698.252,472.017Z" transform="translate(-513.898 -435.669)"/><path class="f" d="M712.548,474.632l-.078-.792,8.078-1.35-.971,1.035Z" transform="translate(-521.617 -438.6)"/><path class="f" d="M685.71,468.342c0-2.851,1.175-5.232,2.555-5.232s2.555,2.38,2.555,5.232-1.122,5.227-2.555,5.227S685.71,471.193,685.71,468.342Zm.486,0c0,2.458.923,4.435,2.045,4.435s2.045-1.977,2.045-4.435-.918-4.44-2.045-4.44-2.021,1.982-2.021,4.44Z" transform="translate(-507.856 -433.777)"/><path class="n" d="M696.2,816.065c-2.3-26.8-5.232-48.746.918-74.034,2.482-10.2,7.772-19.5,10.2-29.466,2.264-9.327,3.755-19.751-1.569-27.766-7.155-10.769-22.568-12.766-34.552-8.068-6.854,2.686-9.793,6.611-12.532,13.159-5.212,12.479-5.542,26.8-5.125,40.094.777,24.569,1.691,40.366,4.28,62.662,2.774,23.86,4.537,43.8,9.229,68.681,6.465.486,22.777.9,29.6.354,4.717-.379,2.876-13.6,2.361-19.144C698.252,834.208,697.053,825.95,696.2,816.065Z" transform="translate(-491.248 -542.402)"/><path class="i" d="M724.974,581.3c-.84-6.242-1.977-12.542-2.769-18.726-.719-5.61-1.083-11.245-1.278-16.841-.175-5.1-.733-10.735-3.026-15.364-1.86-3.755-8.112-4.158-11.872-4.542l-.345-.034a111.611,111.611,0,0,0-23.1.121c-7.408.816-12,4.921-13.859,12.275a100.278,100.278,0,0,0-2.754,15.656,40.864,40.864,0,0,0,1.18,15.107c1.209,4.586,4.037,9.929,2.968,14.573-1.569,6.767-17.6,23-7.874,27.348,2.045.918,17.681,4.974,32.366,5.076,12.421.088,25.964,1.749,36-5.562C727.446,600.726,726.329,591.346,724.974,581.3Z" transform="translate(-494.186 -465.731)"/><path class="o" d="M704.553,602.875c-3.915-7.1-7.772-14.165-11.031-21.587-2.73-6.189-5.028-12.557-7.437-18.872-3.517-9.229-7.233-19.08-12.926-27.4a16.861,16.861,0,0,0-4.435,8.19,100.3,100.3,0,0,0-2.754,15.656,40.866,40.866,0,0,0,1.18,15.107c1.21,4.586,4.037,9.929,2.968,14.573-1.569,6.767-17.6,23-7.874,27.348,2.045.918,17.682,4.974,32.366,5.076,6.213.044,12.707.486,18.906,0A157.354,157.354,0,0,0,704.553,602.875Z" transform="translate(-494.186 -470.756)"/><path class="i" d="M632.184,546.2c-3.4,3.935-6.635,8.02-9.939,12.241-1.278,1.632-2.609,3.4-2.774,5.465-.2,2.5,1.345,4.78,2.978,6.689a25.664,25.664,0,0,0,8.7,6.995,14.573,14.573,0,0,0,8.481,1.2c3.007-.544,4.828-2.371,6.883-4.561a88.63,88.63,0,0,0,19.348-32.254,20.587,20.587,0,0,0,1.346-6.5c0-2.74-1.414-6.636-4.231-7.617-3.289-1.146-10.308.724-13.436,2.264a33.166,33.166,0,0,0-8.258,6.344C638.052,539.6,635.064,542.845,632.184,546.2Z" transform="translate(-473.784 -466.889)"/><rect class="f" width="26.751" height="18.779" rx="9.39" transform="translate(148.918 36.989)"/><g transform="translate(103.728 48.708)"><rect class="f" width="33.216" height="4.882" rx="2.441"/><rect class="f" width="15.802" height="4.882" rx="2.441" transform="translate(0 6.645)"/><rect class="f" width="21.781" height="4.882" rx="2.441" transform="translate(0 13.085)"/><rect class="f" width="33.216" height="4.882" rx="2.441" transform="translate(0 20.274)"/><rect class="f" width="15.802" height="4.882" rx="2.441" transform="translate(17.414 6.645)"/><rect class="f" width="15.802" height="4.882" rx="2.441" transform="translate(0 26.033)"/><rect class="f" width="15.802" height="4.882" rx="2.441" transform="translate(17.414 26.033)"/><rect class="f" width="10.512" height="4.882" rx="2.441" transform="translate(22.699 13.085)"/><path class="e" d="M559.666,483.853h-18.26a.8.8,0,0,1,0-1.593h18.26a.8.8,0,1,1,0,1.593Z" transform="translate(-536.967 -480.613)"/><path class="e" d="M546.247,503.108h-8.03a.8.8,0,0,1,0-1.6h8.049a.8.8,0,0,1,0,1.6Z" transform="translate(-535.356 -493.443)"/><path class="e" d="M582.381,503.108h-8.914a.8.8,0,0,1,0-1.6h8.914a.8.8,0,0,1,0,1.6Z" transform="translate(-553.484 -493.443)"/><path class="e" d="M551.121,522.848h-11.3a.8.8,0,0,1,0-1.6h11.3a.8.8,0,0,1,0,1.6Z" transform="translate(-536.179 -506.524)"/><path class="e" d="M582.576,522.709a.8.8,0,0,1-.8-.8v-2.225a.8.8,0,0,1,1.6,0v2.225a.8.8,0,0,1-.8.8Z" transform="translate(-558.138 -505.339)"/></g><path class="e" d="M572.7,642.534l2.273-8.792a.612.612,0,0,0-.422-.772l-1.414-.389a.617.617,0,0,0-.777.423l-2.186,8.6a.559.559,0,0,0,.379.714l1.457.4c.287.262.622.2.68-.165Z" transform="translate(-448.425 -520.912)"/><circle class="p" cx="3.128" cy="3.128" r="3.128" transform="translate(121.138 113.039)"/><circle class="q" cx="0.646" cy="0.646" r="0.646" transform="translate(123.62 115.521)"/><path class="q" d="M572.742,638.958c.053,0,.044.063,0,0l.675,1.579-2.278-.413a.157.157,0,0,1-.126-.238c.073-.1.141-.2.238-.126l1.642.311-.355-.874a.243.243,0,0,1,.1-.258C572.645,638.9,572.7,638.914,572.742,638.958Z" transform="translate(-448.86 -524.185)"/><g transform="translate(101.353 32.904)"><path class="e" d="M577.66,473.129a2.935,2.935,0,0,0,1.285.287c.756,0,1.323-.355,1.565-1.474l.114-.544h0a1.785,1.785,0,0,1-1.512.847,1.557,1.557,0,0,1-1.512-1.7,3.122,3.122,0,0,1,3.16-3.214,4.157,4.157,0,0,1,1.671.34l-.756,3.985a3.575,3.575,0,0,1-.991,2.147,2.812,2.812,0,0,1-1.792.537,3.108,3.108,0,0,1-1.512-.325Zm3.493-4.779a1.6,1.6,0,0,0-.635-.121,2.009,2.009,0,0,0-1.724,2.132c0,.507.2.983.756.983s1.149-.68,1.323-1.557Z" transform="translate(-577.38 -465.136)"/><path class="e" d="M589.708,467.5l-.635,3.327c-.106.575-.174,1.081-.234,1.512h-1.021l.1-.847h0a2.109,2.109,0,0,1-1.671.953c-.7,0-1.255-.378-1.255-1.369a3.782,3.782,0,0,1,.1-.862l.514-2.7h1.149l-.5,2.631a3.751,3.751,0,0,0-.076.665c0,.393.159.68.612.68s1.157-.627,1.346-1.633l.446-2.344Z" transform="translate(-579.236 -465.178)"/><path class="e" d="M595.589,472.009a3.85,3.85,0,0,1-1.7.378,1.807,1.807,0,0,1-1.981-2,2.934,2.934,0,0,1,2.73-3.025,1.383,1.383,0,0,1,1.557,1.361c0,1.233-1.3,1.633-3.16,1.6a1.33,1.33,0,0,0,.128.68,1.073,1.073,0,0,0,.99.5,2.928,2.928,0,0,0,1.331-.318Zm-1.1-3.78a1.512,1.512,0,0,0-1.338,1.232c1.187,0,1.951-.151,1.951-.756,0-.3-.25-.492-.612-.492Z" transform="translate(-580.92 -465.143)"/><path class="e" d="M598.112,471.2a2.694,2.694,0,0,0,1.165.325c.461,0,.756-.272.756-.59s-.159-.5-.635-.756a1.512,1.512,0,0,1-.953-1.255c0-.93.817-1.588,1.951-1.588a2.41,2.41,0,0,1,1.142.25l-.295.832a1.95,1.95,0,0,0-.9-.219c-.439,0-.756.242-.756.567s.219.454.62.665a1.565,1.565,0,0,1,1.005,1.293c0,1.066-.892,1.648-2.056,1.648a2.5,2.5,0,0,1-1.346-.348Z" transform="translate(-582.363 -465.138)"/><path class="e" d="M605.823,465.74l-.25,1.331h1.089l-.182.892h-1.058l-.393,1.951a4.412,4.412,0,0,0-.076.68.378.378,0,0,0,.423.431,2.289,2.289,0,0,0,.4,0l-.113.9a2.568,2.568,0,0,1-.756.1c-.756,0-1.149-.431-1.149-.99a4.189,4.189,0,0,1,.106-.9l.416-2.147h-.65l.166-.892h.65l.2-1.043Z" transform="translate(-583.782 -464.748)"/><path class="e" d="M615.23,471.673l.915-4.824h1.18l-.922,4.824Zm1.1-6.132a.688.688,0,0,1,.7-.711.6.6,0,0,1,.612.628.688.688,0,0,1-.711.7.575.575,0,0,1-.6-.612Z" transform="translate(-588.892 -464.526)"/><path class="e" d="M618.5,472.279l.627-3.335c.113-.575.189-1.074.242-1.512h1.021l-.1.869h0a2.056,2.056,0,0,1,1.732-.983,1.179,1.179,0,0,1,1.232,1.331,4.421,4.421,0,0,1-.09.8l-.537,2.805h-1.149l.514-2.729a3.509,3.509,0,0,0,.06-.575c0-.393-.144-.688-.6-.688s-1.195.635-1.406,1.762l-.416,2.23Z" transform="translate(-589.689 -465.133)"/><path class="e" d="M625.9,471.575l.756-3.932h-.628l.174-.892h.62l.053-.25a2.73,2.73,0,0,1,.8-1.626,1.934,1.934,0,0,1,1.27-.446,1.641,1.641,0,0,1,.711.128l-.219.907a1.273,1.273,0,0,0-.461-.076c-.544,0-.854.507-.96,1.127l-.045.234H629l-.174.892H627.79l-.756,3.932Z" transform="translate(-591.494 -464.428)"/><path class="e" d="M634.672,469.358a2.888,2.888,0,0,1-2.79,3.024,1.875,1.875,0,0,1-1.973-1.989,2.9,2.9,0,0,1,2.782-3.024,1.891,1.891,0,0,1,1.981,1.989Zm-3.576,1.021c0,.665.355,1.127.945,1.127.862,0,1.437-1.187,1.437-2.147,0-.5-.219-1.112-.923-1.112C631.633,468.246,631.1,469.479,631.1,470.379Z" transform="translate(-592.471 -465.146)"/></g><path class="e" d="M768.146,1079.73l-11.658,4.9a2.8,2.8,0,0,0-1.778,2.623h0a2.8,2.8,0,0,0,2.817,2.788l10.638-.053Z" transform="translate(-543.338 -750.87)"/><path class="e" d="M813.708,1064.009a2.535,2.535,0,0,0-2.958-2c-6.359,1.209-12.916,2.856-18.993-1.6l-13.927,10.546,1.758,9.132,32.123-6.354a3.847,3.847,0,0,0,3.026-4.518Z" transform="translate(-555.228 -740.935)"/><path class="i" d="M768.393,1096.08h-13.2v2.487a2.186,2.186,0,0,0,2.176,2.181h11.027Z" transform="translate(-543.585 -759.278)"/><path class="i" d="M780.55,1089l.879,4.586,33.517-6.456a2.181,2.181,0,0,0,1.724-2.55l-.486-2.429Z" transform="translate(-556.626 -752.115)"/><path class="e" d="M613.68,575.62l1.516,6.669.874-4.279,4.28-.874Z" transform="translate(-470.814 -491.634)"/><rect class="e" width="1.831" height="5.3" transform="translate(143.901 86.288) rotate(-45)"/><path class="f" d="M700.7,494.21a12.776,12.776,0,0,0,3.823-.86,3.264,3.264,0,0,1-3.094,3.658" transform="translate(-515.564 -449.327)"/><path class="l" d="M700.877,496.979a.539.539,0,0,1-.024-1.074,2.754,2.754,0,0,0,1.943-.972,2.792,2.792,0,0,0,.617-1.394,13.218,13.218,0,0,1-3.25.627.539.539,0,0,1-.068-1.074,12.148,12.148,0,0,0,3.658-.821.544.544,0,0,1,.734.437,3.789,3.789,0,0,1-3.609,4.255Z" transform="translate(-515.013 -448.755)"/><path class="l" d="M734.7,479.157a3.114,3.114,0,1,1,3.109-3.109A3.114,3.114,0,0,1,734.7,479.157Zm0-5.144a2.035,2.035,0,1,0,2.035,2.035,2.035,2.035,0,0,0-2.035-2.035Z" transform="translate(-531.444 -438.827)"/><path class="i" d="M359.3,928.889c-.316-3.148.486-6.582-1.117-9.312-3.425-5.868-14.408-3.269-17.283-9.429-2.429-5.231,3.74-11.439,1.613-16.8-1.234-3.1-4.712-4.527-7.694-6.033-8.787-4.425-11.828-11.454-15.253-20.679a25.124,25.124,0,0,1,21.019-1.885c7.233,2.38,10.449,6.772,13.528,13.737.971,2.181,1.749,4.634,3.7,6,3.541,2.477,8.875.053,12.542,2.336,3.434,2.142,3.5,7.141,2.429,11.041s-2.914,7.923-1.846,11.828c1.423,5.217,7.359,7.913,9.715,12.766,2.094,4.265,1.418,11.42-2.356,14.305C369.987,943.117,360.1,936.671,359.3,928.889Z" transform="translate(-319.57 -639.57)"/><path class="i" d="M470.771,906.455c-.219.223-.423.456-.622.7-1.166,1.4-2.2,2.915-4.139,3.094-1.846.151-3.7-.039-5.557.573-6.616,2.176-5.557,9.54-5.654,14.99a3.526,3.526,0,0,1-.345,1.783,2.823,2.823,0,0,1-2.288,1.146,22.924,22.924,0,0,0-2.652.121c-2.507.486-3.964,3.255-4.124,5.8s.593,5.062.767,7.612c.112,1.632.039,3.964-1.02,5.3-1.3,1.651-2.861,2.915-3.779,4.858a6.572,6.572,0,0,0,.165,6.465c1.292,1.851,3.536,2.526,5.7,2.667a18.574,18.574,0,0,0,8.379-1.593,25.558,25.558,0,0,0,6.961-3.833,12.7,12.7,0,0,0,3.094-3.886,5.251,5.251,0,0,0,.452-4.294c-.855-3.094-3.6-6.713-1.875-9.972,1.127-2.133,3.726-2.915,5.994-3.726,3.4-1.234,6.844-5.047,5.678-9.006-.384-1.292-1.263-2.487-1.176-3.833.151-2.336,3.094-3.473,5.057-3.731a10.381,10.381,0,0,0,3.648-.8c1.559-.845,2.341-2.609,3.08-4.221s1.686-3.337,3.357-3.94a3.123,3.123,0,0,0,1.341-.617c1.307-1.409-3.075-3.668-3.92-4.134a13.6,13.6,0,0,0-16.516,2.478Z" transform="translate(-381.805 -659.595)"/><path class="i" d="M372.654,994.379a14.049,14.049,0,0,0-12.26,1.783,5.909,5.909,0,0,1,1.3-5.989,9.488,9.488,0,0,1,5.693-2.774c8.039-1.175,14.033,5.105,17.487,11.614a3.3,3.3,0,0,1,.53,2.429,2.094,2.094,0,0,1-1.992,1.35,3.435,3.435,0,0,1-2.3-1.015c-1.234-1.156-1.831-2.783-3.031-3.993A13.863,13.863,0,0,0,372.654,994.379Z" transform="translate(-340.385 -703.316)"/><path class="e" d="M383.472,945.526a1.074,1.074,0,0,1-1.064-.972c-4.6-38.724-39.521-63.736-39.871-63.984a1.075,1.075,0,1,1,1.239-1.758A112.866,112.866,0,0,1,362.37,896.5c8.743,10.356,19.712,27.056,22.175,47.8a1.078,1.078,0,0,1-.942,1.195Z" transform="translate(-331.146 -647.448)"/><path class="e" d="M435.013,917.5a1.073,1.073,0,0,1-1.074-1.078c0-38.176,7.073-61.128,13-73.66,6.5-13.727,12.994-18.3,13.266-18.459a1.074,1.074,0,0,1,1.219,1.768c-.1.073-6.407,4.59-12.63,17.861-5.8,12.323-12.7,34.906-12.7,72.513A1.073,1.073,0,0,1,435.013,917.5Z" transform="translate(-378.384 -619.418)"/><path class="e" d="M464.343,965.855a1.073,1.073,0,0,1-1.073-1.078c0-23.977,22.758-45.51,23.724-46.414a1.078,1.078,0,0,1,1.457,1.574c-.233.214-23.049,21.806-23.049,44.84a1.074,1.074,0,0,1-1.059,1.078Z" transform="translate(-393.467 -667.778)"/><path class="d" d="M494.042,809.158c.486-.1-1.054,5.494-1.3,5.96a10.687,10.687,0,0,1-4.372,4.44c-4.255,2.181-1.579-4.858-.486-6.349A10.454,10.454,0,0,1,494.042,809.158Z" transform="translate(-405.178 -611.73)"/><path class="d" d="M488.87,836.3c.4.258-4.629,3.138-5.134,3.293a10.789,10.789,0,0,1-6.227.053c-4.552-1.457,2.312-4.547,4.158-4.828A10.453,10.453,0,0,1,488.87,836.3Z" transform="translate(-400.001 -624.858)"/><path class="d" d="M469,812.976c.262-.4,3.143,4.634,3.293,5.139a10.687,10.687,0,0,1,.053,6.223c-1.457,4.556-4.542-2.307-4.824-4.153A10.438,10.438,0,0,1,469,812.976Z" transform="translate(-395.587 -613.682)"/><path class="d" d="M476.328,854.994c.437.2-4.1,3.818-4.571,4.047a10.687,10.687,0,0,1-6.14,1.005c-4.726-.753,1.584-4.858,3.361-5.4A10.444,10.444,0,0,1,476.328,854.994Z" transform="translate(-393.788 -634.861)"/><path class="d" d="M453.291,836.048c.194-.442,3.813,4.09,4.041,4.571a10.686,10.686,0,0,1,1.01,6.14c-.753,4.726-4.858-1.584-5.406-3.366A10.429,10.429,0,0,1,453.291,836.048Z" transform="translate(-387.894 -625.542)"/><path class="d" d="M465.076,878.229c.457.151-3.648,4.25-4.095,4.527a10.688,10.688,0,0,1-5.994,1.686c-4.78-.224,1.039-4.989,2.745-5.747A10.468,10.468,0,0,1,465.076,878.229Z" transform="translate(-388.258 -647.016)"/><path class="d" d="M439.947,862.892c.146-.457,4.246,3.643,4.527,4.095a10.736,10.736,0,0,1,1.686,5.994c-.223,4.775-4.994-1.04-5.747-2.745A10.444,10.444,0,0,1,439.947,862.892Z" transform="translate(-381.239 -639.344)"/><path class="d" d="M458.881,906.891c.462.151-3.643,4.25-4.09,4.527A10.687,10.687,0,0,1,448.8,913.1c-4.78-.223,1.039-4.989,2.744-5.747A10.489,10.489,0,0,1,458.881,906.891Z" transform="translate(-385.075 -661.756)"/><path class="d" d="M433.751,891.553c.146-.457,4.246,3.648,4.527,4.095a10.745,10.745,0,0,1,1.671,5.994c-.223,4.78-4.994-1.04-5.746-2.745A10.443,10.443,0,0,1,433.751,891.553Z" transform="translate(-378.049 -654.083)"/><path class="d" d="M452.939,932.112c.486.092-3.08,4.678-3.488,5.013a10.751,10.751,0,0,1-5.732,2.429c-4.77.384.4-5.081,1.992-6.048a10.459,10.459,0,0,1,7.228-1.394Z" transform="translate(-382.398 -674.882)"/><path class="d" d="M425.651,921.292c.087-.486,4.678,3.075,5.008,3.488a10.721,10.721,0,0,1,2.429,5.727c.384,4.77-5.081-.394-6.048-1.992A10.444,10.444,0,0,1,425.651,921.292Z" transform="translate(-374.044 -669.371)"/><path class="d" d="M449.609,958.371c.486.087-3.08,4.678-3.488,5.008a10.72,10.72,0,0,1-5.732,2.429c-4.77.384.4-5.081,2-6.048A10.438,10.438,0,0,1,449.609,958.371Z" transform="translate(-380.685 -688.384)"/><path class="d" d="M422.322,947.552c.087-.486,4.678,3.075,5.013,3.488a10.735,10.735,0,0,1,2.429,5.727c.384,4.77-5.081-.394-6.048-1.992a10.449,10.449,0,0,1-1.394-7.223Z" transform="translate(-372.333 -682.875)"/><path class="e" d="M399.335,1014h40.993v30.923a6.8,6.8,0,0,1-6.8,6.8H406.121a6.8,6.8,0,0,1-6.8-6.8V1014Z" transform="translate(-360.581 -717.069)"/></g><g transform="translate(255.096 184.004)"><path class="d" d="M288.44,240.528h-24.4l-.049-1.806c-.132-3.531,5.884-6.722,12.657-6.722h2.076c5.423,0,9.492,2.084,9.59,4.913Z" transform="translate(-263.993 -214.136)"/><path class="r" d="M301.515,227.293h0a2.5,2.5,0,0,1-2.577-2.489l-.1-4.474h6l.074,3.53A3.49,3.49,0,0,1,301.515,227.293Z" transform="translate(-289.577 -206.396)"/><path class="r" d="M303.715,231.143h0a5.014,5.014,0,0,1-3.309-1.086,3.624,3.624,0,0,1-1.389-2.78l-.178-6.947h10.936l.135,5.483C309.856,228.717,307.124,231.068,303.715,231.143Z" transform="translate(-291.884 -215.625)"/><path class="s" d="M301.158,182.452a2.109,2.109,0,1,0-3.658-2.085c-.637-.461-1.26-1.2-2.041-1.347a3.46,3.46,0,0,0-1.866.192,2.981,2.981,0,0,0-1.432,1.155c-.125.189-.822,1.876-.509,1.984a1.859,1.859,0,0,0-1.469.094c-1.041.546-1.3,1.991-1.438,2.964a18.065,18.065,0,0,0-.2,2.91,2.438,2.438,0,0,0,.28,1.331.95.95,0,0,0,1.216.337c.6-.337.643-1.128.606-1.758a4.3,4.3,0,0,1,1.762-3.921,1.568,1.568,0,0,1,1.347-.519,1.933,1.933,0,0,1,.795.566c1.536,1.506,6.474,4.763,7.96,1.651A2.735,2.735,0,0,0,301.158,182.452Z" transform="translate(-282.746 -178.968)"/><path class="s" d="M296.936,208.633c-2.742.219-3.682-1.011-4.75-4.073-.222-.64-1.011,1.034-.913,1.7a11.287,11.287,0,0,0,1.219,4.379,4.007,4.007,0,0,0,3.244,2.243,5.621,5.621,0,0,0,5.151-2.132c1.546-2.1,2.54-5.174,2.021-7.377-.064-.269-.175-.573-.438-.61s-.451-.4-.6.387c-.044.246-.152.485-.185.731a5.1,5.1,0,0,1-1.728,3.507A4.191,4.191,0,0,1,296.936,208.633Z" transform="translate(-284.553 -194.674)"/><path class="t" d="M307.034,211.318h0a.435.435,0,0,1-.414-.445l.064-1.883a.431.431,0,0,1,.859.03l-.067,1.883A.428.428,0,0,1,307.034,211.318Z" transform="translate(-294.736 -198.625)"/><path class="t" d="M296.782,204.612a.428.428,0,0,1-.172-.819,4.474,4.474,0,0,1,2.021-.391.428.428,0,1,1-.044.856,3.614,3.614,0,0,0-1.637.317A.469.469,0,0,1,296.782,204.612Z" transform="translate(-287.931 -195.169)"/><path class="t" d="M311.31,203.818a.428.428,0,0,1-.185-.815,5.362,5.362,0,0,1,2.55-.094.425.425,0,0,1-.162.835,4.341,4.341,0,0,0-2.021.024A.415.415,0,0,1,311.31,203.818Z" transform="translate(-297.56 -194.767)"/><path class="r" d="M306.126,222.725a4.811,4.811,0,0,1-.825-.074.429.429,0,0,1,.148-.846,2.4,2.4,0,0,0,2.5-.792.434.434,0,1,1,.674.546A3.062,3.062,0,0,1,306.126,222.725Z" transform="translate(-293.625 -206.744)"/><ellipse class="u" cx="0.563" cy="0.445" rx="0.563" ry="0.445" transform="translate(9.506 10.856) rotate(-65.48)"/><ellipse class="u" cx="0.563" cy="0.445" rx="0.563" ry="0.445" transform="translate(14.096 10.665) rotate(-65.48)"/></g></g></svg>