<svg xmlns="http://www.w3.org/2000/svg" xmlns:xlink="http://www.w3.org/1999/xlink" width="98.744" height="21.645" viewBox="0 0 98.744 21.645"><defs><style>.a{fill:#ffd446;}.b{filter:url(#i);}.c{filter:url(#g);}.d{filter:url(#e);}.e{filter:url(#c);}.f{filter:url(#a);}</style><filter id="a" x="76.294" y="0" width="22.45" height="21.645" filterUnits="userSpaceOnUse"><feOffset dy="1" input="SourceAlpha"/><feGaussianBlur stdDeviation="1" result="b"/><feFlood flood-opacity="0.102"/><feComposite operator="in" in2="b"/><feComposite in="SourceGraphic"/></filter><filter id="c" x="57.221" y="0" width="22.449" height="21.645" filterUnits="userSpaceOnUse"><feOffset dy="1" input="SourceAlpha"/><feGaussianBlur stdDeviation="1" result="d"/><feFlood flood-opacity="0.102"/><feComposite operator="in" in2="d"/><feComposite in="SourceGraphic"/></filter><filter id="e" x="38.147" y="0" width="22.45" height="21.645" filterUnits="userSpaceOnUse"><feOffset dy="1" input="SourceAlpha"/><feGaussianBlur stdDeviation="1" result="f"/><feFlood flood-opacity="0.102"/><feComposite operator="in" in2="f"/><feComposite in="SourceGraphic"/></filter><filter id="g" x="19.073" y="0" width="22.45" height="21.645" filterUnits="userSpaceOnUse"><feOffset dy="1" input="SourceAlpha"/><feGaussianBlur stdDeviation="1" result="h"/><feFlood flood-opacity="0.102"/><feComposite operator="in" in2="h"/><feComposite in="SourceGraphic"/></filter><filter id="i" x="0" y="0" width="22.449" height="21.645" filterUnits="userSpaceOnUse"><feOffset dy="1" input="SourceAlpha"/><feGaussianBlur stdDeviation="1" result="j"/><feFlood flood-opacity="0.102"/><feComposite operator="in" in2="j"/><feComposite in="SourceGraphic"/></filter></defs><g transform="translate(3 2)"><g class="f" transform="matrix(1, 0, 0, 1, -3, -2)"><path class="a" d="M337.8,19.17l2.541,5.15,5.683.826-4.113,4.009.971,5.66L337.8,32.142l-5.084,2.673.971-5.66-4.112-4.009,5.683-.826Z" transform="translate(-250.28 -17.17)"/></g><g class="e" transform="matrix(1, 0, 0, 1, -3, -2)"><path class="a" d="M290.9,19.17l2.541,5.15,5.683.826-4.112,4.009.971,5.66L290.9,32.142l-5.083,2.673.97-5.66-4.112-4.009,5.683-.826Z" transform="translate(-222.45 -17.17)"/></g><g class="d" transform="matrix(1, 0, 0, 1, -3, -2)"><path class="a" d="M244,19.17l2.542,5.15,5.683.826-4.112,4.009.971,5.66L244,32.142l-5.083,2.673.971-5.66-4.113-4.009,5.684-.826Z" transform="translate(-194.63 -17.17)"/></g><g class="c" transform="matrix(1, 0, 0, 1, -3, -2)"><path class="a" d="M197.1,19.17l2.542,5.15,5.683.826-4.112,4.009.97,5.66L197.1,32.142l-5.083,2.673.971-5.66-4.113-4.009,5.683-.826Z" transform="translate(-166.8 -17.17)"/></g><g class="b" transform="matrix(1, 0, 0, 1, -3, -2)"><path class="a" d="M150.2,19.17l2.542,5.15,5.683.826-4.112,4.009.971,5.66L150.2,32.142l-5.083,2.673.971-5.66-4.112-4.009,5.683-.826Z" transform="translate(-138.97 -17.17)"/></g></g></svg>