<svg xmlns="http://www.w3.org/2000/svg" width="22.3" height="22.3" viewBox="0 0 22.3 22.3"><defs><style>.a{fill:none;}.b{fill:#b4b4d3;}</style></defs><rect class="a" width="22" height="22" transform="translate(0.2 0.2)"/><path class="b" d="M22.3,20.337l-4.628-4.628a9.6,9.6,0,0,0,1.964-5.891A9.757,9.757,0,0,0,9.818,0,9.757,9.757,0,0,0,0,9.818a9.757,9.757,0,0,0,9.818,9.818,9.6,9.6,0,0,0,5.891-1.964L20.337,22.3ZM2.805,9.818A6.945,6.945,0,0,1,9.818,2.805,6.945,6.945,0,0,1,16.83,9.818,6.945,6.945,0,0,1,9.818,16.83,6.945,6.945,0,0,1,2.805,9.818Z"/></svg>