<?xml version="1.0" encoding="UTF-8"?>
<svg xmlns="http://www.w3.org/2000/svg" width="132" height="31" viewBox="0 0 132 31" fill="none">
  <path d="M12.8773 24.2275C11.8013 25.5821 10.0593 26.508 7.66832 26.508C4.38925 26.508 2.30566 24.7591 2.30566 21.9128C2.30566 18.0378 6.01171 16.8891 9.12 16.8891H12.5528V16.4604C12.5528 14.3343 11.1353 13.3741 9.27371 13.3741C7.54877 13.3741 6.02878 14.1457 4.69666 15.3802L2.88633 13.8028C3.92812 11.5566 6.62653 9.61914 10.213 9.61914C14.4997 9.61914 17.3006 11.9339 17.3006 16.3575V26.1308H12.8773V24.2275ZM9.18831 23.5931C11.0328 23.5931 12.5357 22.3929 12.5357 20.6955V19.3409H9.80314C7.75372 19.3409 6.729 20.0782 6.729 21.467C6.74608 22.753 7.71956 23.5931 9.18831 23.5931Z" fill="#5C8EF1"></path>
  <path d="M28.4016 13.4598C26.5913 13.4598 25.4812 14.883 25.4812 16.6662V26.1479H20.665V9.99635H25.1738V12.0539C26.2839 10.545 27.9917 9.61914 30.0753 9.61914C32.4663 9.61914 34.2083 10.4764 35.1306 12.2939C36.2577 10.665 38.1364 9.61914 40.4761 9.61914C44.1309 9.61914 46.2658 11.6252 46.2658 15.9975V26.1308H41.4496V16.6662C41.4496 14.4715 40.4078 13.4598 38.7854 13.4598C36.975 13.4598 35.8649 14.883 35.8649 16.6662V26.1479H31.0488V16.6662C31.0659 14.4715 30.0241 13.4598 28.4016 13.4598Z" fill="#5C8EF1"></path>
  <path d="M48.9302 18.0383C48.9302 13.0488 52.6704 9.63672 57.7427 9.63672C63.1054 9.63672 66.2649 13.666 65.6842 18.6384H53.7463C54.1221 21.2617 56.1373 22.702 58.5625 22.702C60.5607 22.702 62.3368 21.879 63.8056 20.5416L65.7013 21.8104C65.0182 23.3878 62.2685 26.5255 57.7598 26.5255C52.7899 26.5084 48.9302 23.1478 48.9302 18.0383ZM61.2609 16.2208C61.1413 14.1633 59.9117 12.5858 57.7256 12.5858C55.8811 12.5858 54.2587 13.7346 53.7976 16.2208H61.2609Z" fill="#5C8EF1"></path>
  <path d="M76.4435 13.4598C74.5649 13.4598 73.4035 14.8487 73.4035 16.6319V26.1479H68.5874V9.99635H73.0961V12.0882C74.2404 10.5793 75.9824 9.61914 78.1343 9.61914C81.8403 9.61914 84.0606 11.5909 84.0606 15.9632V26.1308H79.2444V16.6319C79.2273 14.4372 78.1343 13.4598 76.4435 13.4598Z" fill="#5C8EF1"></path>
  <path d="M89.9015 2.33203C91.4385 2.33203 92.6682 3.61798 92.6682 5.12683C92.6682 6.63568 91.4385 7.92163 89.9015 7.92163C88.3644 7.92163 87.1006 6.63568 87.1006 5.12683C87.1006 3.61798 88.3644 2.33203 89.9015 2.33203ZM87.4763 9.9963H92.2925V26.1307H87.4763V9.9963Z" fill="#5C8EF1"></path>
  <path d="M97.0916 20.9694V13.5108H94.6323V11.2133L95.3667 10.9389C96.7159 10.2874 97.9114 9.05287 98.8678 6.87533L99.0898 5.88086H101.908V10.013H106.724V13.528H101.908V20.7465C101.908 22.2896 102.898 23.1812 104.248 23.1812C104.982 23.1812 105.99 22.9926 106.673 22.804L107.048 25.4273C106.041 26.0103 104.128 26.5075 102.266 26.5075C99.0557 26.5075 97.0916 24.2957 97.0916 20.9694Z" fill="#5C8EF1"></path>
  <path d="M111.813 2.33203C113.35 2.33203 114.58 3.61798 114.58 5.12683C114.58 6.63568 113.35 7.92163 111.813 7.92163C110.276 7.92163 109.029 6.63568 109.029 5.12683C109.029 3.61798 110.276 2.33203 111.813 2.33203ZM109.388 9.9963H114.204V26.1307H109.388V9.9963Z" fill="#5C8EF1"></path>
  <path d="M123.973 27.9999C122.436 26.1481 121.309 25.428 119.857 25.428C118.542 25.428 117.654 26.2167 117.278 26.2167C116.783 26.2167 116.424 25.5823 116.424 24.5535C116.424 22.8904 117.364 21.1758 119.003 20.4728L125.237 13.9573H121.121L119.977 15.5519C119.481 16.2549 119.123 16.5464 118.747 16.5464C118.047 16.5464 117.586 15.4662 117.586 14.0087C117.586 10.631 119.054 8.28198 121.667 8.28198C122.948 8.28198 126.586 8.53917 127.986 8.72777C128.106 8.02479 128.396 7.61328 128.823 7.61328C129.711 7.61328 130.582 9.17357 130.582 10.8024C130.582 12.1398 130.087 13.1857 128.977 14.3002L123.358 20.3185C127.133 20.5414 129.524 22.136 129.524 24.5535C129.524 26.6797 127.542 29.6459 126.108 29.6459C125.493 29.6288 124.998 29.2516 123.973 27.9999Z" fill="#5C8EF1"></path>
</svg>
