<?xml version="1.0" encoding="UTF-8"?>
<svg xmlns="http://www.w3.org/2000/svg" width="120" height="22" viewBox="0 0 120 22" fill="none">
  <g id="Lodgify-Logo">
    <g id="Grupo 16534">
      <path id="LODGIFY" d="M31.9244 4.38356H35.654V14.6488H41.9451V17.6163H31.9244V4.38356ZM50.0632 17.8806C48.7562 17.9012 47.4646 17.5956 46.3053 16.9915C45.2125 16.4232 44.2996 15.5614 43.6693 14.5031C43.0391 13.4447 42.7162 12.2316 42.7372 10.9999C42.7162 9.76802 43.039 8.55467 43.6695 7.49612C44.2999 6.43757 45.213 5.57575 46.3062 5.00744C47.4653 4.40378 48.7565 4.09851 50.0632 4.11925C51.3702 4.09837 52.6617 4.40364 53.821 5.00744C54.9142 5.57575 55.8273 6.43757 56.4578 7.49612C57.0882 8.55467 57.4111 9.76802 57.3901 10.9999C57.4109 12.2317 57.088 13.4448 56.4575 14.5032C55.8271 15.5616 54.9141 16.4233 53.821 16.9915C52.6618 17.5956 51.3702 17.9012 50.0632 17.8806ZM50.0632 14.7801C50.6975 14.7883 51.3223 14.625 51.8713 14.3072C52.4135 13.9901 52.857 13.5288 53.1525 12.9745C53.4747 12.3673 53.6368 11.688 53.6237 11.0008C53.6368 10.3135 53.4747 9.63425 53.1525 9.02702C52.857 8.47279 52.4135 8.01144 51.8713 7.69431C51.3191 7.38445 50.6964 7.22172 50.0632 7.22172C49.4299 7.22172 48.8073 7.38445 48.2551 7.69431C47.7129 8.01144 47.2694 8.47279 46.9738 9.02702C46.6517 9.63425 46.4896 10.3135 46.5027 11.0008C46.4896 11.688 46.6517 12.3673 46.9738 12.9745C47.2694 13.5288 47.7129 13.9901 48.2551 14.3072C48.804 14.6253 49.4288 14.7881 50.0632 14.7801ZM59.3493 4.38356H65.5837C66.9099 4.35801 68.2243 4.63598 69.4265 5.19623C70.498 5.69697 71.401 6.49801 72.0259 7.50208C72.6558 8.55804 72.9742 9.77069 72.9441 10.9999C72.9725 12.2293 72.6523 13.4417 72.0207 14.4969C71.3971 15.5006 70.4956 16.3019 69.4257 16.8036C68.2234 17.3638 66.909 17.6418 65.5829 17.6163H59.3493V4.38356ZM65.4336 14.629C66.4321 14.6769 67.4096 14.3309 68.1556 13.6653C68.5062 13.3193 68.7793 12.9027 68.9568 12.4432C69.1343 11.9837 69.2122 11.4918 69.1854 10.9999C69.2122 10.508 69.1343 10.0161 68.9568 9.5566C68.7793 9.0971 68.5062 8.68055 68.1556 8.33449C67.4096 7.66896 66.4321 7.3229 65.4336 7.37079H63.0753V14.6299L65.4336 14.629ZM83.7414 10.7159H87.0375V16.1977C86.2477 16.7573 85.3688 17.1791 84.4382 17.4455C83.4849 17.7316 82.4952 17.8781 81.4999 17.8806C80.2031 17.9008 78.9216 17.5989 77.7703 17.0018C76.6937 16.4425 75.7937 15.5948 75.171 14.5535C74.5345 13.4787 74.2078 12.2488 74.227 10.9999C74.2078 9.75098 74.5345 8.52108 75.171 7.44631C75.7975 6.40136 76.7046 5.55312 77.7892 4.998C78.9602 4.39938 80.2604 4.09762 81.5754 4.11925C82.7112 4.10119 83.8389 4.31342 84.8904 4.74313C85.839 5.13647 86.6788 5.75256 87.3387 6.53924L84.9651 8.69406C84.5711 8.22978 84.0804 7.85726 83.5274 7.60259C82.9743 7.34792 82.3722 7.21725 81.7633 7.21975C81.262 7.19741 80.7614 7.27717 80.2918 7.45419C79.8223 7.63121 79.3936 7.9018 79.0318 8.24954C78.6807 8.6131 78.4077 9.04465 78.2296 9.51764C78.0515 9.99063 77.972 10.4951 77.996 10.9999C77.9841 11.6816 78.1462 12.355 78.4672 12.9565C78.7708 13.5195 79.2279 13.9849 79.7853 14.2986C80.3784 14.6273 81.0476 14.7936 81.7256 14.7809C82.4213 14.7853 83.1094 14.6367 83.7414 14.3458V10.7159ZM89.4112 4.38356H93.1407V17.6163H89.4103L89.4112 4.38356ZM99.5262 7.27553V10.1872H105.346V13.0792H99.5254V17.6163H95.7958V4.38356H106.137V7.27553H99.5262ZM114.951 12.8724V17.6171H111.222V12.8115L106.193 4.38013H110.13L113.257 9.63545L116.384 4.38013H120L114.951 12.8724Z" fill="#333333"></path>
    </g>
    <g id="Grupo 16535">
      <path id="Fill-1" fill-rule="evenodd" clip-rule="evenodd" d="M0 0.736328V21.2633H21.8649V10.9998H10.932V0.736328H0Z" fill="#FF3B59"></path>
      <path id="Fill-2" fill-rule="evenodd" clip-rule="evenodd" d="M13.8804 8.71714H21.8612V0.736328H13.8804V8.71714Z" fill="#03EBC3"></path>
    </g>
  </g>
</svg>
