<?xml version="1.0" encoding="UTF-8"?>
<svg xmlns="http://www.w3.org/2000/svg" width="120" height="28" viewBox="0 0 120 28" fill="none">
  <g id="logo smoobu the vacation rental management software_new">
    <path id="Trazado 30714" d="M34.5502 18.1229L36.0943 16.2564C36.488 16.7127 36.9707 17.0836 37.513 17.3465C38.0552 17.6094 38.6455 17.7587 39.2475 17.7853C40.0195 17.7853 40.6769 17.4897 40.6769 16.8565C40.6769 16.3316 40.2004 16.1329 39.5188 15.8373L38.3187 15.3366C36.4077 14.5645 35.2611 13.6804 35.2611 11.9057C35.2611 9.74748 37.0103 8.54098 39.3914 8.54098C40.1465 8.51187 40.8988 8.64718 41.5963 8.93756C42.2939 9.22793 42.92 9.66642 43.4314 10.2227L41.8872 12.1095C41.2142 11.4452 40.3127 11.0632 39.3672 11.0419C38.6372 11.0419 38.1671 11.289 38.1671 11.8381C38.1671 12.2726 38.5289 12.4955 39.3494 12.8395L40.4412 13.2918C42.4618 14.1123 43.5944 14.9735 43.5944 16.7227C43.5944 19.0376 41.6643 20.3104 39.2105 20.3104C38.3174 20.3313 37.4316 20.1447 36.6229 19.7651C35.8142 19.3855 35.1047 18.8233 34.5502 18.1229Z" fill="#3B4AFF"></path>
    <path id="Trazado 30715" d="M63.5748 13.0585V20.0287H60.5172V13.4866C60.5486 13.2084 60.52 12.9267 60.4333 12.6605C60.3467 12.3943 60.2039 12.1498 60.0147 11.9434C59.8255 11.7371 59.5942 11.5737 59.3365 11.4643C59.0788 11.3549 58.8007 11.302 58.5208 11.3093C58.2427 11.2983 57.9654 11.3457 57.7068 11.4484C57.4481 11.5511 57.2138 11.7068 57.019 11.9056C56.8242 12.1043 56.6732 12.3417 56.5758 12.6024C56.4783 12.863 56.4365 13.1412 56.4531 13.4191V20.0274H53.3827V13.4866C53.4141 13.2084 53.3855 12.9267 53.2988 12.6605C53.2121 12.3943 53.0694 12.1498 52.8802 11.9434C52.691 11.7371 52.4597 11.5737 52.202 11.4643C51.9443 11.3549 51.6662 11.302 51.3863 11.3093C51.1024 11.2983 50.8194 11.3481 50.5561 11.4551C50.2929 11.5622 50.0556 11.7242 49.8599 11.9302C49.6643 12.1362 49.5148 12.3816 49.4214 12.65C49.3281 12.9184 49.293 13.2036 49.3186 13.4866V20.0287H46.2482V8.78926H49.0638V9.79064C49.4808 9.3776 49.9776 9.05387 50.5239 8.83921C51.0702 8.62455 51.6545 8.52345 52.2412 8.5421C52.8887 8.50591 53.5349 8.63467 54.1192 8.91632C54.7034 9.19797 55.2066 9.6233 55.5816 10.1525C56.0517 9.62864 56.63 9.21329 57.2766 8.93523C57.9231 8.65716 58.6224 8.52302 59.326 8.5421C62.0091 8.5421 63.5774 10.3576 63.5774 13.0585" fill="#3B4AFF"></path>
    <path id="Trazado 30716" d="M66.212 14.3962C66.2577 12.8273 66.9129 11.338 68.0388 10.2444C69.1647 9.1508 70.6724 8.53906 72.242 8.53906C73.8115 8.53906 75.3193 9.1508 76.4451 10.2444C77.571 11.338 78.2263 12.8273 78.2719 14.3962C78.2395 15.974 77.5899 17.4762 76.4626 18.5806C75.3353 19.6849 73.8201 20.3035 72.242 20.3035C70.6639 20.3035 69.1486 19.6849 68.0213 18.5806C66.894 17.4762 66.2445 15.974 66.212 14.3962ZM75.1302 14.4204C75.1536 14.0243 75.0959 13.6276 74.9605 13.2546C74.825 12.8817 74.6148 12.5403 74.3426 12.2516C74.0705 11.9628 73.7422 11.7328 73.3779 11.5755C73.0135 11.4182 72.6209 11.3371 72.2241 11.3371C71.8273 11.3371 71.4347 11.4182 71.0704 11.5755C70.7061 11.7328 70.3778 11.9628 70.1057 12.2516C69.8335 12.5403 69.6233 12.8817 69.4878 13.2546C69.3524 13.6276 69.2946 14.0243 69.3181 14.4204C69.295 14.8146 69.3533 15.2093 69.4893 15.58C69.6253 15.9506 69.8362 16.2893 70.1088 16.575C70.3814 16.8606 70.7099 17.087 71.0739 17.2402C71.4378 17.3934 71.8293 17.47 72.2241 17.4653C72.6176 17.4654 73.0071 17.3857 73.3688 17.2309C73.7306 17.0761 74.0572 16.8496 74.3289 16.5649C74.6006 16.2802 74.8117 15.9434 74.9494 15.5748C75.0871 15.2062 75.1486 14.8135 75.1302 14.4204Z" fill="#3B4AFF"></path>
    <path id="Trazado 30717" d="M80.3588 14.3962C80.4044 12.8273 81.0597 11.338 82.1855 10.2444C83.3114 9.1508 84.8191 8.53906 86.3887 8.53906C87.9583 8.53906 89.466 9.1508 90.5919 10.2444C91.7177 11.338 92.373 12.8273 92.4186 14.3962C92.3862 15.974 91.7367 17.4762 90.6094 18.5806C89.4821 19.6849 87.9668 20.3035 86.3887 20.3035C84.8106 20.3035 83.2953 19.6849 82.168 18.5806C81.0407 17.4762 80.3912 15.974 80.3588 14.3962ZM89.2769 14.4204C89.3004 14.0243 89.2426 13.6276 89.1072 13.2546C88.9717 12.8817 88.7615 12.5403 88.4893 12.2516C88.2172 11.9628 87.8889 11.7328 87.5246 11.5755C87.1603 11.4182 86.7677 11.3371 86.3709 11.3371C85.9741 11.3371 85.5815 11.4182 85.2171 11.5755C84.8528 11.7328 84.5245 11.9628 84.2524 12.2516C83.9802 12.5403 83.77 12.8817 83.6345 13.2546C83.4991 13.6276 83.4413 14.0243 83.4648 14.4204C83.4417 14.8146 83.5 15.2093 83.636 15.58C83.7721 15.9506 83.983 16.2893 84.2556 16.575C84.5282 16.8606 84.8567 17.087 85.2206 17.2402C85.5845 17.3934 85.976 17.47 86.3709 17.4653C86.7643 17.4654 87.1538 17.3857 87.5155 17.2309C87.8773 17.0761 88.2039 16.8496 88.4756 16.5649C88.7473 16.2802 88.9584 15.9434 89.0961 15.5748C89.2338 15.2062 89.2953 14.8135 89.2769 14.4204Z" fill="#3B4AFF"></path>
    <path id="Trazado 30718" d="M107.023 14.4203C107.076 15.1699 106.974 15.9225 106.725 16.6313C106.475 17.3402 106.083 17.9903 105.572 18.5415C105.061 19.0926 104.443 19.533 103.755 19.8355C103.067 20.138 102.324 20.296 101.572 20.2999C100.882 20.3286 100.195 20.1935 99.5676 19.9056C98.9398 19.6178 98.3891 19.1853 97.9606 18.6437V20.0311H95.145V3H98.2027V9.8797C98.6367 9.43279 99.1602 9.08251 99.7389 8.85177C100.318 8.62104 100.938 8.51504 101.561 8.54071C102.313 8.54335 103.057 8.70052 103.746 9.00247C104.434 9.30442 105.054 9.74471 105.566 10.296C106.077 10.8473 106.47 11.4979 106.72 12.2074C106.97 12.9168 107.071 13.6701 107.018 14.4203M103.906 14.3961C103.933 13.9991 103.878 13.6008 103.744 13.2261C103.61 12.8515 103.4 12.5085 103.127 12.2188C102.854 11.929 102.524 11.6987 102.158 11.5422C101.793 11.3856 101.398 11.3063 101 11.3092C100.603 11.3043 100.208 11.3837 99.8434 11.5421C99.4785 11.7005 99.1512 11.9342 98.883 12.228C98.6148 12.5218 98.4118 12.8691 98.2873 13.2469C98.1628 13.6247 98.1196 14.0246 98.1606 14.4203C98.1191 14.8149 98.1621 15.2138 98.2867 15.5905C98.4113 15.9673 98.6147 16.3131 98.8833 16.6051C99.152 16.8972 99.4797 17.1286 99.8447 17.2842C100.21 17.4397 100.604 17.5158 101 17.5073C101.4 17.5092 101.796 17.4284 102.163 17.2701C102.53 17.1117 102.861 16.8791 103.134 16.587C103.406 16.2948 103.616 15.9493 103.749 15.5723C103.882 15.1953 103.936 14.7948 103.906 14.3961Z" fill="#3B4AFF"></path>
    <path id="Trazado 30719" d="M109.657 15.0827V8.78906H112.715V15.3375C112.715 15.8981 112.938 16.4357 113.334 16.8321C113.73 17.2284 114.268 17.4511 114.829 17.4511C115.389 17.4511 115.927 17.2284 116.323 16.8321C116.72 16.4357 116.942 15.8981 116.942 15.3375V8.78906H120V15.0827C120 16.4556 119.455 17.7722 118.484 18.7429C117.513 19.7137 116.196 20.2591 114.824 20.2591C113.451 20.2591 112.134 19.7137 111.163 18.7429C110.193 17.7722 109.647 16.4556 109.647 15.0827" fill="#3B4AFF"></path>
    <path id="Trazado 30720" fill-rule="evenodd" clip-rule="evenodd" d="M11.698 27.5684L-6.08587e-06 15.8678V4.52906C-0.00407993 3.98965 0.0992017 3.45482 0.303825 2.95571C0.508448 2.4566 0.810323 2.00319 1.19187 1.62188C1.57342 1.24057 2.02702 0.938975 2.52625 0.734662C3.02549 0.53035 3.56038 0.427401 4.09979 0.43181H23.033C23.5729 0.426886 24.1084 0.52954 24.6083 0.733782C25.1081 0.938025 25.5623 1.23977 25.9443 1.6214C26.3263 2.00304 26.6285 2.45692 26.8332 2.95658C27.0379 3.45624 27.141 3.99166 27.1366 4.5316V23.4648C27.1363 24.5531 26.7038 25.5966 25.9343 26.3661C25.1648 27.1356 24.1212 27.5681 23.033 27.5684" fill="#3B4AFF"></path>
    <path id="Trazado 30721" d="M17.426 14.6628C16.6104 13.9077 15.645 13.3325 14.5926 12.9748L13.3262 12.432C12.9409 12.3026 12.5755 12.1199 12.2407 11.8893C12.1514 11.8153 12.0784 11.7235 12.0264 11.6197C11.9745 11.516 11.9446 11.4026 11.9388 11.2867C11.9388 10.6841 12.4217 10.3821 13.3262 10.3821C14.4396 10.3978 15.5016 10.853 16.2807 11.6485L18.0898 9.48268C17.4947 8.83609 16.7652 8.32774 15.9526 7.9934C15.1399 7.65905 14.2639 7.50683 13.3861 7.54744C12.1406 7.49796 10.9128 7.85577 9.88891 8.56666C9.45498 8.89775 9.10769 9.329 8.87672 9.82354C8.64576 10.3181 8.538 10.8612 8.56265 11.4064C8.54559 12.2499 8.84721 13.0688 9.40733 13.6997C10.1855 14.4438 11.1095 15.0186 12.121 15.3878L13.5084 15.9904C13.8825 16.1455 14.2452 16.3269 14.5939 16.5331C14.6881 16.6026 14.7646 16.6935 14.8171 16.7982C14.8696 16.9029 14.8966 17.0186 14.8958 17.1357C14.8968 17.2984 14.852 17.4581 14.7666 17.5967C14.6813 17.7352 14.5587 17.8469 14.413 17.9192C14.0448 18.1253 13.6283 18.2295 13.2065 18.2212C12.3787 18.2069 11.5688 17.9782 10.8559 17.5574C11.4092 18.2619 11.707 19.1333 11.7006 20.029V21.0482C12.1802 21.1219 12.664 21.1658 13.1491 21.1795C14.4431 21.2362 15.7183 20.8536 16.7673 20.094C17.2421 19.7392 17.6224 19.2731 17.8748 18.7368C18.1271 18.2006 18.2438 17.6105 18.2146 17.0185C18.2628 16.5931 18.2176 16.1623 18.0823 15.7561C17.947 15.35 17.7248 14.9782 17.4311 14.6667" fill="white"></path>
    <path id="Trazado 30722" d="M10.8534 17.4954C10.472 16.9922 9.97995 16.5835 9.41523 16.3012C8.85051 16.0188 8.22834 15.8703 7.59698 15.8672H0L11.698 27.5652V19.967C11.7144 19.0697 11.4155 18.195 10.8534 17.4954Z" fill="#46FE9A"></path>
  </g>
</svg>
