<?xml version="1.0" encoding="UTF-8"?>
<svg xmlns="http://www.w3.org/2000/svg" width="120" height="22" viewBox="0 0 120 22" fill="none">
  <g id="cloudbeds-color.svg">
    <path id="Vector" d="M24.1147 10.7333C24.2362 10.349 24.2962 9.94801 24.2926 9.54505C24.2938 8.89746 24.1673 8.256 23.92 7.65746C23.6727 7.05893 23.3098 6.51511 22.8519 6.05719C22.394 5.59927 21.8501 5.23629 21.2516 4.98905C20.6531 4.74182 20.0117 4.61521 19.364 4.61648C18.7776 4.62326 18.196 4.72344 17.6411 4.91327C17.0405 3.7974 16.1484 2.86532 15.0599 2.21628C13.9715 1.56724 12.7273 1.22554 11.4601 1.22755C9.63281 1.22897 7.88078 1.95548 6.58869 3.24757C5.2966 4.53966 4.57008 6.29169 4.56867 8.11898C4.57879 8.55687 4.61853 8.99359 4.6876 9.42612C3.89704 9.54596 3.16217 9.90513 2.58193 10.4553C2.00168 11.0054 1.6039 11.7201 1.44212 12.5031C1.28036 13.2862 1.36237 14.1 1.67712 14.8351C1.99187 15.5701 2.52424 16.191 3.2026 16.6143C4.25754 16.0521 5.37386 15.6135 6.52938 15.3072C6.52938 15.3072 5.10331 10.4354 6.76724 10.0786C8.78688 9.72184 8.9101 10.2565 13.0051 9.84077C15.7366 9.5613 18.4929 9.64127 21.2036 10.0786C21.9761 10.0786 21.9161 11.6857 21.7972 12.8707C21.7094 13.6419 21.5296 14.3999 21.2615 15.1282C22.672 15.4873 24.0302 16.0274 25.3018 16.7354C25.7717 16.4499 26.1603 16.0488 26.4308 15.5703C26.7013 15.0917 26.8446 14.5519 26.8468 14.0022C26.9086 13.2084 26.6573 12.422 26.1467 11.8112C25.6361 11.2003 24.9068 10.8134 24.1147 10.7333Z" fill="#1B75BB"></path>
    <path id="Vector_2" d="M14.1964 17.921C19.8996 17.921 25.0094 18.6935 28.3394 20.7732C26.1965 17.921 20.6689 15.9014 14.1964 15.9014C7.72395 15.9014 2.19645 17.8621 0.0535889 20.7132C3.38038 18.6935 8.49002 17.921 14.1964 17.921Z" fill="#1B75BB"></path>
    <path id="Vector_3" d="M94.4562 14.5357C94.0967 15.0531 93.604 15.4637 93.0301 15.724C92.506 15.986 91.902 16.0397 91.3398 15.8743C90.7776 15.709 90.299 15.3366 90.0001 14.8325L96.4758 12.154C96.4169 11.9161 96.298 11.6782 96.238 11.4415C95.1087 8.82715 92.7333 6.98536 89.6433 8.29251C89.0227 8.55951 88.4622 8.94892 87.9955 9.43747C87.5287 9.92601 87.1652 10.5036 86.9267 11.1359C86.6883 11.768 86.5798 12.4418 86.6077 13.117C86.6356 13.7921 86.7993 14.4546 87.0891 15.065V15.124C87.3333 15.7722 87.7088 16.3632 88.1918 16.8597C88.6749 17.3563 89.2552 17.7479 89.8965 18.01C90.5378 18.272 91.2263 18.3989 91.9188 18.3828C92.6114 18.3666 93.2933 18.2077 93.9216 17.9161C94.7733 17.5654 95.5275 17.0141 96.1201 16.309L94.4562 14.5357ZM90.4758 10.3775C91.004 10.1676 91.5936 10.1746 92.1164 10.3971C92.6393 10.6196 93.0532 11.0397 93.268 11.5657L89.2876 13.2297C89.0835 12.6921 89.0929 12.0968 89.3139 11.5661C89.5348 11.0353 89.9506 10.6092 90.4758 10.3754V10.3775Z" fill="#3C3C3D"></path>
    <path id="Vector_4" d="M28.5696 11.6236C28.5437 10.7499 28.6936 9.87985 29.0106 9.06526C29.3276 8.25066 29.8052 7.50814 30.4149 6.88182C31.0246 6.2555 31.754 5.75819 32.5599 5.41945C33.3657 5.0807 34.2313 4.90745 35.1054 4.90999C36.0465 4.87836 36.9835 5.04747 37.8542 5.40604C38.7249 5.76462 39.5091 6.30445 40.155 6.98964L39.1446 8.06106C38.616 7.50413 37.9805 7.05933 37.2763 6.75321C36.572 6.4471 35.8134 6.28591 35.0454 6.27928C34.3669 6.28704 33.697 6.43134 33.0754 6.70358C32.454 6.97581 31.8936 7.37041 31.4279 7.86385C30.9621 8.35728 30.6005 8.93944 30.3646 9.57563C30.1287 10.2118 30.0233 10.889 30.0546 11.5668V11.6257C30.0226 12.3065 30.1272 12.9869 30.3621 13.6267C30.5972 14.2665 30.9579 14.8528 31.423 15.3511C31.8881 15.8493 32.4481 16.2494 33.0703 16.5278C33.6925 16.8062 34.364 16.9573 35.0454 16.9722C35.8294 16.9771 36.6056 16.8154 37.3224 16.4979C38.0393 16.1805 38.6805 15.7143 39.2036 15.1304L40.1539 16.0807C39.5045 16.8054 38.707 17.3821 37.8152 17.7716C36.9235 18.161 35.9584 18.3543 34.9854 18.3382C34.122 18.3227 33.2702 18.1362 32.4793 17.7896C31.6885 17.4429 30.974 16.943 30.3775 16.3186C29.7809 15.6943 29.3141 14.9579 29.0037 14.1521C28.6934 13.3461 28.546 12.4867 28.5696 11.6236Z" fill="#3C3C3D"></path>
    <path id="Vector_5" d="M41.4022 4.55469H42.8283V18.0997H41.4022V4.55469Z" fill="#3C3C3D"></path>
    <path id="Vector_6" d="M43.8975 13.2881C43.8902 12.628 44.014 11.9729 44.2615 11.3608C44.5091 10.7488 44.8754 10.1919 45.3396 9.7223C45.8036 9.25272 46.3562 8.8798 46.9653 8.62512C47.5745 8.37043 48.228 8.23903 48.8882 8.2385C49.5453 8.23235 50.1971 8.35724 50.8053 8.60587C51.4136 8.85449 51.9662 9.22188 52.4309 9.68653C52.8956 10.1512 53.263 10.7038 53.5116 11.3121C53.7602 11.9204 53.8851 12.5721 53.8789 13.2292V13.2881C53.8598 14.599 53.3256 15.8496 52.3918 16.7697C51.4581 17.69 50.1997 18.2057 48.8888 18.2057C47.5778 18.2057 46.3195 17.69 45.3857 16.7697C44.452 15.8496 43.9167 14.599 43.8975 13.2881ZM52.3929 13.2881C52.4096 12.8069 52.3301 12.3271 52.159 11.877C51.9878 11.4269 51.7286 11.0156 51.3963 10.667C51.0641 10.3184 50.6656 10.0396 50.2243 9.8471C49.783 9.65454 49.3076 9.55206 48.8261 9.54564C48.3509 9.5467 47.8808 9.64406 47.4443 9.83184C47.0078 10.0196 46.6138 10.2939 46.2863 10.6382C45.9587 10.9825 45.7044 11.3896 45.5385 11.8349C45.3727 12.2802 45.2988 12.7545 45.3214 13.2292V13.2881C45.3214 14.2259 45.694 15.1252 46.357 15.7883C47.0201 16.4514 47.9194 16.8238 48.8572 16.8238C49.7949 16.8238 50.6942 16.4514 51.3572 15.7883C52.0203 15.1252 52.3929 14.2259 52.3929 13.2881Z" fill="#3C3C3D"></path>
    <path id="Vector_7" d="M55.0072 14.4176V8.47656H56.4333V14.0608C56.3829 14.4351 56.4156 14.8159 56.529 15.1761C56.6424 15.5362 56.8338 15.8671 57.0894 16.1449C57.3452 16.4228 57.6589 16.6409 58.0085 16.7839C58.358 16.9268 58.7347 16.991 59.1118 16.9719C59.5029 16.9763 59.8906 16.8996 60.2505 16.7465C60.6103 16.5935 60.9346 16.3674 61.2026 16.0826C61.4707 15.7978 61.6767 15.4606 61.8078 15.0921C61.9388 14.7236 61.992 14.332 61.964 13.9419V8.47656H63.3901V18.0412H61.964V16.3783C61.637 16.9524 61.1603 17.4269 60.5848 17.7513C60.0093 18.0756 59.3566 18.2377 58.6961 18.2201C56.3143 18.2791 55.0072 16.6751 55.0072 14.4176Z" fill="#3C3C3D"></path>
    <path id="Vector_8" d="M64.3351 13.2879C64.2934 12.6565 64.3801 12.0233 64.59 11.4263C64.7998 10.8294 65.1284 10.2812 65.556 9.81475C65.9835 9.34832 66.5012 8.97339 67.0777 8.71256C67.6542 8.45173 68.2776 8.31043 68.9101 8.29719C69.6442 8.29859 70.366 8.48424 71.0096 8.8371C71.6532 9.18997 72.1978 9.69877 72.5937 10.3168V4.55469H74.0198V18.0997H72.5937V16.199C72.2155 16.8425 71.6779 17.3778 71.0327 17.7531C70.3875 18.1284 69.6565 18.3311 68.9101 18.3418C68.2758 18.3164 67.653 18.1648 67.0781 17.8959C66.5031 17.627 65.9876 17.246 65.5616 16.7754C65.1356 16.3048 64.8076 15.754 64.5971 15.1552C64.3866 14.5564 64.2974 13.9215 64.3351 13.2879ZM72.5926 13.2879C72.6172 12.8148 72.5469 12.3415 72.3862 11.8958C72.2253 11.4502 71.9772 11.041 71.6563 10.6925C71.3354 10.344 70.9482 10.063 70.5173 9.86599C70.0863 9.66901 69.6205 9.56003 69.1469 9.5454C68.676 9.54466 68.2102 9.64194 67.7789 9.83104C67.3477 10.0202 66.9604 10.297 66.642 10.6438C66.3236 10.9907 66.0808 11.4 65.9292 11.8459C65.7775 12.2917 65.7204 12.7642 65.7612 13.2333V13.2922C65.7263 13.7599 65.7878 14.2298 65.9417 14.6728C66.0957 15.1159 66.3389 15.5226 66.6564 15.8679C66.9738 16.2131 67.3587 16.4897 67.7873 16.6802C68.2158 16.8708 68.679 16.9714 69.148 16.9758C69.6174 16.9631 70.0796 16.8573 70.5076 16.6644C70.9358 16.4715 71.3213 16.1955 71.6418 15.8525C71.9623 15.5093 72.2114 15.1059 72.3747 14.6657C72.5379 14.2254 72.612 13.7571 72.5926 13.2879Z" fill="#3C3C3D"></path>
    <path id="Vector_9" d="M78.3559 16.7336V18.0408H75.5637V4.55469H78.3559V9.5454C78.6865 9.03196 79.1453 8.61364 79.687 8.33179C80.2287 8.04994 80.8346 7.91429 81.4448 7.93826C83.7623 7.93826 85.9598 9.78004 85.9598 13.0479V13.1068C85.9598 16.4336 83.8169 18.2165 81.4448 18.2165C80.8488 18.2355 80.2568 18.1107 79.7192 17.8526C79.1814 17.5945 78.7138 17.2106 78.3559 16.7336ZM83.1709 13.11C83.1995 12.7658 83.1586 12.4192 83.051 12.091C82.9432 11.7627 82.7707 11.4594 82.5435 11.199C82.3165 10.9387 82.0394 10.7266 81.7288 10.5752C81.4183 10.4239 81.0805 10.3364 80.7355 10.3179C80.3934 10.3291 80.057 10.4097 79.7469 10.5548C79.4368 10.7 79.1595 10.9067 78.9318 11.1623C78.704 11.4179 78.5305 11.7171 78.422 12.0418C78.3134 12.3666 78.272 12.7099 78.3002 13.0511V13.11C78.2668 13.4523 78.3048 13.7977 78.4114 14.1246C78.5181 14.4515 78.6912 14.7528 78.92 15.0095C79.1486 15.2662 79.428 15.4728 79.7405 15.6162C80.053 15.7598 80.3918 15.837 80.7355 15.8433C81.0777 15.8321 81.414 15.7514 81.7241 15.6064C82.0342 15.4612 82.3116 15.2545 82.5394 14.9989C82.767 14.7432 82.9405 14.444 83.0491 14.1193C83.1577 13.7946 83.1991 13.4513 83.1709 13.11Z" fill="#3C3C3D"></path>
    <path id="Vector_10" d="M96.9505 13.11C96.9505 9.78326 99.0934 7.94147 101.466 7.94147C102.062 7.92216 102.655 8.04704 103.193 8.30556C103.732 8.56407 104.2 8.94857 104.558 9.42647V4.55469H107.343V18.0997H104.558V16.6747C104.227 17.1881 103.768 17.6064 103.227 17.8883C102.685 18.1702 102.079 18.3058 101.469 18.2818C99.1491 18.2186 96.9505 16.4368 96.9505 13.11ZM104.614 13.11C104.648 12.7647 104.611 12.4161 104.505 12.0857C104.4 11.7552 104.227 11.4499 103.999 11.1883C103.771 10.9269 103.492 10.7148 103.179 10.5651C102.866 10.4154 102.526 10.3313 102.179 10.3179C101.835 10.3241 101.496 10.4014 101.184 10.5449C100.872 10.6884 100.592 10.895 100.363 11.1517C100.135 11.4084 99.9615 11.7097 99.8548 12.0366C99.7482 12.3635 99.7104 12.7089 99.7437 13.0511V13.11C99.7049 13.453 99.739 13.8004 99.8437 14.1293C99.9484 14.4582 100.121 14.7612 100.351 15.0187C100.581 15.2762 100.863 15.4821 101.178 15.6231C101.493 15.7641 101.834 15.837 102.18 15.837C102.525 15.837 102.866 15.7641 103.181 15.6231C103.496 15.4821 103.778 15.2762 104.008 15.0187C104.238 14.7612 104.411 14.4582 104.515 14.1293C104.62 13.8004 104.653 13.453 104.614 13.11Z" fill="#3C3C3D"></path>
    <path id="Vector_11" d="M108.298 16.7333L109.486 14.8915C110.39 15.599 111.489 16.0136 112.635 16.0797C113.466 16.0797 113.823 15.7829 113.823 15.3672V15.3072C113.823 14.7136 112.873 14.4758 111.744 14.1779C110.377 13.7622 108.774 13.1065 108.774 11.2079V11.149C108.774 9.12929 110.381 8 112.397 8C113.707 8.01785 114.986 8.40965 116.081 9.12929L115.009 11.09C114.213 10.5486 113.291 10.2213 112.331 10.1396C111.677 10.1396 111.32 10.4364 111.32 10.7932V10.8521C111.32 11.3879 112.271 11.6836 113.34 12.0404C114.706 12.5161 116.37 13.1697 116.37 15.0104V15.0715C116.37 17.27 114.706 18.2793 112.567 18.2793C111.021 18.205 109.533 17.6662 108.298 16.7333Z" fill="#3C3C3D"></path>
    <path id="Vector_12" d="M117.328 17.3258C117.327 17.1929 117.353 17.061 117.403 16.9379C117.453 16.8147 117.527 16.7029 117.621 16.6089C117.716 16.5149 117.827 16.4405 117.95 16.39C118.074 16.3397 118.205 16.3144 118.338 16.3155C118.604 16.3233 118.856 16.4322 119.044 16.6201C119.232 16.8079 119.341 17.0603 119.349 17.3258C119.35 17.4589 119.324 17.5908 119.274 17.7139C119.223 17.837 119.149 17.9487 119.055 18.0428C118.961 18.1369 118.849 18.2112 118.726 18.2616C118.603 18.312 118.471 18.3374 118.338 18.3362C118.204 18.3428 118.069 18.3212 117.944 18.2727C117.819 18.2243 117.704 18.1501 117.609 18.0549C117.514 17.9598 117.439 17.8458 117.391 17.7202C117.343 17.5946 117.321 17.4603 117.328 17.3258ZM119.17 17.3258C119.172 17.2082 119.15 17.0913 119.106 16.9822C119.063 16.873 118.996 16.7739 118.914 16.6907C118.83 16.6074 118.731 16.5419 118.622 16.4978C118.513 16.4538 118.396 16.4322 118.278 16.4344C118.044 16.4402 117.82 16.5359 117.655 16.7018C117.489 16.8678 117.392 17.0913 117.387 17.3258C117.385 17.4436 117.406 17.5605 117.45 17.6695C117.494 17.7787 117.559 17.8778 117.643 17.9611C117.726 18.0443 117.825 18.1099 117.934 18.1539C118.044 18.1979 118.16 18.2195 118.278 18.2172C118.397 18.2244 118.516 18.2063 118.628 18.1641C118.739 18.1218 118.841 18.0564 118.924 17.9722C119.009 17.8879 119.074 17.7867 119.116 17.6753C119.159 17.5639 119.177 17.4447 119.17 17.3258ZM117.863 16.7901H118.338C118.449 16.7925 118.554 16.8348 118.635 16.909C118.671 16.9373 118.7 16.9734 118.722 17.0146C118.742 17.0557 118.753 17.1009 118.754 17.1469C118.76 17.2177 118.74 17.2883 118.695 17.3438C118.651 17.3992 118.587 17.4351 118.516 17.4437L118.754 17.8005H118.457L118.219 17.4437H118.041V17.8005H117.804L117.863 16.7901ZM118.338 17.3258C118.363 17.3292 118.386 17.327 118.41 17.3193C118.434 17.3115 118.454 17.2985 118.471 17.2812C118.488 17.264 118.502 17.243 118.51 17.2199C118.517 17.1967 118.519 17.1722 118.516 17.148C118.519 17.1239 118.517 17.0992 118.51 17.0762C118.502 17.053 118.488 17.032 118.471 17.0148C118.454 16.9975 118.434 16.9845 118.41 16.9767C118.386 16.969 118.363 16.9668 118.338 16.9701H118.1V17.2669C118.1 17.3258 118.338 17.3258 118.338 17.3258Z" fill="#3C3C3D"></path>
  </g>
</svg>
