<svg width="138" height="40" fill="none" xmlns="http://www.w3.org/2000/svg"><g clip-path="url(#clip0)" fill="#111"><path d="M56.758 7.214c-.239 0-.467.046-.681.139a1.733 1.733 0 0 0-.937.946c-.093.213-.14.438-.14.675 0 .237.047.463.14.676l.003.004a1.857 1.857 0 0 0 .934.906c.214.092.442.139.681.139.239 0 .467-.046.681-.14.211-.09.398-.216.557-.374.158-.156.283-.332.376-.528.108-.214.162-.443.162-.683a1.5 1.5 0 0 0-.16-.679 1.733 1.733 0 0 0-.935-.942 1.697 1.697 0 0 0-.681-.14z"/><path d="M56.758 7.214c-.239 0-.467.046-.681.139a1.733 1.733 0 0 0-.937.946c-.093.213-.14.438-.14.675 0 .237.047.463.14.676l.003.004a1.857 1.857 0 0 0 .934.906c.214.092.442.139.681.139.239 0 .467-.046.681-.14.211-.09.398-.216.557-.374.158-.156.283-.332.376-.528.108-.214.162-.443.162-.683a1.5 1.5 0 0 0-.16-.679 1.733 1.733 0 0 0-.935-.942 1.697 1.697 0 0 0-.681-.14z"/><path d="M56.758 7.214c-.239 0-.467.046-.681.139a1.733 1.733 0 0 0-.937.946c-.093.213-.14.438-.14.675 0 .237.047.463.14.676l.003.004a1.857 1.857 0 0 0 .934.906c.214.092.442.139.681.139.239 0 .467-.046.681-.14.211-.09.398-.216.557-.374.158-.156.283-.332.376-.528.108-.214.162-.443.162-.683a1.5 1.5 0 0 0-.16-.679 1.733 1.733 0 0 0-.935-.942 1.697 1.697 0 0 0-.681-.14z"/><path fill-rule="evenodd" clip-rule="evenodd" d="M69.864 8.08c1.591-.626 3.379-.937 5.36-.937.976 0 1.877.065 2.702.198.835.131 1.612.33 2.33.594.716.253 1.385.572 2.006.958.62.372 1.213.805 1.783 1.296l.117.102-.584.91c-.101.17-.24.293-.422.34-.178.047-.367.011-.555-.075-.204-.082-.477-.26-.81-.52-.322-.25-.77-.517-1.35-.798-.573-.278-1.291-.529-2.157-.752-.842-.22-1.88-.332-3.115-.332-1.632 0-3.105.257-4.421.77-1.306.512-2.42 1.244-3.347 2.196-.914.952-1.626 2.115-2.132 3.491-.495 1.376-.744 2.924-.744 4.649 0 1.748.25 3.314.744 4.702.506 1.387 1.23 2.562 2.167 3.525.95.964 2.1 1.702 3.453 2.215 1.353.512 2.88.77 4.586.77a13.647 13.647 0 0 0 3.862-.526 12.833 12.833 0 0 0 1.662-.63 24.874 24.874 0 0 0 1.566-.813v-6.488H77.88a.682.682 0 0 1-.458-.168l-.005-.004-.004-.004a.568.568 0 0 1-.179-.411v-1.174h7.357v9.21l-.076.053a15.69 15.69 0 0 1-4.103 2.067c-1.457.481-3.091.72-4.902.72-2.028 0-3.856-.304-5.483-.917-1.625-.625-3.016-1.503-4.172-2.635h-.001c-1.144-1.145-2.024-2.523-2.643-4.133-.607-1.611-.91-3.398-.91-5.36 0-1.96.297-3.741.891-5.34.607-1.61 1.47-2.982 2.59-4.115 1.13-1.144 2.493-2.022 4.082-2.635zm-13.787-.727c.214-.093.442-.14.681-.14.239 0 .467.047.681.14a1.733 1.733 0 0 1 .935.942c.106.213.16.44.16.68 0 .24-.054.468-.162.682a1.858 1.858 0 0 1-.933.903c-.214.092-.442.139-.681.139-.239 0-.467-.046-.681-.14a1.857 1.857 0 0 1-.934-.905l-.002-.004A1.657 1.657 0 0 1 55 8.974c0-.237.047-.462.14-.675a1.733 1.733 0 0 1 .937-.946zm34.272.074h1.453c.177 0 .333.018.457.065.152.056.274.193.377.357l.002.004 10.251 17.492c.115.213.221.435.317.666a6.58 6.58 0 0 1 .064-.14c.086-.194.178-.377.277-.548l9.964-17.474c.102-.164.224-.3.376-.357l.007-.003a1.51 1.51 0 0 1 .468-.062h1.435V32.93h-1.954V11.32l.003-.213-9.611 16.896-.001.002c-.194.355-.488.553-.874.553h-.287c-.385 0-.679-.198-.873-.553l-.002-.002-9.88-16.95c.002.09.004.18.004.267v21.61h-1.973V7.427zm-34.613 7.464h2.062V32.93h-2.062V14.89z"/><path d="M56.758 7.214c-.239 0-.467.046-.681.139a1.733 1.733 0 0 0-.937.946c-.093.213-.14.438-.14.675 0 .237.047.463.14.676l.003.004a1.857 1.857 0 0 0 .934.906c.214.092.442.139.681.139.239 0 .467-.046.681-.14.211-.09.398-.216.557-.374.158-.156.283-.332.376-.528.108-.214.162-.443.162-.683a1.5 1.5 0 0 0-.16-.679 1.733 1.733 0 0 0-.935-.942 1.697 1.697 0 0 0-.681-.14z"/><path fill-rule="evenodd" clip-rule="evenodd" d="M126.275 7.706c.946-.377 2.016-.563 3.207-.563 1.335 0 2.536.21 3.601.634 1.077.424 2.055 1.072 2.932 1.941l.094.093-.493.934v.002a.772.772 0 0 1-.258.292.662.662 0 0 1-.366.104.77.77 0 0 1-.352-.1 2.123 2.123 0 0 1-.374-.262l-.007-.006a6.19 6.19 0 0 0-.959-.707l-.003-.002c-.404-.263-.917-.506-1.542-.728h-.001c-.596-.216-1.346-.328-2.254-.328-.905 0-1.697.128-2.379.38-.674.253-1.239.597-1.698 1.028a4.528 4.528 0 0 0-1.035 1.503 4.759 4.759 0 0 0-.345 1.798c0 .828.174 1.496.509 2.017.356.535.823.991 1.402 1.37a9.573 9.573 0 0 0 1.99.976c.764.26 1.546.52 2.347.78.806.263 1.588.554 2.346.876.78.314 1.476.713 2.089 1.198a5.487 5.487 0 0 1 1.483 1.816c.388.72.577 1.61.577 2.66 0 1.076-.19 2.093-.569 3.05a7.032 7.032 0 0 1-1.62 2.48c-.713.705-1.583 1.262-2.608 1.673h-.002c-1.029.401-2.2.6-3.51.6-1.696 0-3.165-.295-4.403-.89h-.001a10.482 10.482 0 0 1-3.232-2.458l-.09-.101.581-.904.006-.008c.17-.21.386-.333.642-.333.176 0 .356.11.528.256.168.143.372.32.612.534.235.198.518.42.849.666.325.23.703.449 1.137.658.431.195.928.364 1.493.504a7.996 7.996 0 0 0 1.914.208c.987 0 1.862-.146 2.628-.433.77-.3 1.413-.703 1.932-1.205l.001-.002a5.015 5.015 0 0 0 1.214-1.784c.278-.701.418-1.448.418-2.244 0-.865-.181-1.557-.528-2.089l-.002-.003a4.294 4.294 0 0 0-1.38-1.383l-.002-.001a8.865 8.865 0 0 0-2.006-.958 76.48 76.48 0 0 0-2.328-.763c-.807-.25-1.595-.53-2.365-.84h-.001a8.504 8.504 0 0 1-2.072-1.198l-.001-.002a5.83 5.83 0 0 1-1.5-1.85l-.001-.004c-.375-.754-.557-1.684-.557-2.78 0-.865.166-1.7.498-2.503a6.127 6.127 0 0 1 1.459-2.122c.641-.622 1.427-1.114 2.355-1.477z"/></g><path fill-rule="evenodd" clip-rule="evenodd" d="M0 19.547L11.13 0h23.727L46 19.561 34.762 40H11.429L0 19.547zM10.24 4.603L2.205 19.172l7.158 1.622.877-16.19zM2.836 21.27l8.034 14.603-1.433-13.135-6.601-1.468zm8.664 2.222l1.59 14.286 16.369-4.515-17.959-9.77zm6.774 14.603h14.808l-1.635-3.492-13.173 3.492zm14.65-4.377l1.512 3.266 6.365-11.27-7.876 8.004zM12.289 22.002l18.589 10.061-1.183-20-17.406 9.939zm-.788-1.843l16.856-9.537-15.86-8.082-.996 17.619zm3.308-18.572l15.094 7.778 2.392-7.778H14.808zm17.803 30L43.637 20.11l-12.13-7.41 1.104 18.888zm-1.104-21.012l11.027 6.885L34.01 2.222l-2.502 8.353z" fill="url(#paint0_linear)"/><defs><linearGradient id="paint0_linear" x1="23" x2="23" y2="40" gradientUnits="userSpaceOnUse"><stop stop-color="#FFC107"/><stop offset="1" stop-color="#FFA000"/></linearGradient><clipPath id="clip0"><path fill="#fff" transform="translate(55 7.143)" d="M0 0H82.143V26.429H0z"/></clipPath></defs></svg>