<svg xmlns="http://www.w3.org/2000/svg" width="97.57" height="23.709" viewBox="0 0 97.57 23.709"><defs><style>.a,.b{fill:#fff;}.b{stroke:rgba(0,0,0,0);}</style></defs><g transform="translate(-0.588 -2.121)"><g transform="translate(26.857 5.45)"><path class="a" d="M319.788,438.967a5.481,5.481,0,0,0,1.115-.1,3.992,3.992,0,0,0,.811-.251,2.793,2.793,0,0,0,.571-.332q.234-.181.42-.332a3.217,3.217,0,0,1,.35-.252.67.67,0,0,1,.35-.1.661.661,0,0,1,.31.065.5.5,0,0,1,.181.146l1.331,1.6a7.327,7.327,0,0,1-2.633,2,8.381,8.381,0,0,1-3.461.682,6.826,6.826,0,0,1-2.854-.566,6,6,0,0,1-2.1-1.559,6.711,6.711,0,0,1-1.289-2.352,9.516,9.516,0,0,1-.438-2.936,11.354,11.354,0,0,1,.327-2.766,10.42,10.42,0,0,1,.922-2.417,9.341,9.341,0,0,1,1.43-2,8.812,8.812,0,0,1,6.472-2.79,7.814,7.814,0,0,1,1.745.181,6.232,6.232,0,0,1,1.424.5,5.343,5.343,0,0,1,1.138.764,5.511,5.511,0,0,1,.875.981l-1.331,1.541a1.691,1.691,0,0,1-.326.292.852.852,0,0,1-.49.129.712.712,0,0,1-.362-.093,2.569,2.569,0,0,1-.333-.228l-.379-.3a2.562,2.562,0,0,0-.5-.3,3.7,3.7,0,0,0-.694-.228,4.3,4.3,0,0,0-.951-.093,4.479,4.479,0,0,0-2,.456,4.742,4.742,0,0,0-1.611,1.3,6.277,6.277,0,0,0-1.068,2.054,8.867,8.867,0,0,0-.385,2.7,6.575,6.575,0,0,0,.262,1.937,4.516,4.516,0,0,0,.718,1.443A3.025,3.025,0,0,0,319.788,438.967Z" transform="translate(-312.457 -424.363)"/><path class="a" d="M437.932,429.248a5.469,5.469,0,0,1,1.739-1.343,4.44,4.44,0,0,1,1.9-.432,3.127,3.127,0,0,1,1.383.3,2.761,2.761,0,0,1,1.045.888,3.709,3.709,0,0,1,.6,1.441,6.052,6.052,0,0,1,.035,1.967l-.91,7.693H440.1l.911-7.693a4.587,4.587,0,0,0,.035-.829,1.451,1.451,0,0,0-.128-.548.616.616,0,0,0-.292-.3,1.06,1.06,0,0,0-.455-.088,1.588,1.588,0,0,0-.759.216,3.022,3.022,0,0,0-.764.613,5.092,5.092,0,0,0-.689.963,6.147,6.147,0,0,0-.531,1.255l-.782,6.409h-3.619l2.125-17.475h3.619Z" transform="translate(-419.114 -422.22)"/><path class="a" d="M555.555,477.415a12.748,12.748,0,0,1-1.255,1.091,6.8,6.8,0,0,1-1.26.759,6.043,6.043,0,0,1-1.378.438,8.45,8.45,0,0,1-1.593.139,5.159,5.159,0,0,1-1.973-.368,4.461,4.461,0,0,1-1.547-1.039,4.647,4.647,0,0,1-1-1.616,5.921,5.921,0,0,1-.356-2.1,8.262,8.262,0,0,1,.216-1.891,8.01,8.01,0,0,1,.618-1.734,7.3,7.3,0,0,1,.986-1.495,6.483,6.483,0,0,1,1.313-1.173,6.183,6.183,0,0,1,1.6-.764,6.118,6.118,0,0,1,1.85-.275,4.922,4.922,0,0,1,1.722.28,4.062,4.062,0,0,1,1.266.729,3.151,3.151,0,0,1,.782,1.01,2.579,2.579,0,0,1,.269,1.121,3.458,3.458,0,0,1-.327,1.511,3.12,3.12,0,0,1-1.138,1.22,7.626,7.626,0,0,1-2.183.911,21.658,21.658,0,0,1-3.449.583,2.718,2.718,0,0,0,.543,1.81,1.968,1.968,0,0,0,1.535.571,3.667,3.667,0,0,0,.828-.082,2.866,2.866,0,0,0,.613-.21,4.066,4.066,0,0,0,.473-.268l.4-.268a2.121,2.121,0,0,1,.4-.211,1.318,1.318,0,0,1,.478-.082.7.7,0,0,1,.339.088,1.1,1.1,0,0,1,.292.227Zm-3.992-7.588a2.1,2.1,0,0,0-1.576.718,4.446,4.446,0,0,0-1,1.967,15.941,15.941,0,0,0,1.822-.373,4.758,4.758,0,0,0,1.086-.426,1.312,1.312,0,0,0,.519-.484,1.191,1.191,0,0,0,.134-.56.859.859,0,0,0-.233-.572A.941.941,0,0,0,551.562,469.827Z" transform="translate(-518.329 -462.11)"/><path class="a" d="M651.055,433.28h.56a1.449,1.449,0,0,0,1.238-.561l4.039-5.638a1.742,1.742,0,0,1,.753-.6,2.736,2.736,0,0,1,.974-.158h3.292l-5.347,6.946a3.687,3.687,0,0,1-1.167.992,2.247,2.247,0,0,1,.694.444,2.494,2.494,0,0,1,.52.735l3.6,7.892H656.82a2.677,2.677,0,0,1-.548-.047,1.222,1.222,0,0,1-.379-.14.992.992,0,0,1-.263-.222,1.627,1.627,0,0,1-.186-.292l-2.638-5.977a.85.85,0,0,0-.432-.473,1.9,1.9,0,0,0-.782-.134h-.875l-.9,7.284h-3.781l2.077-17.009h3.805Z" transform="translate(-607.538 -425.785)"/><path class="a" d="M782.644,427.117,781.2,439.223h-3.572l1.447-12.106Zm.677-3.315a1.815,1.815,0,0,1-.186.811,2.3,2.3,0,0,1-.49.666,2.378,2.378,0,0,1-.694.455,1.99,1.99,0,0,1-.8.17,1.86,1.86,0,0,1-.782-.17,2.211,2.211,0,0,1-.66-.455,2.3,2.3,0,0,1-.461-.666,1.911,1.911,0,0,1-.175-.811,1.959,1.959,0,0,1,.175-.817,2.24,2.24,0,0,1,.473-.676,2.31,2.31,0,0,1,.672-.461,1.865,1.865,0,0,1,.782-.17,2.046,2.046,0,0,1,.805.163,2.184,2.184,0,0,1,.683.455,2.344,2.344,0,0,1,.479.677,1.935,1.935,0,0,1,.18.829Z" transform="translate(-723.942 -421.677)"/><path class="a" d="M833.706,469.473a5.917,5.917,0,0,1,1.915-1.721,4.508,4.508,0,0,1,2.148-.554,3.1,3.1,0,0,1,1.371.3,2.723,2.723,0,0,1,1.04.888,3.759,3.759,0,0,1,.589,1.441,6.072,6.072,0,0,1,.035,1.967l-.91,7.693h-3.619l.911-7.693a5.042,5.042,0,0,0,.041-.829,1.291,1.291,0,0,0-.122-.537.629.629,0,0,0-.292-.286,1.035,1.035,0,0,0-.444-.088,1.681,1.681,0,0,0-.828.245,3.165,3.165,0,0,0-.823.695,5.35,5.35,0,0,0-.718,1.086,6.3,6.3,0,0,0-.514,1.407l-.666,6H829.2l1.448-12.106h1.868a1.325,1.325,0,0,1,.875.263,1.055,1.055,0,0,1,.315.858Z" transform="translate(-769.564 -461.944)"/></g><g transform="translate(1.088 2.121)"><g transform="translate(0 0)"><path class="b" d="M9.306,20.978h0A14.474,14.474,0,0,1,0,7.451V1.543L1.525,1.1a27.948,27.948,0,0,1,15.562,0l.083.024L14.818,2.889a21.531,21.531,0,0,0-11.506.134l-1.174.34V7.914A11.151,11.151,0,0,0,9.308,18.336a11.149,11.149,0,0,0,7.127-9.472l2.177-2.533v1.12A14.474,14.474,0,0,1,9.3,20.979Z" transform="translate(0 2.263)"/><g transform="translate(3.561)"><path class="a" d="M109.591,377.72l5.8,9.265,14.736-17.132,0,0-14.739,11.038Z" transform="translate(-109.591 -369.85)"/></g></g></g></g></svg>