<svg xmlns="http://www.w3.org/2000/svg" width="374.179" height="76.086" viewBox="0 0 374.179 76.086">
    <defs>
        <style>
            .prefix__cls-3{fill:#9696b9}
        </style>
    </defs>
    <g id="prefix__chekin-imago-white" transform="translate(.5)" style="opacity:.83">
        <g id="prefix__chekin-isotype-white">
            <g id="prefix__Group_13" data-name="Group 13">
                <g id="prefix__Group_11" data-name="Group 11">
                    <path id="prefix__Subtraction_1" d="M30.029 68.322A47.123 47.123 0 010 24.274V5.034l4.92-1.44a89.4 89.4 0 0150.217 0l.267.078-7.59 5.744a68.868 68.868 0 00-37.129.437L6.9 10.961v14.821a36.306 36.306 0 0023.14 33.937 36.266 36.266 0 0023-30.845l7.025-8.249v3.648a47.125 47.125 0 01-30.047 44.053z" data-name="Subtraction 1" transform="translate(0 7.294)" style="stroke:transparent;fill:#9696b9"/>
                    <g id="prefix__Group_10" data-name="Group 10" transform="translate(11.492)">
                        <g id="prefix__Group_9" data-name="Group 9">
                            <path id="prefix__Path_16270" d="M109.591 395.243l18.71 29.894 47.552-55.28.008-.008-47.561 35.617z" class="prefix__cls-3" data-name="Path 16270" transform="translate(-109.591 -369.85)"/>
                        </g>
                    </g>
                </g>
            </g>
        </g>
        <g id="prefix__chekin_io-logo-white" transform="translate(-158.837 -65.806)">
            <path id="prefix__Path_16257" d="M271.285 126.254a18.076 18.076 0 003.3-.295 11.682 11.682 0 002.419-.767 9.35 9.35 0 001.711-1c.472-.354.885-.708 1.239-1a11.97 11.97 0 011.062-.767 2.038 2.038 0 011.062-.295 2.444 2.444 0 01.944.177 2.075 2.075 0 01.531.413l3.953 4.72a21.036 21.036 0 01-7.787 5.9 24.723 24.723 0 01-10.265 2.006 19.94 19.94 0 01-8.436-1.652 17.39 17.39 0 01-6.194-4.6 20.392 20.392 0 01-3.835-6.962 27.536 27.536 0 01-1.3-8.672 33.593 33.593 0 01.944-8.2 30.342 30.342 0 012.714-7.138 28.331 28.331 0 014.248-5.9 26.469 26.469 0 015.486-4.484 25.1 25.1 0 016.43-2.831 26.508 26.508 0 017.2-1 23.8 23.8 0 015.191.531 17.526 17.526 0 014.189 1.475 19.617 19.617 0 013.363 2.242 17.18 17.18 0 012.6 2.891l-3.954 4.53c-.295.295-.59.59-.944.885a2.59 2.59 0 01-1.475.354 2.038 2.038 0 01-1.062-.295c-.295-.177-.649-.413-1-.649a12.1 12.1 0 01-1.121-.885 10.793 10.793 0 00-1.475-.885 12.251 12.251 0 00-2.065-.649 12.646 12.646 0 00-2.832-.295 13.328 13.328 0 00-5.9 1.356 14.171 14.171 0 00-4.779 3.835 18.578 18.578 0 00-3.186 6.076 26.114 26.114 0 00-1.121 8.023 18.947 18.947 0 00.767 5.723 13.624 13.624 0 002.124 4.248 8.557 8.557 0 003.186 2.655 6.938 6.938 0 004.068 1.181z" class="prefix__cls-3" data-name="Path 16257" transform="translate(0 -.579)"/>
            <path id="prefix__Path_16258" d="M333.813 103.389a15.822 15.822 0 015.133-3.953 13.637 13.637 0 015.6-1.3 9.346 9.346 0 014.071.885 8.134 8.134 0 013.068 2.6 11.538 11.538 0 011.77 4.248 19.026 19.026 0 01.118 5.841l-2.714 22.772h-10.675l2.713-22.772a12.351 12.351 0 00.118-2.478 6.241 6.241 0 00-.354-1.652 1.843 1.843 0 00-.885-.885 3.108 3.108 0 00-1.356-.237 4.839 4.839 0 00-2.242.649 7.857 7.857 0 00-2.242 1.829 15.979 15.979 0 00-2.065 2.831 17.639 17.639 0 00-1.593 3.717l-2.3 18.937H319.3l6.313-51.62h10.678z" class="prefix__cls-3" data-name="Path 16258" transform="translate(-28.546 -.132)"/>
            <path id="prefix__Path_16259" d="M414.975 138.611a36.49 36.49 0 01-3.717 3.245 22.245 22.245 0 01-3.717 2.242 19.261 19.261 0 01-4.071 1.3 23.434 23.434 0 01-4.72.413 15.591 15.591 0 01-5.841-1.062 13.686 13.686 0 01-4.6-3.068 13.08 13.08 0 01-2.949-4.779 17.509 17.509 0 01-1.062-6.194 25.522 25.522 0 01.649-5.6 24.049 24.049 0 011.829-5.133 21.96 21.96 0 012.891-4.425 19.827 19.827 0 013.894-3.481 18.385 18.385 0 0110.2-3.068 15 15 0 015.073.826 12.439 12.439 0 013.781 2.173 9.321 9.321 0 012.3 3.009 7.5 7.5 0 01.767 3.3 10.184 10.184 0 01-.944 4.484 9.2 9.2 0 01-3.363 3.6 23.645 23.645 0 01-6.43 2.714 68.75 68.75 0 01-10.206 1.711c.059 2.419.59 4.248 1.593 5.369a5.829 5.829 0 004.543 1.711 10.394 10.394 0 002.478-.237 7.385 7.385 0 001.829-.649c.531-.295 1-.531 1.416-.767.413-.295.826-.531 1.18-.767a7.569 7.569 0 011.18-.649 3.57 3.57 0 011.416-.237 1.94 1.94 0 011 .237 8.464 8.464 0 01.885.649zm-11.858-22.418a6.259 6.259 0 00-4.661 2.124 12.987 12.987 0 00-2.949 5.841 43.787 43.787 0 005.368-1.121 16.307 16.307 0 003.186-1.239 3.313 3.313 0 001.947-3.068 2.57 2.57 0 00-.708-1.711 2.438 2.438 0 00-2.183-.826z" class="prefix__cls-3" data-name="Path 16259" transform="translate(-55.198 -10.87)"/>
            <path id="prefix__Path_16260" d="M457.426 105.689h1.652a4.259 4.259 0 003.658-1.652L474.711 87.4a4.838 4.838 0 012.242-1.77 8.476 8.476 0 012.891-.472h9.734l-15.87 20.53a10.7 10.7 0 01-3.481 2.949 6.472 6.472 0 013.6 3.481l10.619 23.363h-10.03a12.739 12.739 0 01-1.652-.118 4.951 4.951 0 01-1.121-.413 2.792 2.792 0 01-.767-.649 2.221 2.221 0 01-.531-.885l-7.788-17.7a2.777 2.777 0 00-1.3-1.416 6.175 6.175 0 00-2.3-.413h-2.6l-2.655 21.533H442.5l6.135-50.32H459.9z" class="prefix__cls-3" data-name="Path 16260" transform="translate(-79.065 -1.075)"/>
            <path id="prefix__Path_16261" d="M533.667 98.538l-4.307 35.81H518.8l4.307-35.81zm2.006-9.794a5.771 5.771 0 01-.531 2.42 5.336 5.336 0 01-1.474 1.946 6.966 6.966 0 01-2.065 1.356 5.449 5.449 0 01-2.36.472 5.937 5.937 0 01-2.3-.472 6.432 6.432 0 01-1.947-1.356 7.24 7.24 0 01-1.356-1.947 5.579 5.579 0 01-.531-2.419 5.773 5.773 0 01.531-2.419 6.873 6.873 0 011.415-2 6.688 6.688 0 012.006-1.356 5.194 5.194 0 012.3-.473 6.237 6.237 0 012.36.472 5.761 5.761 0 012.006 1.356 6.873 6.873 0 011.416 2.006 5.4 5.4 0 01.531 2.419z" class="prefix__cls-3" data-name="Path 16261" transform="translate(-110.352)"/>
            <path id="prefix__Path_16262" d="M562.015 115.523a16.8 16.8 0 015.664-5.073 13.159 13.159 0 016.371-1.652 9.344 9.344 0 014.071.885 8.134 8.134 0 013.068 2.6 11.536 11.536 0 011.77 4.248 19.017 19.017 0 01.118 5.841l-2.714 22.772h-10.679l2.714-22.772a12.367 12.367 0 00.118-2.478 5.312 5.312 0 00-.354-1.593 1.721 1.721 0 00-.885-.826 3 3 0 00-1.3-.237 5.307 5.307 0 00-2.478.708 9.606 9.606 0 00-2.419 2.065 16.608 16.608 0 00-2.124 3.186 17.571 17.571 0 00-1.534 4.189l-1.947 17.758H548.8l4.306-35.81h5.546a3.9 3.9 0 012.6.767 3.052 3.052 0 01.944 2.537v2.891z" class="prefix__cls-3" data-name="Path 16262" transform="translate(-122.653 -10.79)"/>
            <path id="prefix__Path_16263" d="M612.591 157.2a5.942 5.942 0 01.472-2.3 5.161 5.161 0 011.3-1.888 5.829 5.829 0 011.888-1.239 6.313 6.313 0 012.419-.472 6.236 6.236 0 012.36.472 6.811 6.811 0 011.947 1.239 5.836 5.836 0 011.77 4.189 6.472 6.472 0 01-.472 2.36 5.991 5.991 0 01-1.3 1.888 5.5 5.5 0 01-1.947 1.239 6.237 6.237 0 01-2.36.472 6.542 6.542 0 01-2.419-.472 5.828 5.828 0 01-1.888-1.239 7.161 7.161 0 01-1.3-1.888 5.452 5.452 0 01-.47-2.361z" class="prefix__cls-3" data-name="Path 16263" transform="translate(-148.805 -28.22)"/>
            <path id="prefix__Path_16264" d="M656.767 98.544l-4.307 35.81H641.9l4.307-35.81zm2.006-9.794a5.773 5.773 0 01-.531 2.419 5.338 5.338 0 01-1.474 1.946 6.97 6.97 0 01-2.065 1.356 5.45 5.45 0 01-2.36.472 5.939 5.939 0 01-2.3-.472 6.432 6.432 0 01-1.947-1.356 7.237 7.237 0 01-1.356-1.947 5.573 5.573 0 01-.531-2.419 5.765 5.765 0 01.531-2.419 6.871 6.871 0 011.415-2 6.687 6.687 0 012.006-1.356 5.2 5.2 0 012.3-.472 6.236 6.236 0 012.36.472 5.756 5.756 0 012.006 1.356 6.87 6.87 0 011.416 2.006 5.4 5.4 0 01.531 2.418z" class="prefix__cls-3" data-name="Path 16264" transform="translate(-160.829 -.006)"/>
            <path id="prefix__Path_16265" d="M686.422 145.733a15.766 15.766 0 01-5.6-1 13.57 13.57 0 01-4.542-2.891 12.965 12.965 0 01-3.008-4.72 18.25 18.25 0 01-1.062-6.49 23.231 23.231 0 011.59-8.732 22.644 22.644 0 014.248-6.9 20.008 20.008 0 016.135-4.542 17.7 17.7 0 017.375-1.652 15.768 15.768 0 015.6 1 12.76 12.76 0 014.483 2.891 13.231 13.231 0 013.009 4.72 18.208 18.208 0 011.121 6.489 23.142 23.142 0 01-1.593 8.672 22.65 22.65 0 01-4.248 6.9 19.1 19.1 0 01-6.136 4.542 17.766 17.766 0 01-7.372 1.713zm.944-7.964a5.177 5.177 0 003.186-1.062 8.679 8.679 0 002.419-2.949 17.23 17.23 0 001.534-4.366 25.32 25.32 0 00.531-5.31c0-2.6-.354-4.484-1.062-5.6a3.7 3.7 0 00-3.422-1.652 5.177 5.177 0 00-3.186 1.062 8.68 8.68 0 00-2.418 2.949 17.238 17.238 0 00-1.534 4.366 25.894 25.894 0 00-.531 5.369c0 2.537.354 4.425 1.062 5.546a3.827 3.827 0 003.422 1.652z" class="prefix__cls-3" data-name="Path 16265" transform="translate(-173.258 -10.796)"/>
        </g>
    </g>
</svg>
