<?xml version="1.0" encoding="UTF-8"?> <svg xmlns="http://www.w3.org/2000/svg" width="142.251" height="34.408" viewBox="0 0 142.251 34.408"><defs><style>.a,.b{fill:#385cf8;}.b{stroke:rgba(0,0,0,0);}</style></defs><g transform="translate(0.5 0)"><g transform="translate(37.63 4.861)"><path class="a" d="M323.162,445.528a8,8,0,0,0,1.628-.144,5.827,5.827,0,0,0,1.185-.367,4.075,4.075,0,0,0,.834-.485q.341-.264.614-.485a4.7,4.7,0,0,1,.511-.367.977.977,0,0,1,.511-.145.964.964,0,0,1,.453.095.725.725,0,0,1,.264.213l1.944,2.336a10.7,10.7,0,0,1-3.845,2.924,12.238,12.238,0,0,1-5.054,1,9.968,9.968,0,0,1-4.168-.826,8.763,8.763,0,0,1-3.06-2.276,9.8,9.8,0,0,1-1.883-3.435,13.9,13.9,0,0,1-.64-4.288,16.581,16.581,0,0,1,.478-4.039,15.214,15.214,0,0,1,1.347-3.53,13.642,13.642,0,0,1,2.088-2.915,12.868,12.868,0,0,1,9.451-4.074,11.407,11.407,0,0,1,2.548.265,9.1,9.1,0,0,1,2.08.733,7.8,7.8,0,0,1,1.662,1.116,8.054,8.054,0,0,1,1.278,1.432l-1.944,2.25a2.47,2.47,0,0,1-.477.426,1.244,1.244,0,0,1-.716.188,1.041,1.041,0,0,1-.528-.136,3.77,3.77,0,0,1-.487-.333l-.554-.435a3.747,3.747,0,0,0-.733-.435,5.409,5.409,0,0,0-1.014-.332,6.271,6.271,0,0,0-1.389-.136,6.54,6.54,0,0,0-2.923.666,6.924,6.924,0,0,0-2.353,1.9,9.167,9.167,0,0,0-1.56,3,12.95,12.95,0,0,0-.562,3.947,9.6,9.6,0,0,0,.383,2.829,6.6,6.6,0,0,0,1.048,2.107A4.418,4.418,0,0,0,323.162,445.528Z" transform="translate(-312.457 -424.202)"></path><path class="a" d="M440.188,432.451a7.986,7.986,0,0,1,2.539-1.96,6.484,6.484,0,0,1,2.779-.631,4.568,4.568,0,0,1,2.02.443,4.033,4.033,0,0,1,1.526,1.3,5.415,5.415,0,0,1,.869,2.1,8.838,8.838,0,0,1,.051,2.873l-1.329,11.234h-5.285l1.33-11.234a6.7,6.7,0,0,0,.051-1.211,2.118,2.118,0,0,0-.187-.8.9.9,0,0,0-.427-.434,1.547,1.547,0,0,0-.665-.128,2.318,2.318,0,0,0-1.108.315,4.413,4.413,0,0,0-1.116.9,7.433,7.433,0,0,0-1.005,1.406,8.977,8.977,0,0,0-.776,1.832l-1.142,9.359h-5.285l3.1-25.519h5.285Z" transform="translate(-412.71 -422.188)"></path><path class="a" d="M560.326,482.032a18.65,18.65,0,0,1-1.833,1.593,9.935,9.935,0,0,1-1.84,1.108,8.829,8.829,0,0,1-2.013.64,12.337,12.337,0,0,1-2.327.2,7.533,7.533,0,0,1-2.881-.537,6.515,6.515,0,0,1-2.259-1.517,6.789,6.789,0,0,1-1.465-2.36,8.647,8.647,0,0,1-.52-3.069,12.06,12.06,0,0,1,.315-2.762,11.691,11.691,0,0,1,.9-2.532,10.659,10.659,0,0,1,1.44-2.183,9.466,9.466,0,0,1,1.918-1.713,9.028,9.028,0,0,1,2.336-1.116,8.933,8.933,0,0,1,2.7-.4,7.184,7.184,0,0,1,2.515.409,5.93,5.93,0,0,1,1.849,1.065,4.6,4.6,0,0,1,1.142,1.475,3.765,3.765,0,0,1,.393,1.636,5.049,5.049,0,0,1-.477,2.207,4.557,4.557,0,0,1-1.662,1.782,11.138,11.138,0,0,1-3.188,1.33,31.629,31.629,0,0,1-5.037.852,3.969,3.969,0,0,0,.793,2.643,2.874,2.874,0,0,0,2.242.834,5.352,5.352,0,0,0,1.21-.119,4.183,4.183,0,0,0,.9-.306,5.954,5.954,0,0,0,.691-.392l.588-.392a3.1,3.1,0,0,1,.589-.308,1.927,1.927,0,0,1,.7-.119,1.023,1.023,0,0,1,.494.128,1.611,1.611,0,0,1,.427.332ZM554.5,470.95a3.074,3.074,0,0,0-2.3,1.049,6.494,6.494,0,0,0-1.466,2.872,23.27,23.27,0,0,0,2.66-.545,6.952,6.952,0,0,0,1.586-.623,1.917,1.917,0,0,0,.758-.707,1.739,1.739,0,0,0,.2-.818,1.255,1.255,0,0,0-.34-.835A1.374,1.374,0,0,0,554.5,470.95Z" transform="translate(-505.966 -459.682)"></path><path class="a" d="M653.365,436.483h.818a2.116,2.116,0,0,0,1.807-.819l5.9-8.233a2.543,2.543,0,0,1,1.1-.877,4,4,0,0,1,1.423-.231h4.807l-7.808,10.144a5.383,5.383,0,0,1-1.7,1.449,3.284,3.284,0,0,1,1.014.648,3.641,3.641,0,0,1,.759,1.073l5.25,11.525h-4.944a3.905,3.905,0,0,1-.8-.069,1.784,1.784,0,0,1-.554-.2,1.45,1.45,0,0,1-.384-.324,2.384,2.384,0,0,1-.272-.426l-3.852-8.729a1.242,1.242,0,0,0-.631-.69,2.771,2.771,0,0,0-1.142-.2h-1.278l-1.313,10.637h-5.522l3.034-24.838h5.557Z" transform="translate(-589.818 -425.538)"></path><path class="a" d="M784.955,429.621,782.841,447.3h-5.216l2.114-17.678Zm.989-4.841a2.651,2.651,0,0,1-.272,1.185,3.365,3.365,0,0,1-.716.972,3.473,3.473,0,0,1-1.014.664,2.907,2.907,0,0,1-1.168.248,2.718,2.718,0,0,1-1.142-.248,3.229,3.229,0,0,1-.964-.664,3.35,3.35,0,0,1-.673-.972,2.791,2.791,0,0,1-.256-1.185,2.857,2.857,0,0,1,.256-1.194,3.268,3.268,0,0,1,.69-.988,3.374,3.374,0,0,1,.981-.673,2.723,2.723,0,0,1,1.142-.248,2.986,2.986,0,0,1,1.176.239,3.192,3.192,0,0,1,1,.664,3.424,3.424,0,0,1,.7.989,2.825,2.825,0,0,1,.263,1.211Z" transform="translate(-699.231 -421.677)"></path><path class="a" d="M835.78,470.52a8.64,8.64,0,0,1,2.8-2.514,6.583,6.583,0,0,1,3.136-.809,4.525,4.525,0,0,1,2,.443,3.978,3.978,0,0,1,1.518,1.3,5.488,5.488,0,0,1,.86,2.1,8.864,8.864,0,0,1,.051,2.873l-1.329,11.234H839.53l1.33-11.234a7.354,7.354,0,0,0,.059-1.211,1.882,1.882,0,0,0-.179-.784.918.918,0,0,0-.426-.418,1.512,1.512,0,0,0-.648-.129,2.453,2.453,0,0,0-1.209.358,4.622,4.622,0,0,0-1.2,1.015,7.8,7.8,0,0,0-1.048,1.586,9.2,9.2,0,0,0-.75,2.054l-.972,8.762H829.2l2.114-17.678h2.727a1.935,1.935,0,0,1,1.278.384,1.541,1.541,0,0,1,.461,1.253Z" transform="translate(-742.114 -459.525)"></path></g><g transform="translate(0 0)"><path class="b" d="M13.589,30.636h0A21.136,21.136,0,0,1,0,10.883V2.255L2.227,1.61a40.812,40.812,0,0,1,22.726,0l.121.035L21.638,4.22a31.441,31.441,0,0,0-16.8.2l-1.715.5v6.647A16.284,16.284,0,0,0,13.593,26.778,16.281,16.281,0,0,0,24,12.946l3.179-3.7v1.636A21.137,21.137,0,0,1,13.585,30.638Z" transform="translate(0 3.303)"></path><g transform="translate(5.2)"><path class="a" d="M109.591,381.342l8.467,13.529,21.519-25.018,0,0-21.523,16.118Z" transform="translate(-109.591 -369.85)"></path></g></g></g></svg> 