<?xml version="1.0" encoding="UTF-8"?>
<svg xmlns="http://www.w3.org/2000/svg" width="65" height="32" viewBox="0 0 65 32" fill="none">
  <g clip-path="url(#clip0_1660_2477)">
    <path d="M16.7386 18.1225C16.7386 22.7459 13.3789 26.3146 9.30276 26.3146C7.22087 26.3146 5.70721 25.6138 4.667 24.431V25.1043C4.667 25.5327 4.31873 25.8801 3.88931 25.8801H0.777694C0.348065 25.8801 0 25.5327 0 25.1043V0.461353C0 0.0327727 0.348274 -0.314453 0.777694 -0.314453C2.92563 -0.314453 4.66658 1.86535 4.66658 4.00742V11.8145C5.70679 10.6315 7.22066 9.93101 9.30234 9.93101C13.3787 9.93101 16.7386 13.4993 16.7386 18.1225ZM12.0718 18.1225C12.0718 15.7953 10.5162 14.3368 8.36928 14.3368C6.22239 14.3368 4.66679 15.7953 4.66679 18.1225C4.66679 20.4497 6.22239 21.9084 8.36928 21.9084C10.5162 21.9084 12.0718 20.4497 12.0718 18.1225Z" fill="#019CDE"></path>
    <path d="M33.8146 18.1224C33.8146 18.526 33.7835 18.898 33.7519 19.271C33.6898 19.7671 33.3788 19.9841 32.9121 19.9841H29.1161H22.522C23.087 21.8276 24.5395 22.5596 26.1607 22.5596C27.0315 22.5596 27.9029 22.2495 28.463 21.784C28.7741 21.5359 29.0226 21.381 29.4273 21.381L32.4145 21.3495C32.974 21.3495 33.2853 21.7221 33.0367 22.2186C31.8232 24.9182 29.2717 26.3145 26.0978 26.3145C20.9334 26.3145 17.635 22.7456 17.635 18.1224C17.635 13.4992 21.0574 9.93091 25.9739 9.93091C30.5161 9.93091 33.8146 13.4373 33.8146 18.1224ZM29.1683 16.4468C28.6871 14.6816 27.315 14.0578 25.9422 14.0578C24.1933 14.0578 22.983 14.8996 22.5023 16.4468H29.1683Z" fill="#019CDE"></path>
    <path d="M51.4495 0.461353V25.1043C51.4495 25.5327 51.1015 25.8801 50.6718 25.8801H47.5606C47.131 25.8801 46.7827 25.5327 46.7827 25.1043V24.431C45.7425 25.614 44.2289 26.3146 42.1472 26.3146C38.0715 26.3146 34.7112 22.7457 34.7112 18.1225C34.7112 13.4993 38.0715 9.93101 42.1472 9.93101C44.2291 9.93101 45.7425 10.6315 46.7827 11.8145V4.00742C46.7829 1.86535 48.5241 -0.314453 50.672 -0.314453C51.1015 -0.314453 51.4495 0.0327727 51.4495 0.461353ZM46.7829 18.1225C46.7829 15.7953 45.2273 14.3368 43.0807 14.3368C40.9338 14.3368 39.3782 15.7953 39.3782 18.1225C39.3782 20.4497 40.9338 21.9084 43.0807 21.9084C45.2273 21.9084 46.7829 20.4497 46.7829 18.1225Z" fill="#019CDE"></path>
    <path d="M64.6101 21.2258C64.6101 24.7941 62.1864 26.3147 58.7634 26.3147C55.5904 26.3147 52.7276 24.8874 52.3546 21.598C52.2921 21.0706 52.6033 20.7914 53.1009 20.7914H56.1502C56.617 20.7914 56.7725 21.0394 56.9906 21.4428C57.2393 21.97 57.8304 22.2803 58.7636 22.2803C60.0708 22.2803 60.5683 21.8465 60.5683 21.2258C60.5683 18.9915 52.4477 21.0392 52.4477 15.0196C52.4477 11.5131 55.4969 9.93091 58.7636 9.93091C61.6574 9.93091 64.4891 11.3582 64.8621 14.647C64.9248 15.1749 64.6134 15.4542 64.1152 15.4542H61.0661C60.5991 15.4542 60.4438 15.2058 60.2261 14.7713C60.0081 14.275 59.4793 13.9647 58.7634 13.9647C57.6127 13.9647 57.1149 14.3991 57.1149 15.0196C57.1149 17.3157 64.6101 15.1749 64.6101 21.2258Z" fill="#019CDE"></path>
    <path d="M44.6393 7.62414C44.4193 3.97911 41.1876 2.26626 37.7434 2.26626C36.4589 2.26626 35.2587 2.4428 34.228 2.88145C33.237 3.3029 32.4587 4.08793 31.9821 5.08621C31.7921 4.69055 31.5533 4.31166 31.2669 3.98687C28.6459 1.01364 24.8728 0.233643 20.133 0.233643C13.4884 0.233643 7.13492 2.29603 6.8095 7.59542C6.8095 7.59542 6.78057 8.2104 7.20265 8.2104H31.4709H32.5436H43.7106H44.1979C44.1983 8.21019 44.6393 8.11689 44.6393 7.62414Z" fill="#7BCBED"></path>
    <path d="M53.5935 7.55432V6.72064C53.5935 6.58372 53.6354 6.46945 53.7298 6.36671L56.0379 3.8315C56.4472 3.37461 56.8039 2.81498 56.8039 2.3126C56.8039 1.77561 56.5521 1.46739 56.0801 1.46739C55.6393 1.46739 55.377 1.66155 55.2931 2.08405C55.2617 2.26668 55.1776 2.35789 55.0204 2.35789H53.8556C53.6877 2.35789 53.5933 2.25535 53.6038 2.06098C53.7298 0.40516 54.8736 -0.314453 56.0379 -0.314453C57.2656 -0.314453 58.4828 0.484837 58.4828 2.31239C58.4828 3.19156 57.9894 4.10534 57.3916 4.74485L56.122 6.08113H58.3253C58.4932 6.08113 58.5876 6.18387 58.5876 6.3665V7.55432C58.5876 7.73695 58.4932 7.8399 58.3253 7.8399H53.8558C53.6879 7.8399 53.5935 7.73695 53.5935 7.55432Z" fill="#FE746C"></path>
    <path d="M65 5.10214V6.24363C65 6.43003 64.9035 6.53487 64.7324 6.53487H64.2508V7.54845C64.2508 7.73485 64.1546 7.83969 63.9835 7.83969H62.7847C62.6137 7.83969 62.5172 7.73485 62.5172 7.54845V6.53508H59.2745C59.1034 6.53508 59.0072 6.43024 59.0072 6.24384V4.9973C59.0072 4.86919 59.0286 4.76435 59.0818 4.63624L61.2973 -0.104776C61.3615 -0.244631 61.4577 -0.314453 61.6074 -0.314453H62.8812C63.0844 -0.314453 63.1699 -0.174598 63.0737 0.0350791L60.8477 4.81111H62.5172V3.3549C62.5172 3.1685 62.6137 3.06366 62.7847 3.06366H63.9835C64.1546 3.06366 64.2508 3.1685 64.2508 3.3549V4.8109H64.7324C64.9037 4.8109 65 4.91595 65 5.10214Z" fill="#FE746C"></path>
  </g>
  <defs>
    <clipPath id="clip0_1660_2477">
      <rect width="65" height="32" fill="white"></rect>
    </clipPath>
  </defs>
</svg>
