<?xml version="1.0" encoding="UTF-8"?> <svg xmlns="http://www.w3.org/2000/svg" width="252" height="76" viewBox="0 0 252 76" fill="none"><g clip-path="url(#clip0)"><path fill-rule="evenodd" clip-rule="evenodd" d="M94.0466 44.6893C94.0253 44.6807 94.0024 44.6752 93.9811 44.6662C93.316 44.3907 92.7438 44.0087 92.2649 43.5189C91.785 43.0296 91.4065 42.4559 91.128 41.7975C90.85 41.1405 90.7105 40.4288 90.7105 39.6635C90.7105 38.9292 90.85 38.2487 91.128 37.6213C91.4065 36.9945 91.785 36.4364 92.2649 35.9461C92.7438 35.4572 93.316 35.0743 93.9811 34.7988C94.0024 34.7897 94.0253 34.7842 94.0466 34.7757V27.2324C94.0009 27.2319 93.9578 27.2264 93.9116 27.2264C92.1487 27.2264 90.54 27.5551 89.0871 28.2131C87.6326 28.8711 86.3806 29.7664 85.3294 30.8982C84.2778 32.0299 83.4574 33.3533 82.8705 34.868C82.283 36.3822 81.9893 37.9817 81.9893 39.6635C81.9893 41.4692 82.2906 43.1365 82.8938 44.6662C83.497 46.1964 84.3392 47.5274 85.4223 48.6586C86.5044 49.7914 87.7721 50.6712 89.2261 51.298C90.6795 51.9244 92.272 52.2385 94.0045 52.2385C94.0187 52.2385 94.0324 52.2365 94.0466 52.2365V44.6893ZM101.288 27.9607V30.3014C99.6202 28.5469 97.5752 27.5496 95.1599 27.2967V34.4695C95.4764 34.4168 95.8016 34.3862 96.1385 34.3862C96.8807 34.3862 97.5838 34.5237 98.2494 34.7988C98.914 35.0743 99.4857 35.4577 99.9656 35.9461C100.445 36.4364 100.831 37.0095 101.125 37.6675C101.419 38.3255 101.566 39.0211 101.566 39.7553C101.566 40.4901 101.419 41.1781 101.125 41.8205C100.831 42.4629 100.445 43.0296 99.9656 43.5189C99.4857 44.0087 98.914 44.3907 98.2494 44.6662C97.5838 44.9417 96.8807 45.0792 96.1385 45.0792C95.8016 45.0792 95.4764 45.0486 95.1599 44.9959V52.1808C97.6827 51.9294 99.7257 50.8333 101.288 48.8885V51.5043H109.731V27.9607H101.288ZM234.761 44.0242C234.553 43.8696 234.353 43.7045 234.172 43.5188C233.692 43.03 233.306 42.4558 233.012 41.7974C232.718 41.1404 232.572 40.4142 232.572 39.6177C232.572 38.8834 232.718 38.1954 233.012 37.5525C233.306 36.9101 233.692 36.3439 234.172 35.8546C234.353 35.6694 234.553 35.5038 234.761 35.3492V27.3774C233.897 27.537 233.066 27.7598 232.27 28.0524C230.523 28.6948 229.014 29.5751 227.747 30.6918C226.478 31.8085 225.489 33.1239 224.778 34.6386C224.066 36.1527 223.711 37.7818 223.711 39.5258C223.711 41.4536 224.066 43.2051 224.778 44.781C225.489 46.3569 226.471 47.711 227.724 48.8427C228.976 49.9745 230.468 50.8467 232.2 51.4585C233.019 51.7476 233.873 51.9659 234.761 52.1185V44.0242ZM251.221 34.6385C250.509 33.0937 249.512 31.7632 248.229 30.6455C246.945 29.5288 245.429 28.6571 243.682 28.0297C241.934 27.4029 240.04 27.0887 237.999 27.0887C237.271 27.0887 236.563 27.1309 235.874 27.2102V34.7132C235.88 34.7117 235.884 34.7092 235.888 34.7072C236.553 34.4317 237.257 34.2937 237.999 34.2937C238.741 34.2937 239.444 34.4317 240.11 34.7072C240.775 34.9827 241.346 35.3652 241.826 35.8545C242.306 36.3438 242.692 36.918 242.986 37.576C243.28 38.2339 243.427 38.9295 243.427 39.6638C243.427 40.4286 243.28 41.1403 242.986 41.7978C242.692 42.4557 242.306 43.0299 241.826 43.5187C241.346 44.0085 240.775 44.391 240.11 44.666C239.444 44.9415 238.741 45.0795 237.999 45.0795C237.257 45.0795 236.553 44.9415 235.888 44.666C235.884 44.6645 235.88 44.662 235.874 44.66V52.2715C236.52 52.3392 237.18 52.3763 237.86 52.3763C239.931 52.3763 241.857 52.0697 243.636 51.4584C245.414 50.8466 246.937 49.9824 248.205 48.8657C249.473 47.749 250.47 46.418 251.197 44.8728C251.924 43.328 252.288 41.6221 252.288 39.7551C252.288 37.8896 251.931 36.1837 251.221 34.6385ZM126.988 44.6697C126.965 44.6596 126.941 44.6531 126.918 44.6431C126.253 44.3525 125.673 43.9705 125.179 43.4958C124.684 43.022 124.297 42.4634 124.019 41.8205C123.741 41.1781 123.601 40.49 123.601 39.7553C123.601 39.021 123.748 38.3254 124.042 37.6674C124.335 37.0095 124.722 36.4363 125.202 35.946C125.681 35.4577 126.246 35.0742 126.895 34.7987C126.926 34.7862 126.957 34.7771 126.988 34.7651V28.076C125.776 28.6346 124.724 29.4673 123.833 30.5769V27.9606H115.436V63.2532H123.833V49.2096C124.772 50.1677 125.826 50.8909 126.988 51.3938V44.6697ZM142.274 34.8909C141.67 33.3611 140.827 32.0301 139.745 30.8979C138.662 29.7662 137.387 28.8713 135.918 28.2129C134.449 27.5554 132.864 27.2267 131.163 27.2267C130.058 27.2267 129.04 27.3752 128.101 27.6603V34.4607C128.388 34.4151 128.68 34.386 128.983 34.386C129.755 34.386 130.475 34.5315 131.14 34.8216C131.804 35.1127 132.384 35.5031 132.879 35.992C133.374 36.4818 133.753 37.0555 134.016 37.7129C134.278 38.3719 134.41 39.067 134.41 39.8012C134.41 40.5059 134.263 41.1779 133.969 41.8208C133.675 42.4632 133.289 43.0298 132.81 43.5186C132.33 44.0085 131.766 44.3909 131.116 44.6664C130.467 44.9415 129.771 45.0795 129.029 45.0795C128.712 45.0795 128.404 45.0474 128.101 44.9947V51.8047C129.082 52.0927 130.133 52.2383 131.256 52.2383C132.956 52.2383 134.534 51.9176 135.988 51.2752C137.441 50.6323 138.701 49.7454 139.769 48.6132C140.835 47.4815 141.67 46.1656 142.274 44.6664C142.876 43.1673 143.178 41.5453 143.178 39.8012C143.178 38.0577 142.876 36.4211 142.274 34.8909ZM204.188 45.7514C202.854 44.9137 202.186 43.3745 202.186 41.1326H204.188V36.313H202.418C202.634 35.0899 203.152 34.1414 203.972 33.4679C204.042 33.4112 204.115 33.36 204.188 33.3078V27.2918C203.208 27.4403 202.283 27.6672 201.421 27.9839C199.797 28.5801 198.413 29.4298 197.269 30.5309C196.124 31.632 195.243 32.971 194.624 34.5464C194.005 36.1223 193.697 37.8894 193.697 39.8473C193.697 41.7449 194.021 43.4578 194.671 44.9875C195.32 46.5177 196.24 47.8326 197.431 48.9343C198.621 50.0359 200.052 50.8851 201.722 51.4813C202.506 51.7613 203.33 51.9696 204.188 52.1182V45.7514ZM207.289 46.5017C206.543 46.5017 205.883 46.4104 205.301 46.2382V52.2648C205.932 52.3305 206.574 52.3762 207.242 52.3762C213.799 52.3762 217.896 49.6846 219.537 44.299H211.418C210.49 45.7675 209.114 46.5017 207.289 46.5017ZM218.98 34.7301C218.392 33.0935 217.541 31.7088 216.428 30.5771C215.315 29.4453 213.954 28.5801 212.346 27.9839C210.737 27.3871 208.928 27.0885 206.918 27.0885C206.363 27.0885 205.826 27.1151 205.301 27.1593V32.7402C205.852 32.554 206.467 32.4586 207.15 32.4586C208.386 32.4586 209.438 32.8104 210.305 33.5135C211.17 34.2177 211.742 35.1512 212.021 36.313H205.301V41.1326H219.861V40.2603C219.861 38.2111 219.567 36.3672 218.98 34.7301ZM166.327 27.9607V30.3014C164.379 28.2518 161.919 27.2264 158.951 27.2264C158.756 27.2264 158.563 27.2319 158.371 27.24V35.1255C158.578 35.0055 158.791 34.8931 159.02 34.7988C159.685 34.5237 160.404 34.3862 161.177 34.3862C161.919 34.3862 162.623 34.5237 163.288 34.7988C163.952 35.0743 164.524 35.4577 165.005 35.9461C165.483 36.4364 165.87 37.0095 166.164 37.6675C166.459 38.3255 166.605 39.0211 166.605 39.7553C166.605 40.4901 166.459 41.1781 166.164 41.8205C165.87 42.4629 165.483 43.0296 165.005 43.5189C164.524 44.0087 163.952 44.3907 163.288 44.6662C162.623 44.9417 161.919 45.0792 161.177 45.0792C160.404 45.0792 159.685 44.9417 159.02 44.6662C158.791 44.5718 158.578 44.4594 158.371 44.34V52.222C158.593 52.2325 158.816 52.2385 159.043 52.2385C162.106 52.2385 164.533 51.1218 166.327 48.8885V51.5043H174.77V27.9607H166.327ZM157.258 43.4669C156.8 42.9891 156.437 42.4335 156.168 41.7977C155.889 41.1402 155.749 40.4285 155.749 39.6637C155.749 38.9294 155.889 38.2489 156.168 37.6215C156.437 37.0158 156.8 36.4752 157.258 35.9974V27.337C156.145 27.4826 155.1 27.7727 154.126 28.2128C152.672 28.8713 151.419 29.7661 150.368 30.8979C149.317 32.0301 148.497 33.3535 147.91 34.8677C147.322 36.3824 147.028 37.9814 147.028 39.6637C147.028 41.4694 147.33 43.1367 147.933 44.6664C148.536 46.1961 149.378 47.5276 150.461 48.6588C151.543 49.7916 152.811 50.6709 154.265 51.2982C155.204 51.7027 156.203 51.9747 157.258 52.1183V43.4669Z" fill="white"></path><path fill-rule="evenodd" clip-rule="evenodd" d="M180.475 51.5041H188.871V13.4117H180.475V51.5041Z" fill="white"></path><path fill-rule="evenodd" clip-rule="evenodd" d="M2.58809 38.0001C2.58809 20.8465 16.4935 6.94116 33.6471 6.94116C50.8006 6.94116 64.706 20.8465 64.706 38.0001C64.706 55.1532 50.8006 69.0591 33.6471 69.0591C16.4935 69.0591 2.58809 55.1532 2.58809 38.0001Z" stroke="white" stroke-width="0.955799"></path><path fill-rule="evenodd" clip-rule="evenodd" d="M44.393 35.1835C43.6069 35.5799 41.8767 35.489 40.8167 36.1248C40.1809 36.506 39.126 38.1487 38.7109 39.3245C38.6878 39.2945 39.2169 33.6774 39.2169 33.6774C39.2169 33.6774 46.6383 31.9172 46.6519 31.9833C47.0302 33.7982 45.5236 34.6131 44.393 35.1835ZM28.5699 39.3245C28.1554 38.1487 27.1011 36.506 26.4652 36.1248C25.4053 35.489 23.675 35.5799 22.8884 35.1835C21.7578 34.6131 20.2512 33.7982 20.6295 31.9833C20.6431 31.9172 28.065 33.6774 28.065 33.6774C28.065 33.6774 28.5936 39.2945 28.5699 39.3245ZM55.5268 60.0402C54.6391 53.6805 51.5767 48.6783 46.6027 44.5757C47.6424 42.4083 49.6838 36.3332 51.7376 29.8148C51.7388 29.8306 51.7393 29.8447 51.7404 29.8532C55.8956 30.1909 59.4261 30.2411 63.0928 32.1041C63.5095 32.3159 63.8947 32.5401 64.2595 32.7722C64.0652 31.6281 63.8077 30.5054 63.492 29.4071C59.8259 28.1856 56.0859 27.9507 52.0053 28.1574C51.6891 26.0211 50.6641 23.3923 50.0096 21.8631L50.0124 21.8693C50.0124 21.8693 52.3972 20.5699 56.375 20.2034C57.2723 20.1204 58.1567 20.0888 59.0167 20.0928C58.5508 19.4349 58.0663 18.7917 57.5524 18.1727C54.6092 18.4026 51.8534 19.0582 49.4404 20.5948C49.4404 20.5948 38.4986 22.3629 35.4142 24.4286C35.7067 21.3306 40.7004 14.1966 46.1792 9.58183C45.318 9.20122 44.4354 8.86013 43.5347 8.55801C36.665 14.9195 33.6811 24.2716 33.6523 24.2185C33.6517 24.2202 33.6466 24.2078 33.641 24.1942C33.6348 24.2078 33.6297 24.2202 33.6285 24.2185C33.6003 24.2716 30.617 14.9228 23.7501 8.56084C22.85 8.86352 21.9679 9.20517 21.1067 9.58578C26.5838 14.2 31.5753 21.3317 31.8678 24.4286C28.7828 22.3629 17.8404 20.5948 17.8404 20.5948C15.4314 19.0605 12.6801 18.4048 9.74138 18.1733C9.22749 18.7922 8.74241 19.4354 8.27765 20.0928C9.13375 20.0894 10.0136 20.121 10.9069 20.2034C14.8847 20.5699 17.2695 21.8693 17.2695 21.8693L17.2723 21.8631C16.6167 23.3923 15.5929 26.0211 15.2755 28.1574C11.2011 27.9507 7.46447 28.185 3.8029 29.4025C3.48723 30.4992 3.23029 31.6201 3.03659 32.7631C3.39631 32.5338 3.77749 32.313 4.18916 32.1041C7.85525 30.2411 11.3858 30.1909 15.5415 29.8532C15.5421 29.8447 15.5432 29.8306 15.5443 29.8148C17.5982 36.3332 19.639 42.4083 20.6787 44.5757C15.7081 48.676 12.6457 53.6748 11.7563 60.0301C12.7451 61.0127 13.8011 61.9281 14.9147 62.7712C13.6904 57.0829 15.6883 51.0563 20.3099 47.4071C20.4087 47.3027 20.5081 47.1982 20.6069 47.0943C20.6555 47.1321 20.7035 47.1705 20.7521 47.2084C20.6702 47.3416 20.5889 47.4755 20.5064 47.6087C20.2935 48.453 20.0394 49.2893 19.8739 50.1426C19.2629 53.2999 21.511 58.1485 21.511 58.1485C21.511 58.1485 26.0502 59.2513 28.4366 58.8159C29.7298 58.5799 33.2756 58.2422 33.2756 57.6306C33.2756 55.7953 33.0876 55.0657 32.358 53.5834C31.9039 52.6595 28.5366 52.1676 27.4168 51.7481C26.2873 51.3245 25.4934 49.7304 25.9344 49.1131C27.2524 49.4423 28.3818 50.7835 33.5348 50.8304C33.5726 50.8304 33.6043 50.8298 33.641 50.8298C33.6777 50.8298 33.7093 50.8304 33.7466 50.8304C38.8995 50.7835 40.029 49.4423 41.3464 49.1131C41.788 49.7304 40.9935 51.3245 39.8641 51.7481C38.7454 52.1676 35.3774 52.6595 34.9229 53.5834C34.1933 55.0657 34.0052 55.7953 34.0052 57.6306C34.0052 58.2422 37.5516 58.5799 38.8448 58.8159C41.2312 59.2513 45.7698 58.1485 45.7698 58.1485C45.7698 58.1485 48.019 53.2999 47.4074 50.1426C47.2425 49.2893 46.9879 48.453 46.775 47.6087C46.6931 47.4755 46.6118 47.3416 46.5299 47.2084C46.5779 47.1705 46.6264 47.1321 46.6744 47.0943C46.7738 47.1982 46.8732 47.3027 46.9715 47.4071C51.5964 51.0585 53.5944 57.0908 52.365 62.783C53.4798 61.9394 54.5363 61.0234 55.5268 60.0402Z" fill="white"></path><path fill-rule="evenodd" clip-rule="evenodd" d="M41.4289 65.6309C42.2455 63.7803 41.4877 59.8426 41.4408 59.9363C39.6998 60.2379 35.7005 60.6287 33.641 60.6829C31.5815 60.6287 27.5817 60.2379 25.8407 59.9363C25.7938 59.8426 25.036 63.7803 25.8531 65.6309C26.2806 66.5993 26.8967 67.5379 27.5806 68.4623C29.5424 68.8514 31.5702 69.0592 33.6472 69.0592C35.7192 69.0592 37.7419 68.852 39.6992 68.4651C40.3836 67.5401 41.0009 66.6005 41.4289 65.6309Z" fill="white"></path></g><defs><clipPath id="clip0"><rect width="252" height="76" fill="white"></rect></clipPath></defs></svg> 