<?xml version="1.0" encoding="UTF-8"?>
<svg width="160px" height="24px" viewBox="0 0 160 24" version="1.1" xmlns="http://www.w3.org/2000/svg" xmlns:xlink="http://www.w3.org/1999/xlink">
    <title>logo-ru-squiggle_dark_@x1 copy 6</title>
    <g id="Page-1" stroke="none" stroke-width="1" fill="none" fill-rule="evenodd">
        <g id="Artboard" transform="translate(-261.000000, -844.000000)">
            <g id="logo-ru-squiggle_dark_@x1-copy-4" transform="translate(261.000000, 844.000000)">
                <polygon id="Rectangle-Copy-113" fill="#FFD500" transform="translate(140.000000, 6.000000) scale(-1, 1) translate(-140.000000, -6.000000) " points="136 0 141.177546 0 144 10.7480385 139.477265 12"></polygon>
                <g id="logo-rentals-united" transform="translate(0.465961, 3.714671)" fill="#181B30" fill-rule="nonzero">
                    <rect id="Rectangle" x="115.355079" y="5.74328246" width="3.93594625" height="13.3198765"></rect>
                    <path d="M117.349711,4.53064463 C118.600628,4.53064463 119.613666,3.54221491 119.613666,2.27762642 C119.613666,1.01440504 118.601996,0.0519506626 117.349711,0.0519506626 C116.097427,0.0519506626 115.032438,1.01303792 115.032438,2.27762642 C115.032438,3.54221491 116.097427,4.53064463 117.349711,4.53064463 Z" id="Path"></path>
                    <path d="M104.60676,19.0631589 L100.642105,19.0631589 L100.642105,5.74328246 L104.60676,5.74328246 L104.60676,7.68322957 C105.320399,6.3420822 106.888488,5.45892094 108.457945,5.45892094 C111.453311,5.45892094 113.335839,7.31273932 113.335839,11.1065048 L113.335839,19.064526 C112.67962,19.064526 109.998692,19.064526 109.371183,19.064526 L109.371183,11.9623236 C109.371183,10.1932668 108.401893,9.31010558 107.060746,9.31010558 C105.663546,9.31010558 104.608128,9.99503406 104.608128,12.0197428 L104.608128,19.0631589 L104.60676,19.0631589 Z" id="Path"></path>
                    <polygon id="Path" points="129.131575 5.74328246 129.131575 8.88082906 126.643411 8.88082906 126.643411 19.0631589 122.707465 19.0631589 122.707465 8.88082906 120.283556 8.88082906 120.283556 5.74328246 122.707465 5.74328246 122.697895 2.48406195 126.633841 2.48406195 126.643411 5.74328246"></polygon>
                    <path d="M142.164355,16.6392504 C140.823208,18.6352495 138.34188,19.3488876 136.088862,19.3488876 C132.266387,19.3488876 129.12884,16.5531216 129.12884,12.3601563 C129.12884,8.16719101 132.266387,5.45755382 136.088862,5.45755382 C139.882628,5.45755382 142.905336,8.28066219 142.905336,12.4736275 C142.905336,12.8154082 142.876626,13.3581559 142.847917,13.6999366 L133.093496,13.6999366 C133.293096,15.2406839 134.976024,15.9242452 136.373224,15.9242452 C137.457352,15.9242452 138.626242,15.5250454 139.282461,14.6692266 L142.164355,16.6392504 Z M138.913338,11.219976 C138.713738,9.59446711 137.230409,8.93824821 136.117572,8.93824821 C135.004734,8.93824821 133.494063,9.53704795 133.150915,11.219976 L138.913338,11.219976 Z" id="Shape"></path>
                    <path d="M154.457523,19.0631589 L154.457523,17.4089405 C153.801304,18.6352495 152.204504,19.3488876 150.550286,19.3488876 C147.127011,19.3488876 144.104302,16.6392504 144.104302,12.4462851 C144.104302,8.16719101 147.128378,5.45755382 150.550286,5.45755382 C152.204504,5.45755382 153.801304,6.14248229 154.457523,7.36879135 L154.457523,0.637079178 L158.393469,0.637079178 L158.393469,19.0631589 L154.457523,19.0631589 L154.457523,19.0631589 Z M151.291266,9.19390016 C149.608338,9.19390016 148.211139,10.4489188 148.211139,12.3601563 C148.211139,14.328813 149.608338,15.5838317 151.291266,15.5838317 C152.945485,15.5838317 154.371394,14.2713939 154.371394,12.3601563 C154.371394,10.3641572 152.916775,9.19390016 151.291266,9.19390016 Z" id="Shape"></path>
                    <path d="M23.476231,16.6392504 C22.1350836,18.6352495 19.6537559,19.3488876 17.4007377,19.3488876 C13.5782627,19.3488876 10.4407161,16.5531216 10.4407161,12.3601563 C10.4407161,8.16719101 13.5782627,5.45755382 17.4007377,5.45755382 C21.1945032,5.45755382 24.2172115,8.28066219 24.2172115,12.4736275 C24.2172115,12.8154082 24.1885019,13.3581559 24.1597923,13.6999366 L14.4053719,13.6999366 C14.6049718,15.2406839 16.2878998,15.9242452 17.6850992,15.9242452 C18.7692275,15.9242452 19.9381175,15.5250454 20.5943363,14.6692266 L23.476231,16.6392504 Z M20.2252132,11.219976 C20.0256133,9.59446711 18.5422852,8.93824821 17.4294473,8.93824821 C16.3166094,8.93824821 14.8059388,9.53704795 14.462791,11.219976 L20.2252132,11.219976 Z" id="Shape"></path>
                    <path d="M29.203108,19.0631589 L25.2384522,19.0631589 L25.2384522,5.74328246 L29.203108,5.74328246 L29.203108,7.68322957 C29.916746,6.3420822 31.4848358,5.45892094 33.0542926,5.45892094 C36.0496585,5.45892094 37.9321864,7.31273932 37.9321864,11.1065048 L37.9321864,19.064526 C37.2759675,19.064526 34.5950399,19.064526 33.9675306,19.064526 L33.9675306,11.9623236 C33.9675306,10.1932668 32.9982406,9.31010558 31.6570932,9.31010558 C30.2598938,9.31010558 29.2044751,9.99503406 29.2044751,12.0197428 L29.2044751,19.0631589 L29.203108,19.0631589 Z" id="Path"></path>
                    <polygon id="Path" points="48.0789711 5.74328246 48.0789711 8.88082906 45.2832052 8.88082906 45.2832052 19.0631589 41.3472589 19.0631589 41.3472589 8.88082906 38.9233504 8.88082906 38.9233504 5.74328246 41.3472589 5.74328246 41.3376891 2.48406195 45.2736353 2.48406195 45.2832052 5.74328246"></polygon>
                    <path d="M58.7616679,17.5511212 C57.9058491,18.8348494 55.9098499,19.320178 54.8831408,19.320178 C51.4885751,19.320178 48.0953766,16.66796 48.0953766,12.3888659 C48.0953766,8.10977185 51.4899422,5.45755382 54.8831408,5.45755382 C55.7389596,5.45755382 57.7349587,5.74328246 58.7616679,7.22661059 L58.7616679,5.74328246 L62.6976141,5.74328246 L62.6976141,19.0631589 L58.7616679,19.0631589 L58.7616679,17.5511212 Z M55.5393597,15.5551221 C57.1648686,15.5551221 58.763035,14.3862322 58.763035,12.3888659 C58.763035,10.3928668 57.1662357,9.22260973 55.5393597,9.22260973 C53.8851412,9.22260973 52.2022132,10.4776284 52.2022132,12.3888659 C52.2022132,14.3001034 53.8851412,15.5551221 55.5393597,15.5551221 Z" id="Shape"></path>
                    <polygon id="Path" points="68.645965 0.637079178 68.645965 19.0631589 64.6813092 19.0631589 64.6813092 0.637079178"></polygon>
                    <path d="M73.9203244,13.5864654 C69.926959,12.5023371 69.8982494,10.4776284 69.926959,9.25131931 C69.9556685,7.28266262 72.3235251,5.45755382 75.1179239,5.45755382 C77.7701419,5.45755382 80.5659078,6.62644373 80.5946174,9.87882863 L76.8582711,9.87882863 C76.8295615,8.88082906 75.9737427,8.70993872 75.3462333,8.70993872 C74.4904145,8.70993872 73.9203244,9.10913855 73.9490339,9.70793829 C73.9777435,10.1071381 74.3195242,10.5063379 75.1179239,10.7059379 L77.3709421,11.3047376 C80.5946174,12.189266 80.9938172,14.328813 80.9938172,15.1832647 C80.9938172,18.0063731 78.027161,19.3475204 75.2327622,19.3475204 C72.523125,19.3475204 69.7000166,17.7220116 69.671307,14.7553553 L73.3789438,14.7553553 C73.4076534,15.5250454 74.2634722,16.2961026 75.3476005,16.2961026 C76.2321289,16.267393 76.9731094,15.8681932 76.9731094,15.1832647 C76.9731094,14.6131745 76.6313287,14.2987363 75.6606716,14.0417172 L73.9203244,13.5864654 Z" id="Path"></path>
                    <path d="M4.05215168,19.0631589 L0.0874958528,19.0631589 L0.0874958528,5.74328246 L4.05215168,5.74328246 L4.05215168,8.96695779 C4.73708015,6.48563009 6.44871777,5.45892094 7.8172076,5.45892094 C8.75778801,5.45892094 9.47142606,5.62981128 10.0989354,5.9442495 L9.38529733,9.5097055 C8.67165928,9.16792482 7.98809793,9.11050567 7.36058862,9.11050567 C5.07886083,9.11050567 4.05215168,10.9069049 4.05215168,14.4163089 L4.05215168,19.0631589 Z" id="Path"></path>
                    <path d="M94.6951209,5.74328246 L98.6597767,5.74328246 L98.6597767,19.0631589 L94.6951209,19.0631589 L94.6951209,17.2380501 C93.9814829,18.5791975 92.5268643,19.3488876 91.2445032,19.3488876 C88.2491374,19.3488876 85.9674096,17.4950692 85.9674096,13.7013037 L85.9674096,5.74328246 L89.9320654,5.74328246 L89.9320654,12.8454849 C89.9320654,14.9563223 91.386684,15.4977029 92.2999219,15.4977029 C93.526231,15.4977029 94.696488,14.8127745 94.696488,12.7880657 L94.696488,5.74328246 L94.6951209,5.74328246 Z" id="Path"></path>
                </g>
                <polygon id="Rectangle-Copy-2" fill="#005AC2" points="128 4 133.834106 4 139 14 133.834106 14"></polygon>
            </g>
        </g>
    </g>
</svg>