<svg width="150" height="22" viewBox="0 0 191 27" fill="none" xmlns="http://www.w3.org/2000/svg">
<path d="M13.1159 17.8633V21.2398L0 23.6235V27L16.3948 24.022C17.2958 23.837 18.1097 23.3443 18.7048 22.6237C19.2999 21.903 19.6413 20.9966 19.6738 20.0513V6.54544L13.1159 7.73394V17.8633Z" fill="#00033B"></path>
<path d="M3.27897 2.97466C2.37804 3.16086 1.56437 3.65436 0.969401 4.37546C0.374435 5.09656 0.0329175 6.00312 0 6.94873V20.4545L6.55794 19.2627V5.75685L19.6738 3.37645V0L3.27897 2.97466Z" fill="#00033B"></path>
<path d="M32.9044 18.2564H36.994C37.0897 21.0865 39.4653 22.7556 42.9476 22.7556C45.6435 22.7556 47.4159 21.3055 47.4159 19.1653C47.4159 16.1783 44.437 15.5503 41.2709 14.6992C37.6888 13.7572 33.7822 12.5302 33.699 7.49389C33.699 3.68878 37.0897 1.32971 42.3152 1.32971C47.3077 1.32971 50.7109 4.03582 50.8399 8.15491H46.9083C46.7835 5.63884 44.9155 4.19283 42.2195 4.19283C39.5236 4.19283 37.7221 5.48184 37.7554 7.4319C37.7845 10.043 40.0644 10.828 42.7479 11.5634C46.6462 12.5673 51.4598 13.3854 51.4598 18.9546C51.4598 22.9828 48.0732 25.627 42.8769 25.627C36.8151 25.6311 32.9044 22.7019 32.9044 18.2564Z" fill="#00033B"></path>
<path d="M53.6024 2.66027C53.5958 2.17926 53.7334 1.70716 53.9977 1.30402C54.262 0.900874 54.641 0.584892 55.0867 0.396257C55.5323 0.207623 56.0243 0.154858 56.5003 0.244668C56.9762 0.334478 57.4144 0.562813 57.7593 0.900627C58.1042 1.23844 58.3401 1.67047 58.4371 2.14179C58.534 2.61311 58.4876 3.10242 58.3038 3.54749C58.12 3.99256 57.8071 4.37331 57.4048 4.64128C57.0025 4.90926 56.529 5.05235 56.0445 5.05239C55.7234 5.06432 55.4033 5.01085 55.1037 4.89529C54.8042 4.77973 54.5317 4.60453 54.3029 4.38044C54.0741 4.15636 53.894 3.88813 53.7735 3.5923C53.653 3.29647 53.5948 2.97928 53.6024 2.66027ZM54.1099 25.1273V8.75421H58.0082V25.1149L54.1099 25.1273Z" fill="#00033B"></path>
<path d="M71.7875 16.9138C71.7875 11.7535 75.145 8.26242 79.9919 8.26242C84.4602 8.26242 87.5306 11.6296 87.5306 16.5998V17.9218H75.7566C75.948 20.9089 77.6288 23.1441 80.1958 23.1441C80.9757 23.1866 81.7445 22.9447 82.3574 22.4639C82.9704 21.983 83.3853 21.2963 83.5241 20.5329H87.2934C86.7234 23.5531 84.1273 25.6312 80.2623 25.6312C75.1117 25.6312 71.7875 22.074 71.7875 16.9138ZM83.6031 15.5628C83.5074 12.7616 82.0804 10.7496 79.9295 10.7496C77.7786 10.7496 76.0936 12.7616 75.7691 15.5628H83.6031Z" fill="#00033B"></path>
<path d="M109.36 1.84619H115.251V25.1271H111.353V6.43627L104.226 25.1271H101.63L94.5325 6.4693V25.1271H90.6051V1.84619H96.463L102.928 19.2728L109.36 1.84619Z" fill="#00033B"></path>
<path d="M118.355 2.66027C118.349 2.18024 118.487 1.70935 118.752 1.30743C119.016 0.905499 119.395 0.59068 119.84 0.402994C120.285 0.215308 120.776 0.163221 121.251 0.253346C121.725 0.343471 122.163 0.571744 122.506 0.909155C122.85 1.24656 123.085 1.67789 123.182 2.1483C123.278 2.61871 123.232 3.10697 123.048 3.55105C122.864 3.99513 122.552 4.37497 122.151 4.6423C121.749 4.90963 121.276 5.05236 120.793 5.05239C120.472 5.06375 120.153 5.00986 119.853 4.89403C119.554 4.77821 119.282 4.60291 119.054 4.37888C118.826 4.15486 118.646 3.88684 118.526 3.59129C118.406 3.29575 118.347 2.97893 118.355 2.66027ZM118.863 25.1273V8.75422H122.769V25.1397L118.863 25.1273Z" fill="#00033B"></path>
<path d="M125.894 25.1272V8.75405H129.792V11.4271C130.357 10.449 131.174 9.63869 132.16 9.08005C133.146 8.52142 134.265 8.23484 135.4 8.25002C138.883 8.25002 140.846 10.5141 140.846 15.4553V25.1147H136.952V15.4347C136.952 12.6996 135.97 10.89 133.94 10.89C131.344 10.89 129.78 13.0921 129.78 16.7402V25.1106L125.894 25.1272Z" fill="#00033B"></path>
<path d="M143.188 16.885C143.188 11.6587 145.98 8.26261 150.19 8.26261C151.27 8.27324 152.325 8.5783 153.242 9.14446C154.158 9.71061 154.9 10.5161 155.387 11.4728V0.272308H159.285V25.1273H155.387V22.4212C154.9 23.3779 154.158 24.1834 153.242 24.7495C152.325 25.3157 151.27 25.6207 150.19 25.6314C145.98 25.5653 143.188 22.1072 143.188 16.885ZM155.578 16.9139C155.578 13.2328 153.914 10.7498 151.301 10.7498C148.768 10.7498 147.141 13.2287 147.141 16.9139C147.141 20.5992 148.805 23.1442 151.301 23.1442C153.897 23.1442 155.578 20.6282 155.578 16.9139Z" fill="#00033B"></path>
<path d="M161.532 16.9138C161.532 11.7535 164.893 8.26242 169.74 8.26242C174.204 8.26242 177.279 11.6296 177.279 16.5998V17.9218H165.492C165.684 20.9089 167.365 23.1441 169.927 23.1441C170.707 23.1857 171.476 22.9435 172.088 22.4628C172.701 21.9821 173.116 21.2959 173.256 20.5329H177.025C176.455 23.5531 173.859 25.6312 169.994 25.6312C164.86 25.6312 161.532 22.074 161.532 16.9138ZM173.351 15.5628C173.256 12.7616 171.829 10.7496 169.678 10.7496C167.527 10.7496 165.842 12.7616 165.517 15.5628H173.351Z" fill="#00033B"></path>
<path d="M191 8.754H187.168C186.478 8.76878 185.804 8.96851 185.218 9.33211C184.632 9.69572 184.156 10.2097 183.84 10.8197V8.754H179.942V25.1147H183.84V12.2658H191V8.754Z" fill="#00033B"></path>
<path d="M70.2357 11.6833V8.75408H67.8892C67.4837 8.72445 67.0807 8.83792 66.7511 9.07448C66.4216 9.31105 66.1866 9.65554 66.0878 10.0472V4.40775H62.1895V21.227C62.2144 24.2678 63.8037 25.6436 67.0155 25.6436C68.0623 25.6391 69.1021 25.4747 70.0984 25.1561V22.1814C69.4351 22.3834 68.7453 22.4864 68.0515 22.4871C66.7368 22.4871 66.0379 21.9996 66.0379 20.5453L66.0836 11.6957L70.2357 11.6833Z" fill="#00033B"></path>
</svg>