<?xml version="1.0" encoding="utf-8"?>
<!-- Generator: Adobe Illustrator 22.0.0, SVG Export Plug-In . SVG Version: 6.00 Build 0)  -->
<svg version="1.1" id="Layer_1" xmlns="http://www.w3.org/2000/svg" xmlns:xlink="http://www.w3.org/1999/xlink" x="0px" y="0px"
	 viewBox="-309.3 23.5 36 36" style="enable-background:new -309.3 23.5 36 36;" xml:space="preserve">
<style type="text/css">
	.st0{fill:#FFFFFF;}
</style>
<g>
	<g>
		<path class="st0" d="M-278.3,41.5v0.3c0,7.6-5.5,13.6-13.1,13.6h-0.3l0,3.7h0.3c9.4,0,16.9-7.9,16.9-17.3v-0.4L-278.3,41.5z"/>
	</g>
	<g>
		<path class="st0" d="M-291.1,27.5l0-3.7h-0.4c-9.4,0-16.4,8.7-16.4,18v0.4l3.7,0v-0.3c0-7.6,5.2-14.3,12.9-14.3H-291.1z"/>
	</g>
	<g>
		<path class="st0" d="M-295.6,46.5c-0.9-0.9-1.3-2.3-1.3-4v-6.4h2.9v6.3c0,1.8,0.7,2.8,2,2.8c1.3,0,2-0.9,2-2.8v-6.3h2.9v6.4
			c0,1.7-0.4,3-1.3,4c-0.9,0.9-2.1,1.4-3.6,1.4C-293.5,47.9-294.7,47.4-295.6,46.5"/>
	</g>
</g>
</svg>
