<?xml version="1.0" encoding="UTF-8"?>
<svg xmlns="http://www.w3.org/2000/svg" width="14" height="15" viewBox="0 0 14 15" fill="none">
  <path d="M9.82367 5.60168C9.47666 5.99086 8.92243 6.07525 8.58989 5.79393C8.25732 5.51262 8.26695 4.96872 8.61396 4.57954C8.96099 4.19037 9.51522 4.10598 9.84777 4.3873C10.1803 4.66864 10.1707 5.21251 9.82367 5.60168Z" fill="#00809D"></path>
  <path d="M5.84225 7.05331V4.95059C5.84225 4.92556 5.8373 4.90078 5.8277 4.87765C5.81809 4.85452 5.80402 4.83352 5.78627 4.81583C5.76852 4.79813 5.74745 4.7841 5.72425 4.77453C5.70106 4.76495 5.6762 4.76002 5.65109 4.76002H4.68334C4.65823 4.76002 4.63338 4.76495 4.61018 4.77453C4.58701 4.7841 4.56591 4.79813 4.54816 4.81583C4.53041 4.83352 4.51634 4.85452 4.50674 4.87765C4.49713 4.90078 4.49219 4.92556 4.49219 4.95059V7.0528C4.94163 7.0852 5.39281 7.08537 5.84225 7.05331Z" fill="#00809D"></path>
  <path d="M10.5839 6.01718C10.6007 6.02953 10.6148 6.04518 10.6252 6.06318L10.7861 6.34094C10.8049 6.37306 10.8138 6.40999 10.8117 6.44715C10.8096 6.48428 10.7966 6.51998 10.7743 6.5498C10.5167 6.88994 10.2215 7.2001 9.89439 7.4745V11.0328C9.89439 11.0578 9.88945 11.0825 9.87985 11.1057C9.87024 11.1288 9.85617 11.1498 9.83842 11.1675C9.82067 11.1852 9.79957 11.1993 9.7764 11.2088C9.7532 11.2184 9.72835 11.2233 9.70324 11.2233H8.73549C8.6848 11.2233 8.63615 11.2033 8.60031 11.1675C8.56447 11.1318 8.54434 11.0833 8.54434 11.0328V8.31601C7.6959 8.69101 6.76793 8.85204 5.84231 8.7849V11.0328C5.84231 11.0578 5.83737 11.0826 5.82776 11.1057C5.81815 11.1288 5.80406 11.1498 5.7863 11.1675C5.76855 11.1852 5.74749 11.1993 5.72429 11.2089C5.70112 11.2184 5.67626 11.2234 5.65115 11.2234H4.68341C4.63268 11.2234 4.58407 11.2033 4.54823 11.1675C4.51239 11.1318 4.49222 11.0833 4.49222 11.0328V8.52293C4.15446 8.41334 3.82781 8.27216 3.51667 8.10128C3.49431 8.08904 3.47465 8.07246 3.45879 8.05256C3.44293 8.03262 3.43122 8.00974 3.42434 7.98527C3.41746 7.96077 3.41555 7.93515 3.41873 7.90992C3.4219 7.8847 3.43009 7.86034 3.44282 7.8383L3.59011 7.58398C3.60938 7.55088 3.6382 7.52434 3.6728 7.50779C3.7074 7.49124 3.74619 7.48544 3.78416 7.49121C6.09958 7.83519 8.46061 7.30854 10.4082 6.01365C10.4255 6.00198 10.445 5.994 10.4656 5.99016C10.4861 5.98635 10.5072 5.98677 10.5275 5.99142C10.5479 5.99607 10.5671 6.00483 10.5839 6.01718Z" fill="#00809D"></path>
  <path fill-rule="evenodd" clip-rule="evenodd" d="M8.18394 0.594961L12.6892 3.18803C13.3181 3.54999 13.6787 4.15165 13.6785 4.83866L13.677 11.5493C13.6802 11.9177 13.5729 12.2786 13.3689 12.5857C13.1648 12.8929 12.8733 13.1321 12.5317 13.2728C9.23754 14.6682 5.14645 14.6682 1.85548 13.2731C1.51411 13.1323 1.22273 12.893 1.01878 12.586C0.814818 12.2789 0.707589 11.918 0.710858 11.5498L0.709229 4.83866C0.709088 4.15159 1.06971 3.54999 1.69857 3.18803L6.20382 0.594961C6.84222 0.22759 7.54542 0.227495 8.18394 0.594961ZM12.6925 12.1395C12.8087 11.9647 12.869 11.7588 12.8654 11.5491L12.867 4.83846C12.8671 4.43689 12.6654 4.10842 12.2835 3.88865L7.7782 1.29558C7.38502 1.06924 7.00259 1.0693 6.60955 1.29558L2.10432 3.88865C1.72243 4.10842 1.52064 4.43689 1.52073 4.83846L1.52236 11.5496C1.51878 11.7592 1.57905 11.965 1.69522 12.1398C1.81138 12.3146 1.97799 12.4502 2.17303 12.5286C5.26851 13.8409 9.11613 13.8407 12.2144 12.5283C12.4095 12.4499 12.5762 12.3143 12.6925 12.1395Z" fill="#00809D"></path>
</svg>
