<?xml version="1.0" encoding="UTF-8"?>
<svg xmlns="http://www.w3.org/2000/svg" width="263" height="40" viewBox="0 0 263 40" fill="none">
  <path d="M0 22.0001C0 27.7293 4.01229 32.1428 10.2257 32.1428C12.7691 32.1513 15.2382 31.2996 17.2188 29.7306C17.7758 29.2641 17.8038 28.6889 17.3859 28.1406L16.8289 27.4005C16.3831 26.77 15.826 26.77 15.2129 27.2087C14.2934 27.8666 12.593 28.9083 10.3651 28.9083C6.10218 28.9083 3.70595 25.5913 3.70595 21.9455C3.70595 18.3545 6.01864 15.257 10.3373 15.257C11.9267 15.281 13.4751 15.7571 14.7953 16.6277C15.4641 17.0388 15.9935 16.984 16.3838 16.3534L16.8852 15.5586C17.2753 14.9556 17.2475 14.4073 16.6622 13.9686C14.7678 12.6705 12.5069 11.9894 10.198 12.0215C4.20826 12.0219 0 16.353 0 22.0001ZM20.2574 30.6624C20.2574 31.4299 20.6754 31.8136 21.4277 31.8136H22.6258C23.406 31.8136 23.7961 31.4299 23.7961 30.6624V25.3169C23.7961 22.6579 25.4121 20.6842 27.8919 20.6842C29.6751 20.6842 30.1208 21.8354 30.1208 23.5351V30.6624C30.1208 31.4299 30.5109 31.8136 31.2911 31.8136H32.4892C33.2416 31.8136 33.6595 31.4299 33.6595 30.6624V22.8224C33.6595 19.1216 31.8485 17.5043 28.6999 17.5043C26.248 17.5043 24.4649 18.9849 23.7682 20.3278H23.7125C23.7701 19.9375 23.798 19.5434 23.7961 19.149V13.5021C23.7961 12.762 23.406 12.3509 22.6258 12.3509H21.4277C20.6754 12.3509 20.2574 12.762 20.2574 13.5021V30.6624ZM36.0834 24.8234C36.0834 28.7988 39.0089 32.1426 43.7177 32.1426C45.4267 32.1372 47.0987 31.6522 48.5371 30.7447C49.15 30.3882 49.2614 29.8399 48.9272 29.2095L48.5928 28.6613C48.23 28.0307 47.7291 27.9486 47.0335 28.2776C46.1168 28.8523 45.0558 29.1654 43.9687 29.1822C41.8233 29.1822 39.9286 27.8664 39.7058 25.3445H48.3698C48.6899 25.3431 48.9969 25.2193 49.2257 24.9993C49.4546 24.7792 49.5873 24.4803 49.5958 24.1657C49.5958 20.3278 47.339 17.5045 43.2997 17.5045C39.036 17.5045 36.0825 20.5197 36.0825 24.8234H36.0834ZM39.7883 23.2337C40.1227 21.3697 41.4043 20.1361 43.2153 20.1361C44.8314 20.1361 46.0295 21.2874 46.0852 23.2337H39.7883ZM52.1593 30.6624C52.1593 31.4299 52.5773 31.8132 53.3294 31.8132H54.5275C55.3076 31.8132 55.6976 31.4296 55.6976 30.6624V25.7007H57.5364L60.8521 31.0187C60.9727 31.2704 61.1673 31.4806 61.4108 31.6223C61.6542 31.7639 61.9353 31.8304 62.2177 31.8132H63.7222C64.6694 31.8132 64.976 31.2376 64.5023 30.4425L60.323 24.1383V24.0835L63.8616 19.204C64.3909 18.4638 64.0844 17.8333 63.1371 17.8333H61.7998C61.5168 17.8138 61.2341 17.876 60.9866 18.0124C60.7391 18.1487 60.5376 18.3532 60.4067 18.6008L57.4531 22.7672H55.6976V13.5021C55.6976 12.762 55.3075 12.3509 54.5273 12.3509H53.3294C52.5771 12.3509 52.1591 12.762 52.1591 13.5021L52.1593 30.6624ZM67.0102 30.6624C67.0102 31.4299 67.4003 31.8136 68.1526 31.8136H69.3786C70.1309 31.8136 70.521 31.4299 70.521 30.6624V18.9847C70.521 18.2446 70.1309 17.8335 69.3786 17.8335H68.1524C67.4001 17.8335 67.01 18.2446 67.01 18.9847L67.0102 30.6624ZM74.0316 30.6624C74.0316 31.4299 74.4217 31.8136 75.174 31.8136H76.4C77.1523 31.8136 77.5424 31.4299 77.5424 30.6624V25.2619C77.5424 22.74 79.1308 20.684 81.6382 20.684C83.4214 20.684 83.8674 21.8352 83.8674 23.5349V30.6622C83.8674 31.4297 84.2853 31.8134 85.0376 31.8134H86.2357C87.0159 31.8134 87.406 31.4297 87.406 30.6622V22.8224C87.406 19.1216 85.595 17.5043 82.4465 17.5043C81.4081 17.4837 80.3847 17.7503 79.4931 18.2739C78.6014 18.7975 77.8773 19.5569 77.4034 20.4655H77.3476C77.3813 20.2569 77.4 20.0462 77.4034 19.8349V18.9851C77.4034 18.245 77.0133 17.8339 76.2609 17.8339H75.1742C74.4219 17.8339 74.0318 18.245 74.0318 18.9851L74.0316 30.6624Z" fill="#19194B"></path>
  <path d="M70.4533 13.4404C70.6434 13.6329 70.7496 13.89 70.7496 14.1575C70.7496 14.425 70.6434 14.682 70.4533 14.8745L69.6353 15.675C69.4384 15.8608 69.1753 15.9646 68.9016 15.9646C68.6279 15.9646 68.3648 15.8608 68.1679 15.675L64.583 12.1431C64.3929 11.9506 64.2866 11.6934 64.2866 11.4259C64.2866 11.1583 64.3929 10.9012 64.583 10.7087L65.4014 9.9089C65.5984 9.7231 65.8615 9.61926 66.1352 9.61926C66.409 9.61926 66.6721 9.7231 66.8691 9.9089L70.4533 13.4404Z" fill="#385BF8"></path>
  <path d="M73.5861 7.34557C73.783 7.15983 74.0461 7.05603 74.3198 7.05603C74.5935 7.05603 74.8566 7.15983 75.0536 7.34557L75.872 8.1454C76.0621 8.33791 76.1683 8.59502 76.1683 8.86257C76.1683 9.13012 76.0621 9.38723 75.872 9.57975L69.6623 15.6201C69.4653 15.8059 69.2022 15.9098 68.9285 15.9098C68.6547 15.9098 68.3916 15.8059 68.1946 15.6201L67.3762 14.8203C67.1861 14.6278 67.0798 14.3706 67.0798 14.1031C67.0798 13.8355 67.1861 13.5784 67.3762 13.3859L73.5861 7.34557Z" fill="#385BF8"></path>
  <path d="M111.45 26.24C111.263 26.24 111.103 26.1467 110.97 25.96C110.836 25.7467 110.756 25.56 110.73 25.4C110.73 25.32 110.756 25.12 110.81 24.8C110.89 24.4533 110.97 24.1067 111.05 23.76L111.41 22.12C111.17 22.12 110.796 22.1067 110.29 22.08C109.783 22.0533 109.25 22.0133 108.69 21.96C108.156 21.9067 107.69 21.84 107.29 21.76C106.89 21.6533 106.69 21.5333 106.69 21.4V21.36C106.69 21.1467 106.783 20.9733 106.97 20.84C107.156 20.68 107.343 20.6 107.53 20.6H111.77C111.983 19.7733 112.183 18.9467 112.37 18.12C112.583 17.2933 112.756 16.4533 112.89 15.6C113.103 15.5467 113.25 15.68 113.33 16C113.41 16.32 113.463 16.5467 113.49 16.68C113.516 16.84 113.53 17 113.53 17.16C113.53 17.32 113.53 17.48 113.53 17.64C113.53 18.12 113.503 18.6133 113.45 19.12C113.423 19.6 113.383 20.0933 113.33 20.6H115.45C115.93 20.6 116.41 20.6 116.89 20.6C117.396 20.5733 117.916 20.5333 118.45 20.48V20.72C118.476 20.88 118.236 21.04 117.73 21.2C117.25 21.36 116.69 21.4933 116.05 21.6C115.463 21.7067 114.89 21.8 114.33 21.88C113.796 21.9333 113.423 21.9733 113.21 22C113.156 22.1867 113.063 22.5067 112.93 22.96C112.823 23.4133 112.676 23.8933 112.49 24.4C112.33 24.9067 112.156 25.3467 111.97 25.72C111.783 26.0667 111.61 26.24 111.45 26.24Z" fill="#B1B5C4"></path>
  <g clip-path="url(#clip0_1489_6533)">
    <path d="M159.186 15.0922C158.195 16.2042 156.611 16.4453 155.661 15.6415C154.711 14.8378 154.738 13.2838 155.73 12.1718C156.721 11.0599 158.305 10.8188 159.255 11.6226C160.205 12.4264 160.178 13.9803 159.186 15.0922Z" fill="#00809D"></path>
    <path d="M147.81 19.2396V13.2318C147.81 13.1603 147.796 13.0895 147.769 13.0234C147.741 12.9573 147.701 12.8973 147.651 12.8468C147.6 12.7962 147.54 12.7561 147.473 12.7288C147.407 12.7014 147.336 12.6873 147.264 12.6873H144.499C144.428 12.6873 144.357 12.7014 144.29 12.7288C144.224 12.7561 144.164 12.7962 144.113 12.8468C144.062 12.8973 144.022 12.9573 143.995 13.0234C143.967 13.0895 143.953 13.1603 143.953 13.2318V19.2381C145.237 19.3307 146.526 19.3312 147.81 19.2396Z" fill="#00809D"></path>
    <path d="M161.358 16.2793C161.406 16.3146 161.446 16.3593 161.476 16.4107L161.936 17.2043C161.989 17.2961 162.015 17.4016 162.009 17.5078C162.003 17.6138 161.966 17.7158 161.902 17.801C161.166 18.7729 160.322 19.659 159.388 20.443V30.6095C159.388 30.681 159.374 30.7518 159.346 30.8178C159.319 30.8839 159.279 30.9439 159.228 30.9945C159.177 31.045 159.117 31.0852 159.051 31.1126C158.984 31.1399 158.913 31.154 158.842 31.154H156.077C155.932 31.154 155.793 31.0966 155.69 30.9945C155.588 30.8924 155.53 30.7539 155.53 30.6095V22.8474C153.106 23.9188 150.455 24.3789 147.81 24.187V30.6096C147.81 30.6811 147.796 30.7519 147.769 30.8179C147.741 30.884 147.701 30.944 147.65 30.9946C147.6 31.0451 147.539 31.0853 147.473 31.1126C147.407 31.14 147.336 31.1541 147.264 31.1541H144.499C144.354 31.1541 144.215 31.0967 144.113 30.9946C144.011 30.8925 143.953 30.754 143.953 30.6096V23.4386C142.988 23.1254 142.055 22.7221 141.166 22.2338C141.102 22.1989 141.046 22.1515 141 22.0946C140.955 22.0377 140.922 21.9723 140.902 21.9024C140.882 21.8324 140.877 21.7592 140.886 21.6871C140.895 21.615 140.918 21.5454 140.955 21.4825L141.376 20.7558C141.431 20.6613 141.513 20.5854 141.612 20.5382C141.711 20.4909 141.821 20.4743 141.93 20.4908C148.545 21.4736 155.291 19.9689 160.856 16.2692C160.905 16.2358 160.961 16.213 161.02 16.2021C161.078 16.1912 161.139 16.1924 161.197 16.2057C161.255 16.219 161.31 16.244 161.358 16.2793Z" fill="#00809D"></path>
    <path fill-rule="evenodd" clip-rule="evenodd" d="M154.501 0.787325L167.373 8.19609C169.17 9.23025 170.2 10.9493 170.2 12.9122L170.195 32.0855C170.205 33.1379 169.898 34.1692 169.315 35.0467C168.732 35.9242 167.899 36.6079 166.923 37.0098C157.511 40.9967 145.822 40.9966 136.42 37.0105C135.444 36.6083 134.612 35.9247 134.029 35.0473C133.446 34.1699 133.14 33.139 133.149 32.0868L133.145 12.9122C133.144 10.9491 134.174 9.23025 135.971 8.19609L148.843 0.787325C150.667 -0.262306 152.677 -0.262577 154.501 0.787325ZM167.382 33.7717C167.714 33.2722 167.887 32.684 167.877 32.0848L167.881 12.9116C167.881 11.7643 167.305 10.8258 166.214 10.1979L153.342 2.78908C152.218 2.14242 151.126 2.14259 150.003 2.78908L137.131 10.1979C136.039 10.8258 135.463 11.7643 135.463 12.9116L135.468 32.0863C135.458 32.6852 135.63 33.2732 135.962 33.7727C136.294 34.272 136.77 34.6593 137.327 34.8835C146.171 38.6329 157.164 38.6322 166.016 34.8825C166.574 34.6585 167.05 34.2711 167.382 33.7717Z" fill="#00809D"></path>
    <path d="M192.771 14.6239V27.6068C192.771 27.7454 192.716 27.8782 192.617 27.9762C192.519 28.0742 192.386 28.1293 192.247 28.1293H190.039C189.899 28.1293 189.766 28.0742 189.668 27.9762C189.57 27.8782 189.514 27.7454 189.514 27.6068V22.3779H182.72V27.6068C182.72 27.7454 182.665 27.8782 182.567 27.9762C182.469 28.0742 182.335 28.1293 182.196 28.1293H179.988C179.849 28.1293 179.716 28.0742 179.617 27.9762C179.519 27.8782 179.464 27.7454 179.464 27.6068V14.6239C179.464 14.4854 179.519 14.3525 179.617 14.2545C179.716 14.1565 179.849 14.1014 179.988 14.1014H182.196C182.335 14.1014 182.469 14.1565 182.567 14.2545C182.665 14.3525 182.72 14.4854 182.72 14.6239V19.6324H189.514V14.6239C189.514 14.4854 189.57 14.3525 189.668 14.2545C189.766 14.1565 189.899 14.1014 190.039 14.1014H192.247C192.386 14.1014 192.519 14.1565 192.617 14.2545C192.716 14.3525 192.771 14.4854 192.771 14.6239Z" fill="#00809D"></path>
    <path fill-rule="evenodd" clip-rule="evenodd" d="M202.961 13.8611C198.519 13.8611 195.262 16.9471 195.262 21.1153C195.262 25.2834 198.519 28.3698 202.961 28.3698C207.383 28.3698 210.66 25.3038 210.66 21.1153C210.66 16.9272 207.383 13.8611 202.961 13.8611ZM202.961 16.6266C205.474 16.6266 207.363 18.45 207.363 21.1153C207.363 23.7806 205.474 25.6044 202.961 25.6044C200.448 25.6044 198.559 23.7806 198.559 21.1153C198.559 18.45 200.448 16.6266 202.961 16.6266Z" fill="#00809D"></path>
    <path d="M213.678 14.1014H215.885C216.025 14.1014 216.158 14.1565 216.256 14.2545C216.355 14.3525 216.409 14.4854 216.409 14.6239V25.4839H223.612C223.75 25.4839 223.884 25.539 223.982 25.6369C224.08 25.7349 224.136 25.8678 224.136 26.0064V27.6067C224.136 27.7453 224.08 27.8782 223.982 27.9762C223.884 28.0742 223.75 28.1292 223.612 28.1292H213.678C213.538 28.1292 213.405 28.0742 213.307 27.9762C213.209 27.8782 213.153 27.7453 213.153 27.6067V14.6239C213.153 14.4854 213.209 14.3525 213.307 14.2545C213.405 14.1565 213.538 14.1014 213.678 14.1014Z" fill="#00809D"></path>
    <path d="M229.193 14.1014H226.984C226.846 14.1014 226.712 14.1565 226.614 14.2545C226.516 14.3525 226.46 14.4854 226.46 14.6239V27.6068C226.46 27.7454 226.516 27.8782 226.614 27.9762C226.712 28.0742 226.846 28.1293 226.984 28.1293H229.193C229.332 28.1293 229.465 28.0742 229.564 27.9762C229.661 27.8782 229.717 27.7454 229.717 27.6068V14.6239C229.717 14.4854 229.661 14.3525 229.564 14.2545C229.465 14.1565 229.332 14.1014 229.193 14.1014Z" fill="#00809D"></path>
    <path fill-rule="evenodd" clip-rule="evenodd" d="M232.975 14.6239C232.975 14.4854 233.03 14.3525 233.128 14.2545C233.227 14.1565 233.36 14.1014 233.499 14.1014H239.442C244.046 14.1014 247.044 16.867 247.044 21.1153C247.044 25.3637 244.046 28.1292 239.442 28.1292H233.499C233.36 28.1292 233.227 28.0742 233.128 27.9762C233.03 27.8782 232.975 27.7453 232.975 27.6067V14.6239ZM239.307 25.4639C242.101 25.4639 243.772 23.8006 243.772 21.1153C243.772 18.4301 242.101 16.7667 239.307 16.7667H236.231V25.4639H239.307Z" fill="#00809D"></path>
    <path d="M249.535 14.6239V21.9572C249.535 26.0854 252.188 28.3699 256.189 28.3699C260.188 28.3699 262.842 26.0854 262.842 21.9572V14.6239C262.842 14.5554 262.828 14.4874 262.802 14.424C262.775 14.3606 262.737 14.303 262.689 14.2545C262.64 14.206 262.582 14.1675 262.519 14.1412C262.455 14.115 262.387 14.1014 262.318 14.1014H260.15C260.011 14.1014 259.878 14.1565 259.78 14.2545C259.681 14.3525 259.626 14.4854 259.626 14.6239V21.8366C259.626 24.5018 258.199 25.6044 256.209 25.6044C254.239 25.6044 252.791 24.5019 252.791 21.8366V14.6239C252.791 14.4854 252.737 14.3525 252.638 14.2545C252.54 14.1565 252.407 14.1014 252.267 14.1014H250.059C249.92 14.1014 249.787 14.1565 249.689 14.2545C249.59 14.3525 249.535 14.4854 249.535 14.6239Z" fill="#00809D"></path>
  </g>
  <defs>
    <clipPath id="clip0_1489_6533">
      <rect width="130" height="40" fill="white" transform="translate(133)"></rect>
    </clipPath>
  </defs>
</svg>
