<?xml version="1.0" encoding="UTF-8"?>
<svg xmlns="http://www.w3.org/2000/svg" xmlns:xlink="http://www.w3.org/1999/xlink" version="1.1" id="Capa_1" x="0px" y="0px" viewBox="0 0 222.1 111.7" style="enable-background:new 0 0 222.1 111.7;" xml:space="preserve"> <style type="text/css"> .st0{fill:#6689CC;} </style> <g> <path class="st0" d="M157.9,86.5c-1.5-2.8-2.9-5.6-4.3-8.6c-1.4-3-2.7-6-3.9-9c-1.2-3-2.3-6.1-3.3-9.1c-1-3-1.8-6-2.6-9h4.7 c0.5,2.2,1.1,4.5,1.9,7c0.8,2.5,1.6,5.1,2.6,7.7c1,2.7,2,5.4,3.2,8.2c1.2,2.8,2.4,5.5,3.8,8.3c1-2.8,1.9-5.4,2.6-7.9 c0.8-2.5,1.5-5,2.1-7.4c0.7-2.5,1.3-5,1.9-7.5c0.6-2.6,1.3-5.3,1.9-8.3h4.4c-1.4,6.5-3.1,12.9-4.9,19.1c-1.8,6.2-3.9,11.8-6,17 c-0.9,2-1.7,3.8-2.6,5.2c-0.9,1.5-1.9,2.7-3,3.6c-1.1,0.9-2.4,1.6-3.9,2.1c-1.5,0.5-3.2,0.7-5.2,0.7c-1.1,0-2.2-0.1-3.1-0.4 c-0.9-0.3-1.5-0.5-1.7-0.6l0.9-3.7c0.2,0.1,0.7,0.3,1.5,0.6c0.8,0.2,1.7,0.4,2.6,0.4c1.3,0,2.4-0.1,3.4-0.4c1-0.3,1.9-0.7,2.7-1.4 c0.8-0.7,1.5-1.5,2.2-2.5C156.6,89.4,157.2,88.1,157.9,86.5 M125.3,50c2.3,0,4.3,0.3,5.9,1c1.6,0.7,2.9,1.6,3.9,2.7 c1,1.1,1.7,2.5,2.2,4.1c0.5,1.6,0.7,3.3,0.7,5.1V85c-0.5,0.1-1.1,0.3-2,0.4c-0.9,0.2-1.8,0.3-3,0.5c-1.1,0.2-2.4,0.3-3.8,0.4 c-1.4,0.1-2.8,0.2-4.2,0.2c-1.8,0-3.6-0.2-5.1-0.6c-1.6-0.4-2.9-1-4.1-1.9c-1.2-0.9-2.1-2-2.7-3.4c-0.7-1.4-1-3.1-1-5 c0-1.9,0.4-3.5,1.1-4.9c0.7-1.4,1.7-2.5,3-3.3c1.3-0.9,2.9-1.5,4.7-1.9c1.8-0.4,3.8-0.6,5.9-0.6c0.6,0,1.3,0,2,0.1 c0.7,0.1,1.4,0.2,2,0.3c0.7,0.1,1.2,0.2,1.7,0.3c0.5,0.1,0.8,0.2,1,0.3v-2.2c0-1.2-0.1-2.4-0.3-3.6c-0.2-1.1-0.6-2.2-1.2-3.1 c-0.6-0.9-1.5-1.7-2.6-2.2c-1.1-0.6-2.6-0.8-4.4-0.8c-2.6,0-4.5,0.2-5.8,0.5c-1.3,0.4-2.2,0.7-2.8,0.9l-0.6-3.9 c0.8-0.4,2-0.7,3.6-1C121.1,50.2,123,50,125.3,50z M125.7,82.6c1.7,0,3.2-0.1,4.5-0.2c1.3-0.1,2.4-0.3,3.3-0.4V69.7 c-0.5-0.2-1.3-0.5-2.4-0.7c-1.1-0.2-2.6-0.4-4.5-0.4c-1.1,0-2.2,0.1-3.4,0.2c-1.2,0.2-2.3,0.5-3.2,1c-1,0.5-1.8,1.2-2.4,2.1 c-0.6,0.9-0.9,2.1-0.9,3.6c0,1.3,0.2,2.4,0.6,3.3c0.4,0.9,1,1.6,1.8,2.2c0.8,0.5,1.7,0.9,2.8,1.2C123,82.5,124.3,82.6,125.7,82.6z M102,50.1c1.4,0,2.8,0.1,4.1,0.3c1.3,0.2,2.2,0.5,2.7,0.7l-0.9,3.8c-0.4-0.2-1.1-0.4-2.2-0.6c-1.1-0.2-2.6-0.3-4.4-0.3 c-1.9,0-3.4,0.1-4.6,0.4c-1.2,0.3-1.9,0.5-2.3,0.7v30.6h-4.4V52.4c1.1-0.5,2.7-1,4.7-1.5C96.8,50.4,99.2,50.1,102,50.1z M76.7,68.3 c0-4.4-1-7.9-3-10.5c-2-2.6-4.8-3.9-8.3-3.9c-3.5,0-6.2,1.3-8.3,3.9c-2,2.6-3,6.1-3,10.5c0,4.4,1,7.8,3,10.4c2,2.6,4.8,3.9,8.3,3.9 c3.5,0,6.2-1.3,8.3-3.9C75.7,76.2,76.7,72.7,76.7,68.3z M81.4,68.3c0,2.8-0.4,5.3-1.2,7.5c-0.8,2.3-1.9,4.2-3.3,5.8 c-1.4,1.6-3.1,2.8-5,3.7c-1.9,0.9-4.1,1.3-6.4,1.3c-2.3,0-4.5-0.4-6.4-1.3c-1.9-0.9-3.6-2.1-5-3.7c-1.4-1.6-2.5-3.5-3.3-5.8 c-0.8-2.3-1.2-4.8-1.2-7.5c0-2.8,0.4-5.3,1.2-7.5c0.8-2.3,1.9-4.2,3.3-5.8c1.4-1.6,3.1-2.8,5-3.7c1.9-0.9,4.1-1.3,6.4-1.3 c2.3,0,4.5,0.4,6.4,1.3c1.9,0.9,3.6,2.1,5,3.7c1.4,1.6,2.5,3.5,3.3,5.8C81,63.1,81.4,65.6,81.4,68.3z M13.8,52 c1.3-0.4,3.1-0.8,5.3-1.2c2.2-0.5,4.9-0.7,8.1-0.7c2.7,0,4.9,0.4,6.7,1.2c1.8,0.8,3.2,1.9,4.3,3.3c1.1,1.4,1.8,3.1,2.3,5.1 c0.5,2,0.7,4.2,0.7,6.6v19.6h-4.4V67.7c0-2.5-0.2-4.6-0.5-6.3c-0.3-1.7-0.9-3.1-1.7-4.2c-0.8-1.1-1.8-1.9-3.1-2.3 c-1.3-0.5-2.9-0.7-4.8-0.7c-2.1,0-3.9,0.1-5.4,0.3c-1.5,0.2-2.5,0.4-2.9,0.6v30.7h-4.4V52z"></path> <path class="st0" d="M199.4,19.3L199.4,19.3l-9.1,0c-2.4,0-4.5,0.2-6.2,0.5c-1.7,0.3-3.1,0.9-4.1,1.6c-1.1,0.8-1.8,1.8-2.3,3 c-0.5,1.3-0.7,2.8-0.7,4.7c0,2,0.1,3.8,0.3,5.2c0.2,1.5,0.4,2.4,0.6,2.9h4.1h9.1c2.4,0,4.5-0.2,6.2-0.5c1.7-0.3,3.1-0.9,4.1-1.6 c1.1-0.8,1.8-1.8,2.3-3c0.5-1.3,0.7-2.8,0.7-4.7c0-2-0.1-3.8-0.3-5.2c-0.2-1.5-0.4-2.4-0.6-2.9H199.4z M174.9,41.6 c-0.4-1.3-0.8-3-1.2-5.1c-0.4-2.2-0.7-4.8-0.7-7.9c0-2.6,0.4-4.8,1.1-6.5c0.8-1.7,1.8-3.1,3.2-4.1c1.4-1,3.1-1.8,5-2.2 c2-0.4,4.1-0.7,6.5-0.7h1.8h8.7h7.1c0.4,1.3,0.8,3,1.2,5.1c0.4,2.2,0.7,4.8,0.7,7.9c0,2.6-0.4,4.8-1.1,6.5 c-0.8,1.7-1.8,3.1-3.2,4.1c-1.4,1-3.1,1.8-5,2.2c-2,0.4-4.1,0.7-6.5,0.7h-1.8H182H174.9z"></path> </g> </svg>
