<?xml version="1.0" encoding="UTF-8"?>
<svg width="99px" height="22px" viewBox="0 0 99 22" version="1.1" xmlns="http://www.w3.org/2000/svg" xmlns:xlink="http://www.w3.org/1999/xlink">
    <!-- Generator: Sketch 47.1 (45422) - http://www.bohemiancoding.com/sketch -->
    <title>logo_avantio</title>
    <desc>Created with Sketch.</desc>
    <defs></defs>
    <g id="Symbols" stroke="none" stroke-width="1" fill="none" fill-rule="evenodd">
        <g id="header-mobile">
            <g id="logo_avantio">
                <path d="M22.5583495,17.5573092 C21.6224394,19.6528604 19.4574427,21.1309197 16.4646531,21.7174211 C11.6062342,22.6703276 5.59036456,21.1448338 2.47154882,18.1710064 C1.48942919,17.2345438 0.79849631,16.1825518 0.418870149,15.0415937 C-0.819944865,11.3330584 0.742558384,6.76437734 4.39842243,3.40390592 C7.61253163,0.448208976 11.6256909,-0.695068096 14.8705328,0.41974827 C16.6207487,1.01995292 18.1894427,1.9749677 19.5332795,3.25675354 C23.481878,7.02115615 24.6979199,12.7683212 22.5583495,17.5573092 Z M20.1996704,8.36766374 C20.1996704,5.24183502 16.919895,4.66165828 14.1972878,4.66165828 C11.129988,4.66165828 7.98309275,5.67022134 7.77216477,9.0237357 L11.5261966,9.0237357 C11.6586346,7.61166308 12.5845952,7.05657392 14.0117861,7.05657392 C15.3337342,7.05657392 16.444091,7.2836271 16.444091,8.82177011 C16.444091,10.2838071 14.3020885,10.2085443 12.0033272,10.5359478 C9.67515974,10.8395287 7.34854,11.5445109 7.34854,14.4949374 C7.34854,17.1670813 9.410947,18.4031192 12.0033272,18.4031192 C13.6677568,18.4031192 15.4135508,17.9743113 16.6032819,16.789081 C16.6295926,17.2174673 16.7348355,17.6462753 16.8677157,18.049574 L20.6756956,18.049574 C20.3321085,17.5206266 20.1996704,16.334553 20.1996704,15.1507985 L20.1996704,8.36766374 Z" id="Combined-Shape" fill="#F15F41"></path>
                <path d="M11.1456954,14.0253018 C11.1456954,15.3820932 12.2107263,15.7142857 13.4049506,15.7142857 C16.2875909,15.7142857 16.3907285,13.462521 16.3907285,12.6700076 L16.3907285,11.3142857 C15.7684291,11.851398 14.4697644,11.8762108 13.3272175,12.0817723 C12.1842362,12.3108633 11.1456954,12.6963178 11.1456954,14.0253018 L11.1456954,14.0253018 Z" id="Path" fill="#F15F41"></path>
                <polygon id="Path" fill="#F15F41" points="79.3311258 3.14285714 83.2649007 3.14285714 83.2649007 0 79.3311258 0"></polygon>
                <path d="M99,11.0122116 C99,14.984302 96.2981723,17.6 92.1028117,17.6 C87.9340447,17.6 85.2317881,14.984302 85.2317881,11.0122116 C85.2317881,7.01569797 87.9340447,4.4 92.1028117,4.4 C96.2981723,4.4 99,7.01569797 99,11.0122116 Z M95.3455196,11.0122116 C95.3455196,9.00184412 94.599611,6.99167852 92.1028117,6.99167852 C89.6323915,6.99167852 88.8864829,9.00184412 88.8864829,11.0122116 C88.8864829,12.9981559 89.6323915,15.0085233 92.1028117,15.0085233 C94.599611,15.0085233 95.3455196,12.9981559 95.3455196,11.0122116 Z" id="Combined-Shape" fill="#000000"></path>
                <polygon id="Path" fill="#000000" points="79.3311258 17.6 83.2649007 17.6 83.2649007 5.02857143 79.3311258 5.02857143"></polygon>
                <path d="M74.488877,0.628571429 L70.5631332,0.628571429 L70.5631332,4.50856567 L68.1854305,4.50856567 L68.1854305,6.88662666 L70.5631332,6.88662666 L70.5631332,14.5210368 C70.5631332,17.099147 72.6643588,17.6 75.0694788,17.6 C75.8440754,17.6 76.7004631,17.5747592 77.3642384,17.4748389 L77.3642384,14.6962624 C76.9492924,14.771359 76.5624549,14.7963913 76.1477394,14.7963913 C74.8206495,14.7963913 74.488877,14.4960046 74.488877,13.294458 L74.488877,6.88662666 L77.3642384,6.88662666 L77.3642384,4.50856567 L74.488877,4.50856567 L74.488877,0.628571429 Z" id="Path" fill="#000000"></path>
                <path d="M61.3641004,4.4 C59.8232215,4.4 58.2309729,5.0958708 57.3061031,6.5377466 L57.2292625,6.5377466 L57.2292625,4.74803898 L53.7615894,4.74803898 L53.7615894,17.6 L57.4088426,17.6 L57.4088426,10.863374 C57.4088426,8.25328876 58.2564437,7.18410471 60.2341796,7.18410471 C61.9293818,7.18410471 62.5708617,8.22822167 62.5708617,10.3413155 L62.5708617,17.6 L66.218543,17.6 L66.218543,9.69495739 C66.218543,6.51288667 65.2425175,4.4 61.3641004,4.4 L61.3641004,4.4 Z" id="Path" fill="#000000"></path>
                <path d="M50.015114,14.4756548 C50.015114,15.6140557 50.1454224,16.7522547 50.4834437,17.2609019 L46.7368056,17.2609019 C46.6069309,16.8733612 46.5026408,16.461801 46.4768393,16.050039 C45.3064485,17.188238 43.5892394,17.6 41.9498684,17.6 C39.4002899,17.6 37.3708609,16.4133584 37.3708609,13.8459012 C37.3708609,11.0122116 39.6606899,10.3338135 41.9498684,10.0433598 C44.2132454,9.72828111 46.3205125,9.80114684 46.3205125,8.39631176 C46.3205125,6.91881279 45.2279599,6.70082114 43.9270439,6.70082114 C42.5224883,6.70082114 41.6114134,7.23368962 41.4813218,8.59008211 L37.787154,8.59008211 C37.9955174,5.36885178 41.0914807,4.4 44.1091721,4.4 C46.7888423,4.4 50.015114,4.95708977 50.015114,7.96032846 L50.015114,14.4756548 Z M46.3205125,11.1331162 C45.6965065,11.6419652 44.3955905,11.6659847 43.2507844,11.8599569 C42.1059783,12.0779485 41.0650287,12.4410661 41.0650287,13.7005734 C41.0650287,14.984302 42.1317798,15.2991789 43.3288394,15.2991789 C46.2168729,15.2991789 46.3205125,13.1677049 46.3205125,12.4170467 L46.3205125,11.1331162 Z" id="Combined-Shape" fill="#000000"></path>
                <polygon id="Path" fill="#000000" points="33.0902391 5.02857143 36.7152318 5.02857143 32.2162384 17.6 28.1534954 17.6 23.602649 5.02857143 27.4337679 5.02857143 30.2361842 13.6123705 30.2878228 13.6123705"></polygon>
            </g>
        </g>
    </g>
</svg>